<?xml version="1.0" standalone="no"?>
<!DOCTYPE svg PUBLIC "-//W3C//DTD SVG 1.1//EN" "http://www.w3.org/Graphics/SVG/1.1/DTD/svg11.dtd" >
<svg xmlns="http://www.w3.org/2000/svg" xmlns:xlink="http://www.w3.org/1999/xlink" version="1.1">
<metadata>
Created by FontForge 20170910 at Thu Nov  8 00:38:53 2018
 By Jimmy Wärting
Copyright \(c\) 2018 by Russian Fonts. All rights reserved. |DCNT
</metadata>
<defs>
<font id="RFTone-Bold" horiz-adv-x="0" >
  <font-face 
    font-family="RF Tone"
    font-weight="700"
    font-stretch="normal"
    units-per-em="1000"
    panose-1="0 0 8 0 0 0 0 0 0 0"
    ascent="783"
    descent="-217"
    x-height="502"
    cap-height="700"
    bbox="-771 -241 1315 962"
    underline-thickness="50"
    underline-position="-100"
    unicode-range="U+0020-F408"
  />
<missing-glyph horiz-adv-x="600" 
 />
    <glyph glyph-name="f_b.liga" unicode="fb" horiz-adv-x="1021" 
d="M310 752h52v-121h-34c-51 0 -76 -28 -76 -83v-46h110v-101h-110v-401h-128v401h-103v101h103v73c0 117 73 177 186 177zM977 251c0 -170 -114 -265 -234 -265c-69 0 -131 32 -172 91v-77h-109v752h128v-304c39 44 93 68 153 68c120 0 234 -95 234 -265zM847 251
c0 97 -62 148 -134 148s-134 -51 -134 -148s62 -148 134 -148s134 51 134 148z" />
    <glyph glyph-name="f_f.liga" unicode="ff" horiz-adv-x="734" 
d="M564 548v-46h135v-101h-135v-401h-128v401h-184v-401h-128v401h-103v101h103v59c0 117 73 177 186 177h54v-121h-36c-51 0 -76 -27 -76 -81v-34h184v73c0 117 72 177 187 177h86v-121h-69c-51 0 -76 -28 -76 -83z" />
    <glyph glyph-name="f_f_i.liga" unicode="ffi" horiz-adv-x="977" 
d="M623 752h56v-121h-39c-51 0 -76 -28 -76 -83v-46h115v-101h-115v-401h-128v401h-184v-401h-128v401h-103v101h103v59c0 117 73 177 186 177h54v-121h-36c-51 0 -76 -28 -76 -83v-32h184v73c0 117 72 177 187 177zM757 662c0 48 34 78 81 78c45 0 80 -30 80 -78
s-35 -78 -80 -78c-47 0 -81 30 -81 78zM774 0v502h128v-502h-128z" />
    <glyph glyph-name="f_f_l.liga" unicode="ffl" horiz-adv-x="977" 
d="M623 752h52v-121h-35c-51 0 -76 -28 -76 -83v-46h111v-101h-111v-401h-128v401h-184v-401h-128v401h-103v101h103v59c0 117 73 177 186 177h54v-121h-36c-51 0 -76 -28 -76 -83v-32h184v73c0 117 72 177 187 177zM774 752h128v-752h-128v752z" />
    <glyph glyph-name="f_h.liga" unicode="fh" horiz-adv-x="981" 
d="M310 752h52v-121h-34c-51 0 -76 -28 -76 -83v-46h110v-101h-110v-401h-128v401h-103v101h103v73c0 117 73 177 186 177zM916 309v-309h-128v278c0 75 -35 117 -94 117c-65 0 -104 -54 -104 -145v-250h-128v752h128v-300c37 43 85 64 142 64c102 0 184 -70 184 -207z" />
    <glyph glyph-name="f_i.liga" unicode="fi" horiz-adv-x="665" 
d="M310 752h57v-121h-39c-51 0 -76 -28 -76 -83v-46h115v-101h-115v-401h-128v401h-103v101h103v73c0 117 73 177 186 177zM445 662c0 48 34 78 81 78c45 0 80 -30 80 -78s-35 -78 -80 -78c-47 0 -81 30 -81 78zM462 0v502h128v-502h-128z" />
    <glyph glyph-name="f_j.liga" unicode="fj" horiz-adv-x="665" 
d="M310 752h57v-121h-39c-51 0 -76 -28 -76 -83v-46h115v-101h-115v-401h-128v401h-103v101h103v73c0 117 73 177 186 177zM445 662c0 48 34 78 81 78c45 0 80 -30 80 -78s-35 -78 -80 -78c-47 0 -81 30 -81 78zM462 -16v518h128v-530c0 -119 -68 -166 -160 -166h-62v119h45
c33 0 49 20 49 59z" />
    <glyph glyph-name="f_k.liga" unicode="fk" horiz-adv-x="942" 
d="M310 752h52v-121h-34c-51 0 -76 -28 -76 -83v-46h110v-101h-110v-401h-128v401h-103v101h103v73c0 117 73 177 186 177zM932 0h-159l-183 240v-240h-128v752h128v-453l166 203h155l-199 -227z" />
    <glyph glyph-name="f_l.liga" unicode="fl" horiz-adv-x="665" 
d="M310 752h52v-121h-34c-51 0 -76 -28 -76 -83v-46h110v-101h-110v-401h-128v401h-103v101h103v73c0 117 73 177 186 177zM462 752h128v-752h-128v752z" />
    <glyph glyph-name="f_t.liga" unicode="ft" horiz-adv-x="745" 
d="M709 401h-145v-210c0 -47 29 -70 74 -70h67v-121h-91c-113 0 -178 57 -178 165v236h-184v-401h-128v401h-103v101h103v73c0 117 73 177 186 177h49v-121h-31c-51 0 -76 -28 -76 -83v-46h184v164h128v-164h145v-101z" />
    <glyph glyph-name="idieresis_idieresis.liga" unicode="&#xef;&#xef;" horiz-adv-x="714" 
d="M112 721c39 0 68 -28 68 -68s-29 -68 -68 -68s-68 28 -68 68s29 68 68 68zM357 721c39 0 68 -28 68 -68s-29 -68 -68 -68s-68 28 -68 68s29 68 68 68zM602 721c39 0 68 -28 68 -68s-29 -68 -68 -68s-68 28 -68 68s29 68 68 68zM154 502h128v-502h-128v502zM432 502h128
v-502h-128v502z" />
    <glyph glyph-name="uni04570457.liga" unicode="&#x457;&#x457;" horiz-adv-x="714" 
d="M112 721c39 0 68 -28 68 -68s-29 -68 -68 -68s-68 28 -68 68s29 68 68 68zM357 721c39 0 68 -28 68 -68s-29 -68 -68 -68s-68 28 -68 68s29 68 68 68zM602 721c39 0 68 -28 68 -68s-29 -68 -68 -68s-68 28 -68 68s29 68 68 68zM154 502h128v-502h-128v502zM432 502h128
v-502h-128v502z" />
    <glyph glyph-name=".notdef" horiz-adv-x="600" 
 />
    <glyph glyph-name="space" unicode=" " horiz-adv-x="248" 
 />
    <glyph glyph-name="A" unicode="A" horiz-adv-x="726" 
d="M556 0l-61 165h-267l-61 -165h-148l280 700h128l280 -700h-151zM268 275h187l-93 253z" />
    <glyph glyph-name="Aacute" unicode="&#xc1;" horiz-adv-x="726" 
d="M556 0l-61 165h-267l-61 -165h-148l280 700h128l280 -700h-151zM268 275h187l-93 253zM420 758h-105l79 152h138z" />
    <glyph glyph-name="Abreve" unicode="&#x102;" horiz-adv-x="726" 
d="M556 0l-61 165h-267l-61 -165h-148l280 700h128l280 -700h-151zM268 275h187l-93 253zM435 904h86v-9c0 -97 -59 -145 -158 -145c-100 0 -158 48 -158 145v9h87v-11c0 -35 26 -54 71 -54s72 19 72 54v11z" />
    <glyph glyph-name="Acircumflex" unicode="&#xc2;" horiz-adv-x="726" 
d="M556 0l-61 165h-267l-61 -165h-148l280 700h128l280 -700h-151zM268 275h187l-93 253zM531 762h-101l-68 63l-70 -63h-98l120 135h97z" />
    <glyph glyph-name="Adieresis" unicode="&#xc4;" horiz-adv-x="726" 
d="M556 0l-61 165h-267l-61 -165h-148l280 700h128l280 -700h-151zM268 275h187l-93 253zM251 900c40 0 71 -27 71 -68s-31 -68 -71 -68c-41 0 -71 27 -71 68s30 68 71 68zM474 900c40 0 70 -27 70 -68s-30 -68 -70 -68c-41 0 -71 27 -71 68s30 68 71 68z" />
    <glyph glyph-name="Agrave" unicode="&#xc0;" horiz-adv-x="726" 
d="M556 0l-61 165h-267l-61 -165h-148l280 700h128l280 -700h-151zM268 275h187l-93 253zM305 758l-111 152h137l80 -152h-106z" />
    <glyph glyph-name="Amacron" unicode="&#x100;" horiz-adv-x="726" 
d="M556 0l-61 165h-267l-61 -165h-148l280 700h128l280 -700h-151zM268 275h187l-93 253zM504 779h-282v92h282v-92z" />
    <glyph glyph-name="Aogonek" unicode="&#x104;" horiz-adv-x="726" 
d="M556 0l-61 165h-267l-61 -165h-148l280 700h128l280 -700h-151zM268 275h187l-93 253zM622 0h85c-55 -29 -84 -65 -84 -98c0 -23 13 -35 39 -35c14 0 32 5 54 14v-77c-27 -11 -53 -17 -80 -17c-63 0 -113 28 -113 87c0 47 33 89 99 126z" />
    <glyph glyph-name="Aring" unicode="&#xc5;" horiz-adv-x="726" 
d="M556 0l-61 165h-267l-61 -165h-148l280 700h128l280 -700h-151zM268 275h187l-93 253zM474 836c0 -61 -49 -98 -112 -98s-111 37 -111 98c0 60 48 97 111 97s112 -37 112 -97zM408 836c0 24 -19 41 -46 41s-46 -17 -46 -41s19 -41 46 -41s46 16 46 41z" />
    <glyph glyph-name="Atilde" unicode="&#xc3;" horiz-adv-x="726" 
d="M556 0l-61 165h-267l-61 -165h-148l280 700h128l280 -700h-151zM268 275h187l-93 253zM456 892h73c-1 -88 -45 -137 -100 -137c-45 0 -81 31 -90 38c-11 9 -23 14 -34 14c-21 0 -32 -14 -35 -42h-73c1 87 45 136 100 136c33 0 50 -11 90 -38c13 -9 25 -13 34 -13
c21 0 32 14 35 42z" />
    <glyph glyph-name="AE" unicode="&#xc6;" horiz-adv-x="969" 
d="M610 123h315v-123h-453v165h-223l-89 -165h-157l390 700h517v-123h-300v-153h282v-116h-282v-185zM309 275h163v302z" />
    <glyph glyph-name="B" unicode="B" horiz-adv-x="676" 
d="M632 198c0 -124 -92 -198 -256 -198h-291v700h265c148 0 237 -69 237 -180c0 -71 -36 -119 -108 -143c99 -24 153 -86 153 -179zM334 584h-111v-174h111c71 0 110 31 110 86c0 56 -39 88 -110 88zM489 213c0 63 -43 95 -129 95h-137v-192h137c83 0 129 32 129 97z" />
    <glyph glyph-name="C" unicode="C" horiz-adv-x="687" 
d="M421 714c80 0 151 -19 212 -56v-152h-14c-50 52 -113 78 -190 78c-135 0 -231 -93 -231 -234c0 -138 94 -234 233 -234c83 0 151 31 200 90h15v-161c-65 -39 -139 -59 -220 -59c-215 0 -371 136 -371 364c-3 220 159 366 366 364z" />
    <glyph glyph-name="Cacute" unicode="&#x106;" horiz-adv-x="687" 
d="M421 714c80 0 151 -19 212 -56v-152h-14c-50 52 -113 78 -190 78c-135 0 -231 -93 -231 -234c0 -138 94 -234 233 -234c83 0 151 31 200 90h15v-161c-65 -39 -139 -59 -220 -59c-215 0 -371 136 -371 364c-3 220 159 366 366 364zM436 758h-105l79 152h138z" />
    <glyph glyph-name="Ccaron" unicode="&#x10c;" horiz-adv-x="687" 
d="M421 714c80 0 151 -19 212 -56v-152h-14c-50 52 -113 78 -190 78c-135 0 -231 -93 -231 -234c0 -138 94 -234 233 -234c83 0 151 31 200 90h15v-161c-65 -39 -139 -59 -220 -59c-215 0 -371 136 -371 364c-3 220 159 366 366 364zM479 897h98l-120 -135h-97l-120 135h101
l68 -63z" />
    <glyph glyph-name="Ccedilla" unicode="&#xc7;" horiz-adv-x="687" 
d="M646 206v-161c-56 -33 -117 -52 -182 -57c23 -31 34 -63 34 -95c0 -68 -53 -106 -121 -106c-21 0 -46 4 -74 13v74c19 -5 34 -8 45 -8c31 0 50 17 50 50c0 23 -7 47 -21 72c-189 20 -322 151 -322 362c-3 220 159 366 366 364c80 0 151 -19 212 -56v-152h-14
c-50 52 -113 78 -190 78c-135 0 -231 -93 -231 -234c0 -138 94 -234 233 -234c83 0 151 31 200 90h15z" />
    <glyph glyph-name="Cdotaccent" unicode="&#x10a;" horiz-adv-x="687" 
d="M421 714c80 0 151 -19 212 -56v-152h-14c-50 52 -113 78 -190 78c-135 0 -231 -93 -231 -234c0 -138 94 -234 233 -234c83 0 151 31 200 90h15v-161c-65 -39 -139 -59 -220 -59c-215 0 -371 136 -371 364c-3 220 159 366 366 364zM409 925c44 0 79 -28 79 -71
s-35 -71 -79 -71s-78 28 -78 71s34 71 78 71z" />
    <glyph glyph-name="D" unicode="D" horiz-adv-x="743" 
d="M688 350c0 -225 -149 -350 -371 -350h-232v700h232c222 0 371 -125 371 -350zM545 350c0 152 -91 227 -242 227h-80v-454h80c151 0 242 75 242 227z" />
    <glyph glyph-name="Eth" unicode="&#xd0;" horiz-adv-x="769" 
d="M715 350c0 -225 -150 -350 -372 -350h-231v305h-87v111h87v284h231c222 0 372 -125 372 -350zM572 350c0 152 -91 227 -243 227h-79v-161h137v-111h-137v-182h79c152 0 243 75 243 227z" />
    <glyph glyph-name="Dcaron" unicode="&#x10e;" horiz-adv-x="743" 
d="M688 350c0 -225 -149 -350 -371 -350h-232v700h232c222 0 371 -125 371 -350zM545 350c0 152 -91 227 -242 227h-80v-454h80c151 0 242 75 242 227zM442 897h98l-120 -135h-97l-120 135h101l68 -63z" />
    <glyph glyph-name="Dcroat" unicode="&#x110;" horiz-adv-x="769" 
d="M715 350c0 -225 -150 -350 -372 -350h-231v305h-87v111h87v284h231c222 0 372 -125 372 -350zM572 350c0 152 -91 227 -243 227h-79v-161h137v-111h-137v-182h79c152 0 243 75 243 227z" />
    <glyph glyph-name="E" unicode="E" horiz-adv-x="582" 
d="M223 123h315v-123h-453v700h438v-123h-300v-153h282v-116h-282v-185z" />
    <glyph glyph-name="Eacute" unicode="&#xc9;" horiz-adv-x="582" 
d="M223 123h315v-123h-453v700h438v-123h-300v-153h282v-116h-282v-185zM333 758h-105l79 152h138z" />
    <glyph glyph-name="Ecaron" unicode="&#x11a;" horiz-adv-x="582" 
d="M223 123h315v-123h-453v700h438v-123h-300v-153h282v-116h-282v-185zM376 897h98l-120 -135h-97l-120 135h101l68 -63z" />
    <glyph glyph-name="Ecircumflex" unicode="&#xca;" horiz-adv-x="582" 
d="M223 123h315v-123h-453v700h438v-123h-300v-153h282v-116h-282v-185zM474 762h-101l-68 63l-70 -63h-98l120 135h97z" />
    <glyph glyph-name="Edieresis" unicode="&#xcb;" horiz-adv-x="582" 
d="M223 123h315v-123h-453v700h438v-123h-300v-153h282v-116h-282v-185zM195 900c40 0 71 -27 71 -68s-31 -68 -71 -68c-41 0 -71 27 -71 68s30 68 71 68zM418 900c40 0 70 -27 70 -68s-30 -68 -70 -68c-41 0 -71 27 -71 68s30 68 71 68z" />
    <glyph glyph-name="Edotaccent" unicode="&#x116;" horiz-adv-x="582" 
d="M223 123h315v-123h-453v700h438v-123h-300v-153h282v-116h-282v-185zM306 925c44 0 79 -28 79 -71s-35 -71 -79 -71s-78 28 -78 71s34 71 78 71z" />
    <glyph glyph-name="Egrave" unicode="&#xc8;" horiz-adv-x="582" 
d="M223 123h315v-123h-453v700h438v-123h-300v-153h282v-116h-282v-185zM278 758l-111 152h137l80 -152h-106z" />
    <glyph glyph-name="Emacron" unicode="&#x112;" horiz-adv-x="582" 
d="M223 123h315v-123h-453v700h438v-123h-300v-153h282v-116h-282v-185zM447 779h-282v92h282v-92z" />
    <glyph glyph-name="Eogonek" unicode="&#x118;" horiz-adv-x="582" 
d="M223 123h315v-123h-453v700h438v-123h-300v-153h282v-116h-282v-185zM431 0h85c-55 -29 -84 -65 -84 -98c0 -23 13 -35 39 -35c14 0 32 5 54 14v-77c-27 -11 -53 -17 -80 -17c-63 0 -113 28 -113 87c0 47 33 89 99 126z" />
    <glyph glyph-name="F" unicode="F" horiz-adv-x="554" 
d="M513 577h-290v-163h261v-119h-261v-295h-138v700h428v-123z" />
    <glyph glyph-name="G" unicode="G" horiz-adv-x="740" 
d="M400 400h276v-400h-214c-250 0 -407 125 -407 350c-3 222 158 366 375 364c83 0 157 -19 220 -58v-146h-14c-52 48 -124 75 -200 75c-141 0 -238 -93 -238 -235c0 -141 94 -221 271 -221h74v155h-143v116z" />
    <glyph glyph-name="Gbreve" unicode="&#x11e;" horiz-adv-x="740" 
d="M400 400h276v-400h-214c-250 0 -407 125 -407 350c-3 222 158 366 375 364c83 0 157 -19 220 -58v-146h-14c-52 48 -124 75 -200 75c-141 0 -238 -93 -238 -235c0 -141 94 -221 271 -221h74v155h-143v116zM482 904h86v-9c0 -97 -59 -145 -158 -145
c-100 0 -158 48 -158 145v9h87v-11c0 -35 26 -54 71 -54s72 19 72 54v11z" />
    <glyph glyph-name="Gcommaaccent" unicode="&#x122;" horiz-adv-x="740" 
d="M400 400h276v-400h-214c-250 0 -407 125 -407 350c-3 222 158 366 375 364c83 0 157 -19 220 -58v-146h-14c-52 48 -124 75 -200 75c-141 0 -238 -93 -238 -235c0 -141 94 -221 271 -221h74v155h-143v116zM372 -54h120l-73 -187h-93z" />
    <glyph glyph-name="Gdotaccent" unicode="&#x120;" horiz-adv-x="740" 
d="M400 400h276v-400h-214c-250 0 -407 125 -407 350c-3 222 158 366 375 364c83 0 157 -19 220 -58v-146h-14c-52 48 -124 75 -200 75c-141 0 -238 -93 -238 -235c0 -141 94 -221 271 -221h74v155h-143v116zM410 925c44 0 79 -28 79 -71s-35 -71 -79 -71s-78 28 -78 71
s34 71 78 71z" />
    <glyph glyph-name="H" unicode="H" horiz-adv-x="764" 
d="M541 700h138v-700h-138v311h-318v-311h-138v700h138v-266h318v266z" />
    <glyph glyph-name="Hbar" unicode="&#x126;" horiz-adv-x="797" 
d="M764 610v-88h-69v-522h-138v311h-317v-311h-138v522h-69v88h69v90h138v-90h317v90h138v-90h69zM557 434v88h-317v-88h317z" />
    <glyph glyph-name="I" unicode="I" horiz-adv-x="308" 
d="M85 700h138v-700h-138v700z" />
    <glyph glyph-name="Iacute" unicode="&#xcd;" horiz-adv-x="308" 
d="M85 700h138v-700h-138v700zM197 758h-105l79 152h138z" />
    <glyph glyph-name="Icircumflex" unicode="&#xce;" horiz-adv-x="308" 
d="M85 700h138v-700h-138v700zM322 762h-101l-68 63l-70 -63h-98l120 135h97z" />
    <glyph glyph-name="Idieresis" unicode="&#xcf;" horiz-adv-x="308" 
d="M54 900c41 0 71 -27 71 -68c0 -40 -30 -68 -71 -68c-40 0 -70 28 -70 68c0 41 30 68 70 68zM253 900c41 0 71 -27 71 -68c0 -40 -30 -67 -71 -67c-40 0 -70 27 -70 67c0 41 30 68 70 68zM85 700h138v-700h-138v700z" />
    <glyph glyph-name="Idot" unicode="&#x130;" horiz-adv-x="308" 
d="M85 700h138v-700h-138v700zM154 925c44 0 79 -28 79 -71s-35 -71 -79 -71s-78 28 -78 71s34 71 78 71z" />
    <glyph glyph-name="Igrave" unicode="&#xcc;" horiz-adv-x="308" 
d="M85 700h138v-700h-138v700zM110 758l-111 152h137l80 -152h-106z" />
    <glyph glyph-name="Imacron" unicode="&#x12a;" horiz-adv-x="308" 
d="M286 779h-264v92h264v-92zM85 700h138v-700h-138v700z" />
    <glyph glyph-name="Iogonek" unicode="&#x12e;" horiz-adv-x="308" 
d="M235 -119v-77c-27 -11 -53 -17 -78 -17c-60 0 -110 28 -110 91c0 47 30 88 91 122h-53v700h138v-700c-52 -28 -77 -63 -77 -96c0 -25 13 -37 39 -37c15 0 31 5 50 14z" />
    <glyph glyph-name="J" unicode="J" horiz-adv-x="421" 
d="M36 0v130h60c65 0 109 35 109 120v450h138v-474c0 -152 -93 -226 -229 -226h-78z" />
    <glyph glyph-name="K" unicode="K" horiz-adv-x="672" 
d="M663 0h-172l-268 323v-323h-138v700h138v-285l246 285h169l-293 -322z" />
    <glyph glyph-name="Kcommaaccent" unicode="&#x136;" horiz-adv-x="672" 
d="M663 0h-172l-268 323v-323h-138v700h138v-285l246 285h169l-293 -322zM298 -54h120l-73 -187h-93z" />
    <glyph glyph-name="L" unicode="L" horiz-adv-x="526" 
d="M223 123h271v-123h-409v700h138v-577z" />
    <glyph glyph-name="Lacute" unicode="&#x139;" horiz-adv-x="526" 
d="M223 123h271v-123h-409v700h138v-577zM197 758h-105l79 152h138z" />
    <glyph glyph-name="Lcaron" unicode="&#x13d;" horiz-adv-x="526" 
d="M223 123h271v-123h-409v700h138v-577zM429 700l-40 -185h-90l23 185h107z" />
    <glyph glyph-name="Lcommaaccent" unicode="&#x13b;" horiz-adv-x="526" 
d="M223 123h271v-123h-409v700h138v-577zM225 -54h120l-73 -187h-93z" />
    <glyph glyph-name="Ldot" unicode="&#x13f;" horiz-adv-x="526" 
d="M223 123h271v-123h-409v700h138v-577zM370 477c47 0 84 -33 84 -84s-39 -84 -84 -84c-47 0 -84 33 -84 84s37 84 84 84z" />
    <glyph glyph-name="Lslash" unicode="&#x141;" horiz-adv-x="532" 
d="M229 123h271v-123h-409v248l-67 -36v111l67 36v341h138v-266l152 83v-111l-152 -83v-200z" />
    <glyph glyph-name="M" unicode="M" horiz-adv-x="884" 
d="M694 700h105v-700h-136v444l-195 -264h-51l-196 262v-442h-136v700h105l253 -347z" />
    <glyph glyph-name="N" unicode="N" horiz-adv-x="777" 
d="M555 700h137v-700h-113l-358 457v-457h-136v700h112l358 -457v457z" />
    <glyph glyph-name="Nacute" unicode="&#x143;" horiz-adv-x="777" 
d="M555 700h137v-700h-113l-358 457v-457h-136v700h112l358 -457v457zM415 758h-105l79 152h138z" />
    <glyph glyph-name="Ncaron" unicode="&#x147;" horiz-adv-x="777" 
d="M555 700h137v-700h-113l-358 457v-457h-136v700h112l358 -457v457zM458 897h98l-120 -135h-97l-120 135h101l68 -63z" />
    <glyph glyph-name="Ncommaaccent" unicode="&#x145;" horiz-adv-x="777" 
d="M555 700h137v-700h-113l-358 457v-457h-136v700h112l358 -457v457zM350 -54h120l-73 -187h-93z" />
    <glyph glyph-name="Eng" unicode="&#x14a;" horiz-adv-x="777" 
d="M555 700h137v-712c0 -124 -73 -182 -188 -182h-79v127h59c47 0 71 25 71 74v24l-334 426v-457h-136v700h112l358 -457v457z" />
    <glyph glyph-name="Ntilde" unicode="&#xd1;" horiz-adv-x="777" 
d="M555 700h137v-700h-113l-358 457v-457h-136v700h112l358 -457v457zM481 892h73c-1 -88 -45 -137 -100 -137c-45 0 -81 31 -90 38c-11 9 -23 14 -34 14c-21 0 -32 -14 -35 -42h-73c1 87 45 136 100 136c33 0 50 -11 90 -38c13 -9 25 -13 34 -13c21 0 32 14 35 42z" />
    <glyph glyph-name="O" unicode="O" horiz-adv-x="846" 
d="M423 714c210 0 368 -145 368 -364s-158 -364 -368 -364s-368 145 -368 364s158 364 368 364zM423 116c127 0 225 93 225 234s-98 234 -225 234s-225 -93 -225 -234c0 -142 97 -234 225 -234z" />
    <glyph glyph-name="Oacute" unicode="&#xd3;" horiz-adv-x="846" 
d="M423 714c210 0 368 -145 368 -364s-158 -364 -368 -364s-368 145 -368 364s158 364 368 364zM423 116c127 0 225 93 225 234s-98 234 -225 234s-225 -93 -225 -234c0 -142 97 -234 225 -234zM450 758h-105l79 152h138z" />
    <glyph glyph-name="Ocircumflex" unicode="&#xd4;" horiz-adv-x="846" 
d="M423 714c210 0 368 -145 368 -364s-158 -364 -368 -364s-368 145 -368 364s158 364 368 364zM423 116c127 0 225 93 225 234s-98 234 -225 234s-225 -93 -225 -234c0 -142 97 -234 225 -234zM591 762h-101l-68 63l-70 -63h-98l120 135h97z" />
    <glyph glyph-name="Odieresis" unicode="&#xd6;" horiz-adv-x="846" 
d="M423 714c210 0 368 -145 368 -364s-158 -364 -368 -364s-368 145 -368 364s158 364 368 364zM423 116c127 0 225 93 225 234s-98 234 -225 234s-225 -93 -225 -234c0 -142 97 -234 225 -234zM311 900c40 0 71 -27 71 -68s-31 -68 -71 -68c-41 0 -71 27 -71 68
s30 68 71 68zM534 900c40 0 70 -27 70 -68s-30 -68 -70 -68c-41 0 -71 27 -71 68s30 68 71 68z" />
    <glyph glyph-name="Ograve" unicode="&#xd2;" horiz-adv-x="846" 
d="M423 714c210 0 368 -145 368 -364s-158 -364 -368 -364s-368 145 -368 364s158 364 368 364zM423 116c127 0 225 93 225 234s-98 234 -225 234s-225 -93 -225 -234c0 -142 97 -234 225 -234zM395 758l-111 152h137l80 -152h-106z" />
    <glyph glyph-name="Ohungarumlaut" unicode="&#x150;" horiz-adv-x="846" 
d="M423 714c210 0 368 -145 368 -364s-158 -364 -368 -364s-368 145 -368 364s158 364 368 364zM423 116c127 0 225 93 225 234s-98 234 -225 234s-225 -93 -225 -234c0 -142 97 -234 225 -234zM368 758h-93l78 152h116zM528 758h-98l101 152h120z" />
    <glyph glyph-name="Omacron" unicode="&#x14c;" horiz-adv-x="846" 
d="M423 714c210 0 368 -145 368 -364s-158 -364 -368 -364s-368 145 -368 364s158 364 368 364zM423 116c127 0 225 93 225 234s-98 234 -225 234s-225 -93 -225 -234c0 -142 97 -234 225 -234zM564 779h-282v92h282v-92z" />
    <glyph glyph-name="Oslash" unicode="&#xd8;" horiz-adv-x="846" 
d="M791 350c0 -219 -158 -364 -368 -364c-68 0 -129 14 -182 41l-58 -80l-69 49l57 78c-73 65 -116 160 -116 276c0 219 158 364 368 364c68 0 129 -14 182 -41l58 80l69 -49l-57 -78c73 -65 116 -160 116 -276zM254 189l270 373c-31 15 -65 22 -101 22
c-127 0 -225 -93 -225 -234c0 -65 19 -118 56 -161zM648 350c0 65 -19 118 -56 161l-270 -373c31 -15 65 -22 101 -22c127 0 225 93 225 234z" />
    <glyph glyph-name="Otilde" unicode="&#xd5;" horiz-adv-x="846" 
d="M423 714c210 0 368 -145 368 -364s-158 -364 -368 -364s-368 145 -368 364s158 364 368 364zM423 116c127 0 225 93 225 234s-98 234 -225 234s-225 -93 -225 -234c0 -142 97 -234 225 -234zM516 892h73c-1 -88 -45 -137 -100 -137c-45 0 -81 31 -90 38
c-11 9 -23 14 -34 14c-21 0 -32 -14 -35 -42h-73c1 87 45 136 100 136c33 0 50 -11 90 -38c13 -9 25 -13 34 -13c21 0 32 14 35 42z" />
    <glyph glyph-name="OE" unicode="&#x152;" horiz-adv-x="1132" 
d="M774 123h315v-123h-453v73c-58 -58 -135 -87 -230 -87c-200 -3 -353 146 -351 364c-2 218 151 367 351 364c95 0 172 -29 230 -87v73h438v-123h-300v-153h282v-116h-282v-185zM648 350c0 141 -98 234 -225 234s-225 -93 -225 -234s98 -234 225 -234s225 93 225 234z" />
    <glyph glyph-name="P" unicode="P" horiz-adv-x="653" 
d="M613 480c0 -139 -94 -214 -251 -214h-139v-266h-138v700h275c155 0 253 -77 253 -220zM470 480c0 72 -48 101 -121 101h-126v-202h130c72 0 117 33 117 101z" />
    <glyph glyph-name="Thorn" unicode="&#xde;" horiz-adv-x="653" 
d="M613 372c0 -139 -94 -215 -251 -215h-139v-157h-138v700h138v-108h137c155 0 253 -77 253 -220zM470 372c0 67 -40 100 -121 100h-126v-201h130c72 0 117 32 117 101z" />
    <glyph glyph-name="Q" unicode="Q" horiz-adv-x="846" 
d="M680 78l54 -67l-94 -72l-62 76c-47 -19 -98 -29 -155 -29c-210 0 -368 145 -368 364s158 364 368 364s368 -145 368 -364c0 -113 -40 -208 -111 -272zM489 125l-114 142l94 71l122 -150c38 42 57 96 57 162c0 141 -98 234 -225 234s-225 -93 -225 -234
c0 -142 97 -234 225 -234c24 0 46 3 66 9z" />
    <glyph glyph-name="R" unicode="R" horiz-adv-x="672" 
d="M485 0l-174 279h-88v-279h-138v700h299c152 0 236 -88 236 -206c0 -103 -66 -181 -174 -201l193 -293h-154zM223 581v-186h146c69 0 109 32 109 92c0 61 -41 94 -113 94h-142z" />
    <glyph glyph-name="Racute" unicode="&#x154;" horiz-adv-x="672" 
d="M485 0l-174 279h-88v-279h-138v700h299c152 0 236 -88 236 -206c0 -103 -66 -181 -174 -201l193 -293h-154zM223 581v-186h146c69 0 109 32 109 92c0 61 -41 94 -113 94h-142zM363 758h-105l79 152h138z" />
    <glyph glyph-name="Rcaron" unicode="&#x158;" horiz-adv-x="672" 
d="M485 0l-174 279h-88v-279h-138v700h299c152 0 236 -88 236 -206c0 -103 -66 -181 -174 -201l193 -293h-154zM223 581v-186h146c69 0 109 32 109 92c0 61 -41 94 -113 94h-142zM406 897h98l-120 -135h-97l-120 135h101l68 -63z" />
    <glyph glyph-name="Rcommaaccent" unicode="&#x156;" horiz-adv-x="672" 
d="M485 0l-174 279h-88v-279h-138v700h299c152 0 236 -88 236 -206c0 -103 -66 -181 -174 -201l193 -293h-154zM223 581v-186h146c69 0 109 32 109 92c0 61 -41 94 -113 94h-142zM298 -54h120l-73 -187h-93z" />
    <glyph glyph-name="S" unicode="S" horiz-adv-x="579" 
d="M39 39v151h14c63 -55 133 -82 211 -82c83 0 129 32 129 81c0 35 -20 62 -59 78l-139 54c-93 37 -146 107 -146 202c0 67 24 116 72 146s106 45 174 45c77 0 135 -17 194 -44v-139h-13c-56 41 -116 61 -181 61c-71 0 -103 -25 -103 -68c0 -39 27 -65 78 -86l137 -53
c87 -35 129 -108 129 -193c0 -70 -26 -122 -78 -156c-52 -33 -117 -50 -194 -50c-84 0 -159 18 -225 53z" />
    <glyph glyph-name="Sacute" unicode="&#x15a;" horiz-adv-x="579" 
d="M39 39v151h14c63 -55 133 -82 211 -82c83 0 129 32 129 81c0 35 -20 62 -59 78l-139 54c-93 37 -146 107 -146 202c0 67 24 116 72 146s106 45 174 45c77 0 135 -17 194 -44v-139h-13c-56 41 -116 61 -181 61c-71 0 -103 -25 -103 -68c0 -39 27 -65 78 -86l137 -53
c87 -35 129 -108 129 -193c0 -70 -26 -122 -78 -156c-52 -33 -117 -50 -194 -50c-84 0 -159 18 -225 53zM317 758h-105l79 152h138z" />
    <glyph glyph-name="Scaron" unicode="&#x160;" horiz-adv-x="579" 
d="M39 39v151h14c63 -55 133 -82 211 -82c83 0 129 32 129 81c0 35 -20 62 -59 78l-139 54c-93 37 -146 107 -146 202c0 67 24 116 72 146s106 45 174 45c77 0 135 -17 194 -44v-139h-13c-56 41 -116 61 -181 61c-71 0 -103 -25 -103 -68c0 -39 27 -65 78 -86l137 -53
c87 -35 129 -108 129 -193c0 -70 -26 -122 -78 -156c-52 -33 -117 -50 -194 -50c-84 0 -159 18 -225 53zM360 897h98l-120 -135h-97l-120 135h101l68 -63z" />
    <glyph glyph-name="Scedilla" unicode="&#x15e;" horiz-adv-x="579" 
d="M349 -6c25 -34 38 -68 38 -101c0 -68 -53 -106 -121 -106c-21 0 -46 4 -74 13v74c19 -5 34 -8 45 -8c31 0 50 17 50 50c0 23 -7 46 -20 70h-3c-84 0 -159 18 -225 53v151h14c63 -55 133 -82 211 -82c83 0 129 32 129 81c0 35 -20 62 -59 78l-139 54
c-93 37 -146 107 -146 202c0 67 24 116 72 146s106 45 174 45c77 0 135 -17 194 -44v-139h-13c-56 41 -116 61 -181 61c-71 0 -103 -25 -103 -68c0 -39 27 -65 78 -86l137 -53c87 -35 129 -108 129 -193c0 -113 -75 -178 -187 -198z" />
    <glyph glyph-name="Scommaaccent" unicode="&#x218;" horiz-adv-x="579" 
d="M39 39v151h14c63 -55 133 -82 211 -82c83 0 129 32 129 81c0 35 -20 62 -59 78l-139 54c-93 37 -146 107 -146 202c0 67 24 116 72 146s106 45 174 45c77 0 135 -17 194 -44v-139h-13c-56 41 -116 61 -181 61c-71 0 -103 -25 -103 -68c0 -39 27 -65 78 -86l137 -53
c87 -35 129 -108 129 -193c0 -70 -26 -122 -78 -156c-52 -33 -117 -50 -194 -50c-84 0 -159 18 -225 53zM251 -54h120l-73 -187h-93z" />
    <glyph glyph-name="uni1E9E" unicode="&#x1e9e;" horiz-adv-x="672" 
d="M634 208c0 -128 -94 -208 -257 -208h-69v119h53c83 0 130 34 130 99c0 64 -47 98 -130 98h-59v79l128 182l-121 1c-55 0 -91 -31 -91 -88v-490h-138v508c0 121 85 192 210 192h301v-85l-152 -206c124 -17 195 -89 195 -201z" />
    <glyph glyph-name="T" unicode="T" horiz-adv-x="585" 
d="M549 700v-123h-188v-577h-138v577h-187v123h513z" />
    <glyph glyph-name="Tbar" unicode="&#x166;" horiz-adv-x="585" 
d="M549 577h-188v-157h112v-111h-112v-309h-138v309h-112v111h112v157h-187v123h513v-123z" />
    <glyph glyph-name="Tcaron" unicode="&#x164;" horiz-adv-x="585" 
d="M549 700v-123h-188v-577h-138v577h-187v123h513zM362 897h98l-120 -135h-97l-120 135h101l68 -63z" />
    <glyph glyph-name="uni0162" unicode="&#x162;" horiz-adv-x="585" 
d="M549 700v-123h-188v-577h-138v577h-187v123h513zM184 -200v74c19 -5 34 -8 45 -8c31 0 50 17 50 50c0 27 -9 55 -28 84h85c29 -35 43 -71 43 -107c0 -68 -53 -106 -121 -106c-21 0 -46 4 -74 13z" />
    <glyph glyph-name="uni021A" unicode="&#x21a;" horiz-adv-x="585" 
d="M549 700v-123h-188v-577h-138v577h-187v123h513zM236 -54h120l-73 -187h-93z" />
    <glyph glyph-name="U" unicode="U" horiz-adv-x="730" 
d="M78 277v423h138v-408c0 -123 60 -176 149 -176s149 53 149 176v408h138v-423c0 -201 -127 -291 -287 -291s-287 90 -287 291z" />
    <glyph glyph-name="Uacute" unicode="&#xda;" horiz-adv-x="730" 
d="M78 277v423h138v-408c0 -123 60 -176 149 -176s149 53 149 176v408h138v-423c0 -201 -127 -291 -287 -291s-287 90 -287 291zM392 758h-105l79 152h138z" />
    <glyph glyph-name="Ucircumflex" unicode="&#xdb;" horiz-adv-x="730" 
d="M78 277v423h138v-408c0 -123 60 -176 149 -176s149 53 149 176v408h138v-423c0 -201 -127 -291 -287 -291s-287 90 -287 291zM533 762h-101l-68 63l-70 -63h-98l120 135h97z" />
    <glyph glyph-name="Udieresis" unicode="&#xdc;" horiz-adv-x="730" 
d="M78 277v423h138v-408c0 -123 60 -176 149 -176s149 53 149 176v408h138v-423c0 -201 -127 -291 -287 -291s-287 90 -287 291zM253 900c40 0 71 -27 71 -68s-31 -68 -71 -68c-41 0 -71 27 -71 68s30 68 71 68zM476 900c40 0 70 -27 70 -68s-30 -68 -70 -68
c-41 0 -71 27 -71 68s30 68 71 68z" />
    <glyph glyph-name="Ugrave" unicode="&#xd9;" horiz-adv-x="730" 
d="M78 277v423h138v-408c0 -123 60 -176 149 -176s149 53 149 176v408h138v-423c0 -201 -127 -291 -287 -291s-287 90 -287 291zM337 758l-111 152h137l80 -152h-106z" />
    <glyph glyph-name="Uhungarumlaut" unicode="&#x170;" horiz-adv-x="730" 
d="M78 277v423h138v-408c0 -123 60 -176 149 -176s149 53 149 176v408h138v-423c0 -201 -127 -291 -287 -291s-287 90 -287 291zM310 758h-93l78 152h116zM470 758h-98l101 152h120z" />
    <glyph glyph-name="Umacron" unicode="&#x16a;" horiz-adv-x="730" 
d="M78 277v423h138v-408c0 -123 60 -176 149 -176s149 53 149 176v408h138v-423c0 -201 -127 -291 -287 -291s-287 90 -287 291zM506 779h-282v92h282v-92z" />
    <glyph glyph-name="Uogonek" unicode="&#x172;" horiz-adv-x="730" 
d="M514 700h138v-423c0 -137 -60 -227 -156 -267c-65 -37 -97 -73 -97 -108c0 -24 15 -35 39 -35c15 0 33 5 54 14v-77c-27 -11 -53 -17 -80 -17c-61 0 -113 28 -113 87c0 42 25 79 76 112h-10c-160 0 -287 90 -287 291v423h138v-408c0 -123 60 -176 149 -176
s149 53 149 176v408z" />
    <glyph glyph-name="Uring" unicode="&#x16e;" horiz-adv-x="730" 
d="M78 277v423h138v-408c0 -123 60 -176 149 -176s149 53 149 176v408h138v-423c0 -201 -127 -291 -287 -291s-287 90 -287 291zM476 836c0 -61 -49 -98 -112 -98s-111 37 -111 98c0 60 48 97 111 97s112 -37 112 -97zM410 836c0 24 -19 41 -46 41s-46 -17 -46 -41
s19 -41 46 -41s46 16 46 41z" />
    <glyph glyph-name="V" unicode="V" horiz-adv-x="723" 
d="M549 700h151l-277 -700h-124l-276 700h153l186 -516z" />
    <glyph glyph-name="W" unicode="W" horiz-adv-x="1046" 
d="M870 700h150l-235 -700h-130l-133 455l-131 -455h-129l-235 700h153l147 -480l143 480h108l143 -483z" />
    <glyph glyph-name="Wacute" unicode="&#x1e82;" horiz-adv-x="1046" 
d="M870 700h150l-235 -700h-130l-133 455l-131 -455h-129l-235 700h153l147 -480l143 480h108l143 -483zM571 758h-105l79 152h138z" />
    <glyph glyph-name="Wcircumflex" unicode="&#x174;" horiz-adv-x="1046" 
d="M870 700h150l-235 -700h-130l-133 455l-131 -455h-129l-235 700h153l147 -480l143 480h108l143 -483zM692 762h-101l-68 63l-70 -63h-98l120 135h97z" />
    <glyph glyph-name="Wdieresis" unicode="&#x1e84;" horiz-adv-x="1046" 
d="M870 700h150l-235 -700h-130l-133 455l-131 -455h-129l-235 700h153l147 -480l143 480h108l143 -483zM412 900c40 0 71 -27 71 -68s-31 -68 -71 -68c-41 0 -71 27 -71 68s30 68 71 68zM635 900c40 0 70 -27 70 -68s-30 -68 -70 -68c-41 0 -71 27 -71 68s30 68 71 68z" />
    <glyph glyph-name="Wgrave" unicode="&#x1e80;" horiz-adv-x="1046" 
d="M870 700h150l-235 -700h-130l-133 455l-131 -455h-129l-235 700h153l147 -480l143 480h108l143 -483zM475 758l-111 152h137l80 -152h-106z" />
    <glyph glyph-name="X" unicode="X" horiz-adv-x="670" 
d="M650 -1h-156l-161 264l-162 -264h-150l232 362l-216 339h155l144 -235l143 235h150l-213 -334z" />
    <glyph glyph-name="Y" unicode="Y" horiz-adv-x="693" 
d="M675 700l-260 -405v-295h-138v295l-259 405h158l171 -279l173 279h155z" />
    <glyph glyph-name="Yacute" unicode="&#xdd;" horiz-adv-x="693" 
d="M675 700l-260 -405v-295h-138v295l-259 405h158l171 -279l173 279h155zM373 758h-105l79 152h138z" />
    <glyph glyph-name="Ycircumflex" unicode="&#x176;" horiz-adv-x="693" 
d="M675 700l-260 -405v-295h-138v295l-259 405h158l171 -279l173 279h155zM514 762h-101l-68 63l-70 -63h-98l120 135h97z" />
    <glyph glyph-name="Ydieresis" unicode="&#x178;" horiz-adv-x="693" 
d="M675 700l-260 -405v-295h-138v295l-259 405h158l171 -279l173 279h155zM235 900c40 0 71 -27 71 -68s-31 -68 -71 -68c-41 0 -71 27 -71 68s30 68 71 68zM458 900c40 0 70 -27 70 -68s-30 -68 -70 -68c-41 0 -71 27 -71 68s30 68 71 68z" />
    <glyph glyph-name="Ygrave" unicode="&#x1ef2;" horiz-adv-x="693" 
d="M675 700l-260 -405v-295h-138v295l-259 405h158l171 -279l173 279h155zM318 758l-111 152h137l80 -152h-106z" />
    <glyph glyph-name="Z" unicode="Z" horiz-adv-x="597" 
d="M219 123h339v-123h-522v78l326 499h-299v123h482v-78z" />
    <glyph glyph-name="Zacute" unicode="&#x179;" horiz-adv-x="597" 
d="M219 123h339v-123h-522v78l326 499h-299v123h482v-78zM326 758h-105l79 152h138z" />
    <glyph glyph-name="Zcaron" unicode="&#x17d;" horiz-adv-x="597" 
d="M219 123h339v-123h-522v78l326 499h-299v123h482v-78zM369 897h98l-120 -135h-97l-120 135h101l68 -63z" />
    <glyph glyph-name="Zdotaccent" unicode="&#x17b;" horiz-adv-x="597" 
d="M219 123h339v-123h-522v78l326 499h-299v123h482v-78zM298 925c44 0 79 -28 79 -71s-35 -71 -79 -71s-78 28 -78 71s34 71 78 71z" />
    <glyph glyph-name="a" unicode="a" horiz-adv-x="557" 
d="M492 310v-310h-110v53c-33 -41 -89 -67 -156 -67c-112 0 -190 69 -190 162c0 94 79 161 197 161c54 0 98 -13 131 -38v29c0 73 -46 106 -119 106c-47 0 -94 -13 -141 -40h-13v115c56 23 123 35 180 35c65 0 118 -16 159 -49s62 -85 62 -157zM374 155c0 37 -38 66 -105 66
s-105 -29 -105 -66s38 -67 105 -67s105 30 105 67z" />
    <glyph glyph-name="aacute" unicode="&#xe1;" horiz-adv-x="557" 
d="M492 310v-310h-110v53c-33 -41 -89 -67 -156 -67c-112 0 -190 69 -190 162c0 94 79 161 197 161c54 0 98 -13 131 -38v29c0 73 -46 106 -119 106c-47 0 -94 -13 -141 -40h-13v115c56 23 123 35 180 35c65 0 118 -16 159 -49s62 -85 62 -157zM374 155c0 37 -38 66 -105 66
s-105 -29 -105 -66s38 -67 105 -67s105 30 105 67zM319 579h-98l67 173h133z" />
    <glyph glyph-name="abreve" unicode="&#x103;" horiz-adv-x="557" 
d="M492 310v-310h-110v53c-33 -41 -89 -67 -156 -67c-112 0 -190 69 -190 162c0 94 79 161 197 161c54 0 98 -13 131 -38v29c0 73 -46 106 -119 106c-47 0 -94 -13 -141 -40h-13v115c56 23 123 35 180 35c65 0 118 -16 159 -49s62 -85 62 -157zM374 155c0 37 -38 66 -105 66
s-105 -29 -105 -66s38 -67 105 -67s105 30 105 67zM133 728v10h81v-14c0 -45 26 -70 73 -70s72 25 72 70v14h82v-10c0 -109 -57 -161 -154 -161s-154 50 -154 161z" />
    <glyph glyph-name="acircumflex" unicode="&#xe2;" horiz-adv-x="557" 
d="M492 310v-310h-110v53c-33 -41 -89 -67 -156 -67c-112 0 -190 69 -190 162c0 94 79 161 197 161c54 0 98 -13 131 -38v29c0 73 -46 106 -119 106c-47 0 -94 -13 -141 -40h-13v115c56 23 123 35 180 35c65 0 118 -16 159 -49s62 -85 62 -157zM374 155c0 37 -38 66 -105 66
s-105 -29 -105 -66s38 -67 105 -67s105 30 105 67zM450 576h-95l-70 72l-71 -72h-92l120 153h88z" />
    <glyph glyph-name="adieresis" unicode="&#xe4;" horiz-adv-x="557" 
d="M492 310v-310h-110v53c-33 -41 -89 -67 -156 -67c-112 0 -190 69 -190 162c0 94 79 161 197 161c54 0 98 -13 131 -38v29c0 73 -46 106 -119 106c-47 0 -94 -13 -141 -40h-13v115c56 23 123 35 180 35c65 0 118 -16 159 -49s62 -85 62 -157zM374 155c0 37 -38 66 -105 66
s-105 -29 -105 -66s38 -67 105 -67s105 30 105 67zM180 721c39 0 68 -28 68 -68s-29 -68 -68 -68s-68 28 -68 68s29 68 68 68zM394 721c39 0 67 -28 67 -68s-28 -68 -67 -68s-68 28 -68 68s29 68 68 68z" />
    <glyph glyph-name="agrave" unicode="&#xe0;" horiz-adv-x="557" 
d="M492 310v-310h-110v53c-33 -41 -89 -67 -156 -67c-112 0 -190 69 -190 162c0 94 79 161 197 161c54 0 98 -13 131 -38v29c0 73 -46 106 -119 106c-47 0 -94 -13 -141 -40h-13v115c56 23 123 35 180 35c65 0 118 -16 159 -49s62 -85 62 -157zM374 155c0 37 -38 66 -105 66
s-105 -29 -105 -66s38 -67 105 -67s105 30 105 67zM254 579l-101 173h132l68 -173h-99z" />
    <glyph glyph-name="amacron" unicode="&#x101;" horiz-adv-x="557" 
d="M492 310v-310h-110v53c-33 -41 -89 -67 -156 -67c-112 0 -190 69 -190 162c0 94 79 161 197 161c54 0 98 -13 131 -38v29c0 73 -46 106 -119 106c-47 0 -94 -13 -141 -40h-13v115c56 23 123 35 180 35c65 0 118 -16 159 -49s62 -85 62 -157zM374 155c0 37 -38 66 -105 66
s-105 -29 -105 -66s38 -67 105 -67s105 30 105 67zM421 602h-268v91h268v-91z" />
    <glyph glyph-name="aogonek" unicode="&#x105;" horiz-adv-x="557" 
d="M501 -119v-77c-27 -11 -53 -17 -80 -17c-63 0 -113 28 -113 87c0 47 33 89 99 126h-25v53c-33 -41 -89 -67 -156 -67c-112 0 -190 69 -190 162c0 94 79 161 197 161c54 0 98 -13 131 -38v29c0 73 -46 106 -119 106c-47 0 -94 -13 -141 -40h-13v115c56 23 123 35 180 35
c65 0 118 -16 159 -49s62 -85 62 -157v-310c-55 -29 -84 -65 -84 -98c0 -23 13 -35 39 -35c14 0 32 5 54 14zM374 155c0 37 -38 66 -105 66s-105 -29 -105 -66s38 -67 105 -67s105 30 105 67z" />
    <glyph glyph-name="aring" unicode="&#xe5;" horiz-adv-x="557" 
d="M492 310v-310h-110v53c-33 -41 -89 -67 -156 -67c-112 0 -190 69 -190 162c0 94 79 161 197 161c54 0 98 -13 131 -38v29c0 73 -46 106 -119 106c-47 0 -94 -13 -141 -40h-13v115c56 23 123 35 180 35c65 0 118 -16 159 -49s62 -85 62 -157zM374 155c0 37 -38 66 -105 66
s-105 -29 -105 -66s38 -67 105 -67s105 30 105 67zM286 757c59 0 108 -38 108 -98c0 -61 -49 -99 -108 -99s-107 38 -107 99c0 60 48 98 107 98zM286 615c24 0 44 17 44 44c0 25 -20 43 -44 43c-23 0 -43 -18 -43 -43s20 -44 43 -44z" />
    <glyph glyph-name="atilde" unicode="&#xe3;" horiz-adv-x="557" 
d="M492 310v-310h-110v53c-33 -41 -89 -67 -156 -67c-112 0 -190 69 -190 162c0 94 79 161 197 161c54 0 98 -13 131 -38v29c0 73 -46 106 -119 106c-47 0 -94 -13 -141 -40h-13v115c56 23 123 35 180 35c65 0 118 -16 159 -49s62 -85 62 -157zM374 155c0 37 -38 66 -105 66
s-105 -29 -105 -66s38 -67 105 -67s105 30 105 67zM222 731c43 0 80 -39 91 -47c11 -10 22 -15 32 -15c21 0 33 17 36 52h70c-1 -97 -44 -147 -99 -147c-43 0 -83 40 -91 48c-11 10 -22 15 -33 15c-21 0 -32 -18 -35 -53h-70c1 97 44 147 99 147z" />
    <glyph glyph-name="ae" unicode="&#xe6;" horiz-adv-x="904" 
d="M859 227h-369c11 -92 75 -132 156 -132c59 0 116 19 172 57h12v-121c-59 -30 -121 -45 -184 -45c-92 0 -166 33 -210 97c-37 -59 -118 -97 -202 -97c-114 0 -198 66 -198 162c0 95 77 161 197 161c54 0 98 -13 131 -38v29c0 73 -46 106 -119 106c-47 0 -94 -13 -141 -40
h-13v115c57 23 114 35 173 35c87 0 145 -31 173 -94c43 63 112 94 197 94c136 0 228 -80 229 -235c0 -12 -1 -30 -4 -54zM495 311h245c-8 71 -49 107 -114 107s-115 -38 -131 -107zM374 155c0 37 -38 66 -105 66s-105 -29 -105 -66s38 -67 105 -67s105 30 105 67z" />
    <glyph glyph-name="b" unicode="b" horiz-adv-x="634" 
d="M590 251c0 -170 -114 -265 -234 -265c-69 0 -131 32 -172 91v-77h-109v752h128v-304c39 44 93 68 153 68c120 0 234 -95 234 -265zM460 251c0 97 -62 148 -134 148s-134 -51 -134 -148s62 -148 134 -148s134 51 134 148z" />
    <glyph glyph-name="c" unicode="c" horiz-adv-x="520" 
d="M314 516c51 0 98 -12 143 -36v-126h-11c-43 31 -85 46 -126 46c-84 0 -147 -57 -147 -149s63 -149 151 -149c48 0 91 16 129 49h12v-129c-45 -24 -94 -36 -147 -36c-157 0 -274 97 -274 265c0 165 117 265 270 265z" />
    <glyph glyph-name="cacute" unicode="&#x107;" horiz-adv-x="520" 
d="M314 516c51 0 98 -12 143 -36v-126h-11c-43 31 -85 46 -126 46c-84 0 -147 -57 -147 -149s63 -149 151 -149c48 0 91 16 129 49h12v-129c-45 -24 -94 -36 -147 -36c-157 0 -274 97 -274 265c0 165 117 265 270 265zM315 579h-98l67 173h133z" />
    <glyph glyph-name="ccaron" unicode="&#x10d;" horiz-adv-x="520" 
d="M314 516c51 0 98 -12 143 -36v-126h-11c-43 31 -85 46 -126 46c-84 0 -147 -57 -147 -149s63 -149 151 -149c48 0 91 16 129 49h12v-129c-45 -24 -94 -36 -147 -36c-157 0 -274 97 -274 265c0 165 117 265 270 265zM354 729h92l-120 -153h-88l-120 153h96l69 -73z" />
    <glyph glyph-name="ccedilla" unicode="&#xe7;" horiz-adv-x="520" 
d="M465 151v-129c-35 -19 -75 -31 -118 -35c22 -32 33 -63 33 -94c0 -68 -53 -106 -121 -106c-21 0 -46 4 -74 13v74c19 -5 34 -8 45 -8c31 0 50 17 50 50c0 25 -8 50 -23 75c-128 23 -213 117 -213 260c0 165 117 265 270 265c51 0 98 -12 143 -36v-126h-11
c-43 31 -85 46 -126 46c-84 0 -147 -57 -147 -149s63 -149 151 -149c48 0 91 16 129 49h12z" />
    <glyph glyph-name="cdotaccent" unicode="&#x10b;" horiz-adv-x="520" 
d="M314 516c51 0 98 -12 143 -36v-126h-11c-43 31 -85 46 -126 46c-84 0 -147 -57 -147 -149s63 -149 151 -149c48 0 91 16 129 49h12v-129c-45 -24 -94 -36 -147 -36c-157 0 -274 97 -274 265c0 165 117 265 270 265zM282 730c44 0 76 -28 76 -73c0 -44 -32 -72 -76 -72
c-43 0 -75 28 -75 72s32 73 75 73z" />
    <glyph glyph-name="d" unicode="d" horiz-adv-x="634" 
d="M431 752h128v-752h-110v77c-40 -59 -103 -91 -172 -91c-120 0 -233 95 -233 265s114 265 234 265c59 0 113 -24 153 -68v304zM441 251c0 97 -61 148 -134 148c-72 0 -134 -51 -134 -148s62 -148 134 -148c73 0 134 51 134 148z" />
    <glyph glyph-name="eth" unicode="&#xf0;" horiz-adv-x="621" 
d="M571 321c0 -232 -120 -335 -270 -335c-152 0 -257 102 -257 262c0 154 97 251 238 251c75 0 132 -27 169 -80c-18 68 -53 128 -104 179l-128 -37l-23 70l84 24c-40 29 -94 62 -162 97l193 1c33 -17 64 -38 94 -62l93 27l23 -70l-57 -16c71 -85 107 -188 107 -311z
M438 247c0 91 -57 145 -132 145s-133 -54 -133 -145c0 -89 58 -145 133 -145s132 56 132 145z" />
    <glyph glyph-name="dcaron" unicode="&#x10f;" horiz-adv-x="721" 
d="M431 448v304h128v-752h-110v77c-40 -59 -103 -91 -172 -91c-120 0 -233 95 -233 265s114 265 234 265c59 0 113 -24 153 -68zM625 752h109l-33 -192h-89zM441 251c0 97 -61 148 -134 148c-72 0 -134 -51 -134 -148s62 -148 134 -148c73 0 134 51 134 148z" />
    <glyph glyph-name="dslash" unicode="&#x111;" horiz-adv-x="634" 
d="M634 669v-86h-75v-583h-110v77c-40 -59 -103 -91 -172 -91c-120 0 -233 95 -233 265s114 265 234 265c59 0 113 -24 153 -68v135h-160v86h160v83h128v-83h75zM441 251c0 97 -61 148 -134 148c-72 0 -134 -51 -134 -148s62 -148 134 -148c73 0 134 51 134 148z" />
    <glyph glyph-name="e" unicode="e" horiz-adv-x="584" 
d="M539 227h-369c11 -92 73 -132 156 -132c59 0 116 19 172 57h12v-121c-63 -32 -131 -45 -190 -45c-153 0 -276 91 -276 265s120 265 264 265c137 0 234 -80 235 -235c0 -12 -1 -30 -4 -54zM174 311h245c-7 71 -48 107 -113 107s-116 -38 -132 -107z" />
    <glyph glyph-name="eacute" unicode="&#xe9;" horiz-adv-x="584" 
d="M539 227h-369c11 -92 73 -132 156 -132c59 0 116 19 172 57h12v-121c-63 -32 -131 -45 -190 -45c-153 0 -276 91 -276 265s120 265 264 265c137 0 234 -80 235 -235c0 -12 -1 -30 -4 -54zM174 311h245c-7 71 -48 107 -113 107s-116 -38 -132 -107zM327 579h-98l67 173
h133z" />
    <glyph glyph-name="ecaron" unicode="&#x11b;" horiz-adv-x="584" 
d="M539 227h-369c11 -92 73 -132 156 -132c59 0 116 19 172 57h12v-121c-63 -32 -131 -45 -190 -45c-153 0 -276 91 -276 265s120 265 264 265c137 0 234 -80 235 -235c0 -12 -1 -30 -4 -54zM174 311h245c-7 71 -48 107 -113 107s-116 -38 -132 -107zM367 729h92l-120 -153
h-88l-120 153h96l69 -73z" />
    <glyph glyph-name="ecircumflex" unicode="&#xea;" horiz-adv-x="584" 
d="M539 227h-369c11 -92 73 -132 156 -132c59 0 116 19 172 57h12v-121c-63 -32 -131 -45 -190 -45c-153 0 -276 91 -276 265s120 265 264 265c137 0 234 -80 235 -235c0 -12 -1 -30 -4 -54zM174 311h245c-7 71 -48 107 -113 107s-116 -38 -132 -107zM459 576h-95l-70 72
l-71 -72h-92l120 153h88z" />
    <glyph glyph-name="edieresis" unicode="&#xeb;" horiz-adv-x="584" 
d="M539 227h-369c11 -92 73 -132 156 -132c59 0 116 19 172 57h12v-121c-63 -32 -131 -45 -190 -45c-153 0 -276 91 -276 265s120 265 264 265c137 0 234 -80 235 -235c0 -12 -1 -30 -4 -54zM174 311h245c-7 71 -48 107 -113 107s-116 -38 -132 -107zM188 721
c39 0 68 -28 68 -68s-29 -68 -68 -68s-68 28 -68 68s29 68 68 68zM402 721c39 0 67 -28 67 -68s-28 -68 -67 -68s-68 28 -68 68s29 68 68 68z" />
    <glyph glyph-name="edotaccent" unicode="&#x117;" horiz-adv-x="584" 
d="M539 227h-369c11 -92 73 -132 156 -132c59 0 116 19 172 57h12v-121c-63 -32 -131 -45 -190 -45c-153 0 -276 91 -276 265s120 265 264 265c137 0 234 -80 235 -235c0 -12 -1 -30 -4 -54zM174 311h245c-7 71 -48 107 -113 107s-116 -38 -132 -107zM295 730
c44 0 76 -28 76 -73c0 -44 -32 -72 -76 -72c-43 0 -75 28 -75 72s32 73 75 73z" />
    <glyph glyph-name="egrave" unicode="&#xe8;" horiz-adv-x="584" 
d="M539 227h-369c11 -92 73 -132 156 -132c59 0 116 19 172 57h12v-121c-63 -32 -131 -45 -190 -45c-153 0 -276 91 -276 265s120 265 264 265c137 0 234 -80 235 -235c0 -12 -1 -30 -4 -54zM174 311h245c-7 71 -48 107 -113 107s-116 -38 -132 -107zM263 579l-101 173h132
l68 -173h-99z" />
    <glyph glyph-name="emacron" unicode="&#x113;" horiz-adv-x="584" 
d="M539 227h-369c11 -92 73 -132 156 -132c59 0 116 19 172 57h12v-121c-63 -32 -131 -45 -190 -45c-153 0 -276 91 -276 265s120 265 264 265c137 0 234 -80 235 -235c0 -12 -1 -30 -4 -54zM174 311h245c-7 71 -48 107 -113 107s-116 -38 -132 -107zM430 602h-268v91h268
v-91z" />
    <glyph glyph-name="eogonek" unicode="&#x119;" horiz-adv-x="584" 
d="M539 227h-369c11 -92 73 -132 156 -132c59 0 116 19 172 57h12v-121c-84 -59 -114 -96 -114 -129c0 -23 13 -35 39 -35c14 0 32 5 54 14v-77c-27 -11 -53 -17 -80 -17c-63 0 -113 28 -113 87c0 42 26 81 79 116c-18 -3 -36 -4 -55 -4c-153 0 -276 91 -276 265
s120 265 264 265c137 0 234 -80 235 -235c0 -12 -1 -30 -4 -54zM174 311h245c-7 71 -48 107 -113 107s-116 -38 -132 -107z" />
    <glyph glyph-name="f" unicode="f" horiz-adv-x="422" 
d="M252 548v-46h134v-101h-134v-401h-128v401h-103v101h103v73c0 117 73 177 186 177h87v-121h-69c-51 0 -76 -28 -76 -83z" />
    <glyph glyph-name="g" unicode="g" horiz-adv-x="634" 
d="M449 502h110v-461c0 -170 -123 -249 -275 -249c-67 0 -127 13 -181 38v128h12c51 -34 106 -51 163 -51c93 0 153 47 153 139v23c-39 -41 -94 -65 -155 -65c-120 0 -232 88 -232 252c0 166 114 260 234 260c69 0 131 -33 171 -90v76zM441 256c0 95 -62 143 -134 143
s-134 -50 -134 -143s62 -143 134 -143s134 48 134 143z" />
    <glyph glyph-name="gbreve" unicode="&#x11f;" horiz-adv-x="634" 
d="M449 502h110v-461c0 -170 -123 -249 -275 -249c-67 0 -127 13 -181 38v128h12c51 -34 106 -51 163 -51c93 0 153 47 153 139v23c-39 -41 -94 -65 -155 -65c-120 0 -232 88 -232 252c0 166 114 260 234 260c69 0 131 -33 171 -90v76zM441 256c0 95 -62 143 -134 143
s-134 -50 -134 -143s62 -143 134 -143s134 48 134 143zM163 728v10h81v-14c0 -45 26 -70 73 -70s72 25 72 70v14h82v-10c0 -109 -57 -161 -154 -161s-154 50 -154 161z" />
    <glyph glyph-name="gcommaaccent" unicode="&#x123;" horiz-adv-x="634" 
d="M449 502h110v-461c0 -170 -123 -249 -275 -249c-67 0 -127 13 -181 38v128h12c51 -34 106 -51 163 -51c93 0 153 47 153 139v23c-39 -41 -94 -65 -155 -65c-120 0 -232 88 -232 252c0 166 114 260 234 260c69 0 131 -33 171 -90v76zM441 256c0 95 -62 143 -134 143
s-134 -50 -134 -143s62 -143 134 -143s134 48 134 143zM354 570h-121l73 188h93z" />
    <glyph glyph-name="gdotaccent" unicode="&#x121;" horiz-adv-x="634" 
d="M449 502h110v-461c0 -170 -123 -249 -275 -249c-67 0 -127 13 -181 38v128h12c51 -34 106 -51 163 -51c93 0 153 47 153 139v23c-39 -41 -94 -65 -155 -65c-120 0 -232 88 -232 252c0 166 114 260 234 260c69 0 131 -33 171 -90v76zM441 256c0 95 -62 143 -134 143
s-134 -50 -134 -143s62 -143 134 -143s134 48 134 143zM316 730c44 0 76 -28 76 -73c0 -44 -32 -72 -76 -72c-43 0 -75 28 -75 72s32 73 75 73z" />
    <glyph glyph-name="h" unicode="h" horiz-adv-x="594" 
d="M529 309v-309h-128v278c0 75 -35 117 -94 117c-65 0 -104 -54 -104 -145v-250h-128v752h128v-300c37 43 85 64 142 64c102 0 184 -70 184 -207z" />
    <glyph glyph-name="hbar" unicode="&#x127;" horiz-adv-x="594" 
d="M529 309v-309h-128v278c0 75 -35 117 -94 117c-65 0 -104 -54 -104 -145v-250h-128v583h-76v86h76v83h128v-83h159v-86h-159v-131c37 43 85 64 142 64c102 0 184 -70 184 -207z" />
    <glyph glyph-name="i" unicode="i" horiz-adv-x="278" 
d="M139 740c45 0 80 -30 80 -78s-35 -78 -80 -78c-47 0 -81 30 -81 78s34 78 81 78zM75 502h128v-502h-128v502z" />
    <glyph glyph-name="dotlessi" unicode="&#x131;" horiz-adv-x="278" 
d="M75 502h128v-502h-128v502z" />
    <glyph glyph-name="iacute" unicode="&#xed;" horiz-adv-x="278" 
d="M75 502h128v-502h-128v502zM182 579h-98l67 173h133z" />
    <glyph glyph-name="icircumflex" unicode="&#xee;" horiz-adv-x="278" 
d="M137 646l-57 -70h-89l103 153h88l105 -153h-92zM75 0v502h128v-502h-128z" />
    <glyph glyph-name="idieresis" unicode="&#xef;" horiz-adv-x="278" 
d="M45 721c39 0 67 -28 67 -68s-28 -68 -67 -68s-68 28 -68 68s29 68 68 68zM233 721c39 0 68 -28 68 -68s-29 -68 -68 -68s-68 28 -68 68s29 68 68 68zM75 502h128v-502h-128v502z" />
    <glyph glyph-name="i.loclTRK" horiz-adv-x="278" 
d="M75 502h128v-502h-128v502zM138 730c44 0 76 -28 76 -73c0 -44 -32 -72 -76 -72c-43 0 -75 28 -75 72s32 73 75 73z" />
    <glyph glyph-name="igrave" unicode="&#xec;" horiz-adv-x="278" 
d="M75 502h128v-502h-128v502zM95 579l-101 173h132l68 -173h-99z" />
    <glyph glyph-name="imacron" unicode="&#x12b;" horiz-adv-x="278" 
d="M247 602h-216v91h215zM75 502h128v-502h-128v502z" />
    <glyph glyph-name="iogonek" unicode="&#x12f;" horiz-adv-x="278" 
d="M58 657c0 45 32 73 76 73c43 0 75 -29 75 -73s-32 -72 -75 -72s-76 28 -76 72zM215 -119v-77c-27 -11 -53 -17 -78 -17c-60 0 -111 28 -111 91c0 47 31 87 92 122h-43v502h128v-502c-53 -28 -77 -63 -77 -96c0 -25 13 -37 39 -37c14 0 31 5 50 14z" />
    <glyph glyph-name="j" unicode="j" horiz-adv-x="278" 
d="M139 740c45 0 80 -30 80 -78s-35 -78 -80 -78c-47 0 -81 30 -81 78s34 78 81 78zM-19 -194v119h45c33 0 49 20 49 59v518h128v-530c0 -119 -68 -166 -160 -166h-62z" />
    <glyph glyph-name="k" unicode="k" horiz-adv-x="555" 
d="M545 0h-159l-183 240v-240h-128v752h128v-453l166 203h155l-199 -227z" />
    <glyph glyph-name="kcommaaccent" unicode="&#x137;" horiz-adv-x="555" 
d="M545 0h-159l-183 240v-240h-128v752h128v-453l166 203h155l-199 -227zM239 -54h120l-73 -187h-93z" />
    <glyph glyph-name="l" unicode="l" horiz-adv-x="278" 
d="M75 752h128v-752h-128v752z" />
    <glyph glyph-name="lacute" unicode="&#x13a;" horiz-adv-x="278" 
d="M75 752h128v-752h-128v752zM189 810h-105l79 152h138z" />
    <glyph glyph-name="lcaron" unicode="&#x13e;" horiz-adv-x="365" 
d="M75 752h128v-752h-128v752zM345 560h-89l13 192h109z" />
    <glyph glyph-name="lcommaaccent" unicode="&#x13c;" horiz-adv-x="278" 
d="M75 752h128v-752h-128v752zM85 -54h120l-73 -187h-93z" />
    <glyph glyph-name="ldot" unicode="&#x140;" horiz-adv-x="416" 
d="M75 752h128v-752h-128v752zM339 385c47 0 84 -33 84 -84s-39 -84 -84 -84c-47 0 -84 33 -84 84s37 84 84 84z" />
    <glyph glyph-name="lslash" unicode="&#x142;" horiz-adv-x="320" 
d="M301 534v-105l-77 -48v-381h-128v301l-76 -48v105l76 48v346h128v-266z" />
    <glyph glyph-name="m" unicode="m" horiz-adv-x="886" 
d="M820 313v-313h-128v286c0 72 -35 109 -87 109c-59 0 -94 -46 -94 -134v-261h-127v284c0 72 -35 111 -88 111c-57 0 -93 -46 -93 -134v-261h-128v502h109v-70c33 52 86 84 151 84s120 -32 148 -93c33 57 90 93 161 93c96 0 176 -65 176 -203z" />
    <glyph glyph-name="n" unicode="n" horiz-adv-x="594" 
d="M529 309v-309h-128v278c0 75 -35 117 -94 117c-65 0 -104 -54 -104 -145v-250h-128v502h109v-76c35 56 90 90 161 90c102 0 184 -70 184 -207z" />
    <glyph glyph-name="nacute" unicode="&#x144;" horiz-adv-x="594" 
d="M529 309v-309h-128v278c0 75 -35 117 -94 117c-65 0 -104 -54 -104 -145v-250h-128v502h109v-76c35 56 90 90 161 90c102 0 184 -70 184 -207zM329 579h-98l67 173h133z" />
    <glyph glyph-name="ncaron" unicode="&#x148;" horiz-adv-x="594" 
d="M529 309v-309h-128v278c0 75 -35 117 -94 117c-65 0 -104 -54 -104 -145v-250h-128v502h109v-76c35 56 90 90 161 90c102 0 184 -70 184 -207zM369 729h92l-120 -153h-88l-120 153h96l69 -73z" />
    <glyph glyph-name="ncommaaccent" unicode="&#x146;" horiz-adv-x="594" 
d="M529 309v-309h-128v278c0 75 -35 117 -94 117c-65 0 -104 -54 -104 -145v-250h-128v502h109v-76c35 56 90 90 161 90c102 0 184 -70 184 -207zM259 -54h120l-73 -187h-93z" />
    <glyph glyph-name="eng" unicode="&#x14b;" horiz-adv-x="594" 
d="M529 309v-337c0 -119 -68 -166 -160 -166h-62v119h45c33 0 49 20 49 59v294c0 75 -35 117 -94 117c-65 0 -104 -54 -104 -145v-250h-128v502h109v-76c35 56 90 90 161 90c102 0 184 -70 184 -207z" />
    <glyph glyph-name="ntilde" unicode="&#xf1;" horiz-adv-x="594" 
d="M529 309v-309h-128v278c0 75 -35 117 -94 117c-65 0 -104 -54 -104 -145v-250h-128v502h109v-76c35 56 90 90 161 90c102 0 184 -70 184 -207zM232 731c43 0 80 -39 91 -47c11 -10 22 -15 32 -15c21 0 33 17 36 52h70c-1 -97 -44 -147 -99 -147c-43 0 -83 40 -91 48
c-11 10 -22 15 -33 15c-21 0 -32 -18 -35 -53h-70c1 97 44 147 99 147z" />
    <glyph glyph-name="o" unicode="o" horiz-adv-x="628" 
d="M314 516c154 0 271 -104 271 -265s-117 -265 -271 -265c-155 0 -270 104 -270 265s115 265 270 265zM314 102c81 0 141 57 141 149s-60 149 -141 149c-80 0 -141 -57 -141 -149c0 -91 61 -149 141 -149z" />
    <glyph glyph-name="oacute" unicode="&#xf3;" horiz-adv-x="628" 
d="M314 516c154 0 271 -104 271 -265s-117 -265 -271 -265c-155 0 -270 104 -270 265s115 265 270 265zM314 102c81 0 141 57 141 149s-60 149 -141 149c-80 0 -141 -57 -141 -149c0 -91 61 -149 141 -149zM346 579h-98l67 173h133z" />
    <glyph glyph-name="ocircumflex" unicode="&#xf4;" horiz-adv-x="628" 
d="M314 516c154 0 271 -104 271 -265s-117 -265 -271 -265c-155 0 -270 104 -270 265s115 265 270 265zM314 102c81 0 141 57 141 149s-60 149 -141 149c-80 0 -141 -57 -141 -149c0 -91 61 -149 141 -149zM478 576h-95l-70 72l-71 -72h-92l120 153h88z" />
    <glyph glyph-name="odieresis" unicode="&#xf6;" horiz-adv-x="628" 
d="M314 516c154 0 271 -104 271 -265s-117 -265 -271 -265c-155 0 -270 104 -270 265s115 265 270 265zM314 102c81 0 141 57 141 149s-60 149 -141 149c-80 0 -141 -57 -141 -149c0 -91 61 -149 141 -149zM207 721c39 0 68 -28 68 -68s-29 -68 -68 -68s-68 28 -68 68
s29 68 68 68zM421 721c39 0 67 -28 67 -68s-28 -68 -67 -68s-68 28 -68 68s29 68 68 68z" />
    <glyph glyph-name="ograve" unicode="&#xf2;" horiz-adv-x="628" 
d="M314 516c154 0 271 -104 271 -265s-117 -265 -271 -265c-155 0 -270 104 -270 265s115 265 270 265zM314 102c81 0 141 57 141 149s-60 149 -141 149c-80 0 -141 -57 -141 -149c0 -91 61 -149 141 -149zM282 579l-101 173h132l68 -173h-99z" />
    <glyph glyph-name="ohungarumlaut" unicode="&#x151;" horiz-adv-x="628" 
d="M314 516c154 0 271 -104 271 -265s-117 -265 -271 -265c-155 0 -270 104 -270 265s115 265 270 265zM314 102c81 0 141 57 141 149s-60 149 -141 149c-80 0 -141 -57 -141 -149c0 -91 61 -149 141 -149zM269 571h-87l67 173h109zM425 571h-92l88 173h112z" />
    <glyph glyph-name="omacron" unicode="&#x14d;" horiz-adv-x="628" 
d="M314 516c154 0 271 -104 271 -265s-117 -265 -271 -265c-155 0 -270 104 -270 265s115 265 270 265zM314 102c81 0 141 57 141 149s-60 149 -141 149c-80 0 -141 -57 -141 -149c0 -91 61 -149 141 -149zM448 602h-268v91h268v-91z" />
    <glyph glyph-name="oslash" unicode="&#xf8;" horiz-adv-x="628" 
d="M585 251c0 -161 -117 -265 -271 -265c-46 0 -88 9 -126 26l-50 -69l-63 44l49 68c-51 47 -80 115 -80 196c0 161 115 265 270 265c45 0 87 -9 125 -26l50 69l63 -44l-48 -67c51 -47 81 -116 81 -197zM200 159l167 231c-18 7 -36 10 -53 10c-80 0 -141 -57 -141 -149
c0 -36 9 -67 27 -92zM455 251c0 37 -9 68 -27 93l-168 -232c19 -7 37 -10 54 -10c81 0 141 57 141 149z" />
    <glyph glyph-name="otilde" unicode="&#xf5;" horiz-adv-x="628" 
d="M314 516c154 0 271 -104 271 -265s-117 -265 -271 -265c-155 0 -270 104 -270 265s115 265 270 265zM314 102c81 0 141 57 141 149s-60 149 -141 149c-80 0 -141 -57 -141 -149c0 -91 61 -149 141 -149zM249 731c43 0 80 -39 91 -47c11 -10 22 -15 32 -15
c21 0 33 17 36 52h70c-1 -97 -44 -147 -99 -147c-43 0 -83 40 -91 48c-11 10 -22 15 -33 15c-21 0 -32 -18 -35 -53h-70c1 97 44 147 99 147z" />
    <glyph glyph-name="oe" unicode="&#x153;" horiz-adv-x="996" 
d="M950 227h-368c11 -92 73 -132 156 -132c58 0 115 19 171 57h13v-121c-59 -30 -121 -45 -185 -45c-96 0 -175 36 -220 105c-43 -68 -118 -105 -210 -105c-152 0 -263 104 -263 265s111 265 263 265c92 0 165 -37 209 -104c44 68 120 104 209 104c136 0 228 -80 229 -235
c0 -20 -1 -38 -4 -54zM586 311h245c-7 71 -49 107 -114 107s-115 -38 -131 -107zM455 251c0 92 -60 149 -141 149c-80 0 -141 -57 -141 -149c0 -91 61 -149 141 -149c81 0 141 57 141 149z" />
    <glyph glyph-name="p" unicode="p" horiz-adv-x="634" 
d="M590 251c0 -170 -114 -265 -234 -265c-60 0 -114 24 -153 68v-248h-128v696h109v-77c41 59 103 91 172 91c120 0 234 -95 234 -265zM460 251c0 97 -62 148 -134 148s-134 -51 -134 -148s62 -148 134 -148s134 51 134 148z" />
    <glyph glyph-name="thorn" unicode="&#xfe;" horiz-adv-x="634" 
d="M590 251c0 -170 -114 -265 -234 -265c-60 0 -114 24 -153 68v-248h-128v946h128v-304c39 44 93 68 153 68c120 0 234 -95 234 -265zM460 251c0 97 -62 148 -134 148s-134 -51 -134 -148s62 -148 134 -148s134 51 134 148z" />
    <glyph glyph-name="q" unicode="q" horiz-adv-x="634" 
d="M449 502h110v-696h-128v248c-40 -44 -94 -68 -154 -68c-120 0 -233 95 -233 265s114 265 234 265c69 0 131 -32 171 -91v77zM441 251c0 97 -61 148 -134 148c-72 0 -134 -51 -134 -148s62 -148 134 -148c73 0 134 51 134 148z" />
    <glyph glyph-name="r" unicode="r" horiz-adv-x="423" 
d="M336 502h61v-120h-70c-84 0 -124 -67 -124 -172v-210h-128v502h109v-107c31 65 83 107 152 107z" />
    <glyph glyph-name="racute" unicode="&#x155;" horiz-adv-x="423" 
d="M336 502h61v-120h-70c-84 0 -124 -67 -124 -172v-210h-128v502h109v-107c31 65 83 107 152 107zM274 579h-98l67 173h133z" />
    <glyph glyph-name="rcaron" unicode="&#x159;" horiz-adv-x="423" 
d="M336 502h61v-120h-70c-84 0 -124 -67 -124 -172v-210h-128v502h109v-107c31 65 83 107 152 107zM313 729h92l-120 -153h-88l-120 153h96l69 -73z" />
    <glyph glyph-name="rcommaaccent" unicode="&#x157;" horiz-adv-x="423" 
d="M336 502h61v-120h-70c-84 0 -124 -67 -124 -172v-210h-128v502h109v-107c31 65 83 107 152 107zM85 -54h120l-73 -187h-93z" />
    <glyph glyph-name="s" unicode="s" horiz-adv-x="471" 
d="M42 27v115h13c48 -35 101 -53 160 -53c60 0 90 15 90 45c0 22 -20 41 -59 56l-76 33c-80 31 -120 82 -120 151c0 96 81 142 189 142c64 0 119 -15 159 -39v-104h-12c-47 28 -88 40 -136 40c-51 0 -76 -14 -76 -41c0 -23 21 -39 61 -56l74 -31c76 -29 120 -75 120 -148
c0 -54 -20 -93 -60 -116s-89 -35 -146 -35c-72 0 -136 17 -181 41z" />
    <glyph glyph-name="sacute" unicode="&#x15b;" horiz-adv-x="471" 
d="M42 27v115h13c48 -35 101 -53 160 -53c60 0 90 15 90 45c0 22 -20 41 -59 56l-76 33c-80 31 -120 82 -120 151c0 96 81 142 189 142c64 0 119 -15 159 -39v-104h-12c-47 28 -88 40 -136 40c-51 0 -76 -14 -76 -41c0 -23 21 -39 61 -56l74 -31c76 -29 120 -75 120 -148
c0 -54 -20 -93 -60 -116s-89 -35 -146 -35c-72 0 -136 17 -181 41zM268 579h-98l67 173h133z" />
    <glyph glyph-name="scaron" unicode="&#x161;" horiz-adv-x="471" 
d="M42 27v115h13c48 -35 101 -53 160 -53c60 0 90 15 90 45c0 22 -20 41 -59 56l-76 33c-80 31 -120 82 -120 151c0 96 81 142 189 142c64 0 119 -15 159 -39v-104h-12c-47 28 -88 40 -136 40c-51 0 -76 -14 -76 -41c0 -23 21 -39 61 -56l74 -31c76 -29 120 -75 120 -148
c0 -54 -20 -93 -60 -116s-89 -35 -146 -35c-72 0 -136 17 -181 41zM307 729h92l-120 -153h-88l-120 153h96l69 -73z" />
    <glyph glyph-name="scedilla" unicode="&#x15f;" horiz-adv-x="471" 
d="M296 -7c25 -33 37 -67 37 -100c0 -68 -53 -106 -121 -106c-21 0 -46 4 -74 13v74c19 -5 34 -8 45 -8c31 0 50 17 50 50c0 23 -7 46 -20 70c-65 2 -122 16 -171 41v115h13c48 -35 101 -53 160 -53c60 0 90 15 90 45c0 22 -20 41 -59 56l-76 33c-80 31 -120 82 -120 151
c0 96 81 142 189 142c64 0 119 -15 159 -39v-104h-12c-47 28 -88 40 -136 40c-51 0 -76 -14 -76 -41c0 -23 21 -39 61 -56l74 -31c76 -29 120 -75 120 -148c0 -83 -53 -127 -133 -144z" />
    <glyph glyph-name="scommaaccent" unicode="&#x219;" horiz-adv-x="471" 
d="M42 27v115h13c48 -35 101 -53 160 -53c60 0 90 15 90 45c0 22 -20 41 -59 56l-76 33c-80 31 -120 82 -120 151c0 96 81 142 189 142c64 0 119 -15 159 -39v-104h-12c-47 28 -88 40 -136 40c-51 0 -76 -14 -76 -41c0 -23 21 -39 61 -56l74 -31c76 -29 120 -75 120 -148
c0 -54 -20 -93 -60 -116s-89 -35 -146 -35c-72 0 -136 17 -181 41zM197 -54h120l-73 -187h-93z" />
    <glyph glyph-name="germandbls" unicode="&#xdf;" horiz-adv-x="594" 
d="M550 212c0 -125 -77 -212 -216 -212h-62v116h38c61 0 110 40 110 117c0 73 -46 117 -134 117h-21v101h14c65 0 90 37 90 92c0 57 -28 93 -84 93s-84 -35 -84 -106v-530h-128v544c0 133 73 208 213 208s213 -74 213 -185c0 -69 -31 -123 -95 -150
c95 -28 146 -104 146 -205z" />
    <glyph glyph-name="t" unicode="t" horiz-adv-x="440" 
d="M405 401h-146v-210c0 -47 29 -70 74 -70h67v-121h-90c-113 0 -179 57 -179 165v236h-110v101h110v164h128v-164h146v-101z" />
    <glyph glyph-name="tbar" unicode="&#x167;" horiz-adv-x="440" 
d="M405 401h-146v-71h146v-73h-146v-66c0 -47 29 -70 74 -70h67v-121h-90c-113 0 -179 57 -179 165v92h-110v73h110v71h-110v101h110v164h128v-164h146v-101z" />
    <glyph glyph-name="tcaron" unicode="&#x165;" horiz-adv-x="440" 
d="M346 752h108l-33 -192h-89zM259 666v-164h146v-101h-146v-210c0 -47 29 -70 74 -70h67v-121h-90c-113 0 -179 57 -179 165v236h-110v101h110v164h128z" />
    <glyph glyph-name="uni0163" unicode="&#x163;" horiz-adv-x="440" 
d="M405 401h-146v-210c0 -47 29 -70 74 -70h67v-121h-80c29 -35 43 -71 43 -107c0 -68 -53 -106 -121 -106c-21 0 -46 4 -74 13v74c19 -5 34 -8 45 -8c31 0 50 17 50 50c0 28 -13 61 -38 98c-61 23 -94 74 -94 151v236h-110v101h110v164h128v-164h146v-101z" />
    <glyph glyph-name="uni021B" unicode="&#x21b;" horiz-adv-x="440" 
d="M405 401h-146v-210c0 -47 29 -70 74 -70h67v-121h-90c-113 0 -179 57 -179 165v236h-110v101h110v164h128v-164h146v-101zM224 -54h120l-73 -187h-93z" />
    <glyph glyph-name="u" unicode="u" horiz-adv-x="594" 
d="M392 502h128v-502h-110v81c-33 -59 -88 -95 -160 -95c-102 0 -184 75 -184 217v299h128v-278c0 -75 35 -117 94 -117c64 0 104 58 104 149v246z" />
    <glyph glyph-name="uacute" unicode="&#xfa;" horiz-adv-x="594" 
d="M392 502h128v-502h-110v81c-33 -59 -88 -95 -160 -95c-102 0 -184 75 -184 217v299h128v-278c0 -75 35 -117 94 -117c64 0 104 58 104 149v246zM329 579h-98l67 173h133z" />
    <glyph glyph-name="ucircumflex" unicode="&#xfb;" horiz-adv-x="594" 
d="M392 502h128v-502h-110v81c-33 -59 -88 -95 -160 -95c-102 0 -184 75 -184 217v299h128v-278c0 -75 35 -117 94 -117c64 0 104 58 104 149v246zM461 576h-95l-70 72l-71 -72h-92l120 153h88z" />
    <glyph glyph-name="udieresis" unicode="&#xfc;" horiz-adv-x="594" 
d="M392 502h128v-502h-110v81c-33 -59 -88 -95 -160 -95c-102 0 -184 75 -184 217v299h128v-278c0 -75 35 -117 94 -117c64 0 104 58 104 149v246zM190 721c39 0 68 -28 68 -68s-29 -68 -68 -68s-68 28 -68 68s29 68 68 68zM404 721c39 0 67 -28 67 -68s-28 -68 -67 -68
s-68 28 -68 68s29 68 68 68z" />
    <glyph glyph-name="ugrave" unicode="&#xf9;" horiz-adv-x="594" 
d="M392 502h128v-502h-110v81c-33 -59 -88 -95 -160 -95c-102 0 -184 75 -184 217v299h128v-278c0 -75 35 -117 94 -117c64 0 104 58 104 149v246zM265 579l-101 173h132l68 -173h-99z" />
    <glyph glyph-name="uhungarumlaut" unicode="&#x171;" horiz-adv-x="594" 
d="M392 502h128v-502h-110v81c-33 -59 -88 -95 -160 -95c-102 0 -184 75 -184 217v299h128v-278c0 -75 35 -117 94 -117c64 0 104 58 104 149v246zM252 571h-87l67 173h109zM408 571h-92l88 173h112z" />
    <glyph glyph-name="umacron" unicode="&#x16b;" horiz-adv-x="594" 
d="M392 502h128v-502h-110v81c-33 -59 -88 -95 -160 -95c-102 0 -184 75 -184 217v299h128v-278c0 -75 35 -117 94 -117c64 0 104 58 104 149v246zM431 602h-268v91h268v-91z" />
    <glyph glyph-name="uogonek" unicode="&#x173;" horiz-adv-x="594" 
d="M529 -119v-77c-27 -11 -53 -17 -80 -17c-63 0 -113 28 -113 87c0 47 33 89 99 126h-25v81c-33 -59 -88 -95 -160 -95c-102 0 -184 75 -184 217v299h128v-278c0 -75 35 -117 94 -117c64 0 104 58 104 149v246h128v-502c-55 -29 -84 -65 -84 -98c0 -23 13 -35 39 -35
c14 0 32 5 54 14z" />
    <glyph glyph-name="uring" unicode="&#x16f;" horiz-adv-x="594" 
d="M392 502h128v-502h-110v81c-33 -59 -88 -95 -160 -95c-102 0 -184 75 -184 217v299h128v-278c0 -75 35 -117 94 -117c64 0 104 58 104 149v246zM297 757c59 0 108 -38 108 -98c0 -61 -49 -99 -108 -99s-107 38 -107 99c0 60 48 98 107 98zM297 615c24 0 44 17 44 44
c0 25 -20 43 -44 43c-23 0 -43 -18 -43 -43s20 -44 43 -44z" />
    <glyph glyph-name="v" unicode="v" horiz-adv-x="560" 
d="M401 502h137l-207 -502h-101l-208 502h140l119 -329z" />
    <glyph glyph-name="w" unicode="w" horiz-adv-x="867" 
d="M703 502h138l-195 -502h-109l-105 307l-104 -307h-109l-193 502h140l107 -321l113 321h95l113 -322z" />
    <glyph glyph-name="wacute" unicode="&#x1e83;" horiz-adv-x="867" 
d="M703 502h138l-195 -502h-109l-105 307l-104 -307h-109l-193 502h140l107 -321l113 321h95l113 -322zM466 579h-98l67 173h133z" />
    <glyph glyph-name="wcircumflex" unicode="&#x175;" horiz-adv-x="867" 
d="M703 502h138l-195 -502h-109l-105 307l-104 -307h-109l-193 502h140l107 -321l113 321h95l113 -322zM597 576h-95l-70 72l-71 -72h-92l120 153h88z" />
    <glyph glyph-name="wdieresis" unicode="&#x1e85;" horiz-adv-x="867" 
d="M703 502h138l-195 -502h-109l-105 307l-104 -307h-109l-193 502h140l107 -321l113 321h95l113 -322zM327 721c39 0 68 -28 68 -68s-29 -68 -68 -68s-68 28 -68 68s29 68 68 68zM541 721c39 0 67 -28 67 -68s-28 -68 -67 -68s-68 28 -68 68s29 68 68 68z" />
    <glyph glyph-name="wgrave" unicode="&#x1e81;" horiz-adv-x="867" 
d="M703 502h138l-195 -502h-109l-105 307l-104 -307h-109l-193 502h140l107 -321l113 321h95l113 -322zM401 579l-101 173h132l68 -173h-99z" />
    <glyph glyph-name="x" unicode="x" horiz-adv-x="547" 
d="M520 0h-142l-107 168l-108 -168h-138l175 258l-166 244h142l97 -152l95 152h139l-163 -241z" />
    <glyph glyph-name="y" unicode="y" horiz-adv-x="557" 
d="M398 502h135l-292 -696h-139l116 273l-196 423h139l124 -291z" />
    <glyph glyph-name="yacute" unicode="&#xfd;" horiz-adv-x="557" 
d="M398 502h135l-292 -696h-139l116 273l-196 423h139l124 -291zM311 579h-98l67 173h133z" />
    <glyph glyph-name="ycircumflex" unicode="&#x177;" horiz-adv-x="557" 
d="M398 502h135l-292 -696h-139l116 273l-196 423h139l124 -291zM442 576h-95l-70 72l-71 -72h-92l120 153h88z" />
    <glyph glyph-name="ydieresis" unicode="&#xff;" horiz-adv-x="557" 
d="M398 502h135l-292 -696h-139l116 273l-196 423h139l124 -291zM172 721c39 0 68 -28 68 -68s-29 -68 -68 -68s-68 28 -68 68s29 68 68 68zM386 721c39 0 67 -28 67 -68s-28 -68 -67 -68s-68 28 -68 68s29 68 68 68z" />
    <glyph glyph-name="ygrave" unicode="&#x1ef3;" horiz-adv-x="557" 
d="M398 502h135l-292 -696h-139l116 273l-196 423h139l124 -291zM246 579l-101 173h132l68 -173h-99z" />
    <glyph glyph-name="z" unicode="z" horiz-adv-x="491" 
d="M206 101h248v-101h-419v58l238 343h-214v101h385v-58z" />
    <glyph glyph-name="zacute" unicode="&#x17a;" horiz-adv-x="491" 
d="M206 101h248v-101h-419v58l238 343h-214v101h385v-58zM278 579h-98l67 173h133z" />
    <glyph glyph-name="zcaron" unicode="&#x17e;" horiz-adv-x="491" 
d="M206 101h248v-101h-419v58l238 343h-214v101h385v-58zM317 729h92l-120 -153h-88l-120 153h96l69 -73z" />
    <glyph glyph-name="zdotaccent" unicode="&#x17c;" horiz-adv-x="491" 
d="M206 101h248v-101h-419v58l238 343h-214v101h385v-58zM246 730c44 0 76 -28 76 -73c0 -44 -32 -72 -76 -72c-43 0 -75 28 -75 72s32 73 75 73z" />
    <glyph glyph-name="a.ss01" horiz-adv-x="634" 
d="M449 502h110v-502h-110v77c-40 -59 -103 -91 -172 -91c-120 0 -233 95 -233 265s114 265 234 265c69 0 131 -32 171 -91v77zM441 251c0 97 -61 148 -134 148c-72 0 -134 -51 -134 -148s62 -148 134 -148c73 0 134 51 134 148z" />
    <glyph glyph-name="aacute.ss01" horiz-adv-x="634" 
d="M449 502h110v-502h-110v77c-40 -59 -103 -91 -172 -91c-120 0 -233 95 -233 265s114 265 234 265c69 0 131 -32 171 -91v77zM441 251c0 97 -61 148 -134 148c-72 0 -134 -51 -134 -148s62 -148 134 -148c73 0 134 51 134 148zM349 579h-98l67 173h133z" />
    <glyph glyph-name="abreve.ss01" horiz-adv-x="634" 
d="M449 502h110v-502h-110v77c-40 -59 -103 -91 -172 -91c-120 0 -233 95 -233 265s114 265 234 265c69 0 131 -32 171 -91v77zM441 251c0 97 -61 148 -134 148c-72 0 -134 -51 -134 -148s62 -148 134 -148c73 0 134 51 134 148zM163 728v10h81v-14c0 -45 26 -70 73 -70
s72 25 72 70v14h82v-10c0 -109 -57 -161 -154 -161s-154 50 -154 161z" />
    <glyph glyph-name="acircumflex.ss01" horiz-adv-x="634" 
d="M449 502h110v-502h-110v77c-40 -59 -103 -91 -172 -91c-120 0 -233 95 -233 265s114 265 234 265c69 0 131 -32 171 -91v77zM441 251c0 97 -61 148 -134 148c-72 0 -134 -51 -134 -148s62 -148 134 -148c73 0 134 51 134 148zM480 576h-95l-70 72l-71 -72h-92l120 153h88
z" />
    <glyph glyph-name="adieresis.ss01" horiz-adv-x="634" 
d="M449 502h110v-502h-110v77c-40 -59 -103 -91 -172 -91c-120 0 -233 95 -233 265s114 265 234 265c69 0 131 -32 171 -91v77zM441 251c0 97 -61 148 -134 148c-72 0 -134 -51 -134 -148s62 -148 134 -148c73 0 134 51 134 148zM210 721c39 0 68 -28 68 -68
s-29 -68 -68 -68s-68 28 -68 68s29 68 68 68zM424 721c39 0 67 -28 67 -68s-28 -68 -67 -68s-68 28 -68 68s29 68 68 68z" />
    <glyph glyph-name="agrave.ss01" horiz-adv-x="634" 
d="M449 502h110v-502h-110v77c-40 -59 -103 -91 -172 -91c-120 0 -233 95 -233 265s114 265 234 265c69 0 131 -32 171 -91v77zM441 251c0 97 -61 148 -134 148c-72 0 -134 -51 -134 -148s62 -148 134 -148c73 0 134 51 134 148zM284 579l-101 173h132l68 -173h-99z" />
    <glyph glyph-name="amacron.ss01" horiz-adv-x="634" 
d="M449 502h110v-502h-110v77c-40 -59 -103 -91 -172 -91c-120 0 -233 95 -233 265s114 265 234 265c69 0 131 -32 171 -91v77zM441 251c0 97 -61 148 -134 148c-72 0 -134 -51 -134 -148s62 -148 134 -148c73 0 134 51 134 148zM451 602h-268v91h268v-91z" />
    <glyph glyph-name="aogonek.ss01" horiz-adv-x="634" 
d="M568 -119v-77c-27 -11 -53 -17 -80 -17c-63 0 -113 28 -113 87c0 47 33 89 99 126h-25v77c-40 -59 -103 -91 -172 -91c-120 0 -233 95 -233 265s114 265 234 265c69 0 131 -32 171 -91v77h110v-502c-55 -29 -84 -65 -84 -98c0 -23 13 -35 39 -35c14 0 32 5 54 14z
M441 251c0 97 -61 148 -134 148c-72 0 -134 -51 -134 -148s62 -148 134 -148c73 0 134 51 134 148z" />
    <glyph glyph-name="aring.ss01" horiz-adv-x="634" 
d="M449 502h110v-502h-110v77c-40 -59 -103 -91 -172 -91c-120 0 -233 95 -233 265s114 265 234 265c69 0 131 -32 171 -91v77zM441 251c0 97 -61 148 -134 148c-72 0 -134 -51 -134 -148s62 -148 134 -148c73 0 134 51 134 148zM316 757c59 0 108 -38 108 -98
c0 -61 -49 -99 -108 -99s-107 38 -107 99c0 60 48 98 107 98zM316 615c24 0 44 17 44 44c0 25 -20 43 -44 43c-23 0 -43 -18 -43 -43s20 -44 43 -44z" />
    <glyph glyph-name="atilde.ss01" horiz-adv-x="634" 
d="M449 502h110v-502h-110v77c-40 -59 -103 -91 -172 -91c-120 0 -233 95 -233 265s114 265 234 265c69 0 131 -32 171 -91v77zM441 251c0 97 -61 148 -134 148c-72 0 -134 -51 -134 -148s62 -148 134 -148c73 0 134 51 134 148zM252 731c43 0 80 -39 91 -47
c11 -10 22 -15 32 -15c21 0 33 17 36 52h70c-1 -97 -44 -147 -99 -147c-43 0 -83 40 -91 48c-11 10 -22 15 -33 15c-21 0 -32 -18 -35 -53h-70c1 97 44 147 99 147z" />
    <glyph glyph-name="ae.ss01" horiz-adv-x="979" 
d="M933 227h-368c11 -92 73 -132 156 -132c58 0 115 19 171 57h13v-121c-54 -30 -109 -45 -165 -45c-80 0 -140 27 -181 81v-67h-110v77c-40 -59 -103 -91 -172 -91c-120 0 -233 95 -233 265s114 265 234 265c69 0 131 -32 171 -91v77h110v-64c39 52 96 78 170 78
c129 0 207 -78 208 -235c0 -20 -1 -38 -4 -54zM569 311h245c-7 71 -49 107 -114 107s-115 -38 -131 -107zM441 251c0 97 -61 148 -134 148c-72 0 -134 -51 -134 -148s62 -148 134 -148c73 0 134 51 134 148z" />
    <glyph glyph-name="t_t.dlig" horiz-adv-x="752" 
d="M717 401h-146v-210c0 -47 29 -70 74 -70h67v-121h-90c-113 0 -179 57 -179 165v236h-184v-210c0 -47 29 -70 74 -70h32v-121h-55c-113 0 -179 57 -179 165v236h-110v101h110v164h128v-164h184v164h128v-164h146v-101z" />
    <glyph glyph-name="uni0410" unicode="&#x410;" horiz-adv-x="726" 
d="M556 0l-61 165h-267l-61 -165h-148l280 700h128l280 -700h-151zM268 275h187l-93 253z" />
    <glyph glyph-name="uni0411" unicode="&#x411;" horiz-adv-x="674" 
d="M627 222c0 -141 -111 -222 -254 -222h-288v700h481v-123h-343v-137h150c143 0 254 -77 254 -218zM484 223c0 71 -51 104 -122 104h-139v-207h139c71 0 122 32 122 103z" />
    <glyph glyph-name="uni0412" unicode="&#x412;" horiz-adv-x="676" 
d="M632 198c0 -124 -92 -198 -256 -198h-291v700h265c148 0 237 -69 237 -180c0 -71 -36 -119 -108 -143c99 -24 153 -86 153 -179zM334 584h-111v-174h111c71 0 110 31 110 86c0 56 -39 88 -110 88zM489 213c0 63 -43 95 -129 95h-137v-192h137c83 0 129 32 129 97z" />
    <glyph glyph-name="uni0413" unicode="&#x413;" horiz-adv-x="552" 
d="M512 700v-123h-289v-577h-138v700h427z" />
    <glyph glyph-name="uni0490" unicode="&#x490;" horiz-adv-x="552" 
d="M512 830v-253h-289v-577h-138v700h299v130h128z" />
    <glyph glyph-name="uni0414" unicode="&#x414;" horiz-adv-x="769" 
d="M648 123h90v-271h-128v148h-463v-148h-129v271h51c30 30 52 80 66 149c15 70 23 169 26 298l2 130h485v-577zM211 123h299v454h-221c-5 -131 -15 -235 -29 -314c-11 -55 -28 -102 -49 -140z" />
    <glyph glyph-name="uni0415" unicode="&#x415;" horiz-adv-x="582" 
d="M223 123h315v-123h-453v700h438v-123h-300v-153h282v-116h-282v-185z" />
    <glyph glyph-name="uni0401" unicode="&#x401;" horiz-adv-x="582" 
d="M223 123h315v-123h-453v700h438v-123h-300v-153h282v-116h-282v-185zM195 900c40 0 71 -27 71 -68s-31 -68 -71 -68c-41 0 -71 27 -71 68s30 68 71 68zM418 900c40 0 70 -27 70 -68s-30 -68 -70 -68c-41 0 -71 27 -71 68s30 68 71 68z" />
    <glyph glyph-name="uni0416" unicode="&#x416;" horiz-adv-x="984" 
d="M966 0h-172l-233 323v-323h-138v323l-233 -323h-172l283 377l-266 323h168l220 -286v286h138v-286l220 286h169l-266 -323z" />
    <glyph glyph-name="uni0417" unicode="&#x417;" horiz-adv-x="617" 
d="M573 199c0 -131 -96 -213 -296 -213c-89 0 -169 18 -239 53v151h15c50 -53 123 -79 218 -79c104 0 159 37 159 102c0 69 -65 102 -160 102h-88v111h83c88 0 133 32 133 83s-48 80 -128 80c-75 0 -138 -23 -189 -69h-13v143c59 32 141 51 221 51c160 0 252 -71 252 -179
c0 -69 -39 -122 -112 -149c92 -29 144 -91 144 -187z" />
    <glyph glyph-name="uni0418" unicode="&#x418;" horiz-adv-x="774" 
d="M573 700h115v-700h-137v479l-350 -479h-116v700h137v-479z" />
    <glyph glyph-name="uni0419" unicode="&#x419;" horiz-adv-x="774" 
d="M573 700h115v-700h-137v479l-350 -479h-116v700h137v-479zM458 908h105v-10c0 -103 -67 -152 -176 -152c-111 0 -176 49 -176 152v10h104v-15c0 -41 25 -67 72 -67c45 0 71 26 71 67v15z" />
    <glyph glyph-name="uni041A" unicode="&#x41a;" horiz-adv-x="672" 
d="M663 0h-172l-268 323v-323h-138v700h138v-285l246 285h169l-293 -322z" />
    <glyph glyph-name="uni041B" unicode="&#x41b;" horiz-adv-x="737" 
d="M164 700h488v-700h-138v577h-224l-2 -44c-3 -114 -7 -194 -11 -240c-16 -204 -79 -293 -218 -293h-43v128h18c33 0 58 13 75 39s30 70 37 131s12 152 15 272z" />
    <glyph glyph-name="uni041C" unicode="&#x41c;" horiz-adv-x="884" 
d="M694 700h105v-700h-136v444l-195 -264h-51l-196 262v-442h-136v700h105l253 -347z" />
    <glyph glyph-name="uni041D" unicode="&#x41d;" horiz-adv-x="764" 
d="M541 700h138v-700h-138v311h-318v-311h-138v700h138v-266h318v266z" />
    <glyph glyph-name="uni041E" unicode="&#x41e;" horiz-adv-x="846" 
d="M423 714c210 0 368 -145 368 -364s-158 -364 -368 -364s-368 145 -368 364s158 364 368 364zM423 116c127 0 225 93 225 234s-98 234 -225 234s-225 -93 -225 -234c0 -142 97 -234 225 -234z" />
    <glyph glyph-name="uni041F" unicode="&#x41f;" horiz-adv-x="756" 
d="M85 700h585v-700h-138v577h-309v-577h-138v700z" />
    <glyph glyph-name="uni0420" unicode="&#x420;" horiz-adv-x="653" 
d="M613 480c0 -139 -94 -214 -251 -214h-139v-266h-138v700h275c155 0 253 -77 253 -220zM470 480c0 72 -48 101 -121 101h-126v-202h130c72 0 117 33 117 101z" />
    <glyph glyph-name="uni0421" unicode="&#x421;" horiz-adv-x="687" 
d="M421 714c80 0 151 -19 212 -56v-152h-14c-50 52 -113 78 -190 78c-135 0 -231 -93 -231 -234c0 -138 94 -234 233 -234c83 0 151 31 200 90h15v-161c-65 -39 -139 -59 -220 -59c-215 0 -371 136 -371 364c-3 220 159 366 366 364z" />
    <glyph glyph-name="uni0422" unicode="&#x422;" horiz-adv-x="585" 
d="M549 700v-123h-188v-577h-138v577h-187v123h513z" />
    <glyph glyph-name="uni0423" unicode="&#x423;" horiz-adv-x="673" 
d="M510 700h141l-227 -545c-48 -117 -122 -155 -227 -155h-51v128h45c60 0 85 14 109 65l-271 507h152l185 -372z" />
    <glyph glyph-name="uni040E" unicode="&#x40e;" horiz-adv-x="673" 
d="M510 700h141l-227 -545c-48 -117 -122 -155 -227 -155h-51v128h45c60 0 85 14 109 65l-271 507h152l185 -372zM408 908h105v-10c0 -103 -67 -152 -176 -152c-111 0 -176 49 -176 152v10h104v-15c0 -41 25 -67 72 -67c45 0 71 26 71 67v15z" />
    <glyph glyph-name="uni0424" unicode="&#x424;" horiz-adv-x="914" 
d="M526 34v-64h-138v64c-201 2 -333 135 -333 320c0 187 132 318 333 320v54h138v-54c201 -2 333 -133 333 -320c0 -185 -132 -318 -333 -320zM718 354c0 111 -72 190 -192 194v-387c121 2 192 86 192 193zM388 161v387c-120 -4 -192 -83 -192 -194s72 -190 192 -193z" />
    <glyph glyph-name="uni0425" unicode="&#x425;" horiz-adv-x="670" 
d="M650 -1h-156l-161 264l-162 -264h-150l232 362l-216 339h155l144 -235l143 235h150l-213 -334z" />
    <glyph glyph-name="uni0427" unicode="&#x427;" horiz-adv-x="719" 
d="M496 700h138v-700h-138v279c-68 -21 -127 -31 -178 -31c-77 0 -140 22 -187 66s-71 110 -71 198v188h138v-174c0 -99 55 -151 155 -151c43 0 91 9 143 26v299z" />
    <glyph glyph-name="uni0426" unicode="&#x426;" horiz-adv-x="793" 
d="M664 123h99v-271h-129v148h-549v700h138v-577h303v577h138v-577z" />
    <glyph glyph-name="uni0428" unicode="&#x428;" horiz-adv-x="1061" 
d="M838 700h138v-700h-891v700h138v-577h240v577h135v-577h240v577z" />
    <glyph glyph-name="uni0429" unicode="&#x429;" horiz-adv-x="1104" 
d="M976 123h98v-271h-129v148h-860v700h138v-577h240v577h135v-577h240v577h138v-577z" />
    <glyph glyph-name="uni042C" unicode="&#x42c;" horiz-adv-x="672" 
d="M631 229c0 -148 -112 -229 -258 -229h-288v700h138v-241h150c146 0 258 -83 258 -230zM488 231c0 76 -55 111 -128 111h-137v-222h137c75 0 128 34 128 111z" />
    <glyph glyph-name="uni042A" unicode="&#x42a;" horiz-adv-x="785" 
d="M744 229c0 -148 -112 -229 -259 -229h-287v577h-167v123h305v-241h149c147 0 259 -83 259 -230zM601 231c0 76 -55 111 -128 111h-137v-222h137c75 0 128 34 128 111z" />
    <glyph glyph-name="uni042B" unicode="&#x42b;" horiz-adv-x="918" 
d="M611 229c0 -148 -112 -229 -258 -229h-268v700h138v-241h130c146 0 258 -83 258 -230zM695 700h138v-700h-138v700zM468 231c0 76 -55 111 -128 111h-117v-222h117c75 0 128 34 128 111z" />
    <glyph glyph-name="uni0404" unicode="&#x404;" horiz-adv-x="682" 
d="M626 200h15v-160c-64 -35 -145 -54 -225 -54c-212 0 -361 135 -361 365c0 222 148 363 357 363c76 0 154 -18 214 -51v-150h-14c-48 45 -118 71 -187 71c-116 0 -198 -63 -221 -170h297v-115l-298 -1c19 -111 103 -182 220 -182c76 0 152 29 203 84z" />
    <glyph glyph-name="uni042D" unicode="&#x42d;" horiz-adv-x="682" 
d="M627 351c0 -230 -149 -365 -361 -365c-80 0 -161 19 -225 54v160h15c51 -55 127 -84 203 -84c117 0 201 71 221 182l-299 1v115h297c-23 107 -105 170 -221 170c-69 0 -139 -26 -187 -71h-14v150c60 33 138 51 214 51c209 0 357 -141 357 -363z" />
    <glyph glyph-name="uni0406" unicode="&#x406;" horiz-adv-x="308" 
d="M85 700h138v-700h-138v700z" />
    <glyph glyph-name="uni0407" unicode="&#x407;" horiz-adv-x="308" 
d="M85 700h138v-700h-138v700zM42 900c40 0 71 -27 71 -68s-31 -68 -71 -68c-41 0 -71 27 -71 68s30 68 71 68zM265 900c40 0 70 -27 70 -68s-30 -68 -70 -68c-41 0 -71 27 -71 68s30 68 71 68z" />
    <glyph glyph-name="uni042E" unicode="&#x42e;" horiz-adv-x="1078" 
d="M1023 350c3 -222 -154 -366 -352 -364c-187 0 -330 120 -350 317h-98v-303h-138v700h138v-274h102c30 179 169 288 346 288c198 2 355 -142 352 -364zM880 350c0 145 -91 234 -210 234s-210 -89 -210 -234c0 -143 89 -234 206 -234c122 0 214 87 214 234z" />
    <glyph glyph-name="uni042F" unicode="&#x42f;" horiz-adv-x="684" 
d="M311 700h288v-700h-138v262h-74l-193 -262h-156l210 274c-115 20 -184 105 -184 212c0 120 87 214 247 214zM321 378h140v203h-136c-73 0 -118 -40 -118 -103c0 -60 43 -100 114 -100z" />
    <glyph glyph-name="uni04C1" unicode="&#x4c1;" horiz-adv-x="984" 
d="M966 0h-172l-233 323v-323h-138v323l-233 -323h-172l283 377l-266 323h168l220 -286v286h138v-286l220 286h169l-266 -323zM563 908h105v-10c0 -103 -67 -152 -176 -152c-111 0 -176 49 -176 152v10h104v-15c0 -41 25 -67 72 -67c45 0 71 26 71 67v15z" />
    <glyph glyph-name="uni0430" unicode="&#x430;" horiz-adv-x="557" 
d="M492 310v-310h-110v53c-33 -41 -89 -67 -156 -67c-112 0 -190 69 -190 162c0 94 79 161 197 161c54 0 98 -13 131 -38v29c0 73 -46 106 -119 106c-47 0 -94 -13 -141 -40h-13v115c56 23 123 35 180 35c65 0 118 -16 159 -49s62 -85 62 -157zM374 155c0 37 -38 66 -105 66
s-105 -29 -105 -66s38 -67 105 -67s105 30 105 67z" />
    <glyph glyph-name="uni0431" unicode="&#x431;" horiz-adv-x="621" 
d="M578 248c0 -160 -105 -262 -258 -262c-79 0 -144 27 -195 82c-50 55 -75 141 -75 260c0 59 7 118 22 176s42 109 81 153c40 44 95 70 164 77l108 10c33 3 67 8 101 15v-118c-23 -5 -51 -9 -83 -11c-13 -1 -24 -2 -31 -2c-36 -3 -62 -5 -79 -8
c-100 -15 -149 -75 -166 -212c39 57 98 91 177 91c141 0 234 -97 234 -251zM448 247c0 91 -58 145 -133 145s-132 -54 -132 -145c0 -89 57 -145 132 -145s133 56 133 145z" />
    <glyph glyph-name="uni0432" unicode="&#x432;" horiz-adv-x="570" 
d="M522 147c0 -88 -74 -147 -185 -147h-262v502h233c109 0 183 -52 183 -135c0 -45 -21 -78 -62 -99c59 -19 93 -62 93 -121zM292 406h-89v-106h89c47 0 69 22 69 53s-22 53 -69 53zM393 156c0 35 -28 60 -75 60h-115v-120h115c47 0 75 25 75 60z" />
    <glyph glyph-name="uni0433" unicode="&#x433;" horiz-adv-x="456" 
d="M429 502v-101h-226v-401h-128v502h354z" />
    <glyph glyph-name="uni0491" unicode="&#x491;" horiz-adv-x="456" 
d="M429 634v-233h-226v-401h-128v502h229v132h125z" />
    <glyph glyph-name="uni0434" unicode="&#x434;" horiz-adv-x="637" 
d="M518 101h87v-241h-125v140h-335v-140h-125v241h58c33 61 50 151 53 270l3 131h384v-401zM198 101h192v300h-146l-1 -52c-3 -101 -18 -184 -45 -248z" />
    <glyph glyph-name="uni0435" unicode="&#x435;" horiz-adv-x="584" 
d="M539 227h-369c11 -92 73 -132 156 -132c59 0 116 19 172 57h12v-121c-63 -32 -131 -45 -190 -45c-153 0 -276 91 -276 265s120 265 264 265c137 0 234 -80 235 -235c0 -12 -1 -30 -4 -54zM174 311h245c-7 71 -48 107 -113 107s-116 -38 -132 -107z" />
    <glyph glyph-name="uni0451" unicode="&#x451;" horiz-adv-x="584" 
d="M539 227h-369c11 -92 73 -132 156 -132c59 0 116 19 172 57h12v-121c-63 -32 -131 -45 -190 -45c-153 0 -276 91 -276 265s120 265 264 265c137 0 234 -80 235 -235c0 -12 -1 -30 -4 -54zM174 311h245c-7 71 -48 107 -113 107s-116 -38 -132 -107zM188 721
c39 0 68 -28 68 -68s-29 -68 -68 -68s-68 28 -68 68s29 68 68 68zM402 721c39 0 67 -28 67 -68s-28 -68 -67 -68s-68 28 -68 68s29 68 68 68z" />
    <glyph glyph-name="uni0436" unicode="&#x436;" horiz-adv-x="807" 
d="M790 0h-157l-166 240v-240h-128v240l-165 -240h-157l206 273l-197 229h154l159 -204v204h128v-204l160 204h154l-197 -229z" />
    <glyph glyph-name="uni0437" unicode="&#x437;" horiz-adv-x="522" 
d="M475 141c0 -95 -90 -155 -234 -155c-74 0 -136 12 -186 35v128h12c42 -37 98 -56 167 -56s111 21 111 61c0 39 -43 60 -116 60h-70v93h73c61 0 93 22 93 51c0 32 -36 51 -97 51c-57 0 -106 -16 -147 -49h-11v124c57 21 114 32 173 32c127 0 212 -53 212 -136
c0 -51 -33 -91 -86 -112c67 -21 106 -66 106 -127z" />
    <glyph glyph-name="uni0438" unicode="&#x438;" horiz-adv-x="608" 
d="M433 502h100v-502h-127v305l-231 -305h-100v502h127v-305z" />
    <glyph glyph-name="uni0439" unicode="&#x439;" horiz-adv-x="608" 
d="M433 502h100v-502h-127v305l-231 -305h-100v502h127v-305zM371 736h99v-17c0 -107 -62 -155 -166 -155c-103 0 -165 48 -165 155v17h99v-22c0 -47 25 -72 66 -72s67 25 67 72v22z" />
    <glyph glyph-name="uni043A" unicode="&#x43a;" horiz-adv-x="555" 
d="M545 0h-159l-183 240v-240h-128v502h128v-203l166 203h155l-199 -227z" />
    <glyph glyph-name="uni043B" unicode="&#x43b;" horiz-adv-x="596" 
d="M135 502h386v-502h-127v401h-144l-1 -55c-11 -293 -82 -344 -190 -346h-36v113h14c29 0 52 19 68 56s25 104 28 199z" />
    <glyph glyph-name="uni043C" unicode="&#x43c;" horiz-adv-x="684" 
d="M515 502h94v-502h-124v297l-124 -157h-37l-124 154v-294h-125v502h94l174 -222z" />
    <glyph glyph-name="uni043D" unicode="&#x43d;" horiz-adv-x="599" 
d="M397 502h127v-502h-127v213h-194v-213h-128v502h128v-188h194v188z" />
    <glyph glyph-name="uni043E" unicode="&#x43e;" horiz-adv-x="628" 
d="M314 516c154 0 271 -104 271 -265s-117 -265 -271 -265c-155 0 -270 104 -270 265s115 265 270 265zM314 102c81 0 141 57 141 149s-60 149 -141 149c-80 0 -141 -57 -141 -149c0 -91 61 -149 141 -149z" />
    <glyph glyph-name="uni043F" unicode="&#x43f;" horiz-adv-x="594" 
d="M75 502h444v-502h-127v401h-189v-401h-128v502z" />
    <glyph glyph-name="uni0440" unicode="&#x440;" horiz-adv-x="634" 
d="M590 251c0 -170 -114 -265 -234 -265c-60 0 -114 24 -153 68v-248h-128v696h109v-77c41 59 103 91 172 91c120 0 234 -95 234 -265zM460 251c0 97 -62 148 -134 148s-134 -51 -134 -148s62 -148 134 -148s134 51 134 148z" />
    <glyph glyph-name="uni0441" unicode="&#x441;" horiz-adv-x="520" 
d="M314 516c51 0 98 -12 143 -36v-126h-11c-43 31 -85 46 -126 46c-84 0 -147 -57 -147 -149s63 -149 151 -149c48 0 91 16 129 49h12v-129c-45 -24 -94 -36 -147 -36c-157 0 -274 97 -274 265c0 165 117 265 270 265z" />
    <glyph glyph-name="uni0442" unicode="&#x442;" horiz-adv-x="472" 
d="M451 502v-101h-151v-401h-128v401h-152v101h431z" />
    <glyph glyph-name="uni0443" unicode="&#x443;" horiz-adv-x="557" 
d="M398 502h135l-292 -696h-139l116 273l-196 423h139l124 -291z" />
    <glyph glyph-name="uni045E" unicode="&#x45e;" horiz-adv-x="557" 
d="M398 502h135l-292 -696h-139l116 273l-196 423h139l124 -291zM345 736h99v-17c0 -107 -62 -155 -166 -155c-103 0 -165 48 -165 155v17h99v-22c0 -47 25 -72 66 -72s67 25 67 72v22z" />
    <glyph glyph-name="uni0444" unicode="&#x444;" horiz-adv-x="761" 
d="M444 -14v-180h-127v180c-157 2 -273 100 -273 265s116 263 273 265v236h127v-236c158 -2 274 -100 274 -265s-116 -263 -274 -265zM317 103v296c-88 -3 -144 -57 -144 -148s56 -145 144 -148zM588 251c0 91 -56 145 -144 148v-296c88 3 144 57 144 148z" />
    <glyph glyph-name="uni0445" unicode="&#x445;" horiz-adv-x="547" 
d="M520 0h-142l-107 168l-108 -168h-138l175 258l-166 244h142l97 -152l95 152h139l-163 -241z" />
    <glyph glyph-name="uni0447" unicode="&#x447;" horiz-adv-x="560" 
d="M357 502h128v-502h-128v188c-42 -13 -81 -19 -117 -19c-113 0 -188 65 -188 181v152h128v-130c0 -57 33 -87 93 -87c24 0 52 5 84 15v202z" />
    <glyph glyph-name="uni0446" unicode="&#x446;" horiz-adv-x="634" 
d="M515 101h87v-241h-124v140h-403v502h128v-401h185v401h127v-401z" />
    <glyph glyph-name="uni0448" unicode="&#x448;" horiz-adv-x="850" 
d="M648 502h128v-502h-701v502h128v-401h158v401h128v-401h159v401z" />
    <glyph glyph-name="uni0449" unicode="&#x449;" horiz-adv-x="894" 
d="M776 101h87v-241h-125v140h-663v502h128v-401h158v401h128v-401h159v401h128v-401z" />
    <glyph glyph-name="uni044C" unicode="&#x44c;" horiz-adv-x="549" 
d="M507 169c0 -107 -76 -169 -195 -169h-237v502h128v-167h109c119 0 195 -61 195 -166zM377 169c0 43 -29 68 -82 68h-92v-137h92c53 0 82 25 82 69z" />
    <glyph glyph-name="uni044A" unicode="&#x44a;" horiz-adv-x="622" 
d="M579 169c0 -107 -76 -169 -195 -169h-237v401h-127v101h255v-167h109c120 0 195 -59 195 -166zM449 169c0 43 -29 68 -82 68h-92v-137h92c55 0 82 25 82 69z" />
    <glyph glyph-name="uni044B" unicode="&#x44b;" horiz-adv-x="757" 
d="M487 169c0 -107 -75 -169 -194 -169h-218v502h128v-167h90c119 0 194 -61 194 -166zM555 502h127v-502h-127v502zM358 169c0 43 -28 68 -83 68h-72v-137h72c55 0 83 25 83 69z" />
    <glyph glyph-name="uni0454" unicode="&#x454;" horiz-adv-x="517" 
d="M450 142h12v-123c-43 -22 -91 -33 -146 -33c-156 0 -272 94 -272 265c0 169 113 265 265 265c52 0 100 -11 143 -33v-119h-11c-41 27 -83 41 -126 41c-68 0 -120 -36 -137 -101h181v-95h-183c15 -72 70 -112 145 -112c49 0 92 15 129 45z" />
    <glyph glyph-name="uni044D" unicode="&#x44d;" horiz-adv-x="517" 
d="M473 251c0 -171 -116 -265 -272 -265c-55 0 -103 11 -146 33v123h12c37 -30 80 -45 129 -45c75 0 130 40 145 112h-183v95h181c-17 65 -69 101 -137 101c-43 0 -85 -14 -126 -41h-11v119c43 22 91 33 143 33c152 0 265 -96 265 -265z" />
    <glyph glyph-name="uni0456" unicode="&#x456;" horiz-adv-x="278" 
d="M139 740c45 0 80 -30 80 -78s-35 -78 -80 -78c-47 0 -81 30 -81 78s34 78 81 78zM75 502h128v-502h-128v502z" />
    <glyph glyph-name="uni0457" unicode="&#x457;" horiz-adv-x="278" 
d="M45 721c39 0 67 -28 67 -68s-28 -68 -67 -68s-68 28 -68 68s29 68 68 68zM233 721c39 0 68 -28 68 -68s-29 -68 -68 -68s-68 28 -68 68s29 68 68 68zM75 502h128v-502h-128v502z" />
    <glyph glyph-name="uni044E" unicode="&#x44e;" horiz-adv-x="843" 
d="M800 251c0 -163 -112 -265 -261 -265c-68 0 -126 20 -173 59s-76 93 -85 162h-78v-207h-128v502h128v-194h80c11 65 40 115 87 152s103 56 169 56c149 0 261 -102 261 -265zM670 251c0 93 -57 149 -132 149c-76 0 -134 -56 -134 -149s58 -149 134 -149
c75 0 132 56 132 149z" />
    <glyph glyph-name="uni044F" unicode="&#x44f;" horiz-adv-x="562" 
d="M252 502h235v-502h-128v176h-63l-120 -176h-147l140 188c-69 21 -112 73 -112 146c0 105 79 168 195 168zM273 266h86v136h-86c-51 0 -86 -25 -86 -68c0 -41 35 -68 86 -68z" />
    <glyph glyph-name="uni04C2" unicode="&#x4c2;" horiz-adv-x="807" 
d="M790 0h-157l-166 240v-240h-128v240l-165 -240h-157l206 273l-197 229h154l159 -204v204h128v-204l160 204h154l-197 -229zM470 736h99v-17c0 -107 -62 -155 -166 -155c-103 0 -165 48 -165 155v17h99v-22c0 -47 25 -72 66 -72s67 25 67 72v22z" />
    <glyph glyph-name="uni0430.ss01" horiz-adv-x="634" 
d="M449 502h110v-502h-110v77c-40 -59 -103 -91 -172 -91c-120 0 -233 95 -233 265s114 265 234 265c69 0 131 -32 171 -91v77zM441 251c0 97 -61 148 -134 148c-72 0 -134 -51 -134 -148s62 -148 134 -148c73 0 134 51 134 148z" />
    <glyph glyph-name="pi" unicode="&#x3c0;" horiz-adv-x="589" 
d="M550 112h12v-112h-34c-101 0 -164 58 -164 161v240h-146v-401h-128v401h-69v101h533v-101h-69v-222c0 -43 29 -67 65 -67z" />
    <glyph glyph-name="zero" unicode="0" horiz-adv-x="649" 
d="M324 714c148 0 268 -126 268 -364s-120 -364 -268 -364c-147 0 -267 126 -267 364s120 364 267 364zM324 111c79 0 129 82 129 239s-50 239 -129 239c-77 0 -128 -82 -128 -239s51 -239 128 -239z" />
    <glyph glyph-name="one" unicode="1" horiz-adv-x="400" 
d="M201 700h106v-700h-134v511c-33 -23 -77 -35 -130 -35v123c80 0 146 36 158 101z" />
    <glyph glyph-name="two" unicode="2" horiz-adv-x="528" 
d="M223 120h259v-120h-448v82l236 283c38 47 57 91 57 132c0 59 -36 92 -95 92c-57 0 -108 -31 -152 -94h-14v149c51 44 117 70 190 70c61 0 112 -17 151 -51c40 -33 60 -81 60 -144c0 -81 -36 -149 -105 -230z" />
    <glyph glyph-name="three" unicode="3" horiz-adv-x="518" 
d="M471 194c0 -124 -93 -208 -247 -208c-77 0 -141 20 -191 59v146h17c38 -61 92 -91 161 -91c80 0 128 42 128 105c0 67 -54 104 -146 104h-46v110h43c81 0 124 31 124 90c0 56 -37 91 -105 91c-53 0 -98 -20 -136 -61h-14v126c43 33 98 49 165 49c137 0 222 -75 222 -188
c0 -68 -30 -121 -91 -150c75 -33 116 -98 116 -182z" />
    <glyph glyph-name="four" unicode="4" horiz-adv-x="568" 
d="M536 261v-117h-79v-144h-135v144h-299v98l307 458h127v-439h79zM161 261h165v250z" />
    <glyph glyph-name="five" unicode="5" horiz-adv-x="553" 
d="M500 226c0 -151 -97 -240 -249 -240c-74 0 -141 20 -201 61v142h14c49 -54 105 -81 167 -81c76 0 131 38 131 121c0 79 -53 119 -124 119c-44 0 -85 -16 -116 -40l-57 16l55 376h343v-118h-246l-22 -140c29 11 58 17 89 17c124 0 216 -88 216 -233z" />
    <glyph glyph-name="six" unicode="6" horiz-adv-x="612" 
d="M563 231c0 -156 -105 -245 -235 -245c-137 0 -271 88 -271 332c0 267 124 396 291 396c58 0 112 -14 163 -41v-132h-15c-37 34 -82 51 -134 51c-93 0 -149 -55 -168 -188c40 39 96 59 153 59c112 0 216 -77 216 -232zM425 232c0 80 -51 124 -111 124s-110 -43 -110 -124
s50 -124 111 -124s110 43 110 124z" />
    <glyph glyph-name="seven" unicode="7" horiz-adv-x="517" 
d="M33 700h446v-77l-285 -623h-144l266 579h-283v121z" />
    <glyph glyph-name="eight" unicode="8" horiz-adv-x="605" 
d="M563 195c0 -126 -102 -209 -261 -209c-158 0 -260 83 -260 209c0 84 42 149 121 182c-57 32 -88 86 -88 150c0 108 92 187 227 187c136 0 228 -79 228 -187c0 -64 -31 -118 -88 -150c77 -33 121 -99 121 -182zM207 510c0 -56 39 -91 95 -91s96 35 96 91s-40 91 -96 91
s-95 -35 -95 -91zM431 207c0 65 -56 108 -129 108s-128 -44 -128 -108s55 -108 128 -108s129 43 129 108z" />
    <glyph glyph-name="nine" unicode="9" horiz-adv-x="612" 
d="M555 382c0 -267 -124 -396 -291 -396c-58 0 -112 14 -163 41v132h15c36 -34 81 -51 134 -51c93 0 151 57 168 193c-40 -40 -96 -60 -153 -60c-112 0 -216 77 -216 230s104 243 235 243c137 0 271 -88 271 -332zM408 470c0 80 -50 122 -111 122s-111 -42 -111 -122
c0 -79 52 -122 112 -122s110 43 110 122z" />
    <glyph glyph-name="uni24FF" unicode="&#x24ff;" horiz-adv-x="836" 
d="M55 350c-4 207 165 367 363 364c198 3 366 -157 363 -364c3 -207 -165 -367 -363 -364c-198 -3 -367 157 -363 364zM418 153c82 0 149 67 149 197s-67 197 -149 197s-149 -67 -149 -197s67 -197 149 -197zM418 469c35 0 61 -40 61 -119s-26 -119 -61 -119s-61 40 -61 119
s26 119 61 119z" />
    <glyph glyph-name="uni2776" unicode="&#x2776;" horiz-adv-x="836" 
d="M55 350c-4 207 165 367 363 364c198 3 366 -157 363 -364c3 -207 -165 -367 -363 -364c-198 -3 -367 157 -363 364zM389 426v-265h85v378h-67c-7 -35 -44 -53 -87 -53v-78c25 0 48 6 69 18z" />
    <glyph glyph-name="uni2777" unicode="&#x2777;" horiz-adv-x="836" 
d="M55 350c-4 207 165 367 363 364c198 3 366 -157 363 -364c3 -207 -165 -367 -363 -364c-198 -3 -367 157 -363 364zM299 161h247v75h-131l68 76c36 43 56 83 56 127c0 68 -50 108 -121 108c-39 0 -73 -12 -103 -36v-92h9c24 32 43 50 78 50c31 0 49 -16 49 -44
c0 -22 -10 -45 -31 -69l-121 -142v-53z" />
    <glyph glyph-name="uni2778" unicode="&#x2778;" horiz-adv-x="836" 
d="M55 350c-4 207 165 367 363 364c198 3 366 -157 363 -364c3 -207 -165 -367 -363 -364c-198 -3 -367 157 -363 364zM412 153c84 0 136 46 136 113c0 47 -23 82 -66 98c36 15 54 43 54 82c0 61 -45 101 -122 101c-35 0 -66 -9 -95 -26v-75h8c22 20 47 30 75 30
c33 0 52 -16 52 -43c0 -29 -22 -46 -62 -46h-24v-61h25c47 0 74 -17 74 -50c0 -31 -24 -52 -64 -52c-35 0 -67 16 -88 48h-8v-87c28 -21 63 -32 105 -32z" />
    <glyph glyph-name="uni2779" unicode="&#x2779;" horiz-adv-x="836" 
d="M55 350c-4 207 165 367 363 364c198 3 366 -157 363 -364c3 -207 -165 -367 -363 -364c-198 -3 -367 157 -363 364zM262 236h157v-75h84v75h42v73h-42v230h-80l-161 -242v-61zM344 309l80 123v-123h-80z" />
    <glyph glyph-name="uni277A" unicode="&#x277a;" horiz-adv-x="836" 
d="M55 350c-4 207 165 367 363 364c198 3 366 -157 363 -364c3 -207 -165 -367 -363 -364c-198 -3 -367 157 -363 364zM411 153c84 0 137 50 137 131c0 77 -49 124 -118 124c-15 0 -31 -3 -46 -9l10 67h133v73h-192l-28 -204l35 -10c19 12 38 18 57 18c37 0 62 -19 62 -56
c0 -40 -27 -58 -64 -58c-32 0 -62 15 -90 46h-8v-91c32 -21 69 -31 112 -31z" />
    <glyph glyph-name="uni277B" unicode="&#x277b;" horiz-adv-x="836" 
d="M55 350c-4 207 165 367 363 364c198 3 366 -157 363 -364c3 -207 -165 -367 -363 -364c-198 -3 -367 157 -363 364zM419 153c73 0 133 50 133 134c0 77 -52 118 -117 118c-31 0 -56 -8 -77 -25c11 61 39 91 85 91c28 0 52 -9 73 -28h8v84c-29 13 -58 20 -88 20
c-99 0 -165 -72 -165 -213c0 -65 14 -111 43 -139s64 -42 105 -42zM413 346c29 0 52 -21 52 -58s-23 -59 -52 -59s-51 22 -51 59s22 58 51 58z" />
    <glyph glyph-name="uni277C" unicode="&#x277c;" horiz-adv-x="836" 
d="M55 350c-4 207 165 367 363 364c198 3 366 -157 363 -364c3 -207 -165 -367 -363 -364c-198 -3 -367 157 -363 364zM308 463h146l-138 -302h91l148 329v49h-247v-76z" />
    <glyph glyph-name="uni277D" unicode="&#x277d;" horiz-adv-x="836" 
d="M55 350c-4 207 165 367 363 364c198 3 366 -157 363 -364c3 -207 -165 -367 -363 -364c-198 -3 -367 157 -363 364zM418 153c88 0 145 42 145 113c0 47 -25 82 -69 99c33 17 51 47 51 82c0 60 -52 100 -127 100c-76 0 -128 -40 -128 -100c0 -35 18 -65 51 -82
c-44 -17 -68 -52 -68 -99c0 -71 57 -113 145 -113zM418 480c27 0 47 -18 47 -46c0 -27 -20 -45 -47 -45s-47 18 -47 45c0 28 20 46 47 46zM418 331c36 0 64 -23 64 -56s-28 -54 -64 -54s-64 21 -64 54s28 56 64 56z" />
    <glyph glyph-name="uni277E" unicode="&#x277e;" horiz-adv-x="836" 
d="M55 350c-4 207 165 367 363 364c198 3 366 -157 363 -364c3 -207 -165 -367 -363 -364c-198 -3 -367 157 -363 364zM401 297c32 0 58 8 77 24c-11 -61 -39 -92 -85 -92c-29 0 -53 9 -74 28h-7v-84c28 -13 57 -20 88 -20c99 0 164 72 164 213c0 65 -14 111 -43 139
s-63 42 -104 42c-75 0 -133 -49 -133 -133c0 -77 52 -117 117 -117zM423 471c28 0 51 -22 51 -58s-22 -57 -51 -57s-53 21 -53 57s24 58 53 58z" />
    <glyph glyph-name="uni24EA" unicode="&#x24ea;" horiz-adv-x="836" 
d="M55 350c-4 207 165 367 363 364c198 3 366 -157 363 -364c3 -207 -165 -367 -363 -364c-198 -3 -367 157 -363 364zM703 350c0 167 -127 289 -285 289c-157 3 -288 -124 -285 -289c-3 -165 128 -292 285 -289c158 0 285 122 285 289zM418 547c82 0 149 -67 149 -197
s-67 -197 -149 -197s-149 67 -149 197s67 197 149 197zM418 231c35 0 61 40 61 119s-26 119 -61 119s-61 -40 -61 -119s26 -119 61 -119z" />
    <glyph glyph-name="uni2460" unicode="&#x2460;" horiz-adv-x="836" 
d="M781 350c3 -207 -165 -367 -363 -364c-198 -3 -367 157 -363 364c-4 207 165 367 363 364c198 3 366 -157 363 -364zM703 350c0 167 -127 289 -285 289c-157 3 -288 -124 -285 -289c-3 -165 128 -292 285 -289c158 0 285 122 285 289zM407 539h67v-378h-85v265
c-19 -12 -42 -18 -69 -18v78c43 0 80 18 87 53z" />
    <glyph glyph-name="uni2461" unicode="&#x2461;" horiz-adv-x="836" 
d="M781 350c3 -207 -165 -367 -363 -364c-198 -3 -367 157 -363 364c-4 207 165 367 363 364c198 3 366 -157 363 -364zM703 350c0 167 -127 289 -285 289c-157 3 -288 -124 -285 -289c-3 -165 128 -292 285 -289c158 0 285 122 285 289zM483 312l-69 -76h132v-75h-247v53
l121 142c21 24 31 47 31 69c0 28 -18 44 -49 44c-35 0 -54 -18 -78 -50h-9v92c30 24 64 36 103 36c71 0 121 -40 121 -108c0 -44 -20 -84 -56 -127z" />
    <glyph glyph-name="uni2462" unicode="&#x2462;" horiz-adv-x="836" 
d="M781 350c3 -207 -165 -367 -363 -364c-198 -3 -367 157 -363 364c-4 207 165 367 363 364c198 3 366 -157 363 -364zM703 350c0 167 -127 289 -285 289c-157 3 -288 -124 -285 -289c-3 -165 128 -292 285 -289c158 0 285 122 285 289zM548 266c0 -67 -52 -113 -136 -113
c-42 0 -77 11 -105 32v87h8c21 -32 53 -48 88 -48c40 0 64 21 64 52c0 33 -27 50 -74 50h-25v61h24c40 0 62 17 62 46c0 27 -19 43 -52 43c-28 0 -53 -10 -75 -30h-8v75c29 17 60 26 95 26c77 0 122 -40 122 -101c0 -40 -18 -67 -55 -82c44 -17 67 -51 67 -98z" />
    <glyph glyph-name="uni2463" unicode="&#x2463;" horiz-adv-x="836" 
d="M781 350c3 -207 -165 -367 -363 -364c-198 -3 -367 157 -363 364c-4 207 165 367 363 364c198 3 366 -157 363 -364zM703 350c0 167 -127 289 -285 289c-157 3 -288 -124 -285 -289c-3 -165 128 -292 285 -289c158 0 285 122 285 289zM503 539v-230h42v-73h-42v-75h-84
v75h-157v61l161 242h80zM424 433l-80 -124h80v124z" />
    <glyph glyph-name="uni2464" unicode="&#x2464;" horiz-adv-x="836" 
d="M781 350c3 -207 -165 -367 -363 -364c-198 -3 -367 157 -363 364c-4 207 165 367 363 364c198 3 366 -157 363 -364zM703 350c0 167 -127 289 -285 289c-157 3 -288 -124 -285 -289c-3 -165 128 -292 285 -289c158 0 285 122 285 289zM548 284c0 -81 -53 -131 -137 -131
c-43 0 -80 10 -112 31v91h8c28 -31 58 -46 90 -46c37 0 64 18 64 58c0 37 -25 56 -62 56c-19 0 -38 -6 -57 -18l-35 10l28 204h192v-73h-133l-10 -66c15 5 30 8 46 8c69 0 118 -47 118 -124z" />
    <glyph glyph-name="uni2465" unicode="&#x2465;" horiz-adv-x="836" 
d="M781 350c3 -207 -165 -367 -363 -364c-198 -3 -367 157 -363 364c-4 207 165 367 363 364c198 3 366 -157 363 -364zM703 350c0 167 -127 289 -285 289c-157 3 -288 -124 -285 -289c-3 -165 128 -292 285 -289c158 0 285 122 285 289zM552 287c0 -84 -60 -134 -133 -134
c-41 0 -76 14 -105 42s-43 74 -43 139c0 141 66 213 165 213c30 0 59 -7 88 -20v-84h-8c-21 19 -45 28 -73 28c-46 0 -74 -30 -85 -89c20 15 46 23 77 23c65 0 117 -41 117 -118zM465 288c0 37 -23 58 -52 58s-51 -21 -51 -58h-4h4c0 -37 22 -59 51 -59s52 22 52 59z" />
    <glyph glyph-name="uni2466" unicode="&#x2466;" horiz-adv-x="836" 
d="M781 350c3 -207 -165 -367 -363 -364c-198 -3 -367 157 -363 364c-4 207 165 367 363 364c198 3 366 -157 363 -364zM703 350c0 167 -127 289 -285 289c-157 3 -288 -124 -285 -289c-3 -165 128 -292 285 -289c158 0 285 122 285 289zM308 463v76h247v-49l-148 -329h-91
l138 302h-146z" />
    <glyph glyph-name="uni2467" unicode="&#x2467;" horiz-adv-x="836" 
d="M781 350c3 -207 -165 -367 -363 -364c-198 -3 -367 157 -363 364c-4 207 165 367 363 364c198 3 366 -157 363 -364zM703 350c0 167 -127 289 -285 289c-157 3 -288 -124 -285 -289c-3 -165 128 -292 285 -289c158 0 285 122 285 289zM563 266c0 -71 -57 -113 -145 -113
s-145 42 -145 113c0 47 24 80 68 99c-33 17 -51 47 -51 82c0 60 52 100 128 100c75 0 127 -40 127 -100c0 -37 -17 -64 -50 -82c44 -19 68 -52 68 -99zM371 434c0 -27 20 -45 47 -45s47 18 47 45c0 28 -20 46 -47 46s-47 -18 -47 -46zM482 275c0 33 -28 56 -64 56
s-64 -23 -64 -56s28 -54 64 -54s64 21 64 54z" />
    <glyph glyph-name="uni2468" unicode="&#x2468;" horiz-adv-x="836" 
d="M781 350c3 -207 -165 -367 -363 -364c-198 -3 -367 157 -363 364c-4 207 165 367 363 364c198 3 366 -157 363 -364zM703 350c0 167 -127 289 -285 289c-157 3 -288 -124 -285 -289c-3 -165 128 -292 285 -289c158 0 285 122 285 289zM564 366c0 -141 -65 -213 -164 -213
c-31 0 -60 7 -88 20v84h7c21 -19 45 -28 74 -28c46 0 74 30 85 91c-20 -15 -46 -23 -77 -23c-65 0 -117 40 -117 117c0 84 58 133 133 133c41 0 75 -14 104 -42s43 -74 43 -139zM474 413h4h-4c0 36 -23 58 -51 58c-29 0 -53 -22 -53 -58s24 -57 53 -57s51 21 51 57z" />
    <glyph glyph-name="zero.osf" horiz-adv-x="614" 
d="M571 251c0 -162 -116 -265 -264 -265c-149 0 -263 103 -263 265s114 265 263 265c148 0 264 -103 264 -265zM438 251c0 92 -56 146 -131 146s-131 -54 -131 -146s56 -146 131 -146s131 54 131 146z" />
    <glyph glyph-name="one.osf" horiz-adv-x="391" 
d="M201 502h106v-502h-131v315c-34 -25 -79 -37 -134 -37v123c80 0 147 36 159 101z" />
    <glyph glyph-name="two.osf" horiz-adv-x="523" 
d="M245 110h229v-110h-436v81l238 186c37 27 55 54 55 79c0 33 -35 52 -90 52c-63 0 -119 -26 -159 -55h-14v129c49 27 120 44 188 44c123 0 205 -56 205 -151c0 -61 -32 -115 -97 -162z" />
    <glyph glyph-name="three.osf" horiz-adv-x="511" 
d="M463 -1c0 -123 -91 -207 -246 -207c-77 0 -141 20 -191 59v145h17c38 -60 92 -90 161 -90c80 0 127 43 127 104c0 67 -53 103 -145 103h-46v110h43c81 0 124 30 124 89c0 56 -37 90 -105 90c-53 0 -98 -20 -136 -60h-15v125c45 33 100 49 165 49c139 0 223 -74 223 -186
c0 -68 -30 -121 -91 -150c75 -33 115 -98 115 -181z" />
    <glyph glyph-name="four.osf" horiz-adv-x="563" 
d="M535 117v-117h-79v-194h-135v194h-299v97l307 405h127v-385h79zM162 117h163v210z" />
    <glyph glyph-name="five.osf" horiz-adv-x="546" 
d="M498 31c0 -149 -97 -239 -249 -239c-75 0 -142 20 -201 61v142h14c49 -54 105 -81 167 -81c75 0 131 37 131 120c0 79 -53 118 -124 118c-44 0 -85 -16 -116 -40l-57 16l55 374h343v-118h-246l-22 -138c28 11 58 17 89 17c124 0 216 -89 216 -232z" />
    <glyph glyph-name="six.osf" horiz-adv-x="612" 
d="M563 231c0 -156 -105 -245 -235 -245c-137 0 -271 88 -271 332c0 267 124 396 291 396c58 0 112 -14 163 -41v-132h-15c-37 34 -82 51 -134 51c-93 0 -149 -55 -168 -188c40 39 96 59 153 59c112 0 216 -77 216 -232zM425 232c0 80 -51 124 -111 124s-110 -43 -110 -124
s50 -124 111 -124s110 43 110 124z" />
    <glyph glyph-name="seven.osf" horiz-adv-x="509" 
d="M32 502h446v-77l-285 -619h-144l266 575h-283v121z" />
    <glyph glyph-name="eight.osf" horiz-adv-x="605" 
d="M563 195c0 -126 -102 -209 -261 -209c-158 0 -260 83 -260 209c0 84 42 149 121 182c-57 32 -88 86 -88 150c0 108 92 187 227 187c136 0 228 -79 228 -187c0 -64 -31 -118 -88 -150c77 -33 121 -99 121 -182zM207 510c0 -56 39 -91 95 -91s96 35 96 91s-40 91 -96 91
s-95 -35 -95 -91zM431 207c0 65 -56 108 -129 108s-128 -44 -128 -108s55 -108 128 -108s129 43 129 108z" />
    <glyph glyph-name="nine.osf" horiz-adv-x="612" 
d="M555 186c0 -267 -124 -394 -291 -394c-58 0 -112 14 -163 41v132h15c36 -34 81 -51 134 -51c93 0 151 55 168 191c-40 -39 -96 -59 -153 -59c-112 0 -216 76 -216 228c0 153 104 242 235 242c137 0 271 -87 271 -330zM408 273c0 80 -50 121 -111 121s-111 -41 -111 -121
c0 -77 51 -120 112 -120c60 0 110 43 110 120z" />
    <glyph glyph-name="zero.subs" horiz-adv-x="392" 
d="M196 220c86 0 156 -70 156 -197s-70 -197 -156 -197c-87 0 -157 70 -157 197s70 197 157 197zM196 -89c36 0 61 43 61 112s-25 112 -61 112s-62 -43 -62 -112s26 -112 62 -112z" />
    <glyph glyph-name="one.subs" horiz-adv-x="258" 
d="M120 212h73v-378h-90v258c-21 -11 -45 -17 -74 -17v83c47 0 86 19 91 54z" />
    <glyph glyph-name="two.subs" horiz-adv-x="320" 
d="M156 -85h130v-81h-261v56l132 142c19 22 28 42 28 61c0 27 -20 42 -49 42c-37 0 -63 -22 -84 -50h-9v100c33 23 69 35 109 35c73 0 127 -41 127 -113c0 -45 -22 -84 -59 -124z" />
    <glyph glyph-name="three.subs" horiz-adv-x="308" 
d="M277 -61c0 -68 -53 -113 -144 -113c-43 0 -80 10 -111 31v94h11c22 -32 53 -48 93 -48s61 20 61 45c0 28 -27 44 -76 44h-25v73h24c43 0 64 13 64 40c0 25 -17 38 -52 38c-30 0 -56 -10 -77 -29h-9v81c27 17 60 25 97 25c83 0 130 -42 130 -103c0 -39 -18 -66 -55 -81
c45 -17 69 -50 69 -97z" />
    <glyph glyph-name="four.subs" horiz-adv-x="345" 
d="M319 -15v-78h-43v-73h-92v73h-164v66l169 239h87v-227h43zM108 -15h79v114z" />
    <glyph glyph-name="five.subs" horiz-adv-x="334" 
d="M297 -43c0 -81 -56 -131 -145 -131c-42 0 -81 10 -117 31v95h10c27 -29 58 -44 94 -44c37 0 65 17 65 52s-25 51 -64 51c-21 0 -40 -5 -58 -15l-39 12l30 204h203v-79h-138l-9 -56c13 4 28 6 44 6c75 0 124 -50 124 -126z" />
    <glyph glyph-name="six.subs" horiz-adv-x="371" 
d="M334 -39c0 -85 -58 -135 -137 -135c-43 0 -81 14 -112 43c-31 28 -46 75 -46 140c0 137 68 211 172 211c33 0 64 -7 93 -20v-88h-9c-23 17 -49 26 -76 26c-48 0 -78 -24 -89 -83c20 20 47 30 81 30c68 0 123 -41 123 -124zM242 -38c0 33 -24 53 -53 53s-52 -20 -52 -53
c0 -35 23 -54 52 -54s53 19 53 54z" />
    <glyph glyph-name="seven.subs" horiz-adv-x="319" 
d="M27 212h263v-53l-158 -325h-97l144 296h-152v82z" />
    <glyph glyph-name="eight.subs" horiz-adv-x="365" 
d="M334 -58c0 -71 -59 -116 -152 -116s-152 45 -152 116c0 44 22 77 65 96c-31 17 -47 44 -47 79c0 60 54 103 134 103c81 0 135 -43 135 -103c0 -35 -16 -62 -48 -79c43 -19 65 -51 65 -96zM137 105c0 -25 20 -41 45 -41s45 16 45 41c0 24 -20 41 -45 41s-45 -17 -45 -41z
M245 -50c0 28 -27 49 -63 49s-62 -21 -62 -49c0 -29 26 -50 62 -50s63 21 63 50z" />
    <glyph glyph-name="nine.subs" horiz-adv-x="371" 
d="M331 37c0 -139 -68 -211 -171 -211c-33 0 -64 7 -94 20v88h10c22 -17 47 -26 76 -26c48 0 79 25 90 86c-20 -21 -48 -31 -83 -31c-68 0 -123 40 -123 123c0 85 57 134 137 134c43 0 80 -14 111 -43c31 -28 47 -75 47 -140zM234 85c0 33 -24 53 -52 53
c-29 0 -53 -20 -53 -53s24 -51 53 -51c28 0 52 18 52 51z" />
    <glyph glyph-name="zero.tf" horiz-adv-x="614" 
d="M307 714c141 0 257 -126 257 -364s-116 -364 -257 -364s-257 126 -257 364s116 364 257 364zM307 111c72 0 119 83 119 239s-47 239 -119 239s-119 -83 -119 -239s47 -239 119 -239z" />
    <glyph glyph-name="one.tf" horiz-adv-x="614" 
d="M390 117h180v-117h-513v117h199v401c-41 -27 -100 -42 -161 -42v123c45 0 87 9 124 26c38 18 59 43 64 75h107v-583z" />
    <glyph glyph-name="two.tf" horiz-adv-x="614" 
d="M251 120h273v-120h-464v82l247 282c41 47 61 91 61 133c0 59 -38 92 -101 92c-61 0 -114 -31 -159 -94h-15v149c52 44 121 70 197 70c63 0 115 -17 156 -51c41 -33 61 -81 61 -144c0 -81 -37 -151 -108 -231z" />
    <glyph glyph-name="three.tf" horiz-adv-x="614" 
d="M528 194c0 -124 -98 -208 -259 -208c-81 0 -147 20 -198 59v146h17c39 -61 95 -91 169 -91c85 0 138 42 138 105c0 67 -57 104 -156 104h-48v110h45c87 0 133 31 133 90c0 56 -41 91 -113 91c-56 0 -104 -20 -144 -61h-14v126c45 33 103 49 172 49
c143 0 232 -77 232 -188c0 -68 -33 -121 -97 -150c80 -33 123 -98 123 -182z" />
    <glyph glyph-name="four.tf" horiz-adv-x="614" 
d="M566 261v-117h-82v-144h-134v144h-306v98l314 458h126v-439h82zM182 261h171v253z" />
    <glyph glyph-name="five.tf" horiz-adv-x="614" 
d="M537 226c0 -151 -99 -240 -256 -240c-76 0 -145 20 -207 61v142h15c51 -54 108 -81 172 -81c79 0 138 38 138 121c0 79 -57 120 -130 120c-47 0 -89 -16 -121 -41l-57 16l56 376h352v-118h-255l-23 -140c29 12 60 18 94 18c126 0 222 -89 222 -234z" />
    <glyph glyph-name="six.tf" horiz-adv-x="614" 
d="M565 231c0 -156 -103 -245 -234 -245c-137 0 -271 88 -271 332c0 268 124 396 291 396c58 0 112 -14 163 -41v-132h-15c-37 34 -82 51 -134 51c-93 0 -150 -55 -169 -188c41 40 97 60 154 60c111 0 215 -77 215 -233zM429 232c0 80 -52 125 -112 125
c-61 0 -111 -44 -111 -125s51 -124 112 -124s111 43 111 124z" />
    <glyph glyph-name="seven.tf" horiz-adv-x="614" 
d="M77 700h466v-77l-302 -623h-145l282 579h-301v121z" />
    <glyph glyph-name="eight.tf" horiz-adv-x="614" 
d="M563 195c0 -126 -101 -209 -256 -209s-256 83 -256 209c0 83 42 149 118 182c-57 32 -88 86 -88 150c0 108 93 187 226 187s226 -79 226 -187c0 -64 -31 -118 -88 -150c76 -33 118 -99 118 -182zM212 510c0 -56 39 -91 95 -91s95 35 95 91s-39 91 -95 91s-95 -35 -95 -91
zM432 207c0 64 -54 109 -125 109s-125 -45 -125 -109s54 -108 125 -108s125 44 125 108z" />
    <glyph glyph-name="nine.tf" horiz-adv-x="614" 
d="M554 382c0 -268 -124 -396 -291 -396c-58 0 -112 14 -163 41v132h15c37 -34 82 -51 134 -51c95 0 152 56 169 192c-40 -40 -95 -60 -154 -60c-111 0 -215 77 -215 231c0 153 103 243 234 243c137 0 271 -88 271 -332zM408 470c0 80 -51 122 -112 122s-111 -42 -111 -122
s51 -123 112 -123s111 43 111 123z" />
    <glyph glyph-name="zero.tosf" horiz-adv-x="614" 
d="M307 516c147 0 261 -103 261 -265s-114 -265 -261 -265s-261 103 -261 265s114 265 261 265zM307 105c73 0 129 54 129 146s-56 146 -129 146s-129 -54 -129 -146s56 -146 129 -146z" />
    <glyph glyph-name="one.tosf" horiz-adv-x="614" 
d="M401 117h182v-117h-513v117h201v204c-41 -28 -101 -43 -162 -43v123c45 0 86 9 123 26c38 18 60 43 65 75h104v-385z" />
    <glyph glyph-name="two.tosf" horiz-adv-x="614" 
d="M280 110h243v-110h-453v81l250 185c40 29 60 56 60 80c0 33 -38 52 -97 52c-58 0 -114 -18 -167 -55h-14v129c52 27 124 44 195 44c128 0 214 -56 214 -151c0 -61 -34 -115 -103 -162z" />
    <glyph glyph-name="three.tosf" horiz-adv-x="614" 
d="M524 -1c0 -123 -98 -207 -259 -207c-81 0 -147 20 -199 59v145h17c40 -60 97 -90 170 -90c85 0 139 43 139 104c0 65 -58 103 -157 103h-49v109h46c87 0 134 31 134 90c0 56 -41 90 -114 90c-57 0 -105 -20 -145 -60h-14v125c47 33 104 49 173 49c143 0 232 -76 232 -186
c0 -68 -31 -121 -95 -150c79 -33 121 -98 121 -181z" />
    <glyph glyph-name="four.tosf" horiz-adv-x="614" 
d="M565 117v-117h-81v-194h-134v194h-307v97l314 405h127v-385h81zM182 117h171v222z" />
    <glyph glyph-name="five.tosf" horiz-adv-x="614" 
d="M541 31c0 -149 -100 -239 -256 -239c-77 0 -146 20 -208 61v142h15c51 -54 108 -81 173 -81c79 0 138 37 138 120c0 79 -56 118 -131 118c-47 0 -89 -16 -121 -40l-57 16l57 374h352v-118h-256l-23 -139c33 12 64 18 95 18c126 0 222 -89 222 -232z" />
    <glyph glyph-name="six.tosf" horiz-adv-x="614" 
d="M565 231c0 -156 -103 -245 -234 -245c-137 0 -271 88 -271 332c0 268 124 396 291 396c58 0 112 -14 163 -41v-132h-15c-37 34 -82 51 -134 51c-93 0 -150 -55 -169 -188c41 40 97 60 154 60c111 0 215 -77 215 -233zM429 232c0 80 -52 125 -112 125
c-61 0 -111 -44 -111 -125s51 -124 112 -124s111 43 111 124z" />
    <glyph glyph-name="seven.tosf" horiz-adv-x="614" 
d="M74 502h467v-77l-303 -619h-145l285 575h-304v121z" />
    <glyph glyph-name="eight.tosf" horiz-adv-x="614" 
d="M563 195c0 -126 -101 -209 -256 -209s-256 83 -256 209c0 83 42 149 118 182c-57 32 -88 86 -88 150c0 108 93 187 226 187s226 -79 226 -187c0 -64 -31 -118 -88 -150c76 -33 118 -99 118 -182zM212 510c0 -56 39 -91 95 -91s95 35 95 91s-39 91 -95 91s-95 -35 -95 -91
zM432 207c0 64 -54 109 -125 109s-125 -45 -125 -109s54 -108 125 -108s125 44 125 108z" />
    <glyph glyph-name="nine.tosf" horiz-adv-x="614" 
d="M554 186c0 -267 -124 -394 -291 -394c-58 0 -112 14 -163 41v132h15c37 -34 82 -51 134 -51c95 0 152 55 169 191c-40 -39 -97 -59 -154 -59c-111 0 -215 75 -215 229c0 153 103 242 234 242c137 0 271 -87 271 -331zM408 274c0 80 -51 121 -112 121s-111 -41 -111 -121
c0 -79 51 -121 112 -121s111 42 111 121z" />
    <glyph glyph-name="fraction" unicode="&#x2044;" horiz-adv-x="256" 
d="M325 700h113l-506 -700h-114z" />
    <glyph glyph-name="onehalf" unicode="&#xbd;" horiz-adv-x="834" 
d="M120 700h73v-378h-90v258c-21 -11 -45 -17 -74 -17v83c47 0 86 19 91 54zM583 700h113l-506 -700h-114zM671 81h129v-81h-261v56l132 142c19 22 28 42 28 61c0 27 -20 42 -49 42c-37 0 -63 -22 -84 -50h-9v100c33 23 69 35 109 35c73 0 127 -41 127 -113
c0 -45 -22 -84 -59 -124z" />
    <glyph glyph-name="onequarter" unicode="&#xbc;" horiz-adv-x="810" 
d="M120 700h73v-378h-90v258c-21 -11 -45 -17 -74 -17v83c47 0 86 19 91 54zM583 700h113l-506 -700h-114zM784 151v-78h-43v-73h-92v73h-164v66l169 239h87v-227h43zM574 151h78v113z" />
    <glyph glyph-name="threequarters" unicode="&#xbe;" horiz-adv-x="861" 
d="M277 427c0 -68 -53 -113 -144 -113c-43 0 -80 10 -111 31v94h11c22 -32 53 -48 93 -48s61 20 61 45c0 28 -27 44 -76 44h-25v73h24c43 0 64 13 64 40c0 25 -17 38 -52 38c-30 0 -56 -10 -77 -29h-9v81c27 17 60 25 97 25c83 0 130 -42 130 -103c0 -39 -18 -66 -55 -81
c45 -17 69 -50 69 -97zM633 700h113l-506 -700h-114zM835 151v-78h-43v-73h-92v73h-164v66l169 239h87v-227h43zM625 151h78v113z" />
    <glyph glyph-name="oneeighth" unicode="&#x215b;" horiz-adv-x="861" 
d="M120 700h73v-378h-90v258c-21 -11 -45 -17 -74 -17v83c47 0 86 19 91 54zM583 700h113l-506 -700h-114zM830 108c0 -71 -59 -116 -152 -116s-152 45 -152 116c0 44 24 79 65 96c-31 17 -47 44 -47 79c0 60 54 103 134 103c81 0 135 -43 135 -103c0 -35 -16 -62 -48 -79
c43 -17 65 -52 65 -96zM633 271c0 -25 20 -41 45 -41s45 16 45 41c0 24 -20 41 -45 41s-45 -17 -45 -41zM741 116c0 28 -27 49 -63 49s-62 -21 -62 -49c0 -29 26 -50 62 -50s63 21 63 50z" />
    <glyph glyph-name="threeeighths" unicode="&#x215c;" horiz-adv-x="912" 
d="M277 427c0 -68 -53 -113 -144 -113c-43 0 -80 10 -111 31v94h11c22 -32 53 -48 93 -48s61 20 61 45c0 28 -27 44 -76 44h-25v73h24c43 0 64 13 64 40c0 25 -17 38 -52 38c-30 0 -56 -10 -77 -29h-9v81c27 17 60 25 97 25c83 0 130 -42 130 -103c0 -39 -18 -66 -55 -81
c45 -17 69 -50 69 -97zM633 700h113l-506 -700h-114zM881 108c0 -71 -59 -116 -152 -116s-152 45 -152 116c0 44 24 79 65 96c-31 17 -47 44 -47 79c0 60 54 103 134 103c81 0 135 -43 135 -103c0 -35 -16 -62 -48 -79c43 -17 65 -52 65 -96zM684 271c0 -25 20 -41 45 -41
s45 16 45 41c0 24 -20 41 -45 41s-45 -17 -45 -41zM792 116c0 28 -27 49 -63 49s-62 -21 -62 -49c0 -29 26 -50 62 -50s63 21 63 50z" />
    <glyph glyph-name="fiveeighths" unicode="&#x215d;" horiz-adv-x="938" 
d="M297 445c0 -81 -56 -131 -145 -131c-42 0 -81 10 -117 31v95h10c27 -29 58 -44 94 -44c37 0 65 17 65 52s-25 51 -64 51c-21 0 -40 -5 -58 -15l-39 12l30 204h203v-79h-138l-9 -56c13 4 28 6 44 6c75 0 124 -50 124 -126zM659 700h113l-506 -700h-114zM907 108
c0 -71 -59 -116 -152 -116s-152 45 -152 116c0 44 24 79 65 96c-31 17 -47 44 -47 79c0 60 54 103 134 103c81 0 135 -43 135 -103c0 -35 -16 -62 -48 -79c43 -17 65 -52 65 -96zM710 271c0 -25 20 -41 45 -41s45 16 45 41c0 24 -20 41 -45 41s-45 -17 -45 -41zM818 116
c0 28 -27 49 -63 49s-62 -21 -62 -49c0 -29 26 -50 62 -50s63 21 63 50z" />
    <glyph glyph-name="seveneighths" unicode="&#x215e;" horiz-adv-x="863" 
d="M27 700h263v-53l-158 -325h-97l144 296h-152v82zM585 700h113l-506 -700h-114zM832 108c0 -71 -59 -116 -152 -116s-152 45 -152 116c0 44 24 79 65 96c-31 17 -47 44 -47 79c0 60 54 103 134 103c81 0 135 -43 135 -103c0 -35 -16 -62 -48 -79c43 -17 65 -52 65 -96z
M635 271c0 -25 20 -41 45 -41s45 16 45 41c0 24 -20 41 -45 41s-45 -17 -45 -41zM743 116c0 28 -27 49 -63 49s-62 -21 -62 -49c0 -29 26 -50 62 -50s63 21 63 50z" />
    <glyph glyph-name="zero.dnom" horiz-adv-x="392" 
d="M196 386c86 0 156 -70 156 -197s-70 -197 -156 -197c-87 0 -157 70 -157 197s70 197 157 197zM196 77c36 0 61 43 61 112s-25 112 -61 112s-62 -43 -62 -112s26 -112 62 -112z" />
    <glyph glyph-name="one.dnom" horiz-adv-x="258" 
d="M120 378h73v-378h-90v258c-21 -11 -45 -17 -74 -17v83c47 0 86 19 91 54z" />
    <glyph glyph-name="two.dnom" horiz-adv-x="320" 
d="M157 81h129v-81h-261v56l132 142c19 22 28 42 28 61c0 27 -20 42 -49 42c-37 0 -63 -22 -84 -50h-9v100c33 23 69 35 109 35c73 0 127 -41 127 -113c0 -45 -22 -84 -59 -124z" />
    <glyph glyph-name="three.dnom" horiz-adv-x="308" 
d="M277 105c0 -68 -53 -113 -144 -113c-43 0 -80 10 -111 31v94h11c22 -32 53 -48 93 -48s61 20 61 45c0 28 -27 44 -76 44h-25v73h24c43 0 64 13 64 40c0 25 -17 38 -52 38c-30 0 -56 -10 -77 -29h-9v81c27 17 60 25 97 25c83 0 130 -42 130 -103c0 -39 -18 -66 -55 -81
c45 -17 69 -50 69 -97z" />
    <glyph glyph-name="four.dnom" horiz-adv-x="345" 
d="M319 151v-78h-43v-73h-92v73h-164v66l169 239h87v-227h43zM109 151h78v113z" />
    <glyph glyph-name="five.dnom" horiz-adv-x="334" 
d="M297 123c0 -81 -56 -131 -145 -131c-42 0 -81 10 -117 31v95h10c27 -29 58 -44 94 -44c37 0 65 17 65 52s-25 51 -64 51c-21 0 -40 -5 -58 -15l-39 12l30 204h203v-79h-138l-9 -56c13 4 27 6 44 6c75 0 124 -50 124 -126z" />
    <glyph glyph-name="six.dnom" horiz-adv-x="371" 
d="M334 127c0 -85 -58 -135 -137 -135c-43 0 -81 14 -112 42c-31 29 -46 76 -46 141c0 137 68 211 172 211c33 0 64 -7 93 -20v-88h-9c-23 17 -49 26 -76 26c-48 0 -78 -24 -89 -84c20 21 47 31 81 31c68 0 123 -41 123 -124zM242 128c0 33 -24 53 -53 53s-52 -20 -52 -53
c0 -35 23 -54 52 -54s53 19 53 54z" />
    <glyph glyph-name="seven.dnom" horiz-adv-x="319" 
d="M27 378h263v-53l-158 -325h-97l144 296h-152v82z" />
    <glyph glyph-name="eight.dnom" horiz-adv-x="365" 
d="M334 108c0 -71 -59 -116 -152 -116s-152 45 -152 116c0 44 24 79 65 96c-31 17 -47 44 -47 79c0 60 54 103 134 103c81 0 135 -43 135 -103c0 -35 -16 -62 -48 -79c43 -17 65 -52 65 -96zM137 271c0 -25 20 -41 45 -41s45 16 45 41c0 24 -20 41 -45 41s-45 -17 -45 -41z
M245 116c0 28 -27 49 -63 49s-62 -21 -62 -49c0 -29 26 -50 62 -50s63 21 63 50z" />
    <glyph glyph-name="nine.dnom" horiz-adv-x="371" 
d="M331 203c0 -139 -68 -211 -171 -211c-33 0 -64 7 -94 20v88h10c22 -17 47 -26 76 -26c48 0 78 25 89 86c-20 -21 -47 -31 -82 -31c-68 0 -123 40 -123 123c0 85 57 134 137 134c43 0 80 -14 111 -43c31 -28 47 -75 47 -140zM234 251c0 33 -24 53 -52 53
c-29 0 -53 -20 -53 -53s24 -51 53 -51c28 0 52 18 52 51z" />
    <glyph glyph-name="zero.numr" horiz-adv-x="392" 
d="M196 708c86 0 156 -70 156 -197s-70 -197 -156 -197c-87 0 -157 70 -157 197s70 197 157 197zM196 399c36 0 61 43 61 112s-25 112 -61 112s-62 -43 -62 -112s26 -112 62 -112z" />
    <glyph glyph-name="one.numr" horiz-adv-x="258" 
d="M120 700h73v-378h-90v258c-21 -11 -45 -17 -74 -17v83c47 0 86 19 91 54z" />
    <glyph glyph-name="two.numr" horiz-adv-x="320" 
d="M157 403h129v-81h-261v56l132 142c19 22 28 42 28 61c0 27 -20 42 -49 42c-37 0 -63 -22 -84 -50h-9v100c33 23 69 35 109 35c73 0 127 -41 127 -113c0 -45 -22 -84 -59 -124z" />
    <glyph glyph-name="three.numr" horiz-adv-x="308" 
d="M277 427c0 -68 -53 -113 -144 -113c-43 0 -80 10 -111 31v94h11c22 -32 53 -48 93 -48s61 20 61 45c0 28 -27 44 -76 44h-25v73h24c43 0 64 13 64 40c0 25 -17 38 -52 38c-30 0 -56 -10 -77 -29h-9v81c27 17 60 25 97 25c83 0 130 -42 130 -103c0 -39 -18 -66 -55 -81
c45 -17 69 -50 69 -97z" />
    <glyph glyph-name="four.numr" horiz-adv-x="345" 
d="M319 473v-78h-43v-73h-92v73h-164v66l169 239h87v-227h43zM109 473h78v113z" />
    <glyph glyph-name="five.numr" horiz-adv-x="334" 
d="M297 445c0 -81 -56 -131 -145 -131c-42 0 -81 10 -117 31v95h10c27 -29 58 -44 94 -44c37 0 65 17 65 52s-25 51 -64 51c-21 0 -40 -5 -58 -15l-39 12l30 204h203v-79h-138l-9 -56c13 4 28 6 44 6c75 0 124 -50 124 -126z" />
    <glyph glyph-name="six.numr" horiz-adv-x="371" 
d="M334 449c0 -85 -58 -135 -137 -135c-43 0 -81 14 -112 42c-31 29 -46 76 -46 141c0 137 68 211 172 211c33 0 64 -7 93 -20v-88h-9c-23 17 -49 26 -76 26c-48 0 -78 -24 -89 -84c20 21 47 31 81 31c68 0 123 -41 123 -124zM242 450c0 33 -24 53 -53 53s-52 -20 -52 -53
c0 -35 23 -54 52 -54s53 19 53 54z" />
    <glyph glyph-name="seven.numr" horiz-adv-x="319" 
d="M27 700h263v-53l-158 -325h-97l144 296h-152v82z" />
    <glyph glyph-name="eight.numr" horiz-adv-x="365" 
d="M334 430c0 -71 -59 -116 -152 -116s-152 45 -152 116c0 44 24 79 65 96c-31 17 -47 44 -47 79c0 60 54 103 134 103c81 0 135 -43 135 -103c0 -35 -16 -62 -48 -79c43 -17 65 -52 65 -96zM137 593c0 -25 20 -41 45 -41s45 16 45 41c0 24 -20 41 -45 41s-45 -17 -45 -41z
M245 438c0 28 -27 49 -63 49s-62 -21 -62 -49c0 -29 26 -50 62 -50s63 21 63 50z" />
    <glyph glyph-name="nine.numr" horiz-adv-x="371" 
d="M331 525c0 -139 -68 -211 -171 -211c-33 0 -64 7 -94 20v88h10c22 -17 47 -26 76 -26c48 0 78 25 89 86c-20 -21 -47 -31 -82 -31c-68 0 -123 40 -123 123c0 85 57 134 137 134c43 0 80 -14 111 -43c31 -28 47 -75 47 -140zM234 573c0 33 -24 53 -52 53
c-29 0 -53 -20 -53 -53s24 -51 53 -51c28 0 52 18 52 51z" />
    <glyph glyph-name="uni2080" unicode="&#x2080;" horiz-adv-x="392" 
d="M196 220c86 0 156 -70 156 -197s-70 -197 -156 -197c-87 0 -157 70 -157 197s70 197 157 197zM196 -89c36 0 61 43 61 112s-25 112 -61 112s-62 -43 -62 -112s26 -112 62 -112z" />
    <glyph glyph-name="uni2081" unicode="&#x2081;" horiz-adv-x="258" 
d="M120 212h73v-378h-90v258c-21 -11 -45 -17 -74 -17v83c47 0 86 19 91 54z" />
    <glyph glyph-name="uni2082" unicode="&#x2082;" horiz-adv-x="320" 
d="M156 -85h130v-81h-261v56l132 142c19 22 28 42 28 61c0 27 -20 42 -49 42c-37 0 -63 -22 -84 -50h-9v100c33 23 69 35 109 35c73 0 127 -41 127 -113c0 -45 -22 -84 -59 -124z" />
    <glyph glyph-name="uni2083" unicode="&#x2083;" horiz-adv-x="308" 
d="M277 -61c0 -68 -53 -113 -144 -113c-43 0 -80 10 -111 31v94h11c22 -32 53 -48 93 -48s61 20 61 45c0 28 -27 44 -76 44h-25v73h24c43 0 64 13 64 40c0 25 -17 38 -52 38c-30 0 -56 -10 -77 -29h-9v81c27 17 60 25 97 25c83 0 130 -42 130 -103c0 -39 -18 -66 -55 -81
c45 -17 69 -50 69 -97z" />
    <glyph glyph-name="uni2084" unicode="&#x2084;" horiz-adv-x="345" 
d="M319 -15v-78h-43v-73h-92v73h-164v66l169 239h87v-227h43zM108 -15h79v114z" />
    <glyph glyph-name="uni2085" unicode="&#x2085;" horiz-adv-x="334" 
d="M297 -43c0 -81 -56 -131 -145 -131c-42 0 -81 10 -117 31v95h10c27 -29 58 -44 94 -44c37 0 65 17 65 52s-25 51 -64 51c-21 0 -40 -5 -58 -15l-39 12l30 204h203v-79h-138l-9 -56c13 4 28 6 44 6c75 0 124 -50 124 -126z" />
    <glyph glyph-name="uni2086" unicode="&#x2086;" horiz-adv-x="371" 
d="M334 -39c0 -85 -58 -135 -137 -135c-43 0 -81 14 -112 43c-31 28 -46 75 -46 140c0 137 68 211 172 211c33 0 64 -7 93 -20v-88h-9c-23 17 -49 26 -76 26c-48 0 -78 -24 -89 -83c20 20 47 30 81 30c68 0 123 -41 123 -124zM242 -38c0 33 -24 53 -53 53s-52 -20 -52 -53
c0 -35 23 -54 52 -54s53 19 53 54z" />
    <glyph glyph-name="uni2087" unicode="&#x2087;" horiz-adv-x="319" 
d="M27 212h263v-53l-158 -325h-97l144 296h-152v82z" />
    <glyph glyph-name="uni2088" unicode="&#x2088;" horiz-adv-x="365" 
d="M334 -58c0 -71 -59 -116 -152 -116s-152 45 -152 116c0 44 22 77 65 96c-31 17 -47 44 -47 79c0 60 54 103 134 103c81 0 135 -43 135 -103c0 -35 -16 -62 -48 -79c43 -19 65 -51 65 -96zM137 105c0 -25 20 -41 45 -41s45 16 45 41c0 24 -20 41 -45 41s-45 -17 -45 -41z
M245 -50c0 28 -27 49 -63 49s-62 -21 -62 -49c0 -29 26 -50 62 -50s63 21 63 50z" />
    <glyph glyph-name="uni2089" unicode="&#x2089;" horiz-adv-x="371" 
d="M331 37c0 -139 -68 -211 -171 -211c-33 0 -64 7 -94 20v88h10c22 -17 47 -26 76 -26c48 0 79 25 90 86c-20 -21 -48 -31 -83 -31c-68 0 -123 40 -123 123c0 85 57 134 137 134c43 0 80 -14 111 -43c31 -28 47 -75 47 -140zM234 85c0 33 -24 53 -52 53
c-29 0 -53 -20 -53 -53s24 -51 53 -51c28 0 52 18 52 51z" />
    <glyph glyph-name="uni2070" unicode="&#x2070;" horiz-adv-x="392" 
d="M196 794c86 0 156 -70 156 -197s-70 -197 -156 -197c-87 0 -157 70 -157 197s70 197 157 197zM196 485c36 0 61 43 61 112s-25 112 -61 112s-62 -43 -62 -112s26 -112 62 -112z" />
    <glyph glyph-name="uni00B9" unicode="&#xb9;" horiz-adv-x="258" 
d="M120 786h73v-378h-90v258c-21 -11 -45 -17 -74 -17v83c47 0 86 19 91 54z" />
    <glyph glyph-name="uni00B2" unicode="&#xb2;" horiz-adv-x="320" 
d="M157 489h129v-81h-261v56l132 142c19 22 28 42 28 61c0 27 -20 42 -49 42c-37 0 -63 -22 -84 -50h-9v100c33 23 69 35 109 35c73 0 127 -41 127 -113c0 -45 -22 -84 -59 -124z" />
    <glyph glyph-name="uni00B3" unicode="&#xb3;" horiz-adv-x="308" 
d="M277 513c0 -68 -53 -113 -144 -113c-43 0 -80 10 -111 31v94h11c22 -32 53 -48 93 -48s61 20 61 45c0 28 -27 44 -76 44h-25v73h24c43 0 64 13 64 40c0 25 -17 38 -52 38c-30 0 -56 -10 -77 -29h-9v81c27 17 60 25 97 25c83 0 130 -42 130 -103c0 -39 -18 -66 -55 -81
c45 -17 69 -50 69 -97z" />
    <glyph glyph-name="uni2074" unicode="&#x2074;" horiz-adv-x="345" 
d="M319 559v-78h-43v-73h-92v73h-164v66l169 239h87v-227h43zM109 559h78v113z" />
    <glyph glyph-name="uni2075" unicode="&#x2075;" horiz-adv-x="334" 
d="M297 531c0 -81 -56 -131 -145 -131c-42 0 -81 10 -117 31v95h10c27 -29 58 -44 94 -44c37 0 65 17 65 52s-25 51 -64 51c-21 0 -40 -5 -58 -15l-39 12l30 204h203v-79h-138l-9 -56c13 4 28 6 44 6c75 0 124 -50 124 -126z" />
    <glyph glyph-name="uni2076" unicode="&#x2076;" horiz-adv-x="371" 
d="M334 535c0 -85 -58 -135 -137 -135c-43 0 -81 14 -112 42c-31 29 -46 76 -46 141c0 137 68 211 172 211c33 0 64 -7 93 -20v-88h-9c-23 17 -49 26 -76 26c-48 0 -78 -24 -89 -84c20 21 47 31 81 31c68 0 123 -41 123 -124zM242 536c0 33 -24 53 -53 53s-52 -20 -52 -53
c0 -35 23 -54 52 -54s53 19 53 54z" />
    <glyph glyph-name="uni2077" unicode="&#x2077;" horiz-adv-x="319" 
d="M27 786h263v-53l-158 -325h-97l144 296h-152v82z" />
    <glyph glyph-name="uni2078" unicode="&#x2078;" horiz-adv-x="365" 
d="M334 516c0 -71 -59 -116 -152 -116s-152 45 -152 116c0 44 24 79 65 96c-31 17 -47 44 -47 79c0 60 54 103 134 103c81 0 135 -43 135 -103c0 -35 -16 -62 -48 -79c43 -17 65 -52 65 -96zM137 679c0 -25 20 -41 45 -41s45 16 45 41c0 24 -20 41 -45 41s-45 -17 -45 -41z
M245 524c0 28 -27 49 -63 49s-62 -21 -62 -49c0 -29 26 -50 62 -50s63 21 63 50z" />
    <glyph glyph-name="uni2079" unicode="&#x2079;" horiz-adv-x="371" 
d="M331 611c0 -139 -68 -211 -171 -211c-33 0 -64 7 -94 20v88h10c22 -17 47 -26 76 -26c48 0 78 25 89 86c-20 -21 -47 -31 -82 -31c-68 0 -123 40 -123 123c0 85 57 134 137 134c43 0 80 -14 111 -43c31 -28 47 -75 47 -140zM234 659c0 33 -24 53 -52 53
c-29 0 -53 -20 -53 -53s24 -51 53 -51c28 0 52 18 52 51z" />
    <glyph glyph-name="zero.sups" horiz-adv-x="392" 
d="M196 794c86 0 156 -70 156 -197s-70 -197 -156 -197c-87 0 -157 70 -157 197s70 197 157 197zM196 485c36 0 61 43 61 112s-25 112 -61 112s-62 -43 -62 -112s26 -112 62 -112z" />
    <glyph glyph-name="one.sups" horiz-adv-x="258" 
d="M120 786h73v-378h-90v258c-21 -11 -45 -17 -74 -17v83c47 0 86 19 91 54z" />
    <glyph glyph-name="two.sups" horiz-adv-x="320" 
d="M157 489h129v-81h-261v56l132 142c19 22 28 42 28 61c0 27 -20 42 -49 42c-37 0 -63 -22 -84 -50h-9v100c33 23 69 35 109 35c73 0 127 -41 127 -113c0 -45 -22 -84 -59 -124z" />
    <glyph glyph-name="three.sups" horiz-adv-x="308" 
d="M277 513c0 -68 -53 -113 -144 -113c-43 0 -80 10 -111 31v94h11c22 -32 53 -48 93 -48s61 20 61 45c0 28 -27 44 -76 44h-25v73h24c43 0 64 13 64 40c0 25 -17 38 -52 38c-30 0 -56 -10 -77 -29h-9v81c27 17 60 25 97 25c83 0 130 -42 130 -103c0 -39 -18 -66 -55 -81
c45 -17 69 -50 69 -97z" />
    <glyph glyph-name="four.sups" horiz-adv-x="345" 
d="M319 559v-78h-43v-73h-92v73h-164v66l169 239h87v-227h43zM109 559h78v113z" />
    <glyph glyph-name="five.sups" horiz-adv-x="334" 
d="M297 531c0 -81 -56 -131 -145 -131c-42 0 -81 10 -117 31v95h10c27 -29 58 -44 94 -44c37 0 65 17 65 52s-25 51 -64 51c-21 0 -40 -5 -58 -15l-39 12l30 204h203v-79h-138l-9 -56c13 4 28 6 44 6c75 0 124 -50 124 -126z" />
    <glyph glyph-name="six.sups" horiz-adv-x="371" 
d="M334 535c0 -85 -58 -135 -137 -135c-43 0 -81 14 -112 42c-31 29 -46 76 -46 141c0 137 68 211 172 211c33 0 64 -7 93 -20v-88h-9c-23 17 -49 26 -76 26c-48 0 -78 -24 -89 -84c20 21 47 31 81 31c68 0 123 -41 123 -124zM242 536c0 33 -24 53 -53 53s-52 -20 -52 -53
c0 -35 23 -54 52 -54s53 19 53 54z" />
    <glyph glyph-name="seven.sups" horiz-adv-x="319" 
d="M27 786h263v-53l-158 -325h-97l144 296h-152v82z" />
    <glyph glyph-name="eight.sups" horiz-adv-x="365" 
d="M334 516c0 -71 -59 -116 -152 -116s-152 45 -152 116c0 44 24 79 65 96c-31 17 -47 44 -47 79c0 60 54 103 134 103c81 0 135 -43 135 -103c0 -35 -16 -62 -48 -79c43 -17 65 -52 65 -96zM137 679c0 -25 20 -41 45 -41s45 16 45 41c0 24 -20 41 -45 41s-45 -17 -45 -41z
M245 524c0 28 -27 49 -63 49s-62 -21 -62 -49c0 -29 26 -50 62 -50s63 21 63 50z" />
    <glyph glyph-name="nine.sups" horiz-adv-x="371" 
d="M331 611c0 -139 -68 -211 -171 -211c-33 0 -64 7 -94 20v88h10c22 -17 47 -26 76 -26c48 0 78 25 89 86c-20 -21 -47 -31 -82 -31c-68 0 -123 40 -123 123c0 85 57 134 137 134c43 0 80 -14 111 -43c31 -28 47 -75 47 -140zM234 659c0 33 -24 53 -52 53
c-29 0 -53 -20 -53 -53s24 -51 53 -51c28 0 52 18 52 51z" />
    <glyph glyph-name="asterisk" unicode="*" horiz-adv-x="479" 
d="M439 597l-132 -71l132 -70l-39 -67l-127 80l5 -151h-77l5 151l-127 -80l-39 67l133 70l-133 71l39 67l127 -80l-5 150h77l-5 -150l127 80z" />
    <glyph glyph-name="backslash" unicode="\" horiz-adv-x="479" 
d="M124 775l346 -908h-109l-346 908h109z" />
    <glyph glyph-name="middot" unicode="&#xb7;" horiz-adv-x="304" 
d="M152 385c47 0 84 -33 84 -84s-39 -84 -84 -84c-47 0 -84 33 -84 84s37 84 84 84z" />
    <glyph glyph-name="bullet" unicode="&#x2022;" horiz-adv-x="415" 
d="M207 429c67 0 120 -48 120 -120s-53 -120 -120 -120c-65 0 -119 48 -119 120s54 120 119 120z" />
    <glyph glyph-name="colon" unicode=":" horiz-adv-x="304" 
d="M152 503c47 0 84 -33 84 -84s-37 -84 -84 -84s-84 33 -84 84s37 84 84 84zM152 154c47 0 84 -33 84 -84s-37 -84 -84 -84s-84 33 -84 84s37 84 84 84z" />
    <glyph glyph-name="comma" unicode="," horiz-adv-x="283" 
d="M90 141h133l-80 -304h-99z" />
    <glyph glyph-name="ellipsis" unicode="&#x2026;" horiz-adv-x="802" 
d="M152 154c47 0 84 -33 84 -84s-37 -84 -84 -84s-84 33 -84 84s37 84 84 84zM401 154c47 0 84 -33 84 -84s-37 -84 -84 -84s-84 33 -84 84s37 84 84 84zM650 154c47 0 84 -33 84 -84s-37 -84 -84 -84s-84 33 -84 84s37 84 84 84z" />
    <glyph glyph-name="exclam" unicode="!" horiz-adv-x="324" 
d="M97 700h130l-10 -470h-111zM162 154c47 0 84 -33 84 -84s-37 -84 -84 -84s-84 33 -84 84s37 84 84 84z" />
    <glyph glyph-name="exclamdown" unicode="&#xa1;" horiz-adv-x="324" 
d="M162 516c47 0 84 -33 84 -84s-37 -84 -84 -84s-84 33 -84 84s37 84 84 84zM97 -198l9 470h111l10 -470h-130z" />
    <glyph glyph-name="numbersign" unicode="#" horiz-adv-x="685" 
d="M631 417h-111l-30 -127h112l-21 -92h-112l-45 -198h-103l45 198h-118l-45 -198h-104l46 198h-113l22 92h112l29 127h-112l21 93h112l43 190h104l-44 -190h119l43 190h103l-43 -190h111zM387 290l29 127h-118l-29 -127h118z" />
    <glyph glyph-name="period" unicode="." horiz-adv-x="304" 
d="M152 154c47 0 84 -33 84 -84s-37 -84 -84 -84s-84 33 -84 84s37 84 84 84z" />
    <glyph glyph-name="question" unicode="?" horiz-adv-x="482" 
d="M42 514v139c51 37 115 61 186 61c59 0 108 -16 147 -48s59 -79 59 -141c0 -80 -34 -128 -98 -181l-52 -50c-17 -15 -25 -35 -25 -60v-11h-112v14c0 71 18 107 62 140l45 46c31 27 46 56 46 87c0 55 -39 82 -96 82s-106 -26 -147 -78h-15zM203 154c47 0 84 -33 84 -84
s-37 -84 -84 -84s-84 33 -84 84s37 84 84 84z" />
    <glyph glyph-name="questiondown" unicode="&#xbf;" horiz-adv-x="482" 
d="M279 348c-47 0 -84 33 -84 84s37 84 84 84s84 -33 84 -84s-37 -84 -84 -84zM440 -12v-139c-51 -37 -116 -61 -185 -61c-59 0 -109 16 -148 48s-58 79 -58 141c0 80 33 126 97 181l53 50c16 15 24 35 24 60v11h113v-14c0 -71 -18 -107 -62 -140l-46 -46
c-30 -26 -45 -55 -45 -87c0 -55 39 -82 96 -82c55 0 104 26 147 78h14z" />
    <glyph glyph-name="quotedbl" unicode="&#x22;" horiz-adv-x="370" 
d="M224 700h100v-284h-100v284zM46 700h100v-284h-100v284z" />
    <glyph glyph-name="quotesingle" unicode="'" horiz-adv-x="192" 
d="M46 700h100v-284h-100v284z" />
    <glyph glyph-name="semicolon" unicode=";" horiz-adv-x="294" 
d="M150 503c47 0 84 -33 84 -84s-37 -84 -84 -84s-84 33 -84 84s37 84 84 84zM90 141h133l-80 -304h-99z" />
    <glyph glyph-name="slash" unicode="/" horiz-adv-x="479" 
d="M355 775h109l-346 -908h-109z" />
    <glyph glyph-name="underscore" unicode="_" horiz-adv-x="407" 
d="M10 -38h386v-91h-386v91z" />
    <glyph glyph-name="exclamdown.case" horiz-adv-x="324" 
d="M162 714c47 0 84 -33 84 -84s-37 -84 -84 -84s-84 33 -84 84s37 84 84 84zM97 0l9 470h111l10 -470h-130z" />
    <glyph glyph-name="questiondown.case" horiz-adv-x="482" 
d="M279 546c-47 0 -84 33 -84 84s37 84 84 84s84 -33 84 -84s-37 -84 -84 -84zM440 186v-139c-51 -37 -116 -61 -185 -61c-59 0 -109 16 -148 48s-58 79 -58 141c0 80 33 126 97 181l53 50c16 15 24 35 24 60v11h113v-14c0 -71 -18 -107 -62 -140l-46 -46
c-30 -26 -45 -55 -45 -87c0 -55 39 -82 96 -82c55 0 104 26 147 78h14z" />
    <glyph glyph-name="braceleft" unicode="{" horiz-adv-x="363" 
d="M149 297c60 -13 90 -57 90 -122v-157c0 -41 20 -62 52 -62h39v-99h-63c-40 0 -75 11 -104 32s-43 58 -43 111v164c0 60 -18 87 -67 87h-2v92h2c49 0 67 27 67 87v164c0 53 14 90 43 111s64 32 104 32h63v-99h-39c-32 0 -52 -21 -52 -62v-157c0 -65 -30 -109 -90 -122z
" />
    <glyph glyph-name="braceright" unicode="}" horiz-adv-x="363" 
d="M310 343h2v-92h-2c-49 0 -67 -27 -67 -87v-164c0 -53 -15 -90 -44 -111s-63 -32 -103 -32h-62v99h38c32 0 52 21 52 62v157c0 65 30 109 90 122c-60 13 -90 57 -90 122v157c0 41 -20 62 -52 62h-38v99h62c40 0 74 -11 103 -32s44 -58 44 -111v-164c0 -60 18 -87 67 -87z
" />
    <glyph glyph-name="bracketleft" unicode="[" horiz-adv-x="337" 
d="M295 624h-86v-655h86v-109h-210v873h210v-109z" />
    <glyph glyph-name="bracketright" unicode="]" horiz-adv-x="337" 
d="M42 733h210v-873h-210v109h86v655h-86v109z" />
    <glyph glyph-name="parenleft" unicode="(" horiz-adv-x="388" 
d="M286 739l75 -70c-57 -64 -100 -126 -127 -185s-40 -125 -40 -198s13 -139 40 -198s70 -121 127 -185l-75 -70c-78 74 -135 146 -171 217s-54 149 -54 236s18 165 54 236s93 143 171 217z" />
    <glyph glyph-name="parenright" unicode=")" horiz-adv-x="388" 
d="M103 -167l-76 70c57 64 99 126 126 185s41 125 41 198s-14 139 -41 198s-69 121 -126 185l76 70c78 -74 135 -146 170 -217c36 -71 54 -149 54 -236s-18 -165 -54 -236c-35 -71 -92 -143 -170 -217z" />
    <glyph glyph-name="braceleft.case" horiz-adv-x="363" 
d="M149 350c60 -13 90 -57 90 -122v-157c0 -41 20 -62 52 -62h39v-99h-63c-40 0 -75 11 -104 32s-43 58 -43 111v164c0 60 -18 87 -67 87h-2v92h2c49 0 67 27 67 87v164c0 53 14 90 43 111s64 32 104 32h63v-99h-39c-32 0 -52 -21 -52 -62v-157c0 -65 -30 -109 -90 -122z
" />
    <glyph glyph-name="braceright.case" horiz-adv-x="363" 
d="M310 396h2v-92h-2c-49 0 -67 -27 -67 -87v-164c0 -53 -15 -90 -44 -111s-63 -32 -103 -32h-62v99h38c32 0 52 21 52 62v157c0 65 30 109 90 122c-60 13 -90 57 -90 122v157c0 41 -20 62 -52 62h-38v99h62c40 0 74 -11 103 -32s44 -58 44 -111v-164c0 -60 18 -87 67 -87z
" />
    <glyph glyph-name="bracketleft.case" horiz-adv-x="337" 
d="M295 678h-86v-655h86v-109h-210v873h210v-109z" />
    <glyph glyph-name="bracketright.case" horiz-adv-x="337" 
d="M42 787h210v-873h-210v109h86v655h-86v109z" />
    <glyph glyph-name="parenleft.case" horiz-adv-x="388" 
d="M286 803l75 -70c-57 -64 -100 -126 -127 -185s-40 -125 -40 -198s13 -139 40 -198s70 -121 127 -185l-75 -70c-78 74 -135 146 -171 217s-54 149 -54 236s18 165 54 236s93 143 171 217z" />
    <glyph glyph-name="parenright.case" horiz-adv-x="388" 
d="M103 -103l-76 70c57 64 99 126 126 185s41 125 41 198s-14 139 -41 198s-69 121 -126 185l76 70c78 -74 135 -146 170 -217c36 -71 54 -149 54 -236s-18 -165 -54 -236c-35 -71 -92 -143 -170 -217z" />
    <glyph glyph-name="emdash" unicode="&#x2014;" horiz-adv-x="760" 
d="M76 343h608v-107h-608v107z" />
    <glyph glyph-name="endash" unicode="&#x2013;" horiz-adv-x="589" 
d="M76 343h437v-107h-437v107z" />
    <glyph glyph-name="hyphen" unicode="-" horiz-adv-x="439" 
d="M76 343h287v-107h-287v107z" />
    <glyph glyph-name="emdash.case" horiz-adv-x="760" 
d="M76 426h608v-107h-608v107z" />
    <glyph glyph-name="endash.case" horiz-adv-x="589" 
d="M76 426h437v-107h-437v107z" />
    <glyph glyph-name="hyphen.case" horiz-adv-x="439" 
d="M76 426h287v-107h-287v107z" />
    <glyph glyph-name="guillemotleft" unicode="&#xab;" horiz-adv-x="494" 
d="M462 458l-117 -185l117 -186h-118l-114 186l114 185h118zM256 458l-117 -185l117 -186h-118l-114 186l114 185h118z" />
    <glyph glyph-name="guillemotright" unicode="&#xbb;" horiz-adv-x="494" 
d="M356 458l114 -185l-114 -186h-118l117 186l-117 185h118zM150 458l114 -185l-114 -186h-118l117 186l-117 185h118z" />
    <glyph glyph-name="guilsinglleft" unicode="&#x2039;" horiz-adv-x="288" 
d="M256 458l-117 -185l117 -186h-118l-114 186l114 185h118z" />
    <glyph glyph-name="guilsinglright" unicode="&#x203a;" horiz-adv-x="288" 
d="M150 458l114 -185l-114 -186h-118l117 186l-117 185h118z" />
    <glyph glyph-name="quotedblbase" unicode="&#x201e;" horiz-adv-x="485" 
d="M90 141h133l-80 -304h-99zM292 141h133l-80 -304h-99z" />
    <glyph glyph-name="quotedblleft" unicode="&#x201c;" horiz-adv-x="437" 
d="M159 396h-133l80 304h99zM361 396h-133l80 304h99z" />
    <glyph glyph-name="quotedblright" unicode="&#x201d;" horiz-adv-x="437" 
d="M76 700h133l-80 -304h-99zM278 700h133l-80 -304h-99z" />
    <glyph glyph-name="quoteleft" unicode="&#x2018;" horiz-adv-x="235" 
d="M159 395h-133l80 305h99z" />
    <glyph glyph-name="quoteright" unicode="&#x2019;" horiz-adv-x="235" 
d="M76 700h133l-80 -304h-99z" />
    <glyph glyph-name="quotesinglbase" unicode="&#x201a;" horiz-adv-x="283" 
d="M90 141h133l-80 -304h-99z" />
    <glyph glyph-name="guillemotleft.case" horiz-adv-x="494" 
d="M462 557l-117 -185l117 -186h-118l-114 186l114 185h118zM256 557l-117 -185l117 -186h-118l-114 186l114 185h118z" />
    <glyph glyph-name="guillemotright.case" horiz-adv-x="494" 
d="M356 557l114 -185l-114 -186h-118l117 186l-117 185h118zM150 557l114 -185l-114 -186h-118l117 186l-117 185h118z" />
    <glyph glyph-name="guilsinglleft.case" horiz-adv-x="288" 
d="M256 557l-117 -185l117 -186h-118l-114 186l114 185h118z" />
    <glyph glyph-name="guilsinglright.case" horiz-adv-x="288" 
d="M150 557l114 -185l-114 -186h-118l117 186l-117 185h118z" />
    <glyph glyph-name="cent" unicode="&#xa2;" horiz-adv-x="499" 
d="M444 146v-123c-31 -19 -67 -31 -109 -35v-90h-85v93c-124 21 -206 116 -206 260c0 71 19 130 57 176s88 74 149 85v92h85v-90c37 -5 71 -17 102 -35v-120h-11c-41 31 -81 46 -120 46c-80 0 -139 -59 -139 -154s60 -154 143 -154c47 0 88 16 123 49h11z" />
    <glyph glyph-name="currency" unicode="&#xa4;" horiz-adv-x="587" 
d="M468 236l75 -76l-60 -60l-76 75c-35 -23 -73 -34 -114 -34s-79 11 -114 34l-75 -75l-60 60l75 76c-23 35 -35 73 -35 114s12 79 35 114l-75 76l60 60l75 -75c35 23 73 34 114 34s79 -11 114 -34l76 75l60 -60l-75 -76c23 -34 34 -72 34 -114s-11 -80 -34 -114zM407 350
c0 31 -11 58 -34 80c-22 22 -49 33 -80 33s-57 -11 -80 -33c-22 -22 -33 -49 -33 -80s11 -57 33 -80c23 -22 49 -33 80 -33s58 11 80 33c23 22 34 49 34 80z" />
    <glyph glyph-name="dollar" unicode="$" horiz-adv-x="554" 
d="M322 -8v-94h-91v88c-69 4 -133 22 -192 53v142h14c60 -53 126 -79 198 -79c80 0 123 35 123 82c0 37 -25 68 -66 85l-111 44c-100 40 -150 106 -150 199c0 56 18 99 53 129s79 49 131 56v91h91v-90c47 -5 94 -19 141 -42v-130h-12c-54 39 -110 58 -168 58
c-63 0 -100 -29 -100 -70c0 -35 25 -62 74 -83l114 -47c95 -37 139 -109 139 -196c0 -112 -79 -176 -188 -196z" />
    <glyph glyph-name="Euro" unicode="&#x20ac;" horiz-adv-x="696" 
d="M641 195h13v-151c-62 -39 -130 -58 -204 -58c-84 0 -156 22 -216 66s-100 106 -119 186h-82v80h71v25c0 14 0 24 1 31h-72v80h85c20 77 59 137 118 180c59 44 129 66 209 66c74 0 140 -19 197 -56v-142h-13c-45 51 -103 76 -174 76c-87 0 -158 -45 -193 -124h242v-80
h-262c-1 -13 -2 -24 -2 -31c0 -11 0 -20 1 -25h263v-80h-245c33 -81 105 -130 197 -130c73 0 138 31 185 87z" />
    <glyph glyph-name="uni20B4" unicode="&#x20b4;" horiz-adv-x="579" 
d="M360 341l-20 -15h194v-69h-288c-27 -24 -41 -50 -41 -79c0 -48 38 -76 117 -76c64 0 119 20 175 64h13v-135c-58 -30 -124 -45 -198 -45c-69 0 -126 13 -172 39c-46 27 -69 70 -69 130c0 37 11 71 32 102h-58v69h129l37 27l38 28h-204v70h295c22 21 33 43 33 68
c0 43 -31 65 -94 65c-53 0 -103 -16 -150 -48h-11v129c59 23 117 35 173 35c59 0 109 -11 152 -33s64 -63 64 -123c0 -35 -9 -66 -26 -93h53v-70h-119c-25 -19 -43 -32 -55 -40z" />
    <glyph glyph-name="uni20BD" unicode="&#x20bd;" horiz-adv-x="635" 
d="M340 287h-94v-72h210v-89h-210v-126h-131v126h-86v89h86v72h-86v101h86v298h227c159 0 254 -63 254 -204c0 -137 -87 -195 -256 -195zM246 571v-183h94c80 0 120 31 120 92c0 68 -48 91 -124 91h-90z" />
    <glyph glyph-name="sterling" unicode="&#xa3;" horiz-adv-x="532" 
d="M264 116h242v-116h-470v116h96v167h-75v101h75v115c0 68 20 118 60 151c41 33 92 50 154 50c49 0 98 -12 147 -36v-129h-12c-46 33 -87 49 -123 49c-55 0 -94 -31 -94 -100v-100h179v-101h-179v-167z" />
    <glyph glyph-name="yen" unicode="&#xa5;" horiz-adv-x="651" 
d="M391 341v-9h150v-85h-150v-57h150v-84h-150v-106h-131v106h-150v84h150v57h-150v85h150v8l-242 346h150l159 -241l159 241h148z" />
    <glyph glyph-name="cent.tf" horiz-adv-x="614" 
d="M509 146v-123c-34 -20 -72 -32 -115 -36v-89h-85v92c-65 11 -117 39 -158 84c-40 46 -60 105 -60 177s20 131 61 177s93 74 157 84v93h85v-91c36 -4 72 -16 108 -35v-120h-11c-42 31 -84 46 -127 46c-42 0 -78 -14 -107 -42c-29 -27 -43 -65 -43 -112
c0 -95 66 -154 155 -154c49 0 92 16 129 49h11z" />
    <glyph glyph-name="dollar.tf" horiz-adv-x="614" 
d="M357 -8v-94h-89v88c-69 4 -136 24 -187 53v142h13c58 -53 122 -79 193 -79c77 0 119 35 119 82c0 37 -24 67 -65 86l-106 43c-95 40 -147 107 -147 199c0 56 17 99 51 128c35 30 78 49 129 56v92h89v-90c45 -5 91 -19 138 -42v-130h-12c-52 39 -107 58 -164 58
c-60 0 -97 -29 -97 -70c0 -36 30 -66 73 -83l108 -47c92 -37 138 -111 138 -196c0 -111 -77 -176 -184 -196z" />
    <glyph glyph-name="Euro.tf" horiz-adv-x="614" 
d="M557 195h12v-151c-54 -39 -111 -58 -172 -58c-145 0 -256 92 -288 252h-68v80h59c-1 5 -1 14 -1 25c0 15 0 25 1 32h-59v80h70c18 76 52 136 103 179c51 44 110 66 178 66c60 0 116 -19 167 -56v-142h-12c-39 51 -87 76 -143 76c-69 0 -127 -46 -155 -123h197v-80h-214
c-1 -7 -1 -17 -1 -32v-25h215v-80h-200c25 -81 83 -130 159 -130c60 0 115 31 152 87z" />
    <glyph glyph-name="uni20B4.tf" horiz-adv-x="614" 
d="M431 382l-54 -41l-20 -15h189v-69h-279c-27 -23 -40 -50 -40 -79c0 -48 37 -76 113 -76c59 0 115 21 170 64h13v-135c-57 -30 -121 -45 -194 -45c-66 0 -122 13 -168 39c-45 27 -68 70 -68 130c0 37 11 71 32 102h-57v69h127l36 28l37 28h-200v70h287c21 21 31 43 31 67
c0 43 -30 65 -90 65c-52 0 -101 -16 -147 -48h-12v129c58 23 115 35 170 35c57 0 107 -11 150 -33s64 -63 64 -123c0 -33 -9 -64 -26 -92h51v-70h-115z" />
    <glyph glyph-name="uni20BD.tf" horiz-adv-x="614" 
d="M327 286h-79v-71h193v-89h-193v-126h-127v126h-79v89h79v71h-79v102h79v298h208c147 0 242 -65 242 -204c0 -135 -85 -196 -244 -196zM248 571v-183h77c77 0 115 31 115 92c0 68 -46 91 -118 91h-74z" />
    <glyph glyph-name="sterling.tf" horiz-adv-x="614" 
d="M301 116h244v-116h-472v116h97v167h-76v102h76v115c0 68 20 118 60 151c41 33 92 49 154 49c49 0 99 -12 149 -36v-128h-13c-41 32 -81 48 -120 48c-57 0 -99 -31 -99 -100v-99h182v-102h-182v-167z" />
    <glyph glyph-name="yen.tf" horiz-adv-x="614" 
d="M370 340v-8h140v-85h-140v-57h140v-84h-140v-106h-126v106h-140v84h140v57h-140v85h140v7l-226 347h145l145 -239l147 239h142z" />
    <glyph glyph-name="cent.tosf" horiz-adv-x="614" 
d="M509 146v-123c-34 -20 -72 -32 -115 -36v-89h-85v92c-65 11 -117 39 -158 84c-40 46 -60 105 -60 177s20 131 61 177s93 74 157 84v93h85v-91c36 -4 72 -16 108 -35v-120h-11c-42 31 -84 46 -127 46c-42 0 -78 -14 -107 -42c-29 -27 -43 -65 -43 -112
c0 -95 66 -154 155 -154c49 0 92 16 129 49h11z" />
    <glyph glyph-name="dollar.tosf" horiz-adv-x="614" 
d="M357 -8v-94h-89v88c-69 4 -136 24 -187 53v142h13c58 -53 122 -79 193 -79c77 0 119 35 119 82c0 37 -24 67 -65 86l-106 43c-95 40 -147 107 -147 199c0 56 17 99 51 128c35 30 78 49 129 56v92h89v-90c45 -5 91 -19 138 -42v-130h-12c-52 39 -107 58 -164 58
c-60 0 -97 -29 -97 -70c0 -36 30 -66 73 -83l108 -47c92 -37 138 -111 138 -196c0 -111 -77 -176 -184 -196z" />
    <glyph glyph-name="Euro.tosf" horiz-adv-x="614" 
d="M557 195h12v-151c-54 -39 -111 -58 -172 -58c-145 0 -256 92 -288 252h-68v80h59c-1 5 -1 14 -1 25c0 15 0 25 1 32h-59v80h70c18 76 52 136 103 179c51 44 110 66 178 66c60 0 116 -19 167 -56v-142h-12c-39 51 -87 76 -143 76c-69 0 -127 -46 -155 -123h197v-80h-214
c-1 -7 -1 -17 -1 -32v-25h215v-80h-200c25 -81 83 -130 159 -130c60 0 115 31 152 87z" />
    <glyph glyph-name="uni20B4.tosf" horiz-adv-x="614" 
d="M431 382l-54 -41l-20 -15h189v-69h-279c-27 -23 -40 -50 -40 -79c0 -48 37 -76 113 -76c59 0 115 21 170 64h13v-135c-57 -30 -121 -45 -194 -45c-66 0 -122 13 -168 39c-45 27 -68 70 -68 130c0 37 11 71 32 102h-57v69h127l36 28l37 28h-200v70h287c21 21 31 43 31 67
c0 43 -30 65 -90 65c-52 0 -101 -16 -147 -48h-12v129c58 23 115 35 170 35c57 0 107 -11 150 -33s64 -63 64 -123c0 -33 -9 -64 -26 -92h51v-70h-115z" />
    <glyph glyph-name="uni20BD.tosf" horiz-adv-x="614" 
d="M327 286h-79v-71h193v-89h-193v-126h-127v126h-79v89h79v71h-79v102h79v298h208c147 0 242 -65 242 -204c0 -135 -85 -196 -244 -196zM248 571v-183h77c77 0 115 31 115 92c0 68 -46 91 -118 91h-74z" />
    <glyph glyph-name="sterling.tosf" horiz-adv-x="614" 
d="M301 116h244v-116h-472v116h97v167h-76v102h76v115c0 68 20 118 60 151c41 33 92 49 154 49c49 0 99 -12 149 -36v-128h-13c-41 32 -81 48 -120 48c-57 0 -99 -31 -99 -100v-99h182v-102h-182v-167z" />
    <glyph glyph-name="yen.tosf" horiz-adv-x="614" 
d="M370 340v-8h140v-85h-140v-57h140v-84h-140v-106h-126v106h-140v84h140v57h-140v85h140v7l-226 347h145l145 -239l147 239h142z" />
    <glyph glyph-name="approxequal" unicode="&#x2248;" horiz-adv-x="510" 
d="M64 359v88c28 28 68 46 109 46c32 0 54 -9 86 -25c33 -16 54 -24 85 -24c35 0 67 11 96 34h7v-89c-28 -28 -68 -45 -109 -45c-32 0 -56 9 -87 25c-33 16 -54 24 -85 24c-33 0 -65 -11 -96 -34h-6zM64 182v88c28 28 68 46 109 46c32 0 54 -9 86 -25c33 -16 54 -24 85 -24
c35 0 67 11 96 34h7v-88c-28 -28 -68 -46 -109 -46c-32 0 -56 9 -87 25c-33 16 -54 24 -85 24c-33 0 -65 -11 -96 -34h-6z" />
    <glyph glyph-name="asciitilde" unicode="~" horiz-adv-x="510" 
d="M64 273v88c28 28 68 46 109 46c32 0 54 -9 86 -25c33 -16 54 -24 85 -24c34 0 66 11 96 33h7v-88c-28 -28 -68 -45 -109 -45c-32 0 -56 9 -87 25c-33 16 -54 24 -85 24c-33 0 -65 -11 -96 -34h-6z" />
    <glyph glyph-name="divide" unicode="&#xf7;" horiz-adv-x="523" 
d="M261 612c48 0 83 -32 83 -80c0 -49 -35 -81 -83 -81c-47 0 -83 32 -83 81c0 48 36 80 83 80zM64 385h395v-106h-395v106zM261 213c48 0 83 -32 83 -80c0 -49 -35 -81 -83 -81c-47 0 -83 32 -83 81c0 48 36 80 83 80z" />
    <glyph glyph-name="emptyset" unicode="&#x2205;" horiz-adv-x="576" 
d="M533 546l-75 -75c26 -35 39 -76 39 -121c0 -115 -94 -209 -209 -209c-43 0 -83 13 -119 38l-74 -75l-51 52l74 74c-26 37 -39 77 -39 120c0 115 94 209 209 209c44 0 84 -13 120 -38l75 75zM187 299l152 152c-16 8 -33 12 -51 12c-31 0 -57 -11 -80 -33
c-22 -22 -33 -49 -33 -80c0 -18 4 -35 12 -51zM389 401l-151 -152c15 -8 32 -12 50 -12c31 0 58 11 80 33c22 23 33 49 33 80c0 19 -4 36 -12 51z" />
    <glyph glyph-name="equal" unicode="=" horiz-adv-x="523" 
d="M64 483h395v-107h-395v107zM64 288h395v-106h-395v106z" />
    <glyph glyph-name="greater" unicode="&#x3e;" horiz-adv-x="517" 
d="M64 551l395 -160v-96v-22l-395 -160v118l289 101l-289 101v118z" />
    <glyph glyph-name="greaterequal" unicode="&#x2265;" horiz-adv-x="517" 
d="M64 575l395 -130v-90v-19l-395 -130v116l262 68l-262 69v116zM64 69v107h395v-107h-395z" />
    <glyph glyph-name="infinity" unicode="&#x221e;" horiz-adv-x="709" 
d="M662 329c0 -94 -68 -165 -155 -165c-57 0 -108 31 -152 92c-45 -61 -96 -92 -152 -92c-87 0 -156 71 -156 165s69 165 156 165c57 0 107 -30 152 -91c43 61 94 91 152 91c87 0 155 -71 155 -165zM309 328c-33 52 -58 79 -94 79c-40 0 -73 -35 -73 -78s33 -78 73 -78
c36 0 63 28 94 77zM567 329c0 43 -33 78 -73 78c-36 0 -62 -27 -93 -79c32 -51 57 -77 93 -77c40 0 73 35 73 78z" />
    <glyph glyph-name="integral" unicode="&#x222b;" horiz-adv-x="339" 
d="M5 -143v99h16c53 0 74 21 74 88v523c0 65 16 110 47 134s74 36 128 36h35v-99h-15c-55 0 -75 -21 -75 -88v-523c0 -65 -16 -110 -47 -134s-74 -36 -128 -36h-35z" />
    <glyph glyph-name="less" unicode="&#x3c;" horiz-adv-x="517" 
d="M453 551v-118l-289 -101l289 -101v-118l-395 160v96v22z" />
    <glyph glyph-name="lessequal" unicode="&#x2264;" horiz-adv-x="517" 
d="M453 575v-116l-261 -69l261 -68v-116l-395 130v89v20zM58 69v107h395v-107h-395z" />
    <glyph glyph-name="logicalnot" unicode="&#xac;" horiz-adv-x="501" 
d="M64 433h374v-236h-110v129h-264v107z" />
    <glyph glyph-name="minus" unicode="&#x2212;" horiz-adv-x="540" 
d="M64 385h412v-106h-412v106z" />
    <glyph glyph-name="multiply" unicode="&#xd7;" horiz-adv-x="508" 
d="M445 219l-77 -78l-114 115l-114 -114l-76 76l114 113l-114 115l77 77l114 -114l114 113l75 -75l-113 -114z" />
    <glyph glyph-name="notequal" unicode="&#x2260;" horiz-adv-x="523" 
d="M459 376h-127l-44 -88h171v-106h-225l-46 -91h-97l46 91h-73v106h127l44 88h-171v107h225l46 90h97l-46 -90h73v-107z" />
    <glyph glyph-name="partialdiff" unicode="&#x2202;" horiz-adv-x="577" 
d="M533 368c0 -133 -26 -230 -77 -291s-117 -91 -197 -91c-132 0 -221 83 -221 227c0 158 101 249 230 249c61 0 108 -18 141 -55c-9 127 -57 191 -144 191c-48 0 -90 -17 -127 -50h-13l10 127c45 26 95 39 150 39c146 0 248 -114 248 -346zM399 246c0 76 -48 114 -111 114
c-73 0 -127 -50 -127 -138c0 -81 46 -125 110 -125c71 0 128 57 128 149z" />
    <glyph glyph-name="percent" unicode="%" horiz-adv-x="922" 
d="M32 531c0 110 85 183 187 183c100 0 186 -73 186 -183c0 -111 -85 -183 -186 -183c-102 0 -187 72 -187 183zM619 700h101l-417 -700h-101zM310 531c0 56 -42 92 -91 92c-51 0 -92 -36 -92 -92s41 -92 92 -92c49 0 91 36 91 92zM516 169c0 111 85 183 187 183
s187 -72 187 -183c0 -110 -85 -183 -187 -183s-187 73 -187 183zM794 169c0 56 -42 92 -91 92s-91 -36 -91 -92s42 -92 91 -92s91 36 91 92z" />
    <glyph glyph-name="perthousand" unicode="&#x2030;" horiz-adv-x="1341" 
d="M32 531c0 110 85 183 187 183c100 0 186 -73 186 -183c0 -111 -85 -183 -186 -183c-102 0 -187 72 -187 183zM619 700h101l-417 -700h-101zM310 531c0 56 -42 92 -91 92c-51 0 -92 -36 -92 -92s41 -92 92 -92c49 0 91 36 91 92zM516 169c0 111 85 183 187 183
s187 -72 187 -183c0 -110 -85 -183 -187 -183s-187 73 -187 183zM941 169c0 111 85 183 187 183s187 -72 187 -183c0 -110 -85 -183 -187 -183s-187 73 -187 183zM794 169c0 56 -42 92 -91 92s-91 -36 -91 -92s42 -92 91 -92s91 36 91 92zM1219 169c0 56 -42 92 -91 92
s-91 -36 -91 -92s42 -92 91 -92s91 36 91 92z" />
    <glyph glyph-name="plus" unicode="+" horiz-adv-x="523" 
d="M459 385v-106h-143v-145h-109v145h-143v106h143v145h109v-145h143z" />
    <glyph glyph-name="plusminus" unicode="&#xb1;" horiz-adv-x="523" 
d="M316 439h143v-107h-143v-98h-109v98h-143v107h143v144h109v-144zM64 69v107h395v-107h-395z" />
    <glyph glyph-name="product" unicode="&#x220f;" horiz-adv-x="628" 
d="M85 700h458v-785h-106v690h-245v-690h-107v785z" />
    <glyph glyph-name="radical" unicode="&#x221a;" horiz-adv-x="640" 
d="M506 700h116l-272 -700h-58h-25l-151 409h-105v97h182l119 -352z" />
    <glyph glyph-name="summation" unicode="&#x2211;" horiz-adv-x="558" 
d="M248 123h267v-123h-466v78l212 279l-197 265v78h433v-123h-237l144 -202v-41z" />
    <glyph glyph-name="arrowup" unicode="&#x2191;" horiz-adv-x="550" 
d="M495 415h-178v-415h-84v415h-178l215 251h10z" />
    <glyph glyph-name="uni2197" unicode="&#x2197;" horiz-adv-x="644" 
d="M578 537v-330l-138 138l-356 -356l-62 60l357 357l-138 138h330z" />
    <glyph glyph-name="arrowright" unicode="&#x2192;" horiz-adv-x="820" 
d="M520 496l250 -215v-10l-250 -215v179h-449v82h449v179z" />
    <glyph glyph-name="uni2198" unicode="&#x2198;" horiz-adv-x="644" 
d="M440 199l138 139v-330l-7 -8h-330l138 138l-357 357l62 60z" />
    <glyph glyph-name="arrowdown" unicode="&#x2193;" horiz-adv-x="550" 
d="M317 244h178l-215 -251h-10l-215 251h178v415h84v-415z" />
    <glyph glyph-name="uni2199" unicode="&#x2199;" horiz-adv-x="644" 
d="M622 495l-357 -357l138 -138h-330l-7 8v330l138 -139l356 356z" />
    <glyph glyph-name="arrowleft" unicode="&#x2190;" horiz-adv-x="820" 
d="M749 317v-82h-449v-179l-250 215v10l250 215v-179h449z" />
    <glyph glyph-name="uni2196" unicode="&#x2196;" horiz-adv-x="644" 
d="M622 49l-62 -60l-356 356l-138 -138v330l7 7h330l-138 -138z" />
    <glyph glyph-name="arrowboth" unicode="&#x2194;" horiz-adv-x="984" 
d="M684 501l250 -215v-10l-250 -215v179h-384v-179l-250 215v10l250 215v-179h384v179z" />
    <glyph glyph-name="arrowupdn" unicode="&#x2195;" horiz-adv-x="550" 
d="M317 480v-244h178l-215 -250h-10l-215 250h178v244h-178l215 251h10l215 -251h-178z" />
    <glyph glyph-name="arrowup.ss01" horiz-adv-x="836" 
d="M55 350c-4 207 165 367 363 364c198 3 366 -157 363 -364c3 -207 -165 -367 -363 -364c-198 -3 -367 157 -363 364zM248 361h134v-207h72v207h134l-165 192h-10z" />
    <glyph glyph-name="uni2197.ss01" horiz-adv-x="836" 
d="M55 350c-4 207 165 367 363 364c198 3 366 -157 363 -364c3 -207 -165 -367 -363 -364c-198 -3 -367 157 -363 364zM234 220l53 -52l196 196l103 -103v250l-7 8h-251l104 -103z" />
    <glyph glyph-name="arrowright.ss01" horiz-adv-x="836" 
d="M55 350c-4 207 165 367 363 364c198 3 366 -157 363 -364c3 -207 -165 -367 -363 -364c-198 -4 -367 156 -363 364zM211 315h226v-135l192 164v11l-192 165v-135h-226v-70z" />
    <glyph glyph-name="uni2198.ss01" horiz-adv-x="836" 
d="M781 350c3 -207 -165 -367 -363 -364c-198 -3 -367 157 -363 364c-4 207 165 367 363 364c198 3 366 -157 363 -364zM234 480l198 -196l-104 -103h251l7 8v250l-103 -103l-196 196z" />
    <glyph glyph-name="arrowdown.ss01" horiz-adv-x="836" 
d="M781 350c3 -207 -165 -367 -363 -364c-198 -3 -367 157 -363 364c-4 207 165 367 363 364c198 3 366 -157 363 -364zM248 339l165 -192h10l165 192h-134v207h-72v-207h-134z" />
    <glyph glyph-name="uni2199.ss01" horiz-adv-x="836" 
d="M781 350c3 -207 -165 -367 -363 -364c-198 -3 -367 157 -363 364c-4 207 165 367 363 364c198 3 366 -157 363 -364zM601 480l-53 52l-195 -196l-103 103v-250l7 -8h250l-103 103z" />
    <glyph glyph-name="arrowleft.ss01" horiz-adv-x="836" 
d="M55 350c-4 207 165 367 363 364c198 3 366 -157 363 -364c3 -208 -165 -368 -363 -364c-198 -3 -367 157 -363 364zM625 315v70h-226v135l-192 -165v-11l192 -164v135h226z" />
    <glyph glyph-name="uni2196.ss01" horiz-adv-x="836" 
d="M55 350c-4 207 165 367 363 364c198 3 366 -157 363 -364c3 -207 -165 -367 -363 -364c-198 -3 -367 157 -363 364zM601 220l-197 196l103 103h-250l-7 -8v-250l103 103l195 -196z" />
    <glyph glyph-name="arrowboth.ss01" horiz-adv-x="836" 
d="M55 350c-4 207 165 367 363 364c198 3 366 -157 363 -364c3 -207 -165 -367 -363 -364c-198 -3 -367 157 -363 364zM143 345l192 -165v135h165v-135l193 165v10l-193 165v-136h-165v136l-192 -165v-10z" />
    <glyph glyph-name="arrowupdn.ss01" horiz-adv-x="836" 
d="M55 350c-4 207 165 367 363 364c198 3 366 -157 363 -364c3 -207 -165 -367 -363 -364c-198 -3 -367 157 -363 364zM248 286l165 -192h10l165 192h-134v128h134l-165 192h-10l-165 -192h134v-128h-134z" />
    <glyph glyph-name="lozenge" unicode="&#x25ca;" horiz-adv-x="520" 
d="M295 700l187 -350l-187 -350h-60h-10l-187 350l187 350h60h10zM260 137l107 213l-107 213l-107 -213z" />
    <glyph glyph-name="bar" unicode="|" horiz-adv-x="320" 
d="M214 752v-857h-107v857h107z" />
    <glyph glyph-name="brokenbar" unicode="&#xa6;" horiz-adv-x="320" 
d="M214 752v-346h-107v346h107zM214 241v-346h-107v346h107z" />
    <glyph glyph-name="at" unicode="@" horiz-adv-x="981" 
d="M934 295c0 -161 -66 -254 -170 -254c-57 0 -106 33 -121 78c-39 -49 -99 -78 -166 -78c-118 0 -219 84 -219 229s101 229 215 229c60 0 112 -23 145 -68v54h99v-265c0 -61 20 -92 61 -92c52 0 89 51 89 163c3 244 -185 361 -377 360c-206 3 -380 -155 -376 -381
c-4 -226 170 -384 376 -381c73 0 144 15 213 45h10v-68c-73 -27 -147 -40 -223 -40c-246 -3 -448 178 -444 444c-4 266 198 447 444 444c219 2 448 -139 444 -419zM613 270c0 79 -54 123 -121 123s-120 -44 -120 -123s53 -123 120 -123s121 44 121 123z" />
    <glyph glyph-name="ampersand" unicode="&#x26;" horiz-adv-x="647" 
d="M626 0h-134l-31 49c-49 -42 -108 -63 -178 -63c-133 0 -246 79 -246 235c0 124 71 204 170 233l-109 172v74h409v-115h-249l198 -315c8 37 12 81 12 130h112c0 -103 -16 -187 -47 -252zM398 149l-130 207c-59 -9 -105 -59 -105 -127c0 -73 51 -123 130 -123
c42 0 77 14 105 43z" />
    <glyph glyph-name="paragraph" unicode="&#xb6;" horiz-adv-x="511" 
d="M282 700h144v-805h-107v384h-37c-151 0 -243 73 -243 210s92 211 243 211z" />
    <glyph glyph-name="copyright" unicode="&#xa9;" horiz-adv-x="836" 
d="M55 350c-4 208 165 368 363 364c198 4 366 -156 363 -364c3 -207 -165 -367 -363 -364c-198 -3 -367 157 -363 364zM732 350c3 179 -141 320 -314 317c-173 3 -316 -138 -313 -317c-3 -180 140 -319 313 -316c173 -3 317 136 314 316zM445 546c37 0 72 -9 106 -26v-90h-8
c-33 21 -63 31 -92 31c-63 0 -112 -43 -112 -111s50 -111 114 -111c35 0 66 11 95 34h9v-93c-33 -17 -69 -26 -108 -26c-59 0 -108 17 -147 51c-38 35 -57 83 -57 145c0 126 88 196 200 196z" />
    <glyph glyph-name="registered" unicode="&#xae;" horiz-adv-x="595" 
d="M552 445c0 -147 -112 -255 -254 -255c-141 0 -254 108 -254 255s113 255 254 255c142 0 254 -108 254 -255zM514 445c0 125 -95 219 -216 219s-218 -94 -218 -219s97 -219 218 -219s216 94 216 219zM344 418l72 -106h-67l-62 100h-29v-100h-57v266h126
c51 0 84 -35 84 -80c0 -40 -28 -72 -67 -80zM258 527v-66h57c23 0 37 11 37 34c0 21 -15 32 -39 32h-55z" />
    <glyph glyph-name="section" unicode="&#xa7;" horiz-adv-x="551" 
d="M430 151c26 -32 39 -70 39 -114c0 -119 -104 -172 -209 -172c-57 0 -114 15 -169 46v126h11c53 -47 105 -70 156 -70c53 0 92 28 92 68c0 29 -21 54 -54 67l-118 47c-80 33 -127 89 -127 164c0 55 25 95 76 119c-30 32 -45 72 -45 119c0 57 21 99 62 124
c41 26 91 39 150 39c67 0 115 -15 166 -38v-117h-10c-49 35 -101 53 -156 53c-63 0 -93 -23 -93 -60c0 -31 23 -57 70 -76l117 -46c73 -29 112 -88 112 -159c0 -54 -23 -94 -70 -120zM240 247l104 -40c24 11 36 29 36 54c0 32 -20 55 -53 70l-113 45c-29 -9 -43 -27 -43 -52
c0 -35 25 -58 69 -77z" />
    <glyph glyph-name="trademark" unicode="&#x2122;" horiz-adv-x="671" 
d="M15 628v72h237v-72h-77v-236h-82v236h-78zM572 700h65v-308h-80v166l-73 -96h-24l-74 96v-166h-80v308h66l100 -135z" />
    <glyph glyph-name="degree" unicode="&#xb0;" horiz-adv-x="440" 
d="M220 713c50 0 92 -15 125 -45s50 -71 50 -124c0 -52 -17 -93 -50 -123s-75 -45 -125 -45s-92 15 -125 45s-50 71 -50 123c0 53 17 94 50 124s75 45 125 45zM220 462c48 0 83 33 83 82c0 51 -34 83 -83 83s-83 -32 -83 -83c0 -49 35 -82 83 -82z" />
    <glyph glyph-name="uni2116" unicode="&#x2116;" horiz-adv-x="1233" 
d="M770 512c0 129 94 202 204 202c109 0 204 -74 204 -202s-95 -202 -204 -202c-110 0 -204 73 -204 202zM555 243v457h137v-700h-113l-358 457v-457h-136v700h112zM883 512c0 -59 40 -95 91 -95c49 0 91 36 91 95s-40 95 -91 95s-91 -36 -91 -95zM800 167v95h347v-95h-347z
" />
    <glyph glyph-name="asciicircum" unicode="^" horiz-adv-x="492" 
d="M449 382h-109l-94 199l-94 -199h-109l162 318h65h17z" />
    <glyph glyph-name="dagger" unicode="&#x2020;" horiz-adv-x="449" 
d="M407 506v-93h-133v-498h-99v498h-133v93h133v194h99v-194h133z" />
    <glyph glyph-name="daggerdbl" unicode="&#x2021;" horiz-adv-x="449" 
d="M407 413h-133v-201h133v-93h-133v-204h-99v204h-133v93h133v201h-133v93h133v194h99v-194h133v-93z" />
    <glyph glyph-name="at.case" horiz-adv-x="981" 
d="M934 375c0 -161 -66 -254 -170 -254c-57 0 -106 33 -121 78c-39 -49 -99 -78 -166 -78c-118 0 -219 84 -219 229s101 229 215 229c60 0 112 -23 145 -68v54h99v-265c0 -61 20 -92 61 -92c52 0 89 51 89 163c3 244 -185 361 -377 360c-206 3 -380 -155 -376 -381
c-4 -226 170 -385 376 -381c73 0 144 15 213 45h10v-68c-73 -27 -147 -40 -223 -40c-246 -3 -448 178 -444 444c-4 266 198 447 444 444c219 2 448 -139 444 -419zM613 350c0 79 -54 123 -121 123s-120 -44 -120 -123s53 -123 120 -123s121 44 121 123z" />
    <glyph glyph-name="uni0308" unicode="&#x308;" 
d="M-321 721c39 0 68 -28 68 -68s-29 -68 -68 -68s-68 28 -68 68s29 68 68 68zM-107 721c39 0 67 -28 67 -68s-28 -68 -67 -68s-68 28 -68 68s29 68 68 68z" />
    <glyph glyph-name="uni0307" unicode="&#x307;" 
d="M-116 730c44 0 76 -28 76 -73c0 -44 -32 -72 -76 -72c-43 0 -75 28 -75 72s32 73 75 73z" />
    <glyph glyph-name="gravecomb" unicode="&#x300;" 
d="M-139 579l-101 173h132l68 -173h-99z" />
    <glyph glyph-name="acutecomb" unicode="&#x301;" 
d="M-142 579h-98l67 173h133z" />
    <glyph glyph-name="uni030B" unicode="&#x30b;" 
d="M-304 571h-87l67 173h109zM-148 571h-92l88 173h112z" />
    <glyph glyph-name="uni0302" unicode="&#x302;" 
d="M-40 576h-95l-70 72l-71 -72h-92l120 153h88z" />
    <glyph glyph-name="uni030C" unicode="&#x30c;" 
d="M-132 729h92l-120 -153h-88l-120 153h96l69 -73z" />
    <glyph glyph-name="uni0306" unicode="&#x306;" 
d="M-348 728v10h81v-14c0 -45 26 -70 73 -70s72 25 72 70v14h82v-10c0 -109 -57 -161 -154 -161s-154 50 -154 161z" />
    <glyph glyph-name="uni030A" unicode="&#x30a;" 
d="M-148 757c59 0 108 -38 108 -98c0 -61 -49 -99 -108 -99s-107 38 -107 99c0 60 48 98 107 98zM-148 615c24 0 44 17 44 44c0 25 -20 43 -44 43c-23 0 -43 -18 -43 -43s20 -44 43 -44z" />
    <glyph glyph-name="tildecomb" unicode="&#x303;" 
d="M-269 731c43 0 80 -39 91 -47c11 -10 22 -15 32 -15c21 0 33 17 36 52h70c-1 -97 -44 -147 -99 -147c-43 0 -83 40 -91 48c-11 10 -22 15 -33 15c-21 0 -32 -18 -35 -53h-70c1 97 44 147 99 147z" />
    <glyph glyph-name="uni0304" unicode="&#x304;" 
d="M-40 602h-268v91h268v-91z" />
    <glyph glyph-name="uni0312" unicode="&#x312;" 
d="M-85 570h-121l73 188h93z" />
    <glyph glyph-name="uni0326" unicode="&#x326;" 
d="M-160 -54h120l-73 -187h-93z" />
    <glyph glyph-name="uni0327" unicode="&#x327;" 
d="M-235 -200v74c19 -5 34 -8 45 -8c31 0 50 17 50 50c0 27 -9 55 -28 84h85c29 -35 43 -71 43 -107c0 -68 -53 -106 -121 -106c-21 0 -46 4 -74 13z" />
    <glyph glyph-name="uni0328" unicode="&#x328;" 
d="M-134 0h85c-55 -29 -84 -65 -84 -98c0 -23 13 -35 39 -35c14 0 32 5 54 14v-77c-27 -11 -53 -17 -80 -17c-63 0 -113 28 -113 87c0 47 33 89 99 126z" />
    <glyph glyph-name="uni0335" unicode="&#x335;" 
d="M-403 578v86h363v-86h-363z" />
    <glyph glyph-name="uni0336" unicode="&#x336;" 
d="M-771 530v88h731v-88h-731z" />
    <glyph glyph-name="uni0337" unicode="&#x337;" 
d="M-321 200v105l281 176v-105z" />
    <glyph glyph-name="uni0338" unicode="&#x338;" 
d="M-40 515l-414 -572l-63 44l414 572z" />
    <glyph glyph-name="uni0308.case" 
d="M-333 900c40 0 71 -27 71 -68s-31 -68 -71 -68c-41 0 -71 27 -71 68s30 68 71 68zM-110 900c40 0 70 -27 70 -68s-30 -68 -70 -68c-41 0 -71 27 -71 68s30 68 71 68z" />
    <glyph glyph-name="uni0307.case" 
d="M-119 909c44 0 79 -28 79 -71s-35 -71 -79 -71s-78 28 -78 71s34 71 78 71z" />
    <glyph glyph-name="gravecomb.case" 
d="M-146 758l-111 152h137l80 -152h-106z" />
    <glyph glyph-name="acutecomb.case" 
d="M-152 758h-105l79 152h138z" />
    <glyph glyph-name="uni030B.case" 
d="M-323 758h-93l78 152h116zM-163 758h-98l101 152h120z" />
    <glyph glyph-name="uni0302.case" 
d="M-40 762h-101l-68 63l-70 -63h-98l120 135h97z" />
    <glyph glyph-name="uni030C.case" 
d="M-138 897h98l-120 -135h-97l-120 135h101l68 -63z" />
    <glyph glyph-name="uni0306.case" 
d="M-126 904h86v-9c0 -97 -59 -145 -158 -145c-100 0 -158 48 -158 145v9h87v-11c0 -35 26 -54 71 -54s72 19 72 54v11z" />
    <glyph glyph-name="uni030A.case" 
d="M-40 836c0 -61 -49 -98 -112 -98s-111 37 -111 98c0 60 48 97 111 97s112 -37 112 -97zM-106 836c0 24 -19 41 -46 41s-46 -17 -46 -41s19 -41 46 -41s46 16 46 41z" />
    <glyph glyph-name="tildecomb.case" 
d="M-113 892h73c-1 -88 -45 -137 -100 -137c-45 0 -81 31 -90 38c-11 9 -23 14 -34 14c-21 0 -32 -14 -35 -42h-73c1 87 45 136 100 136c33 0 50 -11 90 -38c13 -9 25 -13 34 -13c21 0 32 14 35 42z" />
    <glyph glyph-name="uni0304.case" 
d="M-40 779h-282v92h282v-92z" />
    <glyph glyph-name="uni0312.case" 
d="M-85 753h-121l73 187h93z" />
    <glyph glyph-name="uni0326.case" 
d="M-160 -54h120l-73 -187h-93z" />
    <glyph glyph-name="uni0327.case" 
d="M-235 -200v74c19 -5 34 -8 45 -8c31 0 50 17 50 50c0 27 -9 55 -28 84h85c29 -35 43 -71 43 -107c0 -68 -53 -106 -121 -106c-21 0 -46 4 -74 13z" />
    <glyph glyph-name="uni0328.case" 
d="M-134 0h85c-55 -29 -84 -65 -84 -98c0 -23 13 -35 39 -35c14 0 32 5 54 14v-77c-27 -11 -53 -17 -80 -17c-63 0 -113 28 -113 87c0 47 33 89 99 126z" />
    <glyph glyph-name="uni0335.case" 
d="M-402 311v111h362v-111h-362z" />
    <glyph glyph-name="uni0336.case" 
d="M-771 530v88h731v-88h-731z" />
    <glyph glyph-name="uni0337.case" 
d="M-397 167v111l357 194v-111z" />
    <glyph glyph-name="uni0338.case" 
d="M-40 613l-549 -757l-69 49l549 757z" />
    <glyph glyph-name="brevecombcy" 
d="M-139 736h99v-17c0 -107 -62 -155 -166 -155c-103 0 -165 48 -165 155v17h99v-22c0 -47 25 -72 66 -72s67 25 67 72v22z" />
    <glyph glyph-name="brevecombcy.case" 
d="M-145 908h105v-10c0 -103 -67 -152 -176 -152c-111 0 -176 49 -176 152v10h104v-15c0 -41 25 -67 72 -67c45 0 71 26 71 67v15z" />
    <glyph glyph-name="russianfonts" horiz-adv-x="614" 
d="M67 99c-9 33 -13 71 -13 114c0 204 79 349 191 414c51 31 99 46 143 46c51 0 94 -41 117 -100c11 -26 16 -50 16 -72v-6h-23c-75 0 -116 -9 -165 -49c-27 -21 -52 -53 -77 -95c-25 -41 -43 -84 -54 -127c-11 -45 -17 -84 -17 -115c0 -27 3 -40 8 -40c10 0 24 10 43 30
c31 32 63 91 97 176l33 91c7 18 12 34 16 49h139v-23l-35 -24v-322l35 -23v-23h-173v23l34 23v288l-8 -31c-13 -47 -33 -96 -60 -148c-55 -103 -123 -166 -174 -166c-28 0 -57 42 -73 110z" />
    <glyph glyph-name="uniF408" unicode="&#xf408;" 
d="M-246 579h-98l67 173h133z" />
    <glyph glyph-name="NULL" 
 />
    <glyph glyph-name="CR" horiz-adv-x="248" 
 />
    </font>
</defs>
</svg>
