<?xml version="1.0" standalone="no"?>
<!DOCTYPE svg PUBLIC "-//W3C//DTD SVG 1.1//EN" "http://www.w3.org/Graphics/SVG/1.1/DTD/svg11.dtd" >
<svg xmlns="http://www.w3.org/2000/svg" xmlns:xlink="http://www.w3.org/1999/xlink" version="1.1">
<metadata>
Created by FontForge 20170910 at Thu Nov  8 00:46:36 2018
 By Jimmy Wärting
Copyright \(c\) 2018 by Russian Fonts. All rights reserved. |DCNT
</metadata>
<defs>
<font id="RFTone-SemiBold" horiz-adv-x="0" >
  <font-face 
    font-family="RF Tone SemiBold"
    font-weight="600"
    font-stretch="normal"
    units-per-em="1000"
    panose-1="0 0 7 0 0 0 0 0 0 0"
    ascent="783"
    descent="-217"
    x-height="502"
    cap-height="700"
    bbox="-758 -237 1291 958"
    underline-thickness="50"
    underline-position="-100"
    unicode-range="U+0020-F408"
  />
<missing-glyph horiz-adv-x="600" 
 />
    <glyph glyph-name="f_b.liga" unicode="fb" horiz-adv-x="1007" 
d="M302 752h48v-102h-36c-52 0 -80 -29 -80 -88v-60h116v-88h-116v-414h-107v414h-105v88h105v83c0 108 67 167 175 167zM961 251c0 -173 -116 -265 -236 -265c-71 0 -136 33 -179 94v-80h-93v752h107v-311c43 48 101 75 164 75c120 0 237 -92 237 -265zM852 251
c0 114 -75 166 -150 166s-150 -52 -150 -166s75 -166 150 -166s150 52 150 166z" />
    <glyph glyph-name="f_f.liga" unicode="ff" horiz-adv-x="713" 
d="M540 562v-60h139v-88h-139v-414h-107v414h-199v-414h-107v414h-105v88h105v69c0 108 67 167 175 167h53v-102h-41c-52 0 -80 -30 -80 -87v-47h199v83c0 108 68 167 176 167h79v-102h-67c-52 0 -81 -29 -81 -88z" />
    <glyph glyph-name="f_f_i.liga" unicode="ffi" horiz-adv-x="945" 
d="M609 752h50v-102h-38c-52 0 -81 -29 -81 -88v-60h119v-88h-119v-414h-107v414h-199v-414h-107v414h-105v88h105v69c0 108 67 167 175 167h53v-102h-41c-52 0 -80 -29 -80 -88v-46h199v83c0 108 68 167 176 167zM743 665c0 41 30 69 70 69s71 -28 71 -69
c0 -43 -31 -70 -71 -70s-70 27 -70 70zM760 0v502h107v-502h-107z" />
    <glyph glyph-name="f_f_l.liga" unicode="ffl" horiz-adv-x="945" 
d="M609 752h48v-102h-36c-52 0 -81 -29 -81 -88v-60h117v-88h-117v-414h-107v414h-199v-414h-107v414h-105v88h105v69c0 108 67 167 175 167h53v-102h-41c-52 0 -80 -29 -80 -88v-46h199v83c0 108 68 167 176 167zM760 752h107v-752h-107v752z" />
    <glyph glyph-name="f_h.liga" unicode="fh" horiz-adv-x="959" 
d="M302 752h48v-102h-36c-52 0 -80 -29 -80 -88v-60h116v-88h-116v-414h-107v414h-105v88h105v83c0 108 67 167 175 167zM890 314v-314h-107v288c0 79 -41 126 -106 126c-73 0 -117 -63 -117 -158v-256h-107v752h107v-307c35 45 85 71 146 71c53 0 97 -18 132 -53
s52 -84 52 -149z" />
    <glyph glyph-name="f_i.liga" unicode="fi" horiz-adv-x="639" 
d="M302 752h50v-102h-38c-52 0 -80 -29 -80 -88v-60h118v-88h-118v-414h-107v414h-105v88h105v83c0 108 67 167 175 167zM436 665c0 41 31 69 71 69s71 -28 71 -69c0 -43 -31 -70 -71 -70s-71 27 -71 70zM453 0v502h107v-502h-107z" />
    <glyph glyph-name="f_j.liga" unicode="fj" horiz-adv-x="639" 
d="M302 752h50v-102h-38c-52 0 -80 -29 -80 -88v-60h118v-88h-118v-414h-107v414h-105v88h105v83c0 108 67 167 175 167zM436 665c0 41 31 69 71 69s71 -28 71 -69c0 -43 -31 -70 -71 -70s-71 27 -71 70zM453 -35v537h107v-548c0 -105 -59 -148 -142 -148h-59v101h47
c31 0 47 19 47 58z" />
    <glyph glyph-name="f_k.liga" unicode="fk" horiz-adv-x="913" 
d="M302 752h48v-102h-36c-52 0 -80 -29 -80 -88v-60h116v-88h-116v-414h-107v414h-105v88h105v83c0 108 67 167 175 167zM900 0h-138l-202 249v-249h-107v752h107v-460l184 210h133l-208 -227z" />
    <glyph glyph-name="f_l.liga" unicode="fl" horiz-adv-x="639" 
d="M302 752h48v-102h-36c-52 0 -80 -29 -80 -88v-60h116v-88h-116v-414h-107v414h-105v88h105v83c0 108 67 167 175 167zM453 752h107v-752h-107v752z" />
    <glyph glyph-name="f_t.liga" unicode="ft" horiz-adv-x="725" 
d="M689 414h-149v-239c0 -48 30 -73 78 -73h67v-102h-85c-105 0 -167 52 -167 156v258h-199v-414h-107v414h-105v88h105v83c0 108 67 167 175 167h47v-102h-35c-52 0 -80 -29 -80 -88v-60h199v160h107v-160h149v-88z" />
    <glyph glyph-name="idieresis_idieresis.liga" unicode="&#xef;&#xef;" horiz-adv-x="679" 
d="M105 715c33 0 59 -24 59 -60s-26 -60 -59 -60s-59 24 -59 60s26 60 59 60zM340 715c33 0 58 -24 58 -60c0 -35 -25 -60 -58 -60s-59 24 -59 60s26 60 59 60zM574 715c33 0 59 -24 59 -60s-26 -60 -59 -60s-59 24 -59 60s26 60 59 60zM154 502h107v-502h-107v502zM418 502
h107v-502h-107v502z" />
    <glyph glyph-name="uni04570457.liga" unicode="&#x457;&#x457;" horiz-adv-x="679" 
d="M105 715c33 0 59 -24 59 -60s-26 -60 -59 -60s-59 24 -59 60s26 60 59 60zM340 715c33 0 58 -24 58 -60c0 -35 -25 -60 -58 -60s-59 24 -59 60s26 60 59 60zM574 715c33 0 59 -24 59 -60s-26 -60 -59 -60s-59 24 -59 60s26 60 59 60zM154 502h107v-502h-107v502zM418 502
h107v-502h-107v502z" />
    <glyph glyph-name=".notdef" horiz-adv-x="600" 
 />
    <glyph glyph-name="space" unicode=" " horiz-adv-x="235" 
 />
    <glyph glyph-name="A" unicode="A" horiz-adv-x="709" 
d="M563 0l-67 176h-285l-68 -176h-122l286 700h95l286 -700h-125zM247 270h213l-106 279z" />
    <glyph glyph-name="Aacute" unicode="&#xc1;" horiz-adv-x="709" 
d="M563 0l-67 176h-285l-68 -176h-122l286 700h95l286 -700h-125zM247 270h213l-106 279zM405 758h-88l82 148h115z" />
    <glyph glyph-name="Abreve" unicode="&#x102;" horiz-adv-x="709" 
d="M563 0l-67 176h-285l-68 -176h-122l286 700h95l286 -700h-125zM247 270h213l-106 279zM428 902h75v-9c0 -95 -55 -139 -148 -139s-149 44 -149 139v9h75v-11c0 -40 25 -60 74 -60c48 0 73 21 73 60v11z" />
    <glyph glyph-name="Acircumflex" unicode="&#xc2;" horiz-adv-x="709" 
d="M563 0l-67 176h-285l-68 -176h-122l286 700h95l286 -700h-125zM247 270h213l-106 279zM512 762h-89l-70 64l-72 -64h-86l120 132h77z" />
    <glyph glyph-name="Adieresis" unicode="&#xc4;" horiz-adv-x="709" 
d="M563 0l-67 176h-285l-68 -176h-122l286 700h95l286 -700h-125zM247 270h213l-106 279zM247 889c35 0 62 -23 62 -60c0 -36 -27 -60 -62 -60s-62 24 -62 60c0 37 27 60 62 60zM461 889c35 0 62 -23 62 -60c0 -36 -27 -59 -62 -59s-62 23 -62 59c0 37 27 60 62 60z" />
    <glyph glyph-name="Agrave" unicode="&#xc0;" horiz-adv-x="709" 
d="M563 0l-67 176h-285l-68 -176h-122l286 700h95l286 -700h-125zM247 270h213l-106 279zM304 758l-109 148h115l82 -148h-88z" />
    <glyph glyph-name="Amacron" unicode="&#x100;" horiz-adv-x="709" 
d="M563 0l-67 176h-285l-68 -176h-122l286 700h95l286 -700h-125zM247 270h213l-106 279zM488 785h-268v80h268v-80z" />
    <glyph glyph-name="Aogonek" unicode="&#x104;" horiz-adv-x="709" 
d="M563 0l-67 176h-285l-68 -176h-122l286 700h95l286 -700h-125zM247 270h213l-106 279zM616 0h72c-53 -32 -84 -69 -84 -102c0 -25 15 -36 39 -36c15 0 33 5 56 14v-67c-25 -11 -50 -17 -76 -17c-60 0 -106 27 -106 82c0 47 33 89 99 126z" />
    <glyph glyph-name="Aring" unicode="&#xc5;" horiz-adv-x="709" 
d="M563 0l-67 176h-285l-68 -176h-122l286 700h95l286 -700h-125zM247 270h213l-106 279zM462 836c0 -61 -48 -96 -108 -96s-108 35 -108 96s48 96 108 96s108 -35 108 -96zM402 836c0 27 -20 43 -48 43s-48 -16 -48 -43c0 -25 20 -43 48 -43s48 18 48 43z" />
    <glyph glyph-name="Atilde" unicode="&#xc3;" horiz-adv-x="709" 
d="M563 0l-67 176h-285l-68 -176h-122l286 700h95l286 -700h-125zM247 270h213l-106 279zM450 889h66c-1 -84 -45 -128 -98 -128c-35 0 -51 12 -91 40c-12 9 -23 13 -32 13c-21 0 -33 -15 -36 -44h-66c1 83 45 127 97 127c44 0 82 -33 92 -41c12 -7 23 -11 32 -11
c21 0 33 15 36 44z" />
    <glyph glyph-name="AE" unicode="&#xc6;" horiz-adv-x="945" 
d="M581 102h319v-102h-433v176h-233l-97 -176h-132l397 700h483v-102h-304v-179h285v-98h-285v-219zM286 270h181v326z" />
    <glyph glyph-name="B" unicode="B" horiz-adv-x="664" 
d="M617 197c0 -124 -90 -197 -253 -197h-274v700h248c148 0 233 -69 233 -180c0 -71 -34 -119 -103 -143c97 -24 149 -85 149 -180zM326 601h-122v-196h122c84 0 127 36 127 97c0 63 -43 99 -127 99zM499 207c0 72 -49 108 -147 108h-148v-216h148c98 0 147 36 147 108z" />
    <glyph glyph-name="C" unicode="C" horiz-adv-x="686" 
d="M420 714c82 0 153 -20 212 -61v-129h-13c-52 53 -114 82 -198 82c-143 0 -244 -101 -244 -256c0 -153 103 -256 248 -256c83 0 151 31 204 94h14v-136c-65 -44 -138 -66 -219 -66c-210 0 -366 136 -366 364c-3 224 157 366 362 364z" />
    <glyph glyph-name="Cacute" unicode="&#x106;" horiz-adv-x="686" 
d="M420 714c82 0 153 -20 212 -61v-129h-13c-52 53 -114 82 -198 82c-143 0 -244 -101 -244 -256c0 -153 103 -256 248 -256c83 0 151 31 204 94h14v-136c-65 -44 -138 -66 -219 -66c-210 0 -366 136 -366 364c-3 224 157 366 362 364zM427 758h-88l82 148h115z" />
    <glyph glyph-name="Ccaron" unicode="&#x10c;" horiz-adv-x="686" 
d="M420 714c82 0 153 -20 212 -61v-129h-13c-52 53 -114 82 -198 82c-143 0 -244 -101 -244 -256c0 -153 103 -256 248 -256c83 0 151 31 204 94h14v-136c-65 -44 -138 -66 -219 -66c-210 0 -366 136 -366 364c-3 224 157 366 362 364zM482 894h86l-120 -132h-77l-120 132
h89l70 -64z" />
    <glyph glyph-name="Ccedilla" unicode="&#xc7;" horiz-adv-x="686" 
d="M643 188v-136c-55 -37 -117 -59 -184 -65c23 -31 34 -62 34 -93c0 -64 -51 -102 -114 -102c-21 0 -44 4 -69 13v65c18 -5 33 -8 45 -8c32 0 51 18 51 51c0 23 -8 48 -24 75c-189 16 -324 150 -324 362c-3 224 157 366 362 364c82 0 153 -20 212 -61v-129h-13
c-52 53 -114 82 -198 82c-143 0 -244 -101 -244 -256c0 -153 103 -256 248 -256c83 0 151 31 204 94h14z" />
    <glyph glyph-name="Cdotaccent" unicode="&#x10a;" horiz-adv-x="686" 
d="M420 714c82 0 153 -20 212 -61v-129h-13c-52 53 -114 82 -198 82c-143 0 -244 -101 -244 -256c0 -153 103 -256 248 -256c83 0 151 31 204 94h14v-136c-65 -44 -138 -66 -219 -66c-210 0 -366 136 -366 364c-3 224 157 366 362 364zM410 918c39 0 69 -25 69 -64
s-30 -63 -69 -63s-70 26 -70 63c0 39 30 64 70 64z" />
    <glyph glyph-name="D" unicode="D" horiz-adv-x="733" 
d="M675 350c0 -225 -148 -350 -370 -350h-215v700h215c222 0 370 -125 370 -350zM556 350c0 165 -100 248 -263 248h-89v-496h89c163 0 263 83 263 248z" />
    <glyph glyph-name="Eth" unicode="&#xd0;" horiz-adv-x="761" 
d="M703 350c0 -225 -148 -350 -370 -350h-215v312h-91v97h91v291h215c222 0 370 -125 370 -350zM584 350c0 165 -100 248 -263 248h-89v-189h143v-97h-143v-210h89c163 0 263 83 263 248z" />
    <glyph glyph-name="Dcaron" unicode="&#x10e;" horiz-adv-x="733" 
d="M675 350c0 -225 -148 -350 -370 -350h-215v700h215c222 0 370 -125 370 -350zM556 350c0 165 -100 248 -263 248h-89v-496h89c163 0 263 83 263 248zM439 894h86l-120 -132h-77l-120 132h89l70 -64z" />
    <glyph glyph-name="Dcroat" unicode="&#x110;" horiz-adv-x="761" 
d="M703 350c0 -225 -148 -350 -370 -350h-215v312h-91v97h91v291h215c222 0 370 -125 370 -350zM584 350c0 165 -100 248 -263 248h-89v-189h143v-97h-143v-210h89c163 0 263 83 263 248z" />
    <glyph glyph-name="E" unicode="E" horiz-adv-x="568" 
d="M204 102h319v-102h-433v700h418v-102h-304v-179h285v-98h-285v-219z" />
    <glyph glyph-name="Eacute" unicode="&#xc9;" horiz-adv-x="568" 
d="M204 102h319v-102h-433v700h418v-102h-304v-179h285v-98h-285v-219zM319 758h-88l82 148h115z" />
    <glyph glyph-name="Ecaron" unicode="&#x11a;" horiz-adv-x="568" 
d="M204 102h319v-102h-433v700h418v-102h-304v-179h285v-98h-285v-219zM374 894h86l-120 -132h-77l-120 132h89l70 -64z" />
    <glyph glyph-name="Ecircumflex" unicode="&#xca;" horiz-adv-x="568" 
d="M204 102h319v-102h-433v700h418v-102h-304v-179h285v-98h-285v-219zM460 762h-89l-70 64l-72 -64h-86l120 132h77z" />
    <glyph glyph-name="Edieresis" unicode="&#xcb;" horiz-adv-x="568" 
d="M204 102h319v-102h-433v700h418v-102h-304v-179h285v-98h-285v-219zM194 889c35 0 62 -23 62 -60c0 -36 -27 -60 -62 -60s-62 24 -62 60c0 37 27 60 62 60zM408 889c35 0 62 -23 62 -60c0 -36 -27 -59 -62 -59s-62 23 -62 59c0 37 27 60 62 60z" />
    <glyph glyph-name="Edotaccent" unicode="&#x116;" horiz-adv-x="568" 
d="M204 102h319v-102h-433v700h418v-102h-304v-179h285v-98h-285v-219zM302 918c39 0 69 -25 69 -64s-30 -63 -69 -63s-70 26 -70 63c0 39 30 64 70 64z" />
    <glyph glyph-name="Egrave" unicode="&#xc8;" horiz-adv-x="568" 
d="M204 102h319v-102h-433v700h418v-102h-304v-179h285v-98h-285v-219zM283 758l-109 148h115l82 -148h-88z" />
    <glyph glyph-name="Emacron" unicode="&#x112;" horiz-adv-x="568" 
d="M204 102h319v-102h-433v700h418v-102h-304v-179h285v-98h-285v-219zM436 785h-268v80h268v-80z" />
    <glyph glyph-name="Eogonek" unicode="&#x118;" horiz-adv-x="568" 
d="M204 102h319v-102h-433v700h418v-102h-304v-179h285v-98h-285v-219zM429 0h72c-53 -32 -84 -69 -84 -102c0 -25 15 -36 39 -36c15 0 33 5 56 14v-67c-25 -11 -50 -17 -76 -17c-60 0 -106 27 -106 82c0 47 33 89 99 126z" />
    <glyph glyph-name="F" unicode="F" horiz-adv-x="541" 
d="M499 598h-295v-189h264v-101h-264v-308h-114v700h409v-102z" />
    <glyph glyph-name="G" unicode="G" horiz-adv-x="734" 
d="M398 391h268v-391h-205c-125 0 -224 30 -296 90c-71 60 -107 147 -107 260c0 226 156 364 366 364c83 0 156 -21 219 -64v-125h-13c-56 53 -127 82 -206 82c-147 0 -247 -103 -247 -257c0 -156 99 -243 286 -243l94 1v186h-159v97z" />
    <glyph glyph-name="Gbreve" unicode="&#x11e;" horiz-adv-x="734" 
d="M398 391h268v-391h-205c-125 0 -224 30 -296 90c-71 60 -107 147 -107 260c0 226 156 364 366 364c83 0 156 -21 219 -64v-125h-13c-56 53 -127 82 -206 82c-147 0 -247 -103 -247 -257c0 -156 99 -243 286 -243l94 1v186h-159v97zM479 902h75v-9
c0 -95 -55 -139 -148 -139s-149 44 -149 139v9h75v-11c0 -40 25 -60 74 -60c48 0 73 21 73 60v11z" />
    <glyph glyph-name="Gcommaaccent" unicode="&#x122;" horiz-adv-x="734" 
d="M398 391h268v-391h-205c-125 0 -224 30 -296 90c-71 60 -107 147 -107 260c0 226 156 364 366 364c83 0 156 -21 219 -64v-125h-13c-56 53 -127 82 -206 82c-147 0 -247 -103 -247 -257c0 -156 99 -243 286 -243l94 1v186h-159v97zM376 -54h101l-70 -183h-76z" />
    <glyph glyph-name="Gdotaccent" unicode="&#x120;" horiz-adv-x="734" 
d="M398 391h268v-391h-205c-125 0 -224 30 -296 90c-71 60 -107 147 -107 260c0 226 156 364 366 364c83 0 156 -21 219 -64v-125h-13c-56 53 -127 82 -206 82c-147 0 -247 -103 -247 -257c0 -156 99 -243 286 -243l94 1v186h-159v97zM406 918c39 0 69 -25 69 -64
s-30 -63 -69 -63s-70 26 -70 63c0 39 30 64 70 64z" />
    <glyph glyph-name="H" unicode="H" horiz-adv-x="755" 
d="M551 700h114v-700h-114v321h-347v-321h-114v700h114v-276h347v276z" />
    <glyph glyph-name="Hbar" unicode="&#x126;" horiz-adv-x="786" 
d="M752 600v-76h-71v-524h-114v321h-348v-321h-114v524h-71v76h71v100h114v-100h348v100h114v-100h71zM567 424v100h-348v-100h348z" />
    <glyph glyph-name="I" unicode="I" horiz-adv-x="293" 
d="M90 700h114v-700h-114v700z" />
    <glyph glyph-name="Iacute" unicode="&#xcd;" horiz-adv-x="293" 
d="M90 700h114v-700h-114v700zM181 758h-88l82 148h115z" />
    <glyph glyph-name="Icircumflex" unicode="&#xce;" horiz-adv-x="293" 
d="M90 700h114v-700h-114v700zM305 762h-89l-70 64l-72 -64h-86l120 132h77z" />
    <glyph glyph-name="Idieresis" unicode="&#xcf;" horiz-adv-x="293" 
d="M54 890c35 0 62 -24 62 -60s-27 -60 -62 -60s-62 24 -62 60c0 37 27 60 62 60zM239 890c35 0 62 -23 62 -60c0 -36 -27 -59 -62 -59s-62 23 -62 59c0 37 27 60 62 60zM90 700h114v-700h-114v700z" />
    <glyph glyph-name="Idot" unicode="&#x130;" horiz-adv-x="293" 
d="M90 700h114v-700h-114v700zM147 918c39 0 69 -25 69 -64s-30 -63 -69 -63s-70 26 -70 63c0 39 30 64 70 64z" />
    <glyph glyph-name="Igrave" unicode="&#xcc;" horiz-adv-x="293" 
d="M90 700h114v-700h-114v700zM112 758l-109 148h115l82 -148h-88z" />
    <glyph glyph-name="Imacron" unicode="&#x12a;" horiz-adv-x="293" 
d="M271 785h-249v80h249v-80zM90 700h114v-700h-114v700z" />
    <glyph glyph-name="Iogonek" unicode="&#x12e;" horiz-adv-x="293" 
d="M219 -124v-67c-25 -11 -49 -17 -74 -17c-56 0 -102 28 -102 88c0 47 30 87 89 120h-42v700h114v-700c-52 -29 -74 -66 -74 -99c0 -26 13 -39 39 -39c13 0 29 5 50 14z" />
    <glyph glyph-name="J" unicode="J" horiz-adv-x="410" 
d="M37 0v108h62c67 0 115 37 115 128v464h114v-482c0 -144 -85 -218 -217 -218h-74z" />
    <glyph glyph-name="K" unicode="K" horiz-adv-x="650" 
d="M638 0h-144l-290 333v-333h-114v700h114v-293l266 293h142l-304 -324z" />
    <glyph glyph-name="Kcommaaccent" unicode="&#x136;" horiz-adv-x="650" 
d="M638 0h-144l-290 333v-333h-114v700h114v-293l266 293h142l-304 -324zM295 -54h101l-70 -183h-76z" />
    <glyph glyph-name="L" unicode="L" horiz-adv-x="516" 
d="M204 102h279v-102h-393v700h114v-598z" />
    <glyph glyph-name="Lacute" unicode="&#x139;" horiz-adv-x="516" 
d="M204 102h279v-102h-393v700h114v-598zM181 758h-88l82 148h115z" />
    <glyph glyph-name="Lcaron" unicode="&#x13d;" horiz-adv-x="516" 
d="M204 102h279v-102h-393v700h114v-598zM403 700l-37 -177h-77l22 177h92z" />
    <glyph glyph-name="Lcommaaccent" unicode="&#x13b;" horiz-adv-x="516" 
d="M204 102h279v-102h-393v700h114v-598zM228 -54h101l-70 -183h-76z" />
    <glyph glyph-name="Ldot" unicode="&#x13f;" horiz-adv-x="516" 
d="M204 102h279v-102h-393v700h114v-598zM353 468c41 0 74 -30 74 -74c0 -45 -33 -74 -74 -74s-74 29 -74 74c0 44 33 74 74 74z" />
    <glyph glyph-name="Lslash" unicode="&#x141;" horiz-adv-x="521" 
d="M208 102h280v-102h-394v257l-69 -38v95l69 38v348h114v-284l155 86v-95l-155 -86v-219z" />
    <glyph glyph-name="M" unicode="M" horiz-adv-x="871" 
d="M702 700h80v-700h-113v476l-210 -284h-45l-211 282v-474h-113v700h79l268 -365z" />
    <glyph glyph-name="N" unicode="N" horiz-adv-x="767" 
d="M565 700h113v-700h-89l-386 492v-492h-113v700h88l387 -492v492z" />
    <glyph glyph-name="Nacute" unicode="&#x143;" horiz-adv-x="767" 
d="M565 700h113v-700h-89l-386 492v-492h-113v700h88l387 -492v492zM401 758h-88l82 148h115z" />
    <glyph glyph-name="Ncaron" unicode="&#x147;" horiz-adv-x="767" 
d="M565 700h113v-700h-89l-386 492v-492h-113v700h88l387 -492v492zM456 894h86l-120 -132h-77l-120 132h89l70 -64z" />
    <glyph glyph-name="Ncommaaccent" unicode="&#x145;" horiz-adv-x="767" 
d="M565 700h113v-700h-89l-386 492v-492h-113v700h88l387 -492v492zM354 -54h101l-70 -183h-76z" />
    <glyph glyph-name="Eng" unicode="&#x14a;" horiz-adv-x="767" 
d="M565 700h113v-729c0 -107 -68 -165 -172 -165h-79v106h63c49 0 75 27 75 76v43l-362 461v-492h-113v700h88l387 -492v492z" />
    <glyph glyph-name="Ntilde" unicode="&#xd1;" horiz-adv-x="767" 
d="M565 700h113v-700h-89l-386 492v-492h-113v700h88l387 -492v492zM479 889h66c-1 -84 -45 -128 -98 -128c-35 0 -51 12 -91 40c-12 9 -23 13 -32 13c-21 0 -33 -15 -36 -44h-66c1 83 45 127 97 127c44 0 82 -33 92 -41c12 -7 23 -11 32 -11c21 0 33 15 36 44z" />
    <glyph glyph-name="O" unicode="O" horiz-adv-x="847" 
d="M424 714c206 2 368 -147 365 -364c3 -217 -159 -366 -365 -364c-207 -2 -369 147 -366 364c-3 217 159 366 366 364zM424 94c141 0 246 102 246 256s-105 256 -246 256s-247 -102 -247 -256s106 -256 247 -256z" />
    <glyph glyph-name="Oacute" unicode="&#xd3;" horiz-adv-x="847" 
d="M424 714c206 2 368 -147 365 -364c3 -217 -159 -366 -365 -364c-207 -2 -369 147 -366 364c-3 217 159 366 366 364zM424 94c141 0 246 102 246 256s-105 256 -246 256s-247 -102 -247 -256s106 -256 247 -256zM441 758h-88l82 148h115z" />
    <glyph glyph-name="Ocircumflex" unicode="&#xd4;" horiz-adv-x="847" 
d="M424 714c206 2 368 -147 365 -364c3 -217 -159 -366 -365 -364c-207 -2 -369 147 -366 364c-3 217 159 366 366 364zM424 94c141 0 246 102 246 256s-105 256 -246 256s-247 -102 -247 -256s106 -256 247 -256zM582 762h-89l-70 64l-72 -64h-86l120 132h77z" />
    <glyph glyph-name="Odieresis" unicode="&#xd6;" horiz-adv-x="847" 
d="M424 714c206 2 368 -147 365 -364c3 -217 -159 -366 -365 -364c-207 -2 -369 147 -366 364c-3 217 159 366 366 364zM424 94c141 0 246 102 246 256s-105 256 -246 256s-247 -102 -247 -256s106 -256 247 -256zM316 889c35 0 62 -23 62 -60c0 -36 -27 -60 -62 -60
s-62 24 -62 60c0 37 27 60 62 60zM530 889c35 0 62 -23 62 -60c0 -36 -27 -59 -62 -59s-62 23 -62 59c0 37 27 60 62 60z" />
    <glyph glyph-name="Ograve" unicode="&#xd2;" horiz-adv-x="847" 
d="M424 714c206 2 368 -147 365 -364c3 -217 -159 -366 -365 -364c-207 -2 -369 147 -366 364c-3 217 159 366 366 364zM424 94c141 0 246 102 246 256s-105 256 -246 256s-247 -102 -247 -256s106 -256 247 -256zM405 758l-109 148h115l82 -148h-88z" />
    <glyph glyph-name="Ohungarumlaut" unicode="&#x150;" horiz-adv-x="847" 
d="M424 714c206 2 368 -147 365 -364c3 -217 -159 -366 -365 -364c-207 -2 -369 147 -366 364c-3 217 159 366 366 364zM424 94c141 0 246 102 246 256s-105 256 -246 256s-247 -102 -247 -256s106 -256 247 -256zM367 758h-81l77 148h99zM516 758h-83l95 148h102z" />
    <glyph glyph-name="Omacron" unicode="&#x14c;" horiz-adv-x="847" 
d="M424 714c206 2 368 -147 365 -364c3 -217 -159 -366 -365 -364c-207 -2 -369 147 -366 364c-3 217 159 366 366 364zM424 94c141 0 246 102 246 256s-105 256 -246 256s-247 -102 -247 -256s106 -256 247 -256zM557 785h-268v80h268v-80z" />
    <glyph glyph-name="Oslash" unicode="&#xd8;" horiz-adv-x="847" 
d="M789 350c3 -217 -159 -366 -365 -364c-68 0 -130 14 -185 43l-57 -79l-63 44l57 79c-75 64 -118 161 -118 277c-3 217 159 366 366 364c69 0 131 -15 184 -44l58 80l63 -44l-57 -79c73 -64 117 -161 117 -277zM244 167l298 412c-37 18 -77 27 -118 27
c-141 0 -247 -102 -247 -256c0 -75 24 -138 67 -183zM670 350c0 75 -24 137 -67 182l-297 -411c36 -18 75 -27 118 -27c141 0 246 102 246 256z" />
    <glyph glyph-name="Otilde" unicode="&#xd5;" horiz-adv-x="847" 
d="M424 714c206 2 368 -147 365 -364c3 -217 -159 -366 -365 -364c-207 -2 -369 147 -366 364c-3 217 159 366 366 364zM424 94c141 0 246 102 246 256s-105 256 -246 256s-247 -102 -247 -256s106 -256 247 -256zM519 889h66c-1 -84 -45 -128 -98 -128c-35 0 -51 12 -91 40
c-12 9 -23 13 -32 13c-21 0 -33 -15 -36 -44h-66c1 83 45 127 97 127c44 0 82 -33 92 -41c12 -7 23 -11 32 -11c21 0 33 15 36 44z" />
    <glyph glyph-name="OE" unicode="&#x152;" horiz-adv-x="1138" 
d="M774 102h320v-102h-434v86c-59 -64 -144 -100 -247 -100c-203 0 -355 145 -355 364s152 364 355 364c103 0 188 -36 247 -100v86h419v-102h-305v-179h285v-98h-285v-219zM670 350c0 154 -105 256 -246 256s-247 -102 -247 -256s106 -256 247 -256s246 102 246 256z" />
    <glyph glyph-name="P" unicode="P" horiz-adv-x="639" 
d="M599 486c0 -133 -88 -208 -241 -208h-154v-278h-114v700h266c151 0 243 -78 243 -214zM480 487c0 75 -44 112 -133 112h-143v-224h147c80 0 129 36 129 112z" />
    <glyph glyph-name="Thorn" unicode="&#xde;" horiz-adv-x="639" 
d="M599 373c0 -132 -88 -207 -241 -207h-154v-166h-114v700h114v-112h152c151 0 243 -79 243 -215zM480 375c0 75 -44 112 -133 112h-143v-225h147c79 0 129 37 129 113z" />
    <glyph glyph-name="Q" unicode="Q" horiz-adv-x="847" 
d="M671 72l54 -65l-80 -61l-59 73c-49 -22 -103 -33 -162 -33c-207 -2 -369 147 -366 364c-3 217 159 366 366 364c206 2 368 -147 365 -364c0 -116 -43 -213 -118 -278zM512 109l-128 155l80 61l134 -163c45 45 72 111 72 188c0 154 -105 256 -246 256s-247 -102 -247 -256
s106 -256 247 -256c32 0 61 5 88 15z" />
    <glyph glyph-name="R" unicode="R" horiz-adv-x="659" 
d="M493 0l-189 292h-100v-292h-114v700h282c149 0 234 -80 234 -201c0 -107 -68 -183 -185 -198l202 -301h-130zM204 599v-207h162c80 0 122 36 122 103s-42 104 -126 104h-158z" />
    <glyph glyph-name="Racute" unicode="&#x154;" horiz-adv-x="659" 
d="M493 0l-189 292h-100v-292h-114v700h282c149 0 234 -80 234 -201c0 -107 -68 -183 -185 -198l202 -301h-130zM204 599v-207h162c80 0 122 36 122 103s-42 104 -126 104h-158zM347 758h-88l82 148h115z" />
    <glyph glyph-name="Rcaron" unicode="&#x158;" horiz-adv-x="659" 
d="M493 0l-189 292h-100v-292h-114v700h282c149 0 234 -80 234 -201c0 -107 -68 -183 -185 -198l202 -301h-130zM204 599v-207h162c80 0 122 36 122 103s-42 104 -126 104h-158zM402 894h86l-120 -132h-77l-120 132h89l70 -64z" />
    <glyph glyph-name="Rcommaaccent" unicode="&#x156;" horiz-adv-x="659" 
d="M493 0l-189 292h-100v-292h-114v700h282c149 0 234 -80 234 -201c0 -107 -68 -183 -185 -198l202 -301h-130zM204 599v-207h162c80 0 122 36 122 103s-42 104 -126 104h-158zM300 -54h101l-70 -183h-76z" />
    <glyph glyph-name="S" unicode="S" horiz-adv-x="559" 
d="M41 41v132h13c62 -56 130 -84 205 -84c89 0 137 39 137 95c0 40 -24 74 -68 93l-136 56c-91 36 -140 107 -140 198c0 63 22 110 65 139c44 29 98 44 163 44c68 0 131 -15 188 -45v-119h-12c-56 41 -115 61 -176 61c-75 0 -110 -31 -110 -80c0 -43 29 -77 87 -101l133 -55
c87 -36 124 -110 124 -189c0 -67 -24 -118 -72 -151c-47 -33 -109 -49 -185 -49c-80 0 -152 18 -216 55z" />
    <glyph glyph-name="Sacute" unicode="&#x15a;" horiz-adv-x="559" 
d="M41 41v132h13c62 -56 130 -84 205 -84c89 0 137 39 137 95c0 40 -24 74 -68 93l-136 56c-91 36 -140 107 -140 198c0 63 22 110 65 139c44 29 98 44 163 44c68 0 131 -15 188 -45v-119h-12c-56 41 -115 61 -176 61c-75 0 -110 -31 -110 -80c0 -43 29 -77 87 -101l133 -55
c87 -36 124 -110 124 -189c0 -67 -24 -118 -72 -151c-47 -33 -109 -49 -185 -49c-80 0 -152 18 -216 55zM297 758h-88l82 148h115z" />
    <glyph glyph-name="Scaron" unicode="&#x160;" horiz-adv-x="559" 
d="M41 41v132h13c62 -56 130 -84 205 -84c89 0 137 39 137 95c0 40 -24 74 -68 93l-136 56c-91 36 -140 107 -140 198c0 63 22 110 65 139c44 29 98 44 163 44c68 0 131 -15 188 -45v-119h-12c-56 41 -115 61 -176 61c-75 0 -110 -31 -110 -80c0 -43 29 -77 87 -101l133 -55
c87 -36 124 -110 124 -189c0 -67 -24 -118 -72 -151c-47 -33 -109 -49 -185 -49c-80 0 -152 18 -216 55zM351 894h86l-120 -132h-77l-120 132h89l70 -64z" />
    <glyph glyph-name="Scedilla" unicode="&#x15e;" horiz-adv-x="559" 
d="M333 -8c25 -33 37 -66 37 -98c0 -64 -51 -102 -114 -102c-21 0 -44 4 -69 13v65c18 -5 33 -8 45 -8c32 0 51 18 51 51c0 22 -8 46 -23 73h-3c-80 0 -152 18 -216 55v132h13c62 -56 130 -84 205 -84c89 0 137 39 137 95c0 40 -24 74 -68 93l-136 56
c-91 36 -140 107 -140 198c0 63 22 110 65 139c44 29 98 44 163 44c68 0 131 -15 188 -45v-119h-12c-56 41 -115 61 -176 61c-75 0 -110 -31 -110 -80c0 -43 29 -77 87 -101l133 -55c87 -36 124 -110 124 -189c0 -111 -70 -175 -181 -194z" />
    <glyph glyph-name="Scommaaccent" unicode="&#x218;" horiz-adv-x="559" 
d="M41 41v132h13c62 -56 130 -84 205 -84c89 0 137 39 137 95c0 40 -24 74 -68 93l-136 56c-91 36 -140 107 -140 198c0 63 22 110 65 139c44 29 98 44 163 44c68 0 131 -15 188 -45v-119h-12c-56 41 -115 61 -176 61c-75 0 -110 -31 -110 -80c0 -43 29 -77 87 -101l133 -55
c87 -36 124 -110 124 -189c0 -67 -24 -118 -72 -151c-47 -33 -109 -49 -185 -49c-80 0 -152 18 -216 55zM250 -54h101l-70 -183h-76z" />
    <glyph glyph-name="uni1E9E" unicode="&#x1e9e;" horiz-adv-x="659" 
d="M618 208c0 -127 -92 -208 -253 -208h-63v100h51c95 0 147 41 147 114s-52 114 -147 114h-57v67l141 203h-137c-61 0 -102 -32 -102 -96v-502h-114v516c0 114 88 184 202 184h292v-63l-165 -227c131 -13 205 -87 205 -202z" />
    <glyph glyph-name="T" unicode="T" horiz-adv-x="572" 
d="M535 700v-102h-192v-598h-114v598h-192v102h498z" />
    <glyph glyph-name="Tbar" unicode="&#x166;" horiz-adv-x="572" 
d="M535 598h-192v-182h117v-97h-117v-319h-114v319h-117v97h117v182h-192v102h498v-102z" />
    <glyph glyph-name="Tcaron" unicode="&#x164;" horiz-adv-x="572" 
d="M535 700v-102h-192v-598h-114v598h-192v102h498zM358 894h86l-120 -132h-77l-120 132h89l70 -64z" />
    <glyph glyph-name="uni0162" unicode="&#x162;" horiz-adv-x="572" 
d="M535 700v-102h-192v-598h-114v598h-192v102h498zM185 -195v65c18 -5 33 -8 45 -8c32 0 51 18 51 51c0 27 -11 56 -32 87h76c29 -36 43 -71 43 -106c0 -64 -51 -102 -114 -102c-21 0 -44 4 -69 13z" />
    <glyph glyph-name="uni021A" unicode="&#x21a;" horiz-adv-x="572" 
d="M535 700v-102h-192v-598h-114v598h-192v102h498zM237 -54h101l-70 -183h-76z" />
    <glyph glyph-name="U" unicode="U" horiz-adv-x="721" 
d="M82 274v426h114v-413c0 -137 67 -193 164 -193c99 0 165 56 165 193v413h114v-426c0 -196 -122 -288 -279 -288s-278 92 -278 288z" />
    <glyph glyph-name="Uacute" unicode="&#xda;" horiz-adv-x="721" 
d="M82 274v426h114v-413c0 -137 67 -193 164 -193c99 0 165 56 165 193v413h114v-426c0 -196 -122 -288 -279 -288s-278 92 -278 288zM378 758h-88l82 148h115z" />
    <glyph glyph-name="Ucircumflex" unicode="&#xdb;" horiz-adv-x="721" 
d="M82 274v426h114v-413c0 -137 67 -193 164 -193c99 0 165 56 165 193v413h114v-426c0 -196 -122 -288 -279 -288s-278 92 -278 288zM518 762h-89l-70 64l-72 -64h-86l120 132h77z" />
    <glyph glyph-name="Udieresis" unicode="&#xdc;" horiz-adv-x="721" 
d="M82 274v426h114v-413c0 -137 67 -193 164 -193c99 0 165 56 165 193v413h114v-426c0 -196 -122 -288 -279 -288s-278 92 -278 288zM253 889c35 0 62 -23 62 -60c0 -36 -27 -60 -62 -60s-62 24 -62 60c0 37 27 60 62 60zM467 889c35 0 62 -23 62 -60
c0 -36 -27 -59 -62 -59s-62 23 -62 59c0 37 27 60 62 60z" />
    <glyph glyph-name="Ugrave" unicode="&#xd9;" horiz-adv-x="721" 
d="M82 274v426h114v-413c0 -137 67 -193 164 -193c99 0 165 56 165 193v413h114v-426c0 -196 -122 -288 -279 -288s-278 92 -278 288zM342 758l-109 148h115l82 -148h-88z" />
    <glyph glyph-name="Uhungarumlaut" unicode="&#x170;" horiz-adv-x="721" 
d="M82 274v426h114v-413c0 -137 67 -193 164 -193c99 0 165 56 165 193v413h114v-426c0 -196 -122 -288 -279 -288s-278 92 -278 288zM304 758h-81l77 148h99zM453 758h-83l95 148h102z" />
    <glyph glyph-name="Umacron" unicode="&#x16a;" horiz-adv-x="721" 
d="M82 274v426h114v-413c0 -137 67 -193 164 -193c99 0 165 56 165 193v413h114v-426c0 -196 -122 -288 -279 -288s-278 92 -278 288zM494 785h-268v80h268v-80z" />
    <glyph glyph-name="Uogonek" unicode="&#x172;" horiz-adv-x="721" 
d="M525 700h114v-426c0 -135 -57 -223 -150 -263c-66 -40 -99 -78 -99 -113c0 -24 16 -36 39 -36c15 0 34 5 57 14v-67c-25 -11 -50 -17 -77 -17c-59 0 -105 27 -105 82c0 41 25 79 76 113c-4 -1 -11 -1 -20 -1c-157 0 -278 92 -278 288v426h114v-413
c0 -137 67 -193 164 -193c99 0 165 56 165 193v413z" />
    <glyph glyph-name="Uring" unicode="&#x16e;" horiz-adv-x="721" 
d="M82 274v426h114v-413c0 -137 67 -193 164 -193c99 0 165 56 165 193v413h114v-426c0 -196 -122 -288 -279 -288s-278 92 -278 288zM468 836c0 -61 -48 -96 -108 -96s-108 35 -108 96s48 96 108 96s108 -35 108 -96zM408 836c0 27 -20 43 -48 43s-48 -16 -48 -43
c0 -25 20 -43 48 -43s48 18 48 43z" />
    <glyph glyph-name="V" unicode="V" horiz-adv-x="706" 
d="M557 700h124l-282 -700h-92l-282 700h126l203 -537z" />
    <glyph glyph-name="W" unicode="W" horiz-adv-x="1036" 
d="M882 700h124l-243 -700h-99l-147 491l-145 -491h-99l-244 700h127l166 -514l154 514h84l155 -515z" />
    <glyph glyph-name="Wacute" unicode="&#x1e82;" horiz-adv-x="1036" 
d="M882 700h124l-243 -700h-99l-147 491l-145 -491h-99l-244 700h127l166 -514l154 514h84l155 -515zM560 758h-88l82 148h115z" />
    <glyph glyph-name="Wcircumflex" unicode="&#x174;" horiz-adv-x="1036" 
d="M882 700h124l-243 -700h-99l-147 491l-145 -491h-99l-244 700h127l166 -514l154 514h84l155 -515zM676 762h-89l-70 64l-72 -64h-86l120 132h77z" />
    <glyph glyph-name="Wdieresis" unicode="&#x1e84;" horiz-adv-x="1036" 
d="M882 700h124l-243 -700h-99l-147 491l-145 -491h-99l-244 700h127l166 -514l154 514h84l155 -515zM411 889c35 0 62 -23 62 -60c0 -36 -27 -60 -62 -60s-62 24 -62 60c0 37 27 60 62 60zM625 889c35 0 62 -23 62 -60c0 -36 -27 -59 -62 -59s-62 23 -62 59
c0 37 27 60 62 60z" />
    <glyph glyph-name="Wgrave" unicode="&#x1e80;" horiz-adv-x="1036" 
d="M882 700h124l-243 -700h-99l-147 491l-145 -491h-99l-244 700h127l166 -514l154 514h84l155 -515zM477 758l-109 148h115l82 -148h-88z" />
    <glyph glyph-name="X" unicode="X" horiz-adv-x="656" 
d="M632 -1h-128l-178 282l-178 -282h-125l236 363l-219 338h129l159 -253l158 253h125l-216 -334z" />
    <glyph glyph-name="Y" unicode="Y" horiz-adv-x="672" 
d="M653 700l-260 -395v-305h-114v305l-259 395h132l185 -290l186 290h130z" />
    <glyph glyph-name="Yacute" unicode="&#xdd;" horiz-adv-x="672" 
d="M653 700l-260 -395v-305h-114v305l-259 395h132l185 -290l186 290h130zM354 758h-88l82 148h115z" />
    <glyph glyph-name="Ycircumflex" unicode="&#x176;" horiz-adv-x="672" 
d="M653 700l-260 -395v-305h-114v305l-259 395h132l185 -290l186 290h130zM494 762h-89l-70 64l-72 -64h-86l120 132h77z" />
    <glyph glyph-name="Ydieresis" unicode="&#x178;" horiz-adv-x="672" 
d="M653 700l-260 -395v-305h-114v305l-259 395h132l185 -290l186 290h130zM229 889c35 0 62 -23 62 -60c0 -36 -27 -60 -62 -60s-62 24 -62 60c0 37 27 60 62 60zM443 889c35 0 62 -23 62 -60c0 -36 -27 -59 -62 -59s-62 23 -62 59c0 37 27 60 62 60z" />
    <glyph glyph-name="Ygrave" unicode="&#x1ef2;" horiz-adv-x="672" 
d="M653 700l-260 -395v-305h-114v305l-259 395h132l185 -290l186 290h130zM318 758l-109 148h115l82 -148h-88z" />
    <glyph glyph-name="Z" unicode="Z" horiz-adv-x="588" 
d="M193 102h353v-102h-508v60l340 538h-311v102h466v-60z" />
    <glyph glyph-name="Zacute" unicode="&#x179;" horiz-adv-x="588" 
d="M193 102h353v-102h-508v60l340 538h-311v102h466v-60zM311 758h-88l82 148h115z" />
    <glyph glyph-name="Zcaron" unicode="&#x17d;" horiz-adv-x="588" 
d="M193 102h353v-102h-508v60l340 538h-311v102h466v-60zM366 894h86l-120 -132h-77l-120 132h89l70 -64z" />
    <glyph glyph-name="Zdotaccent" unicode="&#x17b;" horiz-adv-x="588" 
d="M193 102h353v-102h-508v60l340 538h-311v102h466v-60zM294 918c39 0 69 -25 69 -64s-30 -63 -69 -63s-70 26 -70 63c0 39 30 64 70 64z" />
    <glyph glyph-name="a" unicode="a" horiz-adv-x="547" 
d="M478 316v-316h-93v50c-36 -40 -92 -64 -157 -64c-115 0 -190 69 -190 162c0 94 79 161 197 161c56 0 101 -14 136 -43v40c0 80 -49 115 -124 115c-48 0 -96 -14 -143 -41h-11v102c56 23 117 34 172 34c125 0 213 -61 213 -200zM379 152c0 41 -42 75 -117 75
s-117 -34 -117 -75c0 -43 42 -75 117 -75s117 32 117 75z" />
    <glyph glyph-name="aacute" unicode="&#xe1;" horiz-adv-x="547" 
d="M478 316v-316h-93v50c-36 -40 -92 -64 -157 -64c-115 0 -190 69 -190 162c0 94 79 161 197 161c56 0 101 -14 136 -43v40c0 80 -49 115 -124 115c-48 0 -96 -14 -143 -41h-11v102c56 23 117 34 172 34c125 0 213 -61 213 -200zM379 152c0 41 -42 75 -117 75
s-117 -34 -117 -75c0 -43 42 -75 117 -75s117 32 117 75zM307 584h-82l70 168h110z" />
    <glyph glyph-name="abreve" unicode="&#x103;" horiz-adv-x="547" 
d="M478 316v-316h-93v50c-36 -40 -92 -64 -157 -64c-115 0 -190 69 -190 162c0 94 79 161 197 161c56 0 101 -14 136 -43v40c0 80 -49 115 -124 115c-48 0 -96 -14 -143 -41h-11v102c56 23 117 34 172 34c125 0 213 -61 213 -200zM379 152c0 41 -42 75 -117 75
s-117 -34 -117 -75c0 -43 42 -75 117 -75s117 32 117 75zM136 728v10h71v-14c0 -48 26 -75 74 -75s74 27 74 75v14h71v-10c0 -104 -48 -156 -145 -156s-145 52 -145 156z" />
    <glyph glyph-name="acircumflex" unicode="&#xe2;" horiz-adv-x="547" 
d="M478 316v-316h-93v50c-36 -40 -92 -64 -157 -64c-115 0 -190 69 -190 162c0 94 79 161 197 161c56 0 101 -14 136 -43v40c0 80 -49 115 -124 115c-48 0 -96 -14 -143 -41h-11v102c56 23 117 34 172 34c125 0 213 -61 213 -200zM379 152c0 41 -42 75 -117 75
s-117 -34 -117 -75c0 -43 42 -75 117 -75s117 32 117 75zM436 580h-85l-71 74l-72 -74h-82l120 150h70z" />
    <glyph glyph-name="adieresis" unicode="&#xe4;" horiz-adv-x="547" 
d="M478 316v-316h-93v50c-36 -40 -92 -64 -157 -64c-115 0 -190 69 -190 162c0 94 79 161 197 161c56 0 101 -14 136 -43v40c0 80 -49 115 -124 115c-48 0 -96 -14 -143 -41h-11v102c56 23 117 34 172 34c125 0 213 -61 213 -200zM379 152c0 41 -42 75 -117 75
s-117 -34 -117 -75c0 -43 42 -75 117 -75s117 32 117 75zM177 715c33 0 59 -24 59 -60s-26 -60 -59 -60s-59 24 -59 60s26 60 59 60zM384 715c33 0 59 -24 59 -60s-26 -60 -59 -60s-59 25 -59 60s26 60 59 60z" />
    <glyph glyph-name="agrave" unicode="&#xe0;" horiz-adv-x="547" 
d="M478 316v-316h-93v50c-36 -40 -92 -64 -157 -64c-115 0 -190 69 -190 162c0 94 79 161 197 161c56 0 101 -14 136 -43v40c0 80 -49 115 -124 115c-48 0 -96 -14 -143 -41h-11v102c56 23 117 34 172 34c125 0 213 -61 213 -200zM379 152c0 41 -42 75 -117 75
s-117 -34 -117 -75c0 -43 42 -75 117 -75s117 32 117 75zM256 584l-98 168h110l70 -168h-82z" />
    <glyph glyph-name="amacron" unicode="&#x101;" horiz-adv-x="547" 
d="M478 316v-316h-93v50c-36 -40 -92 -64 -157 -64c-115 0 -190 69 -190 162c0 94 79 161 197 161c56 0 101 -14 136 -43v40c0 80 -49 115 -124 115c-48 0 -96 -14 -143 -41h-11v102c56 23 117 34 172 34c125 0 213 -61 213 -200zM379 152c0 41 -42 75 -117 75
s-117 -34 -117 -75c0 -43 42 -75 117 -75s117 32 117 75zM409 610h-255v81h255v-81z" />
    <glyph glyph-name="aogonek" unicode="&#x105;" horiz-adv-x="547" 
d="M489 -124v-67c-25 -11 -50 -17 -76 -17c-60 0 -106 27 -106 82c0 47 33 89 99 126h-21v50c-36 -40 -92 -64 -157 -64c-115 0 -190 69 -190 162c0 94 79 161 197 161c56 0 101 -14 136 -43v40c0 80 -49 115 -124 115c-48 0 -96 -14 -143 -41h-11v102c56 23 117 34 172 34
c125 0 213 -61 213 -200v-316c-53 -32 -84 -69 -84 -102c0 -25 15 -36 39 -36c15 0 33 5 56 14zM379 152c0 41 -42 75 -117 75s-117 -34 -117 -75c0 -43 42 -75 117 -75s117 32 117 75z" />
    <glyph glyph-name="aring" unicode="&#xe5;" horiz-adv-x="547" 
d="M478 316v-316h-93v50c-36 -40 -92 -64 -157 -64c-115 0 -190 69 -190 162c0 94 79 161 197 161c56 0 101 -14 136 -43v40c0 80 -49 115 -124 115c-48 0 -96 -14 -143 -41h-11v102c56 23 117 34 172 34c125 0 213 -61 213 -200zM379 152c0 41 -42 75 -117 75
s-117 -34 -117 -75c0 -43 42 -75 117 -75s117 32 117 75zM282 759c57 0 104 -37 104 -98c0 -60 -48 -97 -104 -97c-57 0 -105 37 -105 97c0 61 48 98 105 98zM282 616c24 0 46 17 46 45s-22 46 -46 46s-46 -18 -46 -46s22 -45 46 -45z" />
    <glyph glyph-name="atilde" unicode="&#xe3;" horiz-adv-x="547" 
d="M478 316v-316h-93v50c-36 -40 -92 -64 -157 -64c-115 0 -190 69 -190 162c0 94 79 161 197 161c56 0 101 -14 136 -43v40c0 80 -49 115 -124 115c-48 0 -96 -14 -143 -41h-11v102c56 23 117 34 172 34c125 0 213 -61 213 -200zM379 152c0 41 -42 75 -117 75
s-117 -34 -117 -75c0 -43 42 -75 117 -75s117 32 117 75zM218 728c45 0 83 -42 93 -50c11 -9 22 -14 31 -14c21 0 32 18 35 55h64c-1 -93 -44 -139 -96 -139c-45 0 -83 42 -93 50c-12 9 -22 14 -31 14c-21 0 -33 -18 -36 -55h-63c1 93 44 139 96 139z" />
    <glyph glyph-name="ae" unicode="&#xe6;" horiz-adv-x="902" 
d="M855 232h-379c8 -104 80 -153 168 -153c58 0 114 21 169 63h12v-107c-56 -33 -116 -49 -181 -49c-89 0 -164 34 -209 99c-35 -60 -115 -99 -200 -99c-59 0 -107 15 -143 45s-54 69 -54 117c0 94 76 161 197 161c56 0 101 -14 136 -43v40c0 80 -49 115 -124 115
c-48 0 -96 -14 -143 -41h-11v102c55 23 110 34 167 34c89 0 147 -32 175 -97c44 64 115 97 199 97c133 0 223 -79 224 -234c0 -17 -1 -34 -3 -50zM481 309h274c-7 79 -51 120 -126 120s-131 -43 -148 -120zM379 152c0 41 -42 75 -117 75s-117 -34 -117 -75
c0 -43 42 -75 117 -75s117 32 117 75z" />
    <glyph glyph-name="b" unicode="b" horiz-adv-x="632" 
d="M586 251c0 -173 -116 -265 -236 -265c-71 0 -136 33 -179 94v-80h-93v752h107v-311c43 48 101 75 164 75c120 0 237 -92 237 -265zM477 251c0 114 -75 166 -150 166s-150 -52 -150 -166s75 -166 150 -166s150 52 150 166z" />
    <glyph glyph-name="c" unicode="c" horiz-adv-x="517" 
d="M310 516c51 0 99 -13 143 -40v-109h-10c-43 34 -86 51 -129 51c-89 0 -159 -64 -159 -167s68 -167 163 -167c49 0 93 17 130 52h12v-111c-42 -26 -91 -39 -146 -39c-153 0 -268 102 -268 265c0 161 114 265 264 265z" />
    <glyph glyph-name="cacute" unicode="&#x107;" horiz-adv-x="517" 
d="M310 516c51 0 99 -13 143 -40v-109h-10c-43 34 -86 51 -129 51c-89 0 -159 -64 -159 -167s68 -167 163 -167c49 0 93 17 130 52h12v-111c-42 -26 -91 -39 -146 -39c-153 0 -268 102 -268 265c0 161 114 265 264 265zM308 584h-82l70 168h110z" />
    <glyph glyph-name="ccaron" unicode="&#x10d;" horiz-adv-x="517" 
d="M310 516c51 0 99 -13 143 -40v-109h-10c-43 34 -86 51 -129 51c-89 0 -159 -64 -159 -167s68 -167 163 -167c49 0 93 17 130 52h12v-111c-42 -26 -91 -39 -146 -39c-153 0 -268 102 -268 265c0 161 114 265 264 265zM355 730h82l-120 -150h-70l-120 150h84l71 -74z" />
    <glyph glyph-name="ccedilla" unicode="&#xe7;" horiz-adv-x="517" 
d="M460 136v-111c-35 -21 -75 -34 -120 -38c22 -31 33 -62 33 -93c0 -64 -51 -102 -114 -102c-21 0 -44 4 -69 13v65c18 -5 33 -8 45 -8c32 0 51 18 51 51c0 24 -9 50 -26 77c-64 11 -116 39 -155 85s-59 105 -59 176c0 161 114 265 264 265c51 0 99 -13 143 -40v-109h-10
c-43 34 -86 51 -129 51c-89 0 -159 -64 -159 -167s68 -167 163 -167c49 0 93 17 130 52h12z" />
    <glyph glyph-name="cdotaccent" unicode="&#x10b;" horiz-adv-x="517" 
d="M310 516c51 0 99 -13 143 -40v-109h-10c-43 34 -86 51 -129 51c-89 0 -159 -64 -159 -167s68 -167 163 -167c49 0 93 17 130 52h12v-111c-42 -26 -91 -39 -146 -39c-153 0 -268 102 -268 265c0 161 114 265 264 265zM282 725c37 0 66 -25 66 -65s-29 -65 -66 -65
s-67 25 -67 65s30 65 67 65z" />
    <glyph glyph-name="d" unicode="d" horiz-adv-x="632" 
d="M446 752h107v-752h-92v80c-43 -61 -108 -94 -179 -94c-120 0 -236 92 -236 265s116 265 236 265c64 0 123 -27 164 -75v311zM455 251c0 114 -75 166 -150 166s-150 -52 -150 -166s75 -166 150 -166s150 52 150 166z" />
    <glyph glyph-name="eth" unicode="&#xf0;" horiz-adv-x="618" 
d="M565 319c0 -235 -121 -333 -265 -333c-152 0 -254 103 -254 260c0 153 97 251 238 251c80 0 142 -32 179 -88c-19 74 -56 139 -111 194l-130 -38l-21 66l88 25c-41 31 -94 63 -158 96l169 1c34 -17 67 -39 99 -65l95 27l21 -66l-60 -17c73 -87 110 -192 110 -313z
M451 245c0 101 -69 161 -148 161c-81 0 -148 -60 -148 -161c0 -99 67 -161 148 -161c79 0 148 62 148 161z" />
    <glyph glyph-name="dcaron" unicode="&#x10f;" horiz-adv-x="700" 
d="M446 441v311h107v-752h-92v80c-43 -61 -108 -94 -179 -94c-120 0 -236 92 -236 265s116 265 236 265c64 0 123 -27 164 -75zM623 752h90l-30 -187h-74zM455 251c0 114 -75 166 -150 166s-150 -52 -150 -166s75 -166 150 -166s150 52 150 166z" />
    <glyph glyph-name="dslash" unicode="&#x111;" horiz-adv-x="632" 
d="M631 664v-75h-78v-589h-92v80c-43 -61 -108 -94 -179 -94c-120 0 -236 92 -236 265s116 265 236 265c64 0 123 -27 164 -75v148h-164v75h164v88h107v-88h78zM455 251c0 114 -75 166 -150 166s-150 -52 -150 -166s75 -166 150 -166s150 52 150 166z" />
    <glyph glyph-name="e" unicode="e" horiz-adv-x="577" 
d="M530 232h-379c8 -104 80 -153 168 -153c58 0 114 21 169 63h12v-107c-59 -33 -125 -49 -185 -49c-145 0 -269 90 -269 265s121 265 259 265c67 0 122 -20 164 -59s63 -98 64 -175c0 -17 -1 -34 -3 -50zM156 309h274c-7 79 -51 120 -126 120s-131 -43 -148 -120z" />
    <glyph glyph-name="eacute" unicode="&#xe9;" horiz-adv-x="577" 
d="M530 232h-379c8 -104 80 -153 168 -153c58 0 114 21 169 63h12v-107c-59 -33 -125 -49 -185 -49c-145 0 -269 90 -269 265s121 265 259 265c67 0 122 -20 164 -59s63 -98 64 -175c0 -17 -1 -34 -3 -50zM156 309h274c-7 79 -51 120 -126 120s-131 -43 -148 -120zM319 584
h-82l70 168h110z" />
    <glyph glyph-name="ecaron" unicode="&#x11b;" horiz-adv-x="577" 
d="M530 232h-379c8 -104 80 -153 168 -153c58 0 114 21 169 63h12v-107c-59 -33 -125 -49 -185 -49c-145 0 -269 90 -269 265s121 265 259 265c67 0 122 -20 164 -59s63 -98 64 -175c0 -17 -1 -34 -3 -50zM156 309h274c-7 79 -51 120 -126 120s-131 -43 -148 -120zM366 730
h82l-120 -150h-70l-120 150h84l71 -74z" />
    <glyph glyph-name="ecircumflex" unicode="&#xea;" horiz-adv-x="577" 
d="M530 232h-379c8 -104 80 -153 168 -153c58 0 114 21 169 63h12v-107c-59 -33 -125 -49 -185 -49c-145 0 -269 90 -269 265s121 265 259 265c67 0 122 -20 164 -59s63 -98 64 -175c0 -17 -1 -34 -3 -50zM156 309h274c-7 79 -51 120 -126 120s-131 -43 -148 -120zM448 580
h-85l-71 74l-72 -74h-82l120 150h70z" />
    <glyph glyph-name="edieresis" unicode="&#xeb;" horiz-adv-x="577" 
d="M530 232h-379c8 -104 80 -153 168 -153c58 0 114 21 169 63h12v-107c-59 -33 -125 -49 -185 -49c-145 0 -269 90 -269 265s121 265 259 265c67 0 122 -20 164 -59s63 -98 64 -175c0 -17 -1 -34 -3 -50zM156 309h274c-7 79 -51 120 -126 120s-131 -43 -148 -120zM189 715
c33 0 59 -24 59 -60s-26 -60 -59 -60s-59 24 -59 60s26 60 59 60zM396 715c33 0 59 -24 59 -60s-26 -60 -59 -60s-59 25 -59 60s26 60 59 60z" />
    <glyph glyph-name="edotaccent" unicode="&#x117;" horiz-adv-x="577" 
d="M530 232h-379c8 -104 80 -153 168 -153c58 0 114 21 169 63h12v-107c-59 -33 -125 -49 -185 -49c-145 0 -269 90 -269 265s121 265 259 265c67 0 122 -20 164 -59s63 -98 64 -175c0 -17 -1 -34 -3 -50zM156 309h274c-7 79 -51 120 -126 120s-131 -43 -148 -120zM294 725
c37 0 66 -25 66 -65s-29 -65 -66 -65s-67 25 -67 65s30 65 67 65z" />
    <glyph glyph-name="egrave" unicode="&#xe8;" horiz-adv-x="577" 
d="M530 232h-379c8 -104 80 -153 168 -153c58 0 114 21 169 63h12v-107c-59 -33 -125 -49 -185 -49c-145 0 -269 90 -269 265s121 265 259 265c67 0 122 -20 164 -59s63 -98 64 -175c0 -17 -1 -34 -3 -50zM156 309h274c-7 79 -51 120 -126 120s-131 -43 -148 -120zM267 584
l-98 168h110l70 -168h-82z" />
    <glyph glyph-name="emacron" unicode="&#x113;" horiz-adv-x="577" 
d="M530 232h-379c8 -104 80 -153 168 -153c58 0 114 21 169 63h12v-107c-59 -33 -125 -49 -185 -49c-145 0 -269 90 -269 265s121 265 259 265c67 0 122 -20 164 -59s63 -98 64 -175c0 -17 -1 -34 -3 -50zM156 309h274c-7 79 -51 120 -126 120s-131 -43 -148 -120zM421 610
h-255v81h255v-81z" />
    <glyph glyph-name="eogonek" unicode="&#x119;" horiz-adv-x="577" 
d="M530 232h-379c8 -104 80 -153 168 -153c58 0 114 21 169 63h12v-107c-85 -65 -116 -104 -116 -137c0 -25 15 -36 39 -36c15 0 33 5 56 14v-67c-25 -11 -50 -17 -77 -17c-59 0 -105 27 -105 82c0 42 27 81 80 117c-25 -3 -45 -5 -62 -5c-145 0 -269 90 -269 265
s121 265 259 265c67 0 122 -20 164 -59s63 -98 64 -175c0 -17 -1 -34 -3 -50zM156 309h274c-7 79 -51 120 -126 120s-131 -43 -148 -120z" />
    <glyph glyph-name="f" unicode="f" horiz-adv-x="407" 
d="M234 562v-60h138v-88h-138v-414h-107v414h-105v88h105v83c0 108 67 167 175 167h79v-102h-67c-52 0 -80 -29 -80 -88z" />
    <glyph glyph-name="g" unicode="g" horiz-adv-x="632" 
d="M461 502h92v-464c0 -166 -120 -246 -267 -246c-65 0 -126 13 -181 40v112h12c49 -35 108 -55 165 -55c96 0 164 51 164 155v31c-41 -48 -101 -73 -165 -73c-119 0 -235 87 -235 254c0 168 116 260 236 260c71 0 136 -33 179 -93v79zM455 256c0 110 -75 161 -150 161
s-150 -51 -150 -161c0 -109 75 -161 150 -161s150 52 150 161z" />
    <glyph glyph-name="gbreve" unicode="&#x11f;" horiz-adv-x="632" 
d="M461 502h92v-464c0 -166 -120 -246 -267 -246c-65 0 -126 13 -181 40v112h12c49 -35 108 -55 165 -55c96 0 164 51 164 155v31c-41 -48 -101 -73 -165 -73c-119 0 -235 87 -235 254c0 168 116 260 236 260c71 0 136 -33 179 -93v79zM455 256c0 110 -75 161 -150 161
s-150 -51 -150 -161c0 -109 75 -161 150 -161s150 52 150 161zM171 728v10h71v-14c0 -48 26 -75 74 -75s74 27 74 75v14h71v-10c0 -104 -48 -156 -145 -156s-145 52 -145 156z" />
    <glyph glyph-name="gcommaaccent" unicode="&#x123;" horiz-adv-x="632" 
d="M461 502h92v-464c0 -166 -120 -246 -267 -246c-65 0 -126 13 -181 40v112h12c49 -35 108 -55 165 -55c96 0 164 51 164 155v31c-41 -48 -101 -73 -165 -73c-119 0 -235 87 -235 254c0 168 116 260 236 260c71 0 136 -33 179 -93v79zM455 256c0 110 -75 161 -150 161
s-150 -51 -150 -161c0 -109 75 -161 150 -161s150 52 150 161zM344 574h-101l70 182h76z" />
    <glyph glyph-name="gdotaccent" unicode="&#x121;" horiz-adv-x="632" 
d="M461 502h92v-464c0 -166 -120 -246 -267 -246c-65 0 -126 13 -181 40v112h12c49 -35 108 -55 165 -55c96 0 164 51 164 155v31c-41 -48 -101 -73 -165 -73c-119 0 -235 87 -235 254c0 168 116 260 236 260c71 0 136 -33 179 -93v79zM455 256c0 110 -75 161 -150 161
s-150 -51 -150 -161c0 -109 75 -161 150 -161s150 52 150 161zM316 725c37 0 66 -25 66 -65s-29 -65 -66 -65s-67 25 -67 65s30 65 67 65z" />
    <glyph glyph-name="h" unicode="h" horiz-adv-x="584" 
d="M515 314v-314h-107v288c0 79 -41 126 -106 126c-73 0 -117 -63 -117 -158v-256h-107v752h107v-307c35 45 85 71 146 71c53 0 97 -18 132 -53s52 -84 52 -149z" />
    <glyph glyph-name="hbar" unicode="&#x127;" horiz-adv-x="584" 
d="M515 314v-314h-107v288c0 79 -41 126 -106 126c-73 0 -117 -63 -117 -158v-256h-107v589h-77v75h77v88h107v-88h165v-75h-165v-144c35 45 85 71 146 71c53 0 97 -18 132 -53s52 -84 52 -149z" />
    <glyph glyph-name="i" unicode="i" horiz-adv-x="264" 
d="M132 734c40 0 71 -28 71 -69c0 -43 -31 -70 -71 -70s-71 27 -71 70c0 41 31 69 71 69zM78 502h107v-502h-107v502z" />
    <glyph glyph-name="dotlessi" unicode="&#x131;" horiz-adv-x="264" 
d="M78 502h107v-502h-107v502z" />
    <glyph glyph-name="iacute" unicode="&#xed;" horiz-adv-x="264" 
d="M78 502h107v-502h-107v502zM166 584h-82l70 168h110z" />
    <glyph glyph-name="icircumflex" unicode="&#xee;" horiz-adv-x="264" 
d="M167 730l102 -150h-80l-58 72l-59 -72h-78l102 150h71zM78 0v502h107v-502h-107z" />
    <glyph glyph-name="idieresis" unicode="&#xef;" horiz-adv-x="264" 
d="M43 715c33 0 59 -24 59 -60s-26 -60 -59 -60s-59 25 -59 60s26 60 59 60zM220 715c33 0 59 -24 59 -60s-26 -60 -59 -60c-32 0 -58 25 -58 60c0 36 26 60 58 60zM78 502h107v-502h-107v502z" />
    <glyph glyph-name="i.loclTRK" horiz-adv-x="264" 
d="M78 502h107v-502h-107v502zM132 725c37 0 66 -25 66 -65s-29 -65 -66 -65s-67 25 -67 65s30 65 67 65z" />
    <glyph glyph-name="igrave" unicode="&#xec;" horiz-adv-x="264" 
d="M78 502h107v-502h-107v502zM98 584l-98 168h110l70 -168h-82z" />
    <glyph glyph-name="imacron" unicode="&#x12b;" horiz-adv-x="264" 
d="M233 610h-203v81h202zM78 502h107v-502h-107v502z" />
    <glyph glyph-name="iogonek" unicode="&#x12f;" horiz-adv-x="264" 
d="M61 660c0 40 30 65 67 65s66 -25 66 -65s-29 -65 -66 -65s-67 25 -67 65zM200 -124v-67c-25 -11 -49 -17 -73 -17c-56 0 -102 28 -102 88c0 47 29 87 88 120h-35v502h107v-502c-51 -29 -74 -67 -74 -99c0 -27 16 -39 39 -39c14 0 31 5 50 14z" />
    <glyph glyph-name="j" unicode="j" horiz-adv-x="264" 
d="M132 734c40 0 71 -28 71 -69c0 -43 -31 -70 -71 -70s-71 27 -71 70c0 41 31 69 71 69zM-16 -194v101h47c31 0 47 19 47 58v537h107v-548c0 -105 -59 -148 -142 -148h-59z" />
    <glyph glyph-name="k" unicode="k" horiz-adv-x="538" 
d="M525 0h-138l-202 249v-249h-107v752h107v-460l184 210h133l-208 -227z" />
    <glyph glyph-name="kcommaaccent" unicode="&#x137;" horiz-adv-x="538" 
d="M525 0h-138l-202 249v-249h-107v752h107v-460l184 210h133l-208 -227zM240 -54h101l-70 -183h-76z" />
    <glyph glyph-name="l" unicode="l" horiz-adv-x="264" 
d="M78 752h107v-752h-107v752z" />
    <glyph glyph-name="lacute" unicode="&#x13a;" horiz-adv-x="264" 
d="M78 752h107v-752h-107v752zM172 810h-88l82 148h115z" />
    <glyph glyph-name="lcaron" unicode="&#x13e;" horiz-adv-x="332" 
d="M78 752h107v-752h-107v752zM315 565h-74l14 187h90z" />
    <glyph glyph-name="lcommaaccent" unicode="&#x13c;" horiz-adv-x="264" 
d="M78 752h107v-752h-107v752zM87 -54h101l-70 -183h-76z" />
    <glyph glyph-name="ldot" unicode="&#x140;" horiz-adv-x="394" 
d="M78 752h107v-752h-107v752zM321 377c41 0 74 -30 74 -74c0 -45 -33 -74 -74 -74s-74 29 -74 74c0 44 33 74 74 74z" />
    <glyph glyph-name="lslash" unicode="&#x142;" horiz-adv-x="306" 
d="M287 529v-92l-80 -50v-387h-107v320l-82 -52v92l82 52v340h107v-273z" />
    <glyph glyph-name="m" unicode="m" horiz-adv-x="877" 
d="M808 319v-319h-107v298c0 77 -40 116 -99 116c-67 0 -105 -54 -105 -147v-267h-107v295c0 77 -40 119 -99 119c-65 0 -106 -55 -106 -147v-267h-107v502h93v-72c32 53 84 86 151 86c65 0 121 -31 149 -94c33 57 90 94 162 94c49 0 91 -17 124 -50c34 -33 51 -82 51 -147z
" />
    <glyph glyph-name="n" unicode="n" horiz-adv-x="584" 
d="M515 314v-314h-107v288c0 79 -41 126 -106 126c-73 0 -117 -63 -117 -158v-256h-107v502h93v-78c33 57 89 92 160 92c53 0 97 -18 132 -53s52 -84 52 -149z" />
    <glyph glyph-name="nacute" unicode="&#x144;" horiz-adv-x="584" 
d="M515 314v-314h-107v288c0 79 -41 126 -106 126c-73 0 -117 -63 -117 -158v-256h-107v502h93v-78c33 57 89 92 160 92c53 0 97 -18 132 -53s52 -84 52 -149zM318 584h-82l70 168h110z" />
    <glyph glyph-name="ncaron" unicode="&#x148;" horiz-adv-x="584" 
d="M515 314v-314h-107v288c0 79 -41 126 -106 126c-73 0 -117 -63 -117 -158v-256h-107v502h93v-78c33 57 89 92 160 92c53 0 97 -18 132 -53s52 -84 52 -149zM365 730h82l-120 -150h-70l-120 150h84l71 -74z" />
    <glyph glyph-name="ncommaaccent" unicode="&#x146;" horiz-adv-x="584" 
d="M515 314v-314h-107v288c0 79 -41 126 -106 126c-73 0 -117 -63 -117 -158v-256h-107v502h93v-78c33 57 89 92 160 92c53 0 97 -18 132 -53s52 -84 52 -149zM262 -54h101l-70 -183h-76z" />
    <glyph glyph-name="eng" unicode="&#x14b;" horiz-adv-x="584" 
d="M515 314v-360c0 -105 -59 -148 -142 -148h-59v101h47c31 0 47 19 47 58v323c0 79 -41 126 -106 126c-73 0 -117 -63 -117 -158v-256h-107v502h93v-78c33 57 89 92 160 92c53 0 97 -18 132 -53s52 -84 52 -149z" />
    <glyph glyph-name="ntilde" unicode="&#xf1;" horiz-adv-x="584" 
d="M515 314v-314h-107v288c0 79 -41 126 -106 126c-73 0 -117 -63 -117 -158v-256h-107v502h93v-78c33 57 89 92 160 92c53 0 97 -18 132 -53s52 -84 52 -149zM229 728c45 0 83 -42 93 -50c11 -9 22 -14 31 -14c21 0 32 18 35 55h64c-1 -93 -44 -139 -96 -139
c-45 0 -83 42 -93 50c-12 9 -22 14 -31 14c-21 0 -33 -18 -36 -55h-63c1 93 44 139 96 139z" />
    <glyph glyph-name="o" unicode="o" horiz-adv-x="626" 
d="M313 516c153 0 267 -105 267 -265s-114 -265 -267 -265c-151 0 -267 105 -267 265s116 265 267 265zM313 84c89 0 159 64 159 167s-70 167 -159 167c-91 0 -158 -64 -158 -167s67 -167 158 -167z" />
    <glyph glyph-name="oacute" unicode="&#xf3;" horiz-adv-x="626" 
d="M313 516c153 0 267 -105 267 -265s-114 -265 -267 -265c-151 0 -267 105 -267 265s116 265 267 265zM313 84c89 0 159 64 159 167s-70 167 -159 167c-91 0 -158 -64 -158 -167s67 -167 158 -167zM339 584h-82l70 168h110z" />
    <glyph glyph-name="ocircumflex" unicode="&#xf4;" horiz-adv-x="626" 
d="M313 516c153 0 267 -105 267 -265s-114 -265 -267 -265c-151 0 -267 105 -267 265s116 265 267 265zM313 84c89 0 159 64 159 167s-70 167 -159 167c-91 0 -158 -64 -158 -167s67 -167 158 -167zM468 580h-85l-71 74l-72 -74h-82l120 150h70z" />
    <glyph glyph-name="odieresis" unicode="&#xf6;" horiz-adv-x="626" 
d="M313 516c153 0 267 -105 267 -265s-114 -265 -267 -265c-151 0 -267 105 -267 265s116 265 267 265zM313 84c89 0 159 64 159 167s-70 167 -159 167c-91 0 -158 -64 -158 -167s67 -167 158 -167zM209 715c33 0 59 -24 59 -60s-26 -60 -59 -60s-59 24 -59 60s26 60 59 60z
M416 715c33 0 59 -24 59 -60s-26 -60 -59 -60s-59 25 -59 60s26 60 59 60z" />
    <glyph glyph-name="ograve" unicode="&#xf2;" horiz-adv-x="626" 
d="M313 516c153 0 267 -105 267 -265s-114 -265 -267 -265c-151 0 -267 105 -267 265s116 265 267 265zM313 84c89 0 159 64 159 167s-70 167 -159 167c-91 0 -158 -64 -158 -167s67 -167 158 -167zM287 584l-98 168h110l70 -168h-82z" />
    <glyph glyph-name="ohungarumlaut" unicode="&#x151;" horiz-adv-x="626" 
d="M313 516c153 0 267 -105 267 -265s-114 -265 -267 -265c-151 0 -267 105 -267 265s116 265 267 265zM313 84c89 0 159 64 159 167s-70 167 -159 167c-91 0 -158 -64 -158 -167s67 -167 158 -167zM269 574h-77l65 168h93zM414 574h-79l82 168h96z" />
    <glyph glyph-name="omacron" unicode="&#x14d;" horiz-adv-x="626" 
d="M313 516c153 0 267 -105 267 -265s-114 -265 -267 -265c-151 0 -267 105 -267 265s116 265 267 265zM313 84c89 0 159 64 159 167s-70 167 -159 167c-91 0 -158 -64 -158 -167s67 -167 158 -167zM441 610h-255v81h255v-81z" />
    <glyph glyph-name="oslash" unicode="&#xf8;" horiz-adv-x="626" 
d="M580 251c0 -160 -114 -265 -267 -265c-47 0 -90 10 -129 29l-49 -68l-57 39l49 68c-52 47 -81 116 -81 197c0 160 116 265 267 265c46 0 89 -9 128 -28l48 67l57 -39l-48 -67c52 -47 82 -115 82 -198zM190 141l190 263c-21 9 -43 14 -67 14c-91 0 -158 -64 -158 -167
c0 -45 12 -81 35 -110zM472 251c0 45 -12 82 -37 112l-191 -265c22 -9 45 -14 69 -14c89 0 159 64 159 167z" />
    <glyph glyph-name="otilde" unicode="&#xf5;" horiz-adv-x="626" 
d="M313 516c153 0 267 -105 267 -265s-114 -265 -267 -265c-151 0 -267 105 -267 265s116 265 267 265zM313 84c89 0 159 64 159 167s-70 167 -159 167c-91 0 -158 -64 -158 -167s67 -167 158 -167zM250 728c45 0 83 -42 93 -50c11 -9 22 -14 31 -14c21 0 32 18 35 55h64
c-1 -93 -44 -139 -96 -139c-45 0 -83 42 -93 50c-12 9 -22 14 -31 14c-21 0 -33 -18 -36 -55h-63c1 93 44 139 96 139z" />
    <glyph glyph-name="oe" unicode="&#x153;" horiz-adv-x="1003" 
d="M956 232h-379c8 -104 80 -153 168 -153c58 0 114 21 169 63h12v-107c-57 -33 -118 -49 -181 -49c-96 0 -177 39 -222 115c-43 -73 -119 -115 -215 -115c-150 0 -262 106 -262 265s112 265 262 265c95 0 172 -42 215 -114c43 75 122 114 213 114c133 0 222 -79 223 -234
c0 -17 -1 -34 -3 -50zM582 309h273c-5 79 -50 120 -125 120s-132 -43 -148 -120zM472 251c0 103 -70 167 -159 167c-91 0 -158 -64 -158 -167s67 -167 158 -167c89 0 159 64 159 167z" />
    <glyph glyph-name="p" unicode="p" horiz-adv-x="632" 
d="M586 251c0 -173 -116 -265 -236 -265c-64 0 -122 26 -165 75v-255h-107v696h93v-80c43 61 107 94 178 94c120 0 237 -92 237 -265zM477 251c0 114 -75 166 -150 166s-150 -52 -150 -166s75 -166 150 -166s150 52 150 166z" />
    <glyph glyph-name="thorn" unicode="&#xfe;" horiz-adv-x="632" 
d="M586 251c0 -173 -116 -265 -236 -265c-64 0 -122 26 -165 75v-255h-107v946h107v-311c43 48 101 75 164 75c120 0 237 -92 237 -265zM477 251c0 114 -75 166 -150 166s-150 -52 -150 -166s75 -166 150 -166s150 52 150 166z" />
    <glyph glyph-name="q" unicode="q" horiz-adv-x="632" 
d="M461 502h92v-696h-107v255c-41 -48 -100 -75 -164 -75c-120 0 -236 92 -236 265s116 265 236 265c71 0 136 -33 179 -94v80zM455 251c0 114 -75 166 -150 166s-150 -52 -150 -166s75 -166 150 -166s150 52 150 166z" />
    <glyph glyph-name="r" unicode="r" horiz-adv-x="413" 
d="M324 502h62v-100h-73c-84 0 -128 -72 -128 -177v-225h-107v502h93v-106c31 65 82 106 153 106z" />
    <glyph glyph-name="racute" unicode="&#x155;" horiz-adv-x="413" 
d="M324 502h62v-100h-73c-84 0 -128 -72 -128 -177v-225h-107v502h93v-106c31 65 82 106 153 106zM264 584h-82l70 168h110z" />
    <glyph glyph-name="rcaron" unicode="&#x159;" horiz-adv-x="413" 
d="M324 502h62v-100h-73c-84 0 -128 -72 -128 -177v-225h-107v502h93v-106c31 65 82 106 153 106zM311 730h82l-120 -150h-70l-120 150h84l71 -74z" />
    <glyph glyph-name="rcommaaccent" unicode="&#x157;" horiz-adv-x="413" 
d="M324 502h62v-100h-73c-84 0 -128 -72 -128 -177v-225h-107v502h93v-106c31 65 82 106 153 106zM87 -54h101l-70 -183h-76z" />
    <glyph glyph-name="s" unicode="s" horiz-adv-x="461" 
d="M44 27v105h12c45 -36 97 -54 157 -54c64 0 96 17 96 52c0 25 -19 46 -56 62l-90 41c-74 32 -111 81 -111 147c0 47 17 81 51 103c35 22 77 33 128 33c60 0 111 -14 153 -41v-93h-11c-45 31 -87 42 -135 42c-53 0 -79 -18 -79 -47c0 -23 21 -44 62 -62l83 -38
c74 -31 111 -79 111 -145c0 -51 -19 -89 -57 -112s-85 -34 -140 -34c-68 0 -130 17 -174 41z" />
    <glyph glyph-name="sacute" unicode="&#x15b;" horiz-adv-x="461" 
d="M44 27v105h12c45 -36 97 -54 157 -54c64 0 96 17 96 52c0 25 -19 46 -56 62l-90 41c-74 32 -111 81 -111 147c0 47 17 81 51 103c35 22 77 33 128 33c60 0 111 -14 153 -41v-93h-11c-45 31 -87 42 -135 42c-53 0 -79 -18 -79 -47c0 -23 21 -44 62 -62l83 -38
c74 -31 111 -79 111 -145c0 -51 -19 -89 -57 -112s-85 -34 -140 -34c-68 0 -130 17 -174 41zM257 584h-82l70 168h110z" />
    <glyph glyph-name="scaron" unicode="&#x161;" horiz-adv-x="461" 
d="M44 27v105h12c45 -36 97 -54 157 -54c64 0 96 17 96 52c0 25 -19 46 -56 62l-90 41c-74 32 -111 81 -111 147c0 47 17 81 51 103c35 22 77 33 128 33c60 0 111 -14 153 -41v-93h-11c-45 31 -87 42 -135 42c-53 0 -79 -18 -79 -47c0 -23 21 -44 62 -62l83 -38
c74 -31 111 -79 111 -145c0 -51 -19 -89 -57 -112s-85 -34 -140 -34c-68 0 -130 17 -174 41zM304 730h82l-120 -150h-70l-120 150h84l71 -74z" />
    <glyph glyph-name="scedilla" unicode="&#x15f;" horiz-adv-x="461" 
d="M285 -8c25 -33 37 -66 37 -98c0 -64 -51 -102 -114 -102c-21 0 -44 4 -69 13v65c18 -5 33 -8 45 -8c32 0 51 18 51 51c0 22 -8 46 -23 73c-65 1 -125 17 -168 41v105h12c45 -36 97 -54 157 -54c64 0 96 17 96 52c0 25 -19 46 -56 62l-90 41c-74 32 -111 81 -111 147
c0 47 17 81 51 103c35 22 77 33 128 33c60 0 111 -14 153 -41v-93h-11c-45 31 -87 42 -135 42c-53 0 -79 -18 -79 -47c0 -23 21 -44 62 -62l83 -38c74 -31 111 -79 111 -145c0 -80 -51 -124 -130 -140z" />
    <glyph glyph-name="scommaaccent" unicode="&#x219;" horiz-adv-x="461" 
d="M44 27v105h12c45 -36 97 -54 157 -54c64 0 96 17 96 52c0 25 -19 46 -56 62l-90 41c-74 32 -111 81 -111 147c0 47 17 81 51 103c35 22 77 33 128 33c60 0 111 -14 153 -41v-93h-11c-45 31 -87 42 -135 42c-53 0 -79 -18 -79 -47c0 -23 21 -44 62 -62l83 -38
c74 -31 111 -79 111 -145c0 -51 -19 -89 -57 -112s-85 -34 -140 -34c-68 0 -130 17 -174 41zM201 -54h101l-70 -183h-76z" />
    <glyph glyph-name="germandbls" unicode="&#xdf;" horiz-adv-x="583" 
d="M537 211c0 -121 -78 -211 -212 -211h-62v98h44c67 0 121 45 121 130c0 81 -50 132 -149 132h-24v88h16c77 0 105 43 105 102c0 64 -32 104 -96 104c-65 0 -97 -39 -97 -117v-537h-107v548c0 129 69 204 204 204c133 0 204 -73 204 -184c0 -69 -28 -123 -92 -150
c95 -29 145 -107 145 -207z" />
    <glyph glyph-name="t" unicode="t" horiz-adv-x="427" 
d="M391 414h-149v-239c0 -48 30 -73 78 -73h67v-102h-85c-105 0 -166 52 -166 156v258h-114v88h114v160h106v-160h149v-88z" />
    <glyph glyph-name="tbar" unicode="&#x167;" horiz-adv-x="427" 
d="M391 414h-149v-86h149v-67h-149v-86c0 -48 30 -73 78 -73h67v-102h-85c-105 0 -166 52 -166 156v105h-114v67h114v86h-114v88h114v160h106v-160h149v-88z" />
    <glyph glyph-name="tcaron" unicode="&#x165;" horiz-adv-x="427" 
d="M339 752h91l-30 -187h-74zM242 662v-160h149v-88h-149v-239c0 -48 30 -73 78 -73h67v-102h-85c-105 0 -166 52 -166 156v258h-114v88h114v160h106z" />
    <glyph glyph-name="uni0163" unicode="&#x163;" horiz-adv-x="427" 
d="M391 414h-149v-239c0 -48 30 -73 78 -73h67v-102h-79c29 -35 44 -71 44 -106c0 -64 -51 -102 -115 -102c-20 0 -43 4 -68 13v65c17 -5 31 -8 44 -8c32 0 52 18 52 51c0 28 -13 61 -40 99c-59 22 -89 70 -89 144v258h-114v88h114v160h106v-160h149v-88z" />
    <glyph glyph-name="uni021B" unicode="&#x21b;" horiz-adv-x="427" 
d="M391 414h-149v-239c0 -48 30 -73 78 -73h67v-102h-85c-105 0 -166 52 -166 156v258h-114v88h114v160h106v-160h149v-88zM229 -54h101l-70 -183h-76z" />
    <glyph glyph-name="u" unicode="u" horiz-adv-x="584" 
d="M399 502h107v-502h-93v84c-33 -60 -88 -98 -160 -98c-102 0 -184 76 -184 212v304h107v-288c0 -79 41 -126 106 -126c73 0 117 68 117 164v250z" />
    <glyph glyph-name="uacute" unicode="&#xfa;" horiz-adv-x="584" 
d="M399 502h107v-502h-93v84c-33 -60 -88 -98 -160 -98c-102 0 -184 76 -184 212v304h107v-288c0 -79 41 -126 106 -126c73 0 117 68 117 164v250zM318 584h-82l70 168h110z" />
    <glyph glyph-name="ucircumflex" unicode="&#xfb;" horiz-adv-x="584" 
d="M399 502h107v-502h-93v84c-33 -60 -88 -98 -160 -98c-102 0 -184 76 -184 212v304h107v-288c0 -79 41 -126 106 -126c73 0 117 68 117 164v250zM447 580h-85l-71 74l-72 -74h-82l120 150h70z" />
    <glyph glyph-name="udieresis" unicode="&#xfc;" horiz-adv-x="584" 
d="M399 502h107v-502h-93v84c-33 -60 -88 -98 -160 -98c-102 0 -184 76 -184 212v304h107v-288c0 -79 41 -126 106 -126c73 0 117 68 117 164v250zM188 715c33 0 59 -24 59 -60s-26 -60 -59 -60s-59 24 -59 60s26 60 59 60zM395 715c33 0 59 -24 59 -60s-26 -60 -59 -60
s-59 25 -59 60s26 60 59 60z" />
    <glyph glyph-name="ugrave" unicode="&#xf9;" horiz-adv-x="584" 
d="M399 502h107v-502h-93v84c-33 -60 -88 -98 -160 -98c-102 0 -184 76 -184 212v304h107v-288c0 -79 41 -126 106 -126c73 0 117 68 117 164v250zM266 584l-98 168h110l70 -168h-82z" />
    <glyph glyph-name="uhungarumlaut" unicode="&#x171;" horiz-adv-x="584" 
d="M399 502h107v-502h-93v84c-33 -60 -88 -98 -160 -98c-102 0 -184 76 -184 212v304h107v-288c0 -79 41 -126 106 -126c73 0 117 68 117 164v250zM248 574h-77l65 168h93zM393 574h-79l82 168h96z" />
    <glyph glyph-name="umacron" unicode="&#x16b;" horiz-adv-x="584" 
d="M399 502h107v-502h-93v84c-33 -60 -88 -98 -160 -98c-102 0 -184 76 -184 212v304h107v-288c0 -79 41 -126 106 -126c73 0 117 68 117 164v250zM420 610h-255v81h255v-81z" />
    <glyph glyph-name="uogonek" unicode="&#x173;" horiz-adv-x="584" 
d="M517 -124v-67c-25 -11 -50 -17 -76 -17c-60 0 -106 27 -106 82c0 47 33 89 99 126h-21v84c-33 -60 -88 -98 -160 -98c-102 0 -184 76 -184 212v304h107v-288c0 -79 41 -126 106 -126c73 0 117 68 117 164v250h107v-502c-53 -32 -84 -69 -84 -102c0 -25 15 -36 39 -36
c15 0 33 5 56 14z" />
    <glyph glyph-name="uring" unicode="&#x16f;" horiz-adv-x="584" 
d="M399 502h107v-502h-93v84c-33 -60 -88 -98 -160 -98c-102 0 -184 76 -184 212v304h107v-288c0 -79 41 -126 106 -126c73 0 117 68 117 164v250zM292 759c57 0 104 -37 104 -98c0 -60 -48 -97 -104 -97c-57 0 -105 37 -105 97c0 61 48 98 105 98zM292 616
c24 0 46 17 46 45s-22 46 -46 46s-46 -18 -46 -46s22 -45 46 -45z" />
    <glyph glyph-name="v" unicode="v" horiz-adv-x="545" 
d="M406 502h115l-210 -502h-77l-210 502h117l133 -347z" />
    <glyph glyph-name="w" unicode="w" horiz-adv-x="857" 
d="M713 502h116l-200 -502h-80l-121 333l-120 -333h-81l-199 502h118l121 -343l126 343h70l128 -345z" />
    <glyph glyph-name="wacute" unicode="&#x1e83;" horiz-adv-x="857" 
d="M713 502h116l-200 -502h-80l-121 333l-120 -333h-81l-199 502h118l121 -343l126 343h70l128 -345zM455 584h-82l70 168h110z" />
    <glyph glyph-name="wcircumflex" unicode="&#x175;" horiz-adv-x="857" 
d="M713 502h116l-200 -502h-80l-121 333l-120 -333h-81l-199 502h118l121 -343l126 343h70l128 -345zM584 580h-85l-71 74l-72 -74h-82l120 150h70z" />
    <glyph glyph-name="wdieresis" unicode="&#x1e85;" horiz-adv-x="857" 
d="M713 502h116l-200 -502h-80l-121 333l-120 -333h-81l-199 502h118l121 -343l126 343h70l128 -345zM325 715c33 0 59 -24 59 -60s-26 -60 -59 -60s-59 24 -59 60s26 60 59 60zM532 715c33 0 59 -24 59 -60s-26 -60 -59 -60s-59 25 -59 60s26 60 59 60z" />
    <glyph glyph-name="wgrave" unicode="&#x1e81;" horiz-adv-x="857" 
d="M713 502h116l-200 -502h-80l-121 333l-120 -333h-81l-199 502h118l121 -343l126 343h70l128 -345zM403 584l-98 168h110l70 -168h-82z" />
    <glyph glyph-name="x" unicode="x" horiz-adv-x="535" 
d="M506 0h-121l-120 183l-120 -183h-118l178 258l-168 244h121l108 -166l108 166h118l-166 -241z" />
    <glyph glyph-name="y" unicode="y" horiz-adv-x="540" 
d="M401 502h113l-291 -696h-116l116 276l-199 420h117l138 -308z" />
    <glyph glyph-name="yacute" unicode="&#xfd;" horiz-adv-x="540" 
d="M401 502h113l-291 -696h-116l116 276l-199 420h117l138 -308zM296 584h-82l70 168h110z" />
    <glyph glyph-name="ycircumflex" unicode="&#x177;" horiz-adv-x="540" 
d="M401 502h113l-291 -696h-116l116 276l-199 420h117l138 -308zM425 580h-85l-71 74l-72 -74h-82l120 150h70z" />
    <glyph glyph-name="ydieresis" unicode="&#xff;" horiz-adv-x="540" 
d="M401 502h113l-291 -696h-116l116 276l-199 420h117l138 -308zM166 715c33 0 59 -24 59 -60s-26 -60 -59 -60s-59 24 -59 60s26 60 59 60zM373 715c33 0 59 -24 59 -60s-26 -60 -59 -60s-59 25 -59 60s26 60 59 60z" />
    <glyph glyph-name="ygrave" unicode="&#x1ef3;" horiz-adv-x="540" 
d="M401 502h113l-291 -696h-116l116 276l-199 420h117l138 -308zM245 584l-98 168h110l70 -168h-82z" />
    <glyph glyph-name="z" unicode="z" horiz-adv-x="483" 
d="M184 88h260v-88h-407v48l249 366h-224v88h371v-48z" />
    <glyph glyph-name="zacute" unicode="&#x17a;" horiz-adv-x="483" 
d="M184 88h260v-88h-407v48l249 366h-224v88h371v-48zM268 584h-82l70 168h110z" />
    <glyph glyph-name="zcaron" unicode="&#x17e;" horiz-adv-x="483" 
d="M184 88h260v-88h-407v48l249 366h-224v88h371v-48zM315 730h82l-120 -150h-70l-120 150h84l71 -74z" />
    <glyph glyph-name="zdotaccent" unicode="&#x17c;" horiz-adv-x="483" 
d="M184 88h260v-88h-407v48l249 366h-224v88h371v-48zM242 725c37 0 66 -25 66 -65s-29 -65 -66 -65s-67 25 -67 65s30 65 67 65z" />
    <glyph glyph-name="a.ss01" horiz-adv-x="632" 
d="M461 502h92v-502h-92v80c-43 -61 -108 -94 -179 -94c-120 0 -236 92 -236 265s116 265 236 265c71 0 136 -33 179 -94v80zM455 251c0 114 -75 166 -150 166s-150 -52 -150 -166s75 -166 150 -166s150 52 150 166z" />
    <glyph glyph-name="aacute.ss01" horiz-adv-x="632" 
d="M461 502h92v-502h-92v80c-43 -61 -108 -94 -179 -94c-120 0 -236 92 -236 265s116 265 236 265c71 0 136 -33 179 -94v80zM455 251c0 114 -75 166 -150 166s-150 -52 -150 -166s75 -166 150 -166s150 52 150 166zM342 584h-82l70 168h110z" />
    <glyph glyph-name="abreve.ss01" horiz-adv-x="632" 
d="M461 502h92v-502h-92v80c-43 -61 -108 -94 -179 -94c-120 0 -236 92 -236 265s116 265 236 265c71 0 136 -33 179 -94v80zM455 251c0 114 -75 166 -150 166s-150 -52 -150 -166s75 -166 150 -166s150 52 150 166zM171 728v10h71v-14c0 -48 26 -75 74 -75s74 27 74 75v14
h71v-10c0 -104 -48 -156 -145 -156s-145 52 -145 156z" />
    <glyph glyph-name="acircumflex.ss01" horiz-adv-x="632" 
d="M461 502h92v-502h-92v80c-43 -61 -108 -94 -179 -94c-120 0 -236 92 -236 265s116 265 236 265c71 0 136 -33 179 -94v80zM455 251c0 114 -75 166 -150 166s-150 -52 -150 -166s75 -166 150 -166s150 52 150 166zM471 580h-85l-71 74l-72 -74h-82l120 150h70z" />
    <glyph glyph-name="adieresis.ss01" horiz-adv-x="632" 
d="M461 502h92v-502h-92v80c-43 -61 -108 -94 -179 -94c-120 0 -236 92 -236 265s116 265 236 265c71 0 136 -33 179 -94v80zM455 251c0 114 -75 166 -150 166s-150 -52 -150 -166s75 -166 150 -166s150 52 150 166zM212 715c33 0 59 -24 59 -60s-26 -60 -59 -60
s-59 24 -59 60s26 60 59 60zM419 715c33 0 59 -24 59 -60s-26 -60 -59 -60s-59 25 -59 60s26 60 59 60z" />
    <glyph glyph-name="agrave.ss01" horiz-adv-x="632" 
d="M461 502h92v-502h-92v80c-43 -61 -108 -94 -179 -94c-120 0 -236 92 -236 265s116 265 236 265c71 0 136 -33 179 -94v80zM455 251c0 114 -75 166 -150 166s-150 -52 -150 -166s75 -166 150 -166s150 52 150 166zM290 584l-98 168h110l70 -168h-82z" />
    <glyph glyph-name="amacron.ss01" horiz-adv-x="632" 
d="M461 502h92v-502h-92v80c-43 -61 -108 -94 -179 -94c-120 0 -236 92 -236 265s116 265 236 265c71 0 136 -33 179 -94v80zM455 251c0 114 -75 166 -150 166s-150 -52 -150 -166s75 -166 150 -166s150 52 150 166zM443 610h-255v81h255v-81z" />
    <glyph glyph-name="aogonek.ss01" horiz-adv-x="632" 
d="M461 502h92v-502h-92v80c-43 -61 -108 -94 -179 -94c-120 0 -236 92 -236 265s116 265 236 265c71 0 136 -33 179 -94v80zM455 251c0 114 -75 166 -150 166s-150 -52 -150 -166s75 -166 150 -166s150 52 150 166zM481 0h72c-53 -32 -84 -69 -84 -102c0 -25 15 -36 39 -36
c15 0 33 5 56 14v-67c-25 -11 -50 -17 -76 -17c-60 0 -106 27 -106 82c0 47 33 89 99 126z" />
    <glyph glyph-name="aring.ss01" horiz-adv-x="632" 
d="M461 502h92v-502h-92v80c-43 -61 -108 -94 -179 -94c-120 0 -236 92 -236 265s116 265 236 265c71 0 136 -33 179 -94v80zM455 251c0 114 -75 166 -150 166s-150 -52 -150 -166s75 -166 150 -166s150 52 150 166zM316 759c57 0 104 -37 104 -98c0 -60 -48 -97 -104 -97
c-57 0 -105 37 -105 97c0 61 48 98 105 98zM316 616c24 0 46 17 46 45s-22 46 -46 46s-46 -18 -46 -46s22 -45 46 -45z" />
    <glyph glyph-name="atilde.ss01" horiz-adv-x="632" 
d="M461 502h92v-502h-92v80c-43 -61 -108 -94 -179 -94c-120 0 -236 92 -236 265s116 265 236 265c71 0 136 -33 179 -94v80zM455 251c0 114 -75 166 -150 166s-150 -52 -150 -166s75 -166 150 -166s150 52 150 166zM252 728c45 0 83 -42 93 -50c11 -9 22 -14 31 -14
c21 0 32 18 35 55h64c-1 -93 -44 -139 -96 -139c-45 0 -83 42 -93 50c-12 9 -22 14 -31 14c-21 0 -33 -18 -36 -55h-63c1 93 44 139 96 139z" />
    <glyph glyph-name="ae.ss01" horiz-adv-x="986" 
d="M939 232h-379c9 -104 80 -153 168 -153c58 0 115 21 170 63h11v-107c-53 -33 -109 -49 -167 -49c-81 0 -146 30 -189 89v-75h-92v80c-43 -61 -108 -94 -179 -94c-120 0 -236 92 -236 265s116 265 236 265c71 0 136 -33 179 -94v80h92v-73c40 57 103 87 180 87
c129 0 209 -78 210 -234c0 -12 -1 -29 -4 -50zM565 309h274c-5 79 -51 120 -126 120s-131 -43 -148 -120zM455 251c0 114 -75 166 -150 166s-150 -52 -150 -166s75 -166 150 -166s150 52 150 166z" />
    <glyph glyph-name="t_t.dlig" horiz-adv-x="733" 
d="M698 414h-149v-239c0 -48 30 -73 78 -73h66v-102h-84c-105 0 -167 52 -167 156v258h-200v-239c0 -48 30 -73 78 -73h37v-102h-55c-105 0 -166 52 -166 156v258h-114v88h114v160h106v-160h200v160h107v-160h149v-88z" />
    <glyph glyph-name="uni0410" unicode="&#x410;" horiz-adv-x="709" 
d="M563 0l-67 176h-285l-68 -176h-122l286 700h95l286 -700h-125zM247 270h213l-106 279z" />
    <glyph glyph-name="uni0411" unicode="&#x411;" horiz-adv-x="662" 
d="M613 219c0 -137 -107 -219 -249 -219h-274v700h462v-102h-348v-162h160c142 0 249 -80 249 -217zM494 220c0 84 -60 119 -141 119h-149v-238h149c81 0 141 35 141 119z" />
    <glyph glyph-name="uni0412" unicode="&#x412;" horiz-adv-x="664" 
d="M617 197c0 -124 -90 -197 -253 -197h-274v700h248c148 0 233 -69 233 -180c0 -71 -34 -119 -103 -143c97 -24 149 -85 149 -180zM326 601h-122v-196h122c84 0 127 36 127 97c0 63 -43 99 -127 99zM499 207c0 72 -49 108 -147 108h-148v-216h148c98 0 147 36 147 108z" />
    <glyph glyph-name="uni0413" unicode="&#x413;" horiz-adv-x="541" 
d="M500 700v-102h-296v-598h-114v700h410z" />
    <glyph glyph-name="uni0490" unicode="&#x490;" horiz-adv-x="541" 
d="M500 830v-232h-296v-598h-114v700h304v130h106z" />
    <glyph glyph-name="uni0414" unicode="&#x414;" horiz-adv-x="757" 
d="M633 102h93v-250h-107v148h-494v-148h-106v250h53c63 68 93 208 97 471l3 127h461v-598zM190 102h329v496h-242c-7 -155 -16 -262 -33 -349c-12 -57 -30 -106 -54 -147z" />
    <glyph glyph-name="uni0415" unicode="&#x415;" horiz-adv-x="568" 
d="M204 102h319v-102h-433v700h418v-102h-304v-179h285v-98h-285v-219z" />
    <glyph glyph-name="uni0401" unicode="&#x401;" horiz-adv-x="568" 
d="M204 102h319v-102h-433v700h418v-102h-304v-179h285v-98h-285v-219zM194 889c35 0 62 -23 62 -60c0 -36 -27 -60 -62 -60s-62 24 -62 60c0 37 27 60 62 60zM408 889c35 0 62 -23 62 -60c0 -36 -27 -59 -62 -59s-62 23 -62 59c0 37 27 60 62 60z" />
    <glyph glyph-name="uni0416" unicode="&#x416;" horiz-adv-x="958" 
d="M938 0h-145l-257 333v-333h-114v333l-257 -333h-145l298 376l-281 324h142l243 -293v293h114v-293l243 293h142l-281 -324z" />
    <glyph glyph-name="uni0417" unicode="&#x417;" horiz-adv-x="605" 
d="M558 197c0 -131 -92 -211 -283 -211c-91 0 -170 19 -236 57v131h14c52 -56 129 -83 220 -83c109 0 166 44 166 117c0 79 -68 117 -173 117h-84v96h80c100 0 146 39 146 96c0 56 -47 92 -134 92c-75 0 -139 -24 -191 -73h-13v122c57 36 138 56 217 56
c152 0 239 -75 239 -177c0 -68 -40 -122 -112 -151c92 -28 144 -93 144 -189z" />
    <glyph glyph-name="uni0418" unicode="&#x418;" horiz-adv-x="764" 
d="M581 700h93v-700h-113v512l-379 -512h-92v700h113v-512z" />
    <glyph glyph-name="uni0419" unicode="&#x419;" horiz-adv-x="764" 
d="M581 700h93v-700h-113v512l-379 -512h-92v700h113v-512zM457 904h90v-12c0 -97 -62 -145 -165 -145s-165 48 -165 145v12h90v-17c0 -41 28 -67 75 -67s75 26 75 67v17z" />
    <glyph glyph-name="uni041A" unicode="&#x41a;" horiz-adv-x="650" 
d="M638 0h-144l-290 333v-333h-114v700h114v-293l266 293h142l-304 -324z" />
    <glyph glyph-name="uni041B" unicode="&#x41b;" horiz-adv-x="727" 
d="M173 700h464v-700h-114v598h-246c-5 -150 -10 -254 -15 -311c-17 -191 -73 -287 -205 -287h-40v107h20c33 0 59 14 76 41c18 28 31 74 39 139s14 161 18 286z" />
    <glyph glyph-name="uni041C" unicode="&#x41c;" horiz-adv-x="871" 
d="M702 700h80v-700h-113v476l-210 -284h-45l-211 282v-474h-113v700h79l268 -365z" />
    <glyph glyph-name="uni041D" unicode="&#x41d;" horiz-adv-x="755" 
d="M551 700h114v-700h-114v321h-347v-321h-114v700h114v-276h347v276z" />
    <glyph glyph-name="uni041E" unicode="&#x41e;" horiz-adv-x="847" 
d="M424 714c206 2 368 -147 365 -364c3 -217 -159 -366 -365 -364c-207 -2 -369 147 -366 364c-3 217 159 366 366 364zM424 94c141 0 246 102 246 256s-105 256 -246 256s-247 -102 -247 -256s106 -256 247 -256z" />
    <glyph glyph-name="uni041F" unicode="&#x41f;" horiz-adv-x="746" 
d="M90 700h566v-700h-114v598h-338v-598h-114v700z" />
    <glyph glyph-name="uni0420" unicode="&#x420;" horiz-adv-x="639" 
d="M599 486c0 -133 -88 -208 -241 -208h-154v-278h-114v700h266c151 0 243 -78 243 -214zM480 487c0 75 -44 112 -133 112h-143v-224h147c80 0 129 36 129 112z" />
    <glyph glyph-name="uni0421" unicode="&#x421;" horiz-adv-x="686" 
d="M420 714c82 0 153 -20 212 -61v-129h-13c-52 53 -114 82 -198 82c-143 0 -244 -101 -244 -256c0 -153 103 -256 248 -256c83 0 151 31 204 94h14v-136c-65 -44 -138 -66 -219 -66c-210 0 -366 136 -366 364c-3 224 157 366 362 364z" />
    <glyph glyph-name="uni0422" unicode="&#x422;" horiz-adv-x="572" 
d="M535 700v-102h-192v-598h-114v598h-192v102h498z" />
    <glyph glyph-name="uni0423" unicode="&#x423;" horiz-adv-x="661" 
d="M520 700h116l-234 -557c-45 -107 -112 -143 -208 -143h-48v107h43c63 0 90 18 115 78l-272 515h126l202 -406z" />
    <glyph glyph-name="uni040E" unicode="&#x40e;" horiz-adv-x="661" 
d="M520 700h116l-234 -557c-45 -107 -112 -143 -208 -143h-48v107h43c63 0 90 18 115 78l-272 515h126l202 -406zM406 904h90v-12c0 -97 -62 -145 -165 -145s-165 48 -165 145v12h90v-17c0 -41 28 -67 75 -67s75 26 75 67v17z" />
    <glyph glyph-name="uni0424" unicode="&#x424;" horiz-adv-x="906" 
d="M510 36v-66h-114v66c-205 2 -338 133 -338 318s133 316 338 318v56h114v-56c207 0 338 -134 338 -318s-131 -318 -338 -318zM730 354c0 120 -80 210 -220 212v-424c140 2 220 92 220 212zM396 142v424c-140 -2 -220 -92 -220 -212s80 -210 220 -212z" />
    <glyph glyph-name="uni0425" unicode="&#x425;" horiz-adv-x="656" 
d="M632 -1h-128l-178 282l-178 -282h-125l236 363l-219 338h129l159 -253l158 253h125l-216 -334z" />
    <glyph glyph-name="uni0427" unicode="&#x427;" horiz-adv-x="708" 
d="M504 700h114v-700h-114v288c-68 -21 -129 -32 -184 -32c-156 0 -258 87 -258 262v182h114v-172c0 -108 61 -167 170 -167c48 0 109 13 158 29v310z" />
    <glyph glyph-name="uni0426" unicode="&#x426;" horiz-adv-x="778" 
d="M650 102h97v-250h-106v148h-551v700h114v-598h332v598h114v-598z" />
    <glyph glyph-name="uni0428" unicode="&#x428;" horiz-adv-x="1043" 
d="M840 700h114v-700h-864v700h114v-598h261v598h113v-598h262v598z" />
    <glyph glyph-name="uni0429" unicode="&#x429;" horiz-adv-x="1081" 
d="M954 102h96v-250h-106v148h-854v700h114v-598h261v598h113v-598h262v598h114v-598z" />
    <glyph glyph-name="uni042C" unicode="&#x42c;" horiz-adv-x="659" 
d="M617 225c0 -141 -107 -225 -252 -225h-275v700h114v-252h161c145 0 252 -83 252 -223zM498 225c0 88 -61 125 -144 125h-150v-249h150c83 0 144 36 144 124z" />
    <glyph glyph-name="uni042A" unicode="&#x42a;" horiz-adv-x="771" 
d="M729 225c0 -141 -107 -225 -252 -225h-276v598h-169v102h283v-252h162c145 0 252 -83 252 -223zM610 225c0 88 -61 125 -144 125h-151v-249h151c83 0 144 36 144 124z" />
    <glyph glyph-name="uni042B" unicode="&#x42b;" horiz-adv-x="895" 
d="M597 225c0 -141 -107 -225 -252 -225h-255v700h114v-252h141c145 0 252 -83 252 -223zM692 700h114v-700h-114v700zM478 225c0 88 -61 125 -144 125h-130v-249h130c83 0 144 36 144 124z" />
    <glyph glyph-name="uni0404" unicode="&#x404;" horiz-adv-x="680" 
d="M624 183h13v-136c-64 -40 -141 -61 -224 -61c-207 0 -355 137 -355 366c0 225 148 362 351 362c79 0 158 -20 215 -56v-129h-13c-51 49 -119 77 -194 77c-127 0 -216 -76 -236 -199l317 -1v-98h-318c9 -65 34 -117 77 -156s95 -58 158 -58c77 0 157 32 209 89z" />
    <glyph glyph-name="uni042D" unicode="&#x42d;" horiz-adv-x="680" 
d="M622 352c0 -229 -148 -366 -355 -366c-83 0 -160 21 -224 61v136h13c52 -57 132 -89 209 -89c63 0 116 19 159 58s68 91 76 156h-318v98h317c-20 124 -109 200 -236 200c-75 0 -143 -28 -194 -77h-13v129c57 36 136 56 215 56c203 0 351 -137 351 -362z" />
    <glyph glyph-name="uni0406" unicode="&#x406;" horiz-adv-x="293" 
d="M90 700h114v-700h-114v700z" />
    <glyph glyph-name="uni0407" unicode="&#x407;" horiz-adv-x="293" 
d="M90 700h114v-700h-114v700zM39 889c35 0 62 -23 62 -60c0 -36 -27 -60 -62 -60s-62 24 -62 60c0 37 27 60 62 60zM253 889c35 0 62 -23 62 -60c0 -36 -27 -59 -62 -59s-62 23 -62 59c0 37 27 60 62 60z" />
    <glyph glyph-name="uni042E" unicode="&#x42e;" horiz-adv-x="1067" 
d="M1009 350c3 -222 -152 -366 -349 -364c-187 0 -333 123 -347 327h-109v-313h-114v700h114v-284h112c26 185 165 298 344 298c197 2 352 -142 349 -364zM890 350c0 157 -99 256 -230 256c-132 0 -231 -99 -231 -256s99 -256 229 -256c131 0 232 99 232 256z" />
    <glyph glyph-name="uni042F" unicode="&#x42f;" horiz-adv-x="672" 
d="M305 700h278v-700h-114v274h-87l-210 -274h-131l221 281c-61 6 -109 28 -144 67s-52 87 -52 143c0 119 85 209 239 209zM313 374h156v225h-152c-84 0 -133 -46 -133 -113c0 -68 48 -112 129 -112z" />
    <glyph glyph-name="uni04C1" unicode="&#x4c1;" horiz-adv-x="958" 
d="M938 0h-145l-257 333v-333h-114v333l-257 -333h-145l298 376l-281 324h142l243 -293v293h114v-293l243 293h142l-281 -324zM554 904h90v-12c0 -97 -62 -145 -165 -145s-165 48 -165 145v12h90v-17c0 -41 28 -67 75 -67s75 26 75 67v17z" />
    <glyph glyph-name="uni0430" unicode="&#x430;" horiz-adv-x="547" 
d="M478 316v-316h-93v50c-36 -40 -92 -64 -157 -64c-115 0 -190 69 -190 162c0 94 79 161 197 161c56 0 101 -14 136 -43v40c0 80 -49 115 -124 115c-48 0 -96 -14 -143 -41h-11v102c56 23 117 34 172 34c125 0 213 -61 213 -200zM379 152c0 41 -42 75 -117 75
s-117 -34 -117 -75c0 -43 42 -75 117 -75s117 32 117 75z" />
    <glyph glyph-name="uni0431" unicode="&#x431;" horiz-adv-x="618" 
d="M572 246c0 -157 -104 -260 -255 -260c-77 0 -140 27 -190 80c-49 54 -74 142 -74 264c0 57 7 114 21 171c15 58 41 109 79 152c39 44 91 70 158 77l38 4l70 7c40 5 74 10 101 15v-99c-20 -5 -48 -10 -84 -13c-35 -2 -71 -5 -106 -10c-108 -16 -158 -84 -177 -235
c39 61 101 98 185 98c141 0 234 -98 234 -251zM463 245c0 101 -69 161 -148 161c-80 0 -149 -60 -149 -161c0 -99 69 -161 149 -161c79 0 148 62 148 161z" />
    <glyph glyph-name="uni0432" unicode="&#x432;" horiz-adv-x="558" 
d="M508 146c0 -88 -73 -146 -178 -146h-252v502h227c103 0 171 -54 171 -134c0 -45 -20 -78 -60 -99c59 -20 92 -63 92 -123zM292 416h-107v-118h107c51 0 75 26 75 59s-24 59 -75 59zM399 153c0 37 -31 67 -83 67h-131v-134h131c52 0 83 28 83 67z" />
    <glyph glyph-name="uni0433" unicode="&#x433;" horiz-adv-x="449" 
d="M419 502v-88h-234v-414h-107v502h341z" />
    <glyph glyph-name="uni0491" unicode="&#x491;" horiz-adv-x="449" 
d="M419 634v-220h-234v-414h-107v502h237v132h104z" />
    <glyph glyph-name="uni0434" unicode="&#x434;" horiz-adv-x="619" 
d="M499 88h88v-228h-105v140h-356v-140h-105v228h59c35 63 53 156 55 277l3 137h361v-414zM183 88h209v326h-161l-2 -69c-2 -100 -17 -186 -46 -257z" />
    <glyph glyph-name="uni0435" unicode="&#x435;" horiz-adv-x="577" 
d="M530 232h-379c8 -104 80 -153 168 -153c58 0 114 21 169 63h12v-107c-59 -33 -125 -49 -185 -49c-145 0 -269 90 -269 265s121 265 259 265c67 0 122 -20 164 -59s63 -98 64 -175c0 -17 -1 -34 -3 -50zM156 309h274c-7 79 -51 120 -126 120s-131 -43 -148 -120z" />
    <glyph glyph-name="uni0451" unicode="&#x451;" horiz-adv-x="577" 
d="M530 232h-379c8 -104 80 -153 168 -153c58 0 114 21 169 63h12v-107c-59 -33 -125 -49 -185 -49c-145 0 -269 90 -269 265s121 265 259 265c67 0 122 -20 164 -59s63 -98 64 -175c0 -17 -1 -34 -3 -50zM156 309h274c-7 79 -51 120 -126 120s-131 -43 -148 -120zM189 715
c33 0 59 -24 59 -60s-26 -60 -59 -60s-59 24 -59 60s26 60 59 60zM396 715c33 0 59 -24 59 -60s-26 -60 -59 -60s-59 25 -59 60s26 60 59 60z" />
    <glyph glyph-name="uni0436" unicode="&#x436;" horiz-adv-x="781" 
d="M762 0h-134l-184 249v-249h-107v249l-184 -249h-134l216 273l-208 229h132l178 -211v211h107v-211l178 211h132l-207 -229z" />
    <glyph glyph-name="uni0437" unicode="&#x437;" horiz-adv-x="508" 
d="M458 141c0 -96 -83 -155 -220 -155c-71 0 -131 13 -181 39v110h11c41 -37 96 -55 164 -55c72 0 118 24 118 71c0 44 -45 70 -125 70h-69v83h74c71 0 100 27 100 60c0 36 -34 58 -101 58c-56 0 -105 -16 -147 -49h-10v108c51 23 108 35 170 35c120 0 197 -54 197 -134
c0 -51 -30 -90 -82 -113c65 -20 101 -65 101 -128z" />
    <glyph glyph-name="uni0438" unicode="&#x438;" horiz-adv-x="597" 
d="M434 502h85v-502h-107v331l-249 -331h-85v502h107v-331z" />
    <glyph glyph-name="uni0439" unicode="&#x439;" horiz-adv-x="597" 
d="M434 502h85v-502h-107v331l-249 -331h-85v502h107v-331zM368 736h85v-19c0 -101 -59 -149 -155 -149c-95 0 -155 49 -155 149v19h86v-24c0 -47 28 -73 69 -73s70 26 70 73v24z" />
    <glyph glyph-name="uni043A" unicode="&#x43a;" horiz-adv-x="538" 
d="M525 0h-138l-202 249v-249h-107v502h107v-210l184 210h133l-208 -227z" />
    <glyph glyph-name="uni043B" unicode="&#x43b;" horiz-adv-x="581" 
d="M142 502h361v-502h-107v414h-159l-2 -53c-12 -303 -72 -359 -178 -361h-32v97h14c31 0 55 21 71 63c17 43 26 116 29 221z" />
    <glyph glyph-name="uni043C" unicode="&#x43c;" horiz-adv-x="676" 
d="M521 502h76v-502h-104v320l-138 -174h-35l-137 171v-317h-105v502h76l185 -235z" />
    <glyph glyph-name="uni043D" unicode="&#x43d;" horiz-adv-x="589" 
d="M403 502h107v-502h-107v220h-218v-220h-107v502h107v-194h218v194z" />
    <glyph glyph-name="uni043E" unicode="&#x43e;" horiz-adv-x="626" 
d="M313 516c153 0 267 -105 267 -265s-114 -265 -267 -265c-151 0 -267 105 -267 265s116 265 267 265zM313 84c89 0 159 64 159 167s-70 167 -159 167c-91 0 -158 -64 -158 -167s67 -167 158 -167z" />
    <glyph glyph-name="uni043F" unicode="&#x43f;" horiz-adv-x="583" 
d="M78 502h427v-502h-107v414h-213v-414h-107v502z" />
    <glyph glyph-name="uni0440" unicode="&#x440;" horiz-adv-x="632" 
d="M586 251c0 -173 -116 -265 -236 -265c-64 0 -122 26 -165 75v-255h-107v696h93v-80c43 61 107 94 178 94c120 0 237 -92 237 -265zM477 251c0 114 -75 166 -150 166s-150 -52 -150 -166s75 -166 150 -166s150 52 150 166z" />
    <glyph glyph-name="uni0441" unicode="&#x441;" horiz-adv-x="517" 
d="M310 516c51 0 99 -13 143 -40v-109h-10c-43 34 -86 51 -129 51c-89 0 -159 -64 -159 -167s68 -167 163 -167c49 0 93 17 130 52h12v-111c-42 -26 -91 -39 -146 -39c-153 0 -268 102 -268 265c0 161 114 265 264 265z" />
    <glyph glyph-name="uni0442" unicode="&#x442;" horiz-adv-x="463" 
d="M441 502v-88h-156v-414h-107v414h-156v88h419z" />
    <glyph glyph-name="uni0443" unicode="&#x443;" horiz-adv-x="540" 
d="M401 502h113l-291 -696h-116l116 276l-199 420h117l138 -308z" />
    <glyph glyph-name="uni045E" unicode="&#x45e;" horiz-adv-x="540" 
d="M401 502h113l-291 -696h-116l116 276l-199 420h117l138 -308zM340 736h85v-19c0 -101 -59 -149 -155 -149c-95 0 -155 49 -155 149v19h86v-24c0 -47 28 -73 69 -73s70 26 70 73v24z" />
    <glyph glyph-name="uni0444" unicode="&#x444;" horiz-adv-x="743" 
d="M425 -14v-180h-107v180c-157 2 -272 101 -272 265s115 263 272 265v236h107v-236c157 -2 272 -101 272 -265s-115 -263 -272 -265zM318 84v334c-97 -3 -163 -66 -163 -167s66 -164 163 -167zM588 251c0 101 -66 164 -163 167v-334c97 3 163 66 163 167z" />
    <glyph glyph-name="uni0445" unicode="&#x445;" horiz-adv-x="535" 
d="M506 0h-121l-120 183l-120 -183h-118l178 258l-168 244h121l108 -166l108 166h118l-166 -241z" />
    <glyph glyph-name="uni0447" unicode="&#x447;" horiz-adv-x="546" 
d="M360 502h107v-502h-107v195c-45 -13 -85 -20 -118 -20c-113 0 -188 65 -188 173v154h107v-137c0 -59 39 -92 106 -92c26 0 57 6 93 17v212z" />
    <glyph glyph-name="uni0446" unicode="&#x446;" horiz-adv-x="621" 
d="M501 88h87v-228h-104v140h-406v502h107v-414h209v414h107v-414z" />
    <glyph glyph-name="uni0448" unicode="&#x448;" horiz-adv-x="832" 
d="M647 502h107v-502h-676v502h107v-414h178v414h107v-414h177v414z" />
    <glyph glyph-name="uni0449" unicode="&#x449;" horiz-adv-x="874" 
d="M754 88h87v-228h-104v140h-659v502h107v-414h178v414h107v-414h177v414h107v-414z" />
    <glyph glyph-name="uni044C" unicode="&#x44c;" horiz-adv-x="539" 
d="M493 165c0 -105 -73 -165 -188 -165h-227v502h107v-174h120c115 0 188 -59 188 -163zM384 165c0 48 -31 77 -91 77h-108v-154h108c60 0 91 29 91 77z" />
    <glyph glyph-name="uni044A" unicode="&#x44a;" horiz-adv-x="614" 
d="M569 165c0 -105 -73 -165 -188 -165h-227v414h-132v88h239v-174h120c115 0 188 -59 188 -163zM460 165c0 48 -32 77 -92 77h-107v-154h107c60 0 92 29 92 77z" />
    <glyph glyph-name="uni044B" unicode="&#x44b;" horiz-adv-x="732" 
d="M473 165c0 -105 -73 -165 -188 -165h-207v502h107v-174h100c115 0 188 -59 188 -163zM547 502h107v-502h-107v502zM364 165c0 48 -32 77 -92 77h-87v-154h87c60 0 92 29 92 77z" />
    <glyph glyph-name="uni0454" unicode="&#x454;" horiz-adv-x="513" 
d="M445 129h11v-108c-41 -23 -89 -35 -145 -35c-154 0 -265 95 -265 265c0 168 109 265 259 265c53 0 100 -12 142 -36v-105h-9c-41 30 -84 45 -130 45c-75 0 -133 -43 -149 -120h197v-84h-200c13 -87 75 -134 159 -134c51 0 95 16 130 47z" />
    <glyph glyph-name="uni044D" unicode="&#x44d;" horiz-adv-x="513" 
d="M467 251c0 -170 -111 -265 -265 -265c-56 0 -104 12 -145 35v108h11c35 -31 79 -47 130 -47c84 0 146 47 159 134h-200v84h197c-16 77 -73 120 -149 120c-45 0 -89 -15 -130 -45h-9v105c42 24 89 36 142 36c150 0 259 -97 259 -265z" />
    <glyph glyph-name="uni0456" unicode="&#x456;" horiz-adv-x="264" 
d="M132 734c40 0 71 -28 71 -69c0 -43 -31 -70 -71 -70s-71 27 -71 70c0 41 31 69 71 69zM78 502h107v-502h-107v502z" />
    <glyph glyph-name="uni0457" unicode="&#x457;" horiz-adv-x="264" 
d="M43 715c33 0 59 -24 59 -60s-26 -60 -59 -60s-59 25 -59 60s26 60 59 60zM220 715c33 0 59 -24 59 -60s-26 -60 -59 -60c-32 0 -58 25 -58 60c0 36 26 60 58 60zM78 502h107v-502h-107v502z" />
    <glyph glyph-name="uni044E" unicode="&#x44e;" horiz-adv-x="831" 
d="M785 251c0 -163 -111 -265 -256 -265c-133 0 -239 85 -255 228h-89v-214h-107v502h107v-200h91c10 67 38 119 85 157s103 57 168 57c145 0 256 -102 256 -265zM677 251c0 105 -65 167 -149 167c-85 0 -150 -62 -150 -167s65 -167 150 -167c84 0 149 62 149 167z" />
    <glyph glyph-name="uni044F" unicode="&#x44f;" horiz-adv-x="551" 
d="M250 502h223v-502h-107v181h-78l-128 -181h-125l144 191c-73 19 -119 70 -119 147c0 104 77 164 190 164zM266 262h100v152h-100c-57 0 -97 -29 -97 -76s40 -76 97 -76z" />
    <glyph glyph-name="uni04C2" unicode="&#x4c2;" horiz-adv-x="781" 
d="M762 0h-134l-184 249v-249h-107v249l-184 -249h-134l216 273l-208 229h132l178 -211v211h107v-211l178 211h132l-207 -229zM460 736h85v-19c0 -101 -59 -149 -155 -149c-95 0 -155 49 -155 149v19h86v-24c0 -47 28 -73 69 -73s70 26 70 73v24z" />
    <glyph glyph-name="uni0430.ss01" horiz-adv-x="632" 
d="M461 502h92v-502h-92v80c-43 -61 -108 -94 -179 -94c-120 0 -236 92 -236 265s116 265 236 265c71 0 136 -33 179 -94v80zM455 251c0 114 -75 166 -150 166s-150 -52 -150 -166s75 -166 150 -166s150 52 150 166z" />
    <glyph glyph-name="pi" unicode="&#x3c0;" horiz-adv-x="568" 
d="M527 95h12v-95h-31c-89 0 -148 51 -148 150v264h-161v-414h-107v414h-69v88h507v-88h-69v-250c0 -43 29 -69 66 -69z" />
    <glyph glyph-name="zero" unicode="0" horiz-adv-x="636" 
d="M318 714c146 0 258 -128 258 -364s-112 -364 -258 -364s-258 128 -258 364s112 364 258 364zM318 92c88 0 142 90 142 258s-54 258 -142 258c-87 0 -142 -90 -142 -258s55 -258 142 -258z" />
    <glyph glyph-name="one" unicode="1" horiz-adv-x="387" 
d="M199 700h90v-700h-111v530c-35 -26 -80 -39 -133 -39v104c80 0 145 40 154 105z" />
    <glyph glyph-name="two" unicode="2" horiz-adv-x="522" 
d="M198 101h276v-101h-438v65l241 294c39 48 64 95 64 148c0 65 -41 101 -101 101c-67 0 -119 -42 -156 -95h-13v127c44 47 111 74 183 74c59 0 107 -17 145 -50c39 -33 58 -81 58 -143c0 -83 -35 -147 -100 -224z" />
    <glyph glyph-name="three" unicode="3" horiz-adv-x="509" 
d="M459 191c0 -123 -92 -205 -241 -205c-75 0 -136 20 -183 61v133h15c39 -61 89 -94 160 -94c84 0 137 44 137 115c0 73 -56 116 -155 116h-44v97h41c88 0 133 34 133 99c0 61 -40 101 -113 101c-53 0 -98 -22 -135 -65h-13v115c43 33 96 50 157 50c131 0 216 -76 216 -187
c0 -68 -31 -122 -94 -151c77 -33 119 -100 119 -185z" />
    <glyph glyph-name="four" unicode="4" horiz-adv-x="560" 
d="M527 250v-100h-84v-150h-111v150h-307v80l314 470h104v-450h84zM146 250h188v282z" />
    <glyph glyph-name="five" unicode="5" horiz-adv-x="547" 
d="M491 224c0 -149 -93 -238 -242 -238c-73 0 -139 21 -196 63v125h14c47 -52 100 -84 169 -84c83 0 140 44 140 135c0 87 -56 134 -133 134c-48 0 -94 -20 -123 -49l-51 14l57 376h330v-101h-248l-26 -164c29 13 61 20 96 20c123 0 213 -86 213 -231z" />
    <glyph glyph-name="six" unicode="6" horiz-adv-x="604" 
d="M552 228c0 -151 -97 -242 -229 -242c-136 0 -263 94 -263 332c0 267 121 396 284 396c54 0 105 -14 154 -41v-114h-14c-35 34 -78 51 -131 51c-103 0 -163 -66 -179 -221c41 49 101 75 165 75c111 0 213 -82 213 -236zM437 229c0 92 -56 140 -125 140
c-68 0 -124 -48 -124 -140s56 -139 125 -139c68 0 124 47 124 139z" />
    <glyph glyph-name="seven" unicode="7" horiz-adv-x="511" 
d="M35 700h437v-63l-296 -637h-121l278 597h-298v103z" />
    <glyph glyph-name="eight" unicode="8" horiz-adv-x="592" 
d="M549 193c0 -120 -94 -207 -253 -207s-252 87 -252 207c0 83 42 150 122 182c-59 32 -89 88 -89 152c0 105 85 187 219 187c135 0 219 -82 219 -187c0 -64 -30 -120 -89 -152c80 -32 123 -99 123 -182zM189 514c0 -60 44 -101 107 -101c64 0 107 41 107 101
s-43 101 -107 101c-63 0 -107 -41 -107 -101zM437 203c0 71 -60 118 -141 118c-80 0 -140 -47 -140 -118s60 -118 140 -118c81 0 141 47 141 118z" />
    <glyph glyph-name="nine" unicode="9" horiz-adv-x="604" 
d="M544 382c0 -267 -119 -396 -284 -396c-54 0 -105 14 -154 41v114h14c36 -34 80 -51 131 -51c104 0 165 68 180 225c-41 -48 -103 -75 -166 -75c-111 0 -213 82 -213 234c0 148 99 240 229 240c136 0 263 -94 263 -332zM416 473c0 89 -56 137 -124 137s-125 -48 -125 -137
c0 -91 57 -138 125 -138s124 47 124 138z" />
    <glyph glyph-name="uni24FF" unicode="&#x24ff;" horiz-adv-x="843" 
d="M58 350c-4 208 165 368 363 364c198 4 366 -156 363 -364c3 -208 -165 -368 -363 -364c-198 -4 -367 156 -363 364zM421 153c78 0 148 65 148 197s-70 197 -148 197s-147 -65 -147 -197s69 -197 147 -197zM421 477c39 0 69 -42 69 -127s-30 -127 -69 -127
c-37 0 -68 42 -68 127s31 127 68 127z" />
    <glyph glyph-name="uni2776" unicode="&#x2776;" horiz-adv-x="843" 
d="M58 350c-4 208 165 368 363 364c198 4 366 -156 363 -364c3 -208 -165 -368 -363 -364c-198 -4 -367 156 -363 364zM397 436v-275h75v378h-57c-9 -35 -46 -52 -89 -52v-69c26 0 50 6 71 18z" />
    <glyph glyph-name="uni2777" unicode="&#x2777;" horiz-adv-x="843" 
d="M58 350c-4 208 165 368 363 364c198 4 366 -156 363 -364c3 -208 -165 -368 -363 -364c-198 -4 -367 156 -363 364zM304 161h243v67h-140l74 87c39 47 58 90 58 130c0 65 -48 102 -116 102c-40 0 -74 -13 -103 -38v-82h7c25 32 44 50 80 50c33 0 54 -18 54 -47
c0 -21 -11 -45 -34 -72l-123 -148v-49z" />
    <glyph glyph-name="uni2778" unicode="&#x2778;" horiz-adv-x="843" 
d="M58 350c-4 208 165 368 363 364c198 4 366 -156 363 -364c3 -208 -165 -368 -363 -364c-198 -4 -367 156 -363 364zM416 153c83 0 134 45 134 113c0 48 -24 82 -68 98c37 16 55 45 55 84c0 60 -46 99 -119 99c-33 0 -65 -9 -95 -28v-65h7c22 21 48 32 77 32
c36 0 58 -18 58 -49c0 -33 -25 -51 -66 -51h-27v-56h29c48 0 77 -19 77 -56c0 -36 -27 -60 -71 -60c-36 0 -69 16 -90 49h-7v-77c27 -22 63 -33 106 -33z" />
    <glyph glyph-name="uni2779" unicode="&#x2779;" horiz-adv-x="843" 
d="M58 350c-4 208 165 368 363 364c198 4 366 -156 363 -364c3 -208 -165 -368 -363 -364c-198 -4 -367 156 -363 364zM267 239h161v-78h76v78h41v64h-41v236h-72l-165 -245v-55zM342 303l90 137v-137h-90z" />
    <glyph glyph-name="uni277A" unicode="&#x277a;" horiz-adv-x="843" 
d="M58 350c-4 208 165 368 363 364c198 4 366 -156 363 -364c3 -208 -165 -368 -363 -364c-198 -4 -367 156 -363 364zM415 153c80 0 135 48 135 131c0 77 -50 123 -117 123c-17 0 -34 -4 -51 -11l12 79h135v64h-187l-29 -202l29 -9c21 14 42 21 63 21c37 0 68 -18 68 -63
c0 -47 -32 -66 -72 -66c-34 0 -64 16 -90 47h-7v-83c32 -21 69 -31 111 -31z" />
    <glyph glyph-name="uni277B" unicode="&#x277b;" horiz-adv-x="843" 
d="M58 350c-4 208 165 368 363 364c198 4 366 -156 363 -364c3 -208 -165 -368 -363 -364c-198 -4 -367 156 -363 364zM424 153c71 0 130 49 130 133c0 77 -53 119 -118 119c-31 0 -61 -10 -81 -29c10 69 40 104 91 104c29 0 54 -10 75 -31h7v75c-28 15 -58 23 -89 23
c-96 0 -162 -72 -162 -215c0 -65 14 -111 43 -138s63 -41 104 -41zM417 352c33 0 60 -25 60 -66s-27 -66 -60 -66s-59 25 -59 66s26 66 59 66z" />
    <glyph glyph-name="uni277C" unicode="&#x277c;" horiz-adv-x="843" 
d="M58 350c-4 208 165 368 363 364c198 4 366 -156 363 -364c3 -208 -165 -368 -363 -364c-198 -4 -367 156 -363 364zM316 472h150l-140 -311h81l149 334v44h-240v-67z" />
    <glyph glyph-name="uni277D" unicode="&#x277d;" horiz-adv-x="843" 
d="M58 350c-4 208 165 368 363 364c198 4 366 -156 363 -364c3 -208 -165 -368 -363 -364c-198 -4 -367 156 -363 364zM421 153c84 0 144 42 144 113c0 47 -27 81 -72 100c35 16 54 46 54 82c0 60 -54 99 -126 99c-73 0 -125 -39 -125 -99c0 -36 20 -66 53 -82
c-45 -19 -71 -53 -71 -100c0 -71 59 -113 143 -113zM421 488c31 0 54 -19 54 -50c0 -32 -23 -50 -54 -50c-29 0 -53 18 -53 50c0 31 24 50 53 50zM421 335c40 0 72 -23 72 -62c0 -37 -32 -61 -72 -61s-71 24 -71 61c0 39 31 62 71 62z" />
    <glyph glyph-name="uni277E" unicode="&#x277e;" horiz-adv-x="843" 
d="M58 350c-4 208 165 368 363 364c198 4 366 -156 363 -364c3 -208 -165 -368 -363 -364c-198 -4 -367 156 -363 364zM406 297c35 0 63 10 82 29c-10 -71 -40 -106 -91 -106c-29 0 -57 12 -76 31h-7v-75c28 -15 58 -23 90 -23c96 0 162 72 162 215c0 65 -14 111 -43 138
s-63 41 -104 41c-72 0 -130 -48 -130 -132c0 -77 52 -118 117 -118zM426 480c33 0 59 -25 59 -65c0 -41 -26 -65 -59 -65s-60 24 -60 65c0 40 27 65 60 65z" />
    <glyph glyph-name="uni24EA" unicode="&#x24ea;" horiz-adv-x="843" 
d="M58 350c-4 208 165 368 363 364c198 4 366 -156 363 -364c3 -208 -165 -368 -363 -364c-198 -4 -367 156 -363 364zM712 350c3 167 -132 298 -291 295c-159 3 -293 -128 -290 -295c-3 -167 131 -298 290 -295c159 -3 294 128 291 295zM421 547c78 0 148 -65 148 -197
s-70 -197 -148 -197s-147 65 -147 197s69 197 147 197zM421 223c39 0 69 42 69 127s-30 127 -69 127c-37 0 -68 -42 -68 -127s31 -127 68 -127z" />
    <glyph glyph-name="uni2460" unicode="&#x2460;" horiz-adv-x="843" 
d="M784 350c3 -208 -165 -368 -363 -364c-198 -4 -367 156 -363 364c-4 208 165 368 363 364c198 4 366 -156 363 -364zM712 350c3 167 -132 298 -291 295c-159 3 -293 -128 -290 -295c-3 -167 131 -298 290 -295c159 -3 294 128 291 295zM415 539h57v-378h-75v276
c-19 -13 -43 -19 -71 -19v69c43 0 80 17 89 52z" />
    <glyph glyph-name="uni2461" unicode="&#x2461;" horiz-adv-x="843" 
d="M784 350c3 -208 -165 -368 -363 -364c-198 -4 -367 156 -363 364c-4 208 165 368 363 364c198 4 366 -156 363 -364zM712 350c3 167 -132 298 -291 295c-159 3 -293 -128 -290 -295c-3 -167 131 -298 290 -295c159 -3 294 128 291 295zM481 315l-75 -87h141v-67h-243v49
l123 148c23 27 34 51 34 72c0 29 -21 47 -54 47c-36 0 -55 -18 -80 -50h-7v82c29 25 63 38 103 38c68 0 116 -37 116 -102c0 -40 -19 -83 -58 -130z" />
    <glyph glyph-name="uni2462" unicode="&#x2462;" horiz-adv-x="843" 
d="M784 350c3 -208 -165 -368 -363 -364c-198 -4 -367 156 -363 364c-4 208 165 368 363 364c198 4 366 -156 363 -364zM712 350c3 167 -132 298 -291 295c-159 3 -293 -128 -290 -295c-3 -167 131 -298 290 -295c159 -3 294 128 291 295zM550 266c0 -68 -51 -113 -134 -113
c-43 0 -79 11 -106 33v77h7c21 -33 54 -49 90 -49c44 0 71 24 71 60c0 37 -29 56 -77 56h-29v56h27c41 0 66 18 66 51c0 31 -22 49 -58 49c-29 0 -55 -11 -77 -32h-7v65c30 19 62 28 95 28c73 0 119 -39 119 -99c0 -39 -18 -68 -55 -84c44 -16 68 -50 68 -98z" />
    <glyph glyph-name="uni2463" unicode="&#x2463;" horiz-adv-x="843" 
d="M784 350c3 -208 -165 -368 -363 -364c-198 -4 -367 156 -363 364c-4 208 165 368 363 364c198 4 366 -156 363 -364zM712 350c3 167 -132 298 -291 295c-159 3 -293 -128 -290 -295c-3 -167 131 -298 290 -295c159 -3 294 128 291 295zM504 539v-236h41v-64h-41v-78h-76
v78h-161v55l165 245h72zM432 440l-90 -137h90v137z" />
    <glyph glyph-name="uni2464" unicode="&#x2464;" horiz-adv-x="843" 
d="M784 350c3 -208 -165 -368 -363 -364c-198 -4 -367 156 -363 364c-4 208 165 368 363 364c198 4 366 -156 363 -364zM712 350c3 167 -132 298 -291 295c-159 3 -293 -128 -290 -295c-3 -167 131 -298 290 -295c159 -3 294 128 291 295zM550 284c0 -83 -55 -131 -135 -131
c-42 0 -79 10 -111 31v83h7c26 -31 56 -47 90 -47c40 0 72 19 72 66c0 45 -31 63 -68 63c-21 0 -42 -7 -63 -21l-29 9l29 202h187v-64h-135l-12 -78c17 7 34 10 51 10c67 0 117 -46 117 -123z" />
    <glyph glyph-name="uni2465" unicode="&#x2465;" horiz-adv-x="843" 
d="M784 350c3 -208 -165 -368 -363 -364c-198 -4 -367 156 -363 364c-4 208 165 368 363 364c198 4 366 -156 363 -364zM712 350c3 167 -132 298 -291 295c-159 3 -293 -128 -290 -295c-3 -167 131 -298 290 -295c159 -3 294 128 291 295zM554 286c0 -84 -59 -133 -130 -133
c-41 0 -75 14 -104 41s-43 73 -43 138c0 143 66 215 162 215c31 0 61 -8 89 -23v-75h-7c-21 21 -46 31 -75 31c-47 0 -80 -31 -91 -103c21 19 48 28 81 28c65 0 118 -42 118 -119zM477 286c0 41 -27 66 -60 66s-59 -25 -59 -66h-3h3c0 -41 26 -66 59 -66s60 25 60 66z" />
    <glyph glyph-name="uni2466" unicode="&#x2466;" horiz-adv-x="843" 
d="M784 350c3 -208 -165 -368 -363 -364c-198 -4 -367 156 -363 364c-4 208 165 368 363 364c198 4 366 -156 363 -364zM712 350c3 167 -132 298 -291 295c-159 3 -293 -128 -290 -295c-3 -167 131 -298 290 -295c159 -3 294 128 291 295zM316 472v67h240v-44l-149 -334h-81
l140 311h-150z" />
    <glyph glyph-name="uni2467" unicode="&#x2467;" horiz-adv-x="843" 
d="M784 350c3 -208 -165 -368 -363 -364c-198 -4 -367 156 -363 364c-4 208 165 368 363 364c198 4 366 -156 363 -364zM712 350c3 167 -132 298 -291 295c-159 3 -293 -128 -290 -295c-3 -167 131 -298 290 -295c159 -3 294 128 291 295zM565 266c0 -71 -60 -113 -144 -113
s-143 42 -143 113c0 47 26 82 71 99c-33 17 -53 47 -53 83c0 60 52 99 125 99c72 0 126 -39 126 -99c0 -36 -19 -66 -54 -83c45 -17 72 -52 72 -99zM368 438c0 -32 24 -50 53 -50c31 0 54 18 54 50c0 31 -23 50 -54 50c-29 0 -53 -19 -53 -50zM493 273c0 39 -32 62 -72 62
s-71 -23 -71 -62c0 -37 31 -61 71 -61s72 24 72 61z" />
    <glyph glyph-name="uni2468" unicode="&#x2468;" horiz-adv-x="843" 
d="M784 350c3 -208 -165 -368 -363 -364c-198 -4 -367 156 -363 364c-4 208 165 368 363 364c198 4 366 -156 363 -364zM712 350c3 167 -132 298 -291 295c-159 3 -293 -128 -290 -295c-3 -167 131 -298 290 -295c159 -3 294 128 291 295zM566 368
c0 -143 -66 -215 -162 -215c-32 0 -62 8 -90 23v75h7c19 -19 47 -31 76 -31c51 0 81 35 91 105c-21 -19 -48 -28 -82 -28c-65 0 -117 41 -117 118c0 84 58 132 130 132c41 0 75 -14 104 -41s43 -73 43 -138zM485 415h3h-3c0 40 -26 65 -59 65s-60 -25 -60 -65
c0 -41 27 -65 60 -65s59 24 59 65z" />
    <glyph glyph-name="zero.osf" horiz-adv-x="611" 
d="M565 251c0 -162 -115 -265 -259 -265c-145 0 -260 103 -260 265s115 265 260 265c144 0 259 -103 259 -265zM454 251c0 103 -64 164 -148 164c-85 0 -149 -61 -149 -164s64 -164 149 -164c84 0 148 61 148 164z" />
    <glyph glyph-name="one.osf" horiz-adv-x="376" 
d="M197 502h89v-502h-109v334c-33 -27 -81 -41 -134 -41v104c80 0 145 40 154 105z" />
    <glyph glyph-name="two.osf" horiz-adv-x="516" 
d="M219 96h245v-96h-425v67l240 197c41 34 62 65 62 92c0 40 -38 59 -98 59c-63 0 -120 -27 -157 -59h-14v113c45 28 115 47 182 47c117 0 197 -52 197 -147c0 -58 -32 -112 -95 -161z" />
    <glyph glyph-name="three.osf" horiz-adv-x="501" 
d="M451 -4c0 -122 -90 -204 -240 -204c-75 0 -136 20 -184 61v132h16c39 -61 88 -93 160 -93c83 0 136 45 136 114c0 73 -56 115 -155 115h-43v97h41c88 0 132 34 132 98c0 61 -40 100 -113 100c-53 0 -98 -21 -134 -64h-14v114c45 33 97 50 157 50c66 0 118 -17 157 -52
c39 -34 59 -79 59 -134c0 -68 -30 -121 -93 -150c76 -33 118 -99 118 -184z" />
    <glyph glyph-name="four.osf" horiz-adv-x="555" 
d="M526 99v-99h-84v-194h-111v194h-308v80l315 422h104v-403h84zM147 99h185v244z" />
    <glyph glyph-name="five.osf" horiz-adv-x="540" 
d="M488 29c0 -148 -93 -237 -242 -237c-73 0 -139 21 -196 63v125h13c51 -56 108 -84 170 -84c83 0 140 45 140 134c0 87 -56 133 -133 133c-49 0 -94 -20 -123 -49l-51 14l57 374h330v-101h-248l-26 -162c29 13 61 20 96 20c123 0 213 -87 213 -230z" />
    <glyph glyph-name="six.osf" horiz-adv-x="604" 
d="M552 228c0 -151 -97 -242 -229 -242c-136 0 -263 94 -263 332c0 267 121 396 284 396c54 0 105 -14 154 -41v-114h-14c-35 34 -78 51 -131 51c-103 0 -163 -66 -179 -221c41 49 101 75 165 75c111 0 213 -82 213 -236zM437 229c0 92 -56 140 -125 140
c-68 0 -124 -48 -124 -140s56 -139 125 -139c68 0 124 47 124 139z" />
    <glyph glyph-name="seven.osf" horiz-adv-x="500" 
d="M34 502h436v-63l-296 -633h-121l279 593h-298v103z" />
    <glyph glyph-name="eight.osf" horiz-adv-x="592" 
d="M549 193c0 -120 -94 -207 -253 -207s-252 87 -252 207c0 83 42 150 122 182c-59 32 -89 88 -89 152c0 105 85 187 219 187c135 0 219 -82 219 -187c0 -64 -30 -120 -89 -152c80 -32 123 -99 123 -182zM189 514c0 -60 44 -101 107 -101c64 0 107 41 107 101
s-43 101 -107 101c-63 0 -107 -41 -107 -101zM437 203c0 71 -60 118 -141 118c-80 0 -140 -47 -140 -118s60 -118 140 -118c81 0 141 47 141 118z" />
    <glyph glyph-name="nine.osf" horiz-adv-x="604" 
d="M544 186c0 -265 -119 -394 -284 -394c-54 0 -105 14 -154 41v114h14c36 -34 80 -51 131 -51c104 0 165 67 180 224c-41 -49 -102 -75 -166 -75c-111 0 -213 80 -213 232c0 149 99 239 229 239c136 0 263 -92 263 -330zM416 276c0 89 -56 136 -124 136
c-69 0 -125 -47 -125 -136s57 -136 125 -136s124 47 124 136z" />
    <glyph glyph-name="zero.subs" horiz-adv-x="391" 
d="M195 220c83 0 155 -67 155 -197s-72 -197 -155 -197s-154 67 -154 197s71 197 154 197zM195 -95c39 0 66 43 66 118s-27 118 -66 118c-37 0 -66 -43 -66 -118s29 -118 66 -118z" />
    <glyph glyph-name="one.subs" horiz-adv-x="256" 
d="M122 212h67v-378h-85v266c-19 -12 -43 -18 -73 -18v78c44 0 83 19 91 52z" />
    <glyph glyph-name="two.subs" horiz-adv-x="318" 
d="M148 -90h135v-76h-256v53l130 146c20 22 30 43 30 64c0 28 -19 44 -51 44c-37 0 -61 -21 -84 -50h-8v93c35 24 71 36 110 36c69 0 121 -39 121 -108c0 -43 -19 -83 -59 -127z" />
    <glyph glyph-name="three.subs" horiz-adv-x="308" 
d="M276 -61c0 -68 -51 -113 -142 -113c-45 0 -82 10 -111 31v86h9c21 -31 55 -46 94 -46c44 0 66 21 66 50c0 32 -28 49 -77 49h-28v67h26c44 0 66 15 66 44c0 28 -18 42 -55 42c-31 0 -57 -10 -78 -29h-9v74c29 17 62 26 98 26c80 0 127 -41 127 -101
c0 -39 -18 -67 -57 -82c47 -17 71 -51 71 -98z" />
    <glyph glyph-name="four.subs" horiz-adv-x="342" 
d="M315 -19v-72h-43v-75h-86v75h-165v61l170 242h81v-231h43zM104 -19h85v123z" />
    <glyph glyph-name="five.subs" horiz-adv-x="334" 
d="M296 -43c0 -81 -56 -131 -143 -131c-43 0 -82 11 -116 32v87h8c27 -29 58 -43 94 -43c39 0 69 17 69 57c0 39 -29 57 -66 57c-22 0 -43 -6 -62 -18l-35 11l30 203h199v-73h-138l-11 -65c15 5 31 8 48 8c72 0 123 -48 123 -125z" />
    <glyph glyph-name="six.subs" horiz-adv-x="369" 
d="M332 -40c0 -84 -59 -134 -136 -134c-43 0 -79 14 -110 42c-30 27 -45 74 -45 139c0 140 68 213 167 213c32 0 64 -7 95 -22v-82h-8c-23 19 -49 28 -78 28c-51 0 -82 -31 -92 -92c21 21 49 32 84 32c67 0 123 -43 123 -124zM245 -39c0 36 -26 58 -57 58s-57 -22 -57 -58
c0 -37 26 -59 57 -59s57 22 57 59z" />
    <glyph glyph-name="seven.subs" horiz-adv-x="316" 
d="M29 212h256v-50l-156 -328h-92l145 302h-153v76z" />
    <glyph glyph-name="eight.subs" horiz-adv-x="364" 
d="M332 -59c0 -71 -61 -115 -150 -115s-150 44 -150 115c0 45 24 78 68 97c-33 17 -50 44 -50 80c0 61 53 102 132 102s132 -41 132 -102c0 -36 -17 -63 -50 -80c45 -19 68 -51 68 -97zM132 107c0 -28 22 -44 50 -44s49 16 49 44s-21 45 -49 45s-50 -17 -50 -45zM250 -52
c0 32 -31 54 -68 54c-39 0 -67 -22 -67 -54s28 -54 67 -54c37 0 68 22 68 54z" />
    <glyph glyph-name="nine.subs" horiz-adv-x="369" 
d="M328 39c0 -140 -68 -213 -168 -213c-32 0 -63 7 -94 22v82h8c23 -19 49 -28 78 -28c49 0 81 27 92 95c-19 -21 -47 -32 -84 -32c-68 0 -123 41 -123 122c0 84 59 133 136 133c43 0 79 -14 109 -42c31 -27 46 -74 46 -139zM237 86c0 37 -25 58 -56 58
c-32 0 -58 -21 -58 -58c0 -36 26 -56 58 -56c31 0 56 20 56 56z" />
    <glyph glyph-name="zero.tf" horiz-adv-x="614" 
d="M307 714c141 0 252 -128 252 -364s-111 -364 -252 -364s-252 128 -252 364s111 364 252 364zM307 92c84 0 137 90 137 258s-53 258 -137 258s-137 -90 -137 -258s53 -258 137 -258z" />
    <glyph glyph-name="one.tf" horiz-adv-x="614" 
d="M377 99h187v-99h-502v99h204v440c-43 -31 -104 -48 -165 -48v104c83 0 178 40 186 105h90v-601z" />
    <glyph glyph-name="two.tf" horiz-adv-x="614" 
d="M226 101h292v-101h-456v65l254 293c41 48 68 96 68 149c0 65 -43 101 -108 101c-69 0 -124 -40 -164 -95h-14v127c47 47 116 74 192 74c61 0 111 -17 150 -50s59 -81 59 -143c0 -83 -37 -149 -104 -224z" />
    <glyph glyph-name="three.tf" horiz-adv-x="614" 
d="M522 191c0 -123 -96 -205 -253 -205c-79 0 -143 20 -193 61v133h16c40 -61 94 -94 170 -94c88 0 148 44 148 115c0 73 -63 117 -168 117h-45v96h43c93 0 143 34 143 99c0 61 -45 101 -122 101c-58 0 -106 -22 -143 -65h-14v115c47 33 102 50 165 50
c138 0 226 -76 226 -187c0 -68 -33 -122 -98 -151c80 -33 125 -100 125 -185z" />
    <glyph glyph-name="four.tf" horiz-adv-x="614" 
d="M561 250v-100h-86v-150h-112v150h-315v80l323 470h104v-450h86zM170 250h195v285z" />
    <glyph glyph-name="five.tf" horiz-adv-x="614" 
d="M531 224c0 -149 -95 -238 -250 -238c-76 0 -143 21 -201 63v125h13c52 -56 111 -84 176 -84c87 0 147 44 147 135c0 88 -59 135 -139 135c-51 0 -97 -19 -129 -50l-51 14l59 376h339v-101h-257l-28 -164c31 14 65 21 102 21c126 0 219 -87 219 -232z" />
    <glyph glyph-name="six.tf" horiz-adv-x="614" 
d="M559 228c0 -151 -99 -242 -229 -242c-137 0 -264 94 -264 332c0 268 120 396 285 396c54 0 106 -14 155 -41v-114h-14c-36 34 -80 51 -132 51c-104 0 -165 -66 -181 -221c43 49 104 76 167 76c111 0 213 -81 213 -237zM445 229c0 92 -57 141 -126 141
c-68 0 -125 -49 -125 -141s57 -139 126 -139s125 47 125 139z" />
    <glyph glyph-name="seven.tf" horiz-adv-x="614" 
d="M82 700h457v-63l-314 -637h-121l296 597h-318v103z" />
    <glyph glyph-name="eight.tf" horiz-adv-x="614" 
d="M558 193c0 -120 -93 -207 -251 -207s-251 87 -251 207c0 83 43 150 120 183c-57 31 -88 87 -88 151c0 105 85 187 219 187s219 -82 219 -187c0 -64 -31 -120 -88 -151c77 -33 120 -100 120 -183zM199 514c0 -60 44 -101 108 -101s108 41 108 101s-44 101 -108 101
s-108 -41 -108 -101zM447 203c0 71 -60 118 -140 118s-140 -47 -140 -118s60 -118 140 -118s140 47 140 118z" />
    <glyph glyph-name="nine.tf" horiz-adv-x="614" 
d="M548 382c0 -268 -120 -396 -285 -396c-54 0 -106 14 -155 41v114h14c36 -34 80 -51 132 -51c105 0 166 68 181 225c-41 -49 -103 -76 -167 -76c-111 0 -213 81 -213 235c0 148 99 240 229 240c137 0 264 -94 264 -332zM420 473c0 89 -57 137 -126 137
c-68 0 -125 -48 -125 -137c0 -91 58 -139 126 -139s125 48 125 139z" />
    <glyph glyph-name="zero.tosf" horiz-adv-x="614" 
d="M307 516c144 0 259 -103 259 -265s-115 -265 -259 -265s-259 103 -259 265s115 265 259 265zM307 87c84 0 148 61 148 164s-64 164 -148 164s-148 -61 -148 -164s64 -164 148 -164z" />
    <glyph glyph-name="one.tosf" horiz-adv-x="614" 
d="M391 99h187v-99h-502v99h205v243c-41 -32 -103 -49 -166 -49v104c83 0 179 40 187 105h89v-403z" />
    <glyph glyph-name="two.tosf" horiz-adv-x="614" 
d="M256 96h261v-96h-444v67l253 196c41 32 67 62 67 93c0 40 -41 59 -105 59c-67 0 -125 -27 -166 -59h-15v113c48 28 120 47 191 47c121 0 205 -54 205 -147c0 -59 -33 -112 -100 -161z" />
    <glyph glyph-name="three.tosf" horiz-adv-x="614" 
d="M518 -4c0 -121 -96 -204 -253 -204c-79 0 -144 20 -194 61v132h16c40 -61 94 -93 170 -93c89 0 149 43 149 114c0 72 -63 115 -167 115h-47v96h43c95 0 144 34 144 99c0 61 -44 100 -123 100c-57 0 -104 -21 -143 -64h-14v114c47 33 102 50 166 50
c138 0 226 -76 226 -186c0 -68 -33 -121 -97 -150c80 -33 124 -100 124 -184z" />
    <glyph glyph-name="four.tosf" horiz-adv-x="614" 
d="M561 99v-99h-86v-194h-111v194h-317v80l324 422h104v-403h86zM170 99h196v257z" />
    <glyph glyph-name="five.tosf" horiz-adv-x="614" 
d="M535 29c0 -148 -95 -237 -250 -237c-77 0 -144 21 -202 63v125h13c53 -56 112 -84 176 -84c87 0 149 45 149 134c0 85 -60 133 -140 133c-51 0 -99 -20 -130 -49l-51 14l59 374h340v-101h-258l-28 -163c33 14 67 21 102 21c126 0 220 -87 220 -230z" />
    <glyph glyph-name="six.tosf" horiz-adv-x="614" 
d="M559 228c0 -151 -99 -242 -229 -242c-137 0 -264 94 -264 332c0 268 120 396 285 396c54 0 106 -14 155 -41v-114h-14c-36 34 -80 51 -132 51c-104 0 -165 -66 -181 -221c43 49 104 76 167 76c111 0 213 -81 213 -237zM445 229c0 92 -57 141 -126 141
c-68 0 -125 -49 -125 -141s57 -139 126 -139s125 47 125 139z" />
    <glyph glyph-name="seven.tosf" horiz-adv-x="614" 
d="M79 502h459v-63l-315 -633h-121l297 593h-320v103z" />
    <glyph glyph-name="eight.tosf" horiz-adv-x="614" 
d="M558 193c0 -120 -93 -207 -251 -207s-251 87 -251 207c0 83 43 150 120 183c-57 31 -88 87 -88 151c0 105 85 187 219 187s219 -82 219 -187c0 -64 -31 -120 -88 -151c77 -33 120 -100 120 -183zM199 514c0 -60 44 -101 108 -101s108 41 108 101s-44 101 -108 101
s-108 -41 -108 -101zM447 203c0 71 -60 118 -140 118s-140 -47 -140 -118s60 -118 140 -118s140 47 140 118z" />
    <glyph glyph-name="nine.tosf" horiz-adv-x="614" 
d="M548 186c0 -265 -120 -394 -285 -394c-54 0 -106 14 -155 41v114h14c36 -34 80 -51 132 -51c105 0 166 67 181 224c-41 -49 -103 -75 -167 -75c-111 0 -213 80 -213 233c0 149 99 239 229 239c138 0 264 -92 264 -331zM420 277c0 89 -57 136 -126 136s-125 -47 -125 -136
c0 -91 57 -137 126 -137s125 46 125 137z" />
    <glyph glyph-name="fraction" unicode="&#x2044;" horiz-adv-x="261" 
d="M331 700h107l-508 -700h-107z" />
    <glyph glyph-name="onehalf" unicode="&#xbd;" horiz-adv-x="835" 
d="M122 700h67v-378h-85v266c-19 -12 -43 -18 -73 -18v78c44 0 83 19 91 52zM587 700h107l-508 -700h-107zM664 76h136v-76h-256v53l130 146c20 22 30 43 30 64c0 28 -19 44 -51 44c-37 0 -61 -21 -84 -50h-8v93c35 24 71 36 110 36c69 0 121 -39 121 -108
c0 -43 -19 -83 -59 -127z" />
    <glyph glyph-name="onequarter" unicode="&#xbc;" horiz-adv-x="809" 
d="M122 700h67v-378h-85v266c-19 -12 -43 -18 -73 -18v78c44 0 83 19 91 52zM587 700h107l-508 -700h-107zM782 147v-72h-43v-75h-86v75h-165v61l170 242h81v-231h43zM570 147h86v123z" />
    <glyph glyph-name="threequarters" unicode="&#xbe;" horiz-adv-x="861" 
d="M276 427c0 -68 -51 -113 -142 -113c-45 0 -82 10 -111 31v86h9c21 -31 55 -46 94 -46c44 0 66 21 66 50c0 32 -28 49 -77 49h-28v67h26c44 0 66 15 66 44c0 28 -18 42 -55 42c-31 0 -57 -10 -78 -29h-9v74c29 17 62 26 98 26c80 0 127 -41 127 -101
c0 -39 -18 -67 -57 -82c47 -17 71 -51 71 -98zM639 700h107l-508 -700h-107zM834 147v-72h-43v-75h-86v75h-165v61l170 242h81v-231h43zM622 147h86v123z" />
    <glyph glyph-name="oneeighth" unicode="&#x215b;" horiz-adv-x="862" 
d="M122 700h67v-378h-85v266c-19 -12 -43 -18 -73 -18v78c44 0 83 19 91 52zM587 700h107l-508 -700h-107zM829 107c0 -71 -61 -115 -150 -115s-150 44 -150 115c0 46 22 78 67 97c-32 17 -49 45 -49 80c0 61 53 102 132 102s132 -41 132 -102c0 -35 -17 -63 -49 -80
c45 -19 67 -51 67 -97zM629 273c0 -28 22 -44 50 -44s49 16 49 44s-21 45 -49 45s-50 -17 -50 -45zM747 114c0 32 -31 54 -68 54c-39 0 -67 -22 -67 -54s28 -54 67 -54c37 0 68 22 68 54z" />
    <glyph glyph-name="threeeighths" unicode="&#x215c;" horiz-adv-x="914" 
d="M276 427c0 -68 -51 -113 -142 -113c-45 0 -82 10 -111 31v86h9c21 -31 55 -46 94 -46c44 0 66 21 66 50c0 32 -28 49 -77 49h-28v67h26c44 0 66 15 66 44c0 28 -18 42 -55 42c-31 0 -57 -10 -78 -29h-9v74c29 17 62 26 98 26c80 0 127 -41 127 -101
c0 -39 -18 -67 -57 -82c47 -17 71 -51 71 -98zM639 700h107l-508 -700h-107zM881 107c0 -71 -61 -115 -150 -115s-150 44 -150 115c0 46 22 78 67 97c-32 17 -49 45 -49 80c0 61 53 102 132 102s132 -41 132 -102c0 -35 -17 -63 -49 -80c45 -19 67 -51 67 -97zM681 273
c0 -28 22 -44 50 -44s49 16 49 44s-21 45 -49 45s-50 -17 -50 -45zM799 114c0 32 -31 54 -68 54c-39 0 -67 -22 -67 -54s28 -54 67 -54c37 0 68 22 68 54z" />
    <glyph glyph-name="fiveeighths" unicode="&#x215d;" horiz-adv-x="940" 
d="M296 445c0 -81 -56 -131 -143 -131c-43 0 -82 11 -116 32v87h8c27 -29 58 -43 94 -43c39 0 69 17 69 57c0 39 -29 57 -66 57c-22 0 -43 -6 -62 -18l-35 11l30 203h199v-73h-138l-11 -65c15 5 31 8 48 8c72 0 123 -48 123 -125zM665 700h107l-508 -700h-107zM907 107
c0 -71 -61 -115 -150 -115s-150 44 -150 115c0 46 22 78 67 97c-32 17 -49 45 -49 80c0 61 53 102 132 102s132 -41 132 -102c0 -35 -17 -63 -49 -80c45 -19 67 -51 67 -97zM707 273c0 -28 22 -44 50 -44s49 16 49 44s-21 45 -49 45s-50 -17 -50 -45zM825 114
c0 32 -31 54 -68 54c-39 0 -67 -22 -67 -54s28 -54 67 -54c37 0 68 22 68 54z" />
    <glyph glyph-name="seveneighths" unicode="&#x215e;" horiz-adv-x="863" 
d="M29 700h256v-50l-156 -328h-92l145 302h-153v76zM589 700h107l-508 -700h-107zM831 107c0 -71 -61 -115 -150 -115s-150 44 -150 115c0 46 22 78 67 97c-32 17 -49 45 -49 80c0 61 53 102 132 102s132 -41 132 -102c0 -35 -17 -63 -49 -80c45 -19 67 -51 67 -97zM631 273
c0 -28 22 -44 50 -44s49 16 49 44s-21 45 -49 45s-50 -17 -50 -45zM749 114c0 32 -31 54 -68 54c-39 0 -67 -22 -67 -54s28 -54 67 -54c37 0 68 22 68 54z" />
    <glyph glyph-name="zero.dnom" horiz-adv-x="391" 
d="M195 386c83 0 155 -67 155 -197s-72 -197 -155 -197s-154 67 -154 197s71 197 154 197zM195 71c39 0 66 43 66 118s-27 118 -66 118c-37 0 -66 -43 -66 -118s29 -118 66 -118z" />
    <glyph glyph-name="one.dnom" horiz-adv-x="256" 
d="M122 378h67v-378h-85v266c-19 -12 -44 -18 -73 -18v78c44 0 83 19 91 52z" />
    <glyph glyph-name="two.dnom" horiz-adv-x="318" 
d="M147 76h136v-76h-256v53l130 146c20 22 30 43 30 64c0 28 -19 44 -51 44c-37 0 -61 -21 -84 -50h-8v93c35 24 71 36 110 36c69 0 121 -39 121 -108c0 -43 -19 -83 -59 -127z" />
    <glyph glyph-name="three.dnom" horiz-adv-x="308" 
d="M276 105c0 -68 -51 -113 -142 -113c-45 0 -82 10 -111 31v86h9c21 -31 55 -46 94 -46c44 0 66 21 66 50c0 32 -28 49 -77 49h-28v67h26c44 0 66 15 66 44c0 28 -18 42 -55 42c-31 0 -57 -10 -78 -29h-9v74c29 17 62 26 98 26c80 0 127 -41 127 -101
c0 -40 -19 -68 -58 -83c47 -16 72 -50 72 -97z" />
    <glyph glyph-name="four.dnom" horiz-adv-x="342" 
d="M315 147v-72h-43v-75h-86v75h-165v61l170 242h81v-231h43zM103 147h86v123z" />
    <glyph glyph-name="five.dnom" horiz-adv-x="334" 
d="M296 123c0 -81 -56 -131 -143 -131c-43 0 -82 11 -116 32v87h8c27 -29 58 -43 94 -43c39 0 69 17 69 57c0 39 -29 57 -66 57c-22 0 -43 -6 -62 -18l-35 11l30 203h199v-73h-138l-11 -64c17 5 33 7 48 7c72 0 123 -48 123 -125z" />
    <glyph glyph-name="six.dnom" horiz-adv-x="369" 
d="M332 126c0 -84 -59 -134 -136 -134c-43 0 -79 14 -110 41c-30 28 -45 75 -45 140c0 140 68 213 167 213c32 0 64 -7 95 -22v-82h-8c-23 19 -49 28 -78 28c-51 0 -82 -31 -92 -93c20 22 48 33 84 33c67 0 123 -43 123 -124zM245 127c0 36 -26 58 -57 58s-57 -22 -57 -58
c0 -37 26 -59 57 -59s57 22 57 59z" />
    <glyph glyph-name="seven.dnom" horiz-adv-x="316" 
d="M29 378h256v-50l-156 -328h-92l145 302h-153v76z" />
    <glyph glyph-name="eight.dnom" horiz-adv-x="364" 
d="M332 107c0 -71 -61 -115 -150 -115s-150 44 -150 115c0 46 22 78 67 97c-32 17 -49 45 -49 80c0 61 53 102 132 102s132 -41 132 -102c0 -35 -17 -63 -49 -80c45 -19 67 -51 67 -97zM132 273c0 -28 22 -44 50 -44s49 16 49 44s-21 45 -49 45s-50 -17 -50 -45zM250 114
c0 32 -31 54 -68 54c-39 0 -67 -22 -67 -54s28 -54 67 -54c37 0 68 22 68 54z" />
    <glyph glyph-name="nine.dnom" horiz-adv-x="369" 
d="M328 205c0 -140 -68 -213 -168 -213c-32 0 -63 7 -94 22v82h8c23 -19 49 -28 78 -28c51 0 82 32 92 95c-21 -21 -49 -32 -84 -32c-68 0 -123 41 -123 122c0 84 59 133 136 133c43 0 79 -14 109 -42c31 -27 46 -74 46 -139zM237 252c0 37 -25 58 -56 58
c-32 0 -58 -21 -58 -58c0 -36 26 -56 58 -56c31 0 56 20 56 56z" />
    <glyph glyph-name="zero.numr" horiz-adv-x="391" 
d="M195 708c83 0 155 -67 155 -197s-72 -197 -155 -197s-154 67 -154 197s71 197 154 197zM195 393c39 0 66 43 66 118s-27 118 -66 118c-37 0 -66 -43 -66 -118s29 -118 66 -118z" />
    <glyph glyph-name="one.numr" horiz-adv-x="256" 
d="M122 700h67v-378h-85v266c-19 -12 -43 -18 -73 -18v78c44 0 83 19 91 52z" />
    <glyph glyph-name="two.numr" horiz-adv-x="318" 
d="M147 398h136v-76h-256v53l130 146c20 22 30 43 30 64c0 28 -19 44 -51 44c-37 0 -61 -21 -84 -50h-8v93c35 24 71 36 110 36c69 0 121 -39 121 -108c0 -43 -19 -83 -59 -127z" />
    <glyph glyph-name="three.numr" horiz-adv-x="308" 
d="M276 427c0 -68 -51 -113 -142 -113c-45 0 -82 10 -111 31v86h9c21 -31 55 -46 94 -46c44 0 66 21 66 50c0 32 -28 49 -77 49h-28v67h26c44 0 66 15 66 44c0 28 -18 42 -55 42c-31 0 -57 -10 -78 -29h-9v74c29 17 62 26 98 26c80 0 127 -41 127 -101
c0 -39 -18 -67 -57 -82c47 -17 71 -51 71 -98z" />
    <glyph glyph-name="four.numr" horiz-adv-x="342" 
d="M315 469v-72h-43v-75h-86v75h-165v61l170 242h81v-231h43zM103 469h86v123z" />
    <glyph glyph-name="five.numr" horiz-adv-x="334" 
d="M296 445c0 -81 -56 -131 -143 -131c-43 0 -82 11 -116 32v87h8c27 -29 58 -43 94 -43c39 0 69 17 69 57c0 39 -29 57 -66 57c-22 0 -43 -6 -62 -18l-35 11l30 203h199v-73h-138l-11 -65c15 5 31 8 48 8c72 0 123 -48 123 -125z" />
    <glyph glyph-name="six.numr" horiz-adv-x="369" 
d="M332 448c0 -84 -59 -134 -136 -134c-43 0 -79 14 -110 41c-30 28 -45 75 -45 140c0 140 68 213 167 213c32 0 64 -7 95 -22v-82h-8c-23 19 -49 28 -78 28c-51 0 -82 -31 -92 -93c20 22 48 33 84 33c67 0 123 -43 123 -124zM245 449c0 36 -26 58 -57 58s-57 -22 -57 -58
c0 -37 26 -59 57 -59s57 22 57 59z" />
    <glyph glyph-name="seven.numr" horiz-adv-x="316" 
d="M29 700h256v-50l-156 -328h-92l145 302h-153v76z" />
    <glyph glyph-name="eight.numr" horiz-adv-x="364" 
d="M332 429c0 -71 -61 -115 -150 -115s-150 44 -150 115c0 46 22 78 67 97c-32 17 -49 45 -49 80c0 61 53 102 132 102s132 -41 132 -102c0 -35 -17 -63 -49 -80c45 -19 67 -51 67 -97zM132 595c0 -28 22 -44 50 -44s49 16 49 44s-21 45 -49 45s-50 -17 -50 -45zM250 436
c0 32 -31 54 -68 54c-39 0 -67 -22 -67 -54s28 -54 67 -54c37 0 68 22 68 54z" />
    <glyph glyph-name="nine.numr" horiz-adv-x="369" 
d="M328 527c0 -140 -68 -213 -168 -213c-32 0 -63 7 -94 22v82h8c23 -19 49 -28 78 -28c51 0 82 32 92 95c-21 -21 -49 -32 -84 -32c-68 0 -123 41 -123 122c0 84 59 133 136 133c43 0 79 -14 109 -42c31 -27 46 -74 46 -139zM237 574c0 37 -25 58 -56 58
c-32 0 -58 -21 -58 -58c0 -36 26 -56 58 -56c31 0 56 20 56 56z" />
    <glyph glyph-name="uni2080" unicode="&#x2080;" horiz-adv-x="391" 
d="M195 220c83 0 155 -67 155 -197s-72 -197 -155 -197s-154 67 -154 197s71 197 154 197zM195 -95c39 0 66 43 66 118s-27 118 -66 118c-37 0 -66 -43 -66 -118s29 -118 66 -118z" />
    <glyph glyph-name="uni2081" unicode="&#x2081;" horiz-adv-x="256" 
d="M122 212h67v-378h-85v266c-19 -12 -43 -18 -73 -18v78c44 0 83 19 91 52z" />
    <glyph glyph-name="uni2082" unicode="&#x2082;" horiz-adv-x="318" 
d="M148 -90h135v-76h-256v53l130 146c20 22 30 43 30 64c0 28 -19 44 -51 44c-37 0 -61 -21 -84 -50h-8v93c35 24 71 36 110 36c69 0 121 -39 121 -108c0 -43 -19 -83 -59 -127z" />
    <glyph glyph-name="uni2083" unicode="&#x2083;" horiz-adv-x="308" 
d="M276 -61c0 -68 -51 -113 -142 -113c-45 0 -82 10 -111 31v86h9c21 -31 55 -46 94 -46c44 0 66 21 66 50c0 32 -28 49 -77 49h-28v67h26c44 0 66 15 66 44c0 28 -18 42 -55 42c-31 0 -57 -10 -78 -29h-9v74c29 17 62 26 98 26c80 0 127 -41 127 -101
c0 -39 -18 -67 -57 -82c47 -17 71 -51 71 -98z" />
    <glyph glyph-name="uni2084" unicode="&#x2084;" horiz-adv-x="342" 
d="M315 -19v-72h-43v-75h-86v75h-165v61l170 242h81v-231h43zM104 -19h85v123z" />
    <glyph glyph-name="uni2085" unicode="&#x2085;" horiz-adv-x="334" 
d="M296 -43c0 -81 -56 -131 -143 -131c-43 0 -82 11 -116 32v87h8c27 -29 58 -43 94 -43c39 0 69 17 69 57c0 39 -29 57 -66 57c-22 0 -43 -6 -62 -18l-35 11l30 203h199v-73h-138l-11 -65c15 5 31 8 48 8c72 0 123 -48 123 -125z" />
    <glyph glyph-name="uni2086" unicode="&#x2086;" horiz-adv-x="369" 
d="M332 -40c0 -84 -59 -134 -136 -134c-43 0 -79 14 -110 42c-30 27 -45 74 -45 139c0 140 68 213 167 213c32 0 64 -7 95 -22v-82h-8c-23 19 -49 28 -78 28c-51 0 -82 -31 -92 -92c21 21 49 32 84 32c67 0 123 -43 123 -124zM245 -39c0 36 -26 58 -57 58s-57 -22 -57 -58
c0 -37 26 -59 57 -59s57 22 57 59z" />
    <glyph glyph-name="uni2087" unicode="&#x2087;" horiz-adv-x="316" 
d="M29 212h256v-50l-156 -328h-92l145 302h-153v76z" />
    <glyph glyph-name="uni2088" unicode="&#x2088;" horiz-adv-x="364" 
d="M332 -59c0 -71 -61 -115 -150 -115s-150 44 -150 115c0 45 24 78 68 97c-33 17 -50 44 -50 80c0 61 53 102 132 102s132 -41 132 -102c0 -36 -17 -63 -50 -80c45 -19 68 -51 68 -97zM132 107c0 -28 22 -44 50 -44s49 16 49 44s-21 45 -49 45s-50 -17 -50 -45zM250 -52
c0 32 -31 54 -68 54c-39 0 -67 -22 -67 -54s28 -54 67 -54c37 0 68 22 68 54z" />
    <glyph glyph-name="uni2089" unicode="&#x2089;" horiz-adv-x="369" 
d="M328 39c0 -140 -68 -213 -168 -213c-32 0 -63 7 -94 22v82h8c23 -19 49 -28 78 -28c49 0 81 27 92 95c-19 -21 -47 -32 -84 -32c-68 0 -123 41 -123 122c0 84 59 133 136 133c43 0 79 -14 109 -42c31 -27 46 -74 46 -139zM237 86c0 37 -25 58 -56 58
c-32 0 -58 -21 -58 -58c0 -36 26 -56 58 -56c31 0 56 20 56 56z" />
    <glyph glyph-name="uni2070" unicode="&#x2070;" horiz-adv-x="391" 
d="M195 794c83 0 155 -67 155 -197s-72 -197 -155 -197s-154 67 -154 197s71 197 154 197zM195 479c39 0 66 43 66 118s-27 118 -66 118c-37 0 -66 -43 -66 -118s29 -118 66 -118z" />
    <glyph glyph-name="uni00B9" unicode="&#xb9;" horiz-adv-x="256" 
d="M122 786h67v-378h-85v266c-19 -12 -43 -18 -73 -18v78c44 0 83 19 91 52z" />
    <glyph glyph-name="uni00B2" unicode="&#xb2;" horiz-adv-x="318" 
d="M147 484h136v-76h-256v53l130 146c20 22 30 43 30 64c0 28 -19 44 -51 44c-37 0 -61 -21 -84 -50h-8v93c35 24 71 36 110 36c69 0 121 -39 121 -108c0 -43 -19 -83 -59 -127z" />
    <glyph glyph-name="uni00B3" unicode="&#xb3;" horiz-adv-x="308" 
d="M276 513c0 -68 -51 -113 -142 -113c-45 0 -82 10 -111 31v86h9c21 -31 55 -46 94 -46c44 0 66 21 66 50c0 32 -28 49 -77 49h-28v67h26c44 0 66 15 66 44c0 28 -18 42 -55 42c-31 0 -57 -10 -78 -29h-9v74c29 17 62 26 98 26c80 0 127 -41 127 -101
c0 -39 -18 -67 -57 -82c47 -17 71 -51 71 -98z" />
    <glyph glyph-name="uni2074" unicode="&#x2074;" horiz-adv-x="342" 
d="M315 555v-72h-43v-75h-86v75h-165v61l170 242h81v-231h43zM103 555h86v123z" />
    <glyph glyph-name="uni2075" unicode="&#x2075;" horiz-adv-x="334" 
d="M296 531c0 -81 -56 -131 -143 -131c-43 0 -82 11 -116 32v87h8c27 -29 58 -43 94 -43c39 0 69 17 69 57c0 39 -29 57 -66 57c-22 0 -43 -6 -62 -18l-35 11l30 203h199v-73h-138l-11 -65c15 5 31 8 48 8c72 0 123 -48 123 -125z" />
    <glyph glyph-name="uni2076" unicode="&#x2076;" horiz-adv-x="369" 
d="M332 534c0 -84 -59 -134 -136 -134c-43 0 -79 14 -110 41c-30 28 -45 75 -45 140c0 140 68 213 167 213c32 0 64 -7 95 -22v-82h-8c-23 19 -49 28 -78 28c-51 0 -82 -31 -92 -93c20 22 48 33 84 33c67 0 123 -43 123 -124zM245 535c0 36 -26 58 -57 58s-57 -22 -57 -58
c0 -37 26 -59 57 -59s57 22 57 59z" />
    <glyph glyph-name="uni2077" unicode="&#x2077;" horiz-adv-x="316" 
d="M29 786h256v-50l-156 -328h-92l145 302h-153v76z" />
    <glyph glyph-name="uni2078" unicode="&#x2078;" horiz-adv-x="364" 
d="M332 515c0 -71 -61 -115 -150 -115s-150 44 -150 115c0 46 22 78 67 97c-32 17 -49 45 -49 80c0 61 53 102 132 102s132 -41 132 -102c0 -35 -17 -63 -49 -80c45 -19 67 -51 67 -97zM132 681c0 -28 22 -44 50 -44s49 16 49 44s-21 45 -49 45s-50 -17 -50 -45zM250 522
c0 32 -31 54 -68 54c-39 0 -67 -22 -67 -54s28 -54 67 -54c37 0 68 22 68 54z" />
    <glyph glyph-name="uni2079" unicode="&#x2079;" horiz-adv-x="369" 
d="M328 613c0 -140 -68 -213 -168 -213c-32 0 -63 7 -94 22v82h8c23 -19 49 -28 78 -28c51 0 82 32 92 95c-21 -21 -49 -32 -84 -32c-68 0 -123 41 -123 122c0 84 59 133 136 133c43 0 79 -14 109 -42c31 -27 46 -74 46 -139zM237 660c0 37 -25 58 -56 58
c-32 0 -58 -21 -58 -58c0 -36 26 -56 58 -56c31 0 56 20 56 56z" />
    <glyph glyph-name="zero.sups" horiz-adv-x="391" 
d="M195 794c83 0 155 -67 155 -197s-72 -197 -155 -197s-154 67 -154 197s71 197 154 197zM195 479c39 0 66 43 66 118s-27 118 -66 118c-37 0 -66 -43 -66 -118s29 -118 66 -118z" />
    <glyph glyph-name="one.sups" horiz-adv-x="256" 
d="M122 786h67v-378h-85v266c-19 -12 -43 -18 -73 -18v78c44 0 83 19 91 52z" />
    <glyph glyph-name="two.sups" horiz-adv-x="318" 
d="M147 484h136v-76h-256v53l130 146c20 22 30 43 30 64c0 28 -19 44 -51 44c-37 0 -61 -21 -84 -50h-8v93c35 24 71 36 110 36c69 0 121 -39 121 -108c0 -43 -19 -83 -59 -127z" />
    <glyph glyph-name="three.sups" horiz-adv-x="308" 
d="M276 513c0 -68 -51 -113 -142 -113c-45 0 -82 10 -111 31v86h9c21 -31 55 -46 94 -46c44 0 66 21 66 50c0 32 -28 49 -77 49h-28v67h26c44 0 66 15 66 44c0 28 -18 42 -55 42c-31 0 -57 -10 -78 -29h-9v74c29 17 62 26 98 26c80 0 127 -41 127 -101
c0 -39 -18 -67 -57 -82c47 -17 71 -51 71 -98z" />
    <glyph glyph-name="four.sups" horiz-adv-x="342" 
d="M315 555v-72h-43v-75h-86v75h-165v61l170 242h81v-231h43zM103 555h86v123z" />
    <glyph glyph-name="five.sups" horiz-adv-x="334" 
d="M296 531c0 -81 -56 -131 -143 -131c-43 0 -82 11 -116 32v87h8c27 -29 58 -43 94 -43c39 0 69 17 69 57c0 39 -29 57 -66 57c-22 0 -43 -6 -62 -18l-35 11l30 203h199v-73h-138l-11 -65c15 5 31 8 48 8c72 0 123 -48 123 -125z" />
    <glyph glyph-name="six.sups" horiz-adv-x="369" 
d="M332 534c0 -84 -59 -134 -136 -134c-43 0 -79 14 -110 41c-30 28 -45 75 -45 140c0 140 68 213 167 213c32 0 64 -7 95 -22v-82h-8c-23 19 -49 28 -78 28c-51 0 -82 -31 -92 -93c20 22 48 33 84 33c67 0 123 -43 123 -124zM245 535c0 36 -26 58 -57 58s-57 -22 -57 -58
c0 -37 26 -59 57 -59s57 22 57 59z" />
    <glyph glyph-name="seven.sups" horiz-adv-x="316" 
d="M29 786h256v-50l-156 -328h-92l145 302h-153v76z" />
    <glyph glyph-name="eight.sups" horiz-adv-x="364" 
d="M332 515c0 -71 -61 -115 -150 -115s-150 44 -150 115c0 46 22 78 67 97c-32 17 -49 45 -49 80c0 61 53 102 132 102s132 -41 132 -102c0 -35 -17 -63 -49 -80c45 -19 67 -51 67 -97zM132 681c0 -28 22 -44 50 -44s49 16 49 44s-21 45 -49 45s-50 -17 -50 -45zM250 522
c0 32 -31 54 -68 54c-39 0 -67 -22 -67 -54s28 -54 67 -54c37 0 68 22 68 54z" />
    <glyph glyph-name="nine.sups" horiz-adv-x="369" 
d="M328 613c0 -140 -68 -213 -168 -213c-32 0 -63 7 -94 22v82h8c23 -19 49 -28 78 -28c51 0 82 32 92 95c-21 -21 -49 -32 -84 -32c-68 0 -123 41 -123 122c0 84 59 133 136 133c43 0 79 -14 109 -42c31 -27 46 -74 46 -139zM237 660c0 37 -25 58 -56 58
c-32 0 -58 -21 -58 -58c0 -36 26 -56 58 -56c31 0 56 20 56 56z" />
    <glyph glyph-name="asterisk" unicode="*" horiz-adv-x="473" 
d="M430 599l-134 -71l134 -71l-35 -62l-129 82l6 -153h-71l6 153l-129 -82l-36 62l135 71l-135 71l36 62l129 -81l-6 152h71l-6 -152l129 81z" />
    <glyph glyph-name="backslash" unicode="\" horiz-adv-x="470" 
d="M111 772l348 -900h-93l-349 900h94z" />
    <glyph glyph-name="middot" unicode="&#xb7;" horiz-adv-x="290" 
d="M145 377c41 0 74 -30 74 -74c0 -45 -33 -74 -74 -74s-74 29 -74 74c0 44 33 74 74 74z" />
    <glyph glyph-name="bullet" unicode="&#x2022;" horiz-adv-x="406" 
d="M203 421c61 0 113 -45 113 -113s-50 -112 -113 -112c-61 0 -112 44 -112 112s51 113 112 113z" />
    <glyph glyph-name="colon" unicode=":" horiz-adv-x="290" 
d="M145 501c41 0 74 -29 74 -74s-33 -74 -74 -74s-74 29 -74 74s33 74 74 74zM145 134c41 0 74 -29 74 -74s-33 -74 -74 -74s-74 29 -74 74s33 74 74 74z" />
    <glyph glyph-name="comma" unicode="," horiz-adv-x="271" 
d="M93 127h114l-75 -286h-84z" />
    <glyph glyph-name="ellipsis" unicode="&#x2026;" horiz-adv-x="768" 
d="M145 134c41 0 74 -29 74 -74s-33 -74 -74 -74s-74 29 -74 74s33 74 74 74zM384 134c41 0 74 -29 74 -74s-33 -74 -74 -74s-74 29 -74 74s33 74 74 74zM623 134c41 0 74 -29 74 -74s-33 -74 -74 -74s-74 29 -74 74s33 74 74 74z" />
    <glyph glyph-name="exclam" unicode="!" horiz-adv-x="310" 
d="M101 700h108l-7 -483h-94zM155 134c41 0 74 -29 74 -74s-33 -74 -74 -74s-74 29 -74 74s33 74 74 74z" />
    <glyph glyph-name="exclamdown" unicode="&#xa1;" horiz-adv-x="310" 
d="M155 516c41 0 74 -29 74 -74s-33 -74 -74 -74s-74 29 -74 74s33 74 74 74zM101 -198l7 483h94l7 -483h-108z" />
    <glyph glyph-name="numbersign" unicode="#" horiz-adv-x="681" 
d="M629 427h-119l-33 -146h118l-18 -79h-118l-46 -202h-88l46 202h-130l-46 -202h-88l46 202h-119l18 79h119l34 146h-119l18 79h119l44 194h88l-45 -194h131l44 194h88l-45 -194h119zM389 281l34 146h-131l-33 -146h130z" />
    <glyph glyph-name="period" unicode="." horiz-adv-x="290" 
d="M145 134c41 0 74 -29 74 -74s-33 -74 -74 -74s-74 29 -74 74s33 74 74 74z" />
    <glyph glyph-name="question" unicode="?" horiz-adv-x="472" 
d="M44 528v119c45 41 111 67 180 67c56 0 103 -16 140 -47c38 -31 57 -77 57 -138c0 -28 -4 -52 -13 -73c-16 -41 -38 -65 -82 -108l-55 -57c-16 -16 -24 -38 -24 -65v-14h-95v16c0 68 18 98 57 134l55 58c30 30 45 62 45 97c0 65 -43 94 -102 94c-67 0 -109 -32 -149 -83
h-14zM200 134c40 0 74 -29 74 -74s-34 -74 -74 -74c-41 0 -74 29 -74 74s33 74 74 74z" />
    <glyph glyph-name="questiondown" unicode="&#xbf;" horiz-adv-x="472" 
d="M272 368c-40 0 -74 29 -74 74s34 74 74 74c41 0 74 -29 74 -74s-33 -74 -74 -74zM428 -26v-119c-45 -41 -109 -67 -180 -67c-56 0 -103 16 -141 47c-37 31 -56 77 -56 138c0 28 4 52 12 73c17 41 39 65 83 108l55 57c17 17 25 38 25 65v14h94v-16c0 -68 -18 -98 -57 -134
l-55 -58c-30 -30 -45 -62 -45 -97c0 -65 43 -94 102 -94c67 0 110 34 149 83h14z" />
    <glyph glyph-name="quotedbl" unicode="&#x22;" horiz-adv-x="348" 
d="M214 700h86v-272h-86v272zM48 700h86v-272h-86v272z" />
    <glyph glyph-name="quotesingle" unicode="'" horiz-adv-x="182" 
d="M48 700h86v-272h-86v272z" />
    <glyph glyph-name="semicolon" unicode=";" horiz-adv-x="282" 
d="M144 501c41 0 74 -29 74 -74s-33 -74 -74 -74s-74 29 -74 74s33 74 74 74zM93 127h114l-75 -286h-84z" />
    <glyph glyph-name="slash" unicode="/" horiz-adv-x="470" 
d="M360 772h93l-348 -900h-94z" />
    <glyph glyph-name="underscore" unicode="_" horiz-adv-x="397" 
d="M11 -43h375v-80h-375v80z" />
    <glyph glyph-name="exclamdown.case" horiz-adv-x="310" 
d="M155 714c41 0 74 -29 74 -74s-33 -74 -74 -74s-74 29 -74 74s33 74 74 74zM101 0l7 483h94l7 -483h-108z" />
    <glyph glyph-name="questiondown.case" horiz-adv-x="472" 
d="M272 566c-40 0 -74 29 -74 74s34 74 74 74c41 0 74 -29 74 -74s-33 -74 -74 -74zM428 172v-119c-45 -41 -109 -67 -180 -67c-56 0 -103 16 -141 47c-37 31 -56 77 -56 138c0 28 4 52 12 73c17 41 39 65 83 108l55 57c17 17 25 38 25 65v14h94v-16c0 -68 -18 -98 -57 -134
l-55 -58c-30 -30 -45 -62 -45 -97c0 -65 43 -94 102 -94c67 0 110 34 149 83h14z" />
    <glyph glyph-name="braceleft" unicode="{" horiz-adv-x="350" 
d="M139 297c56 -12 84 -56 84 -117v-173c0 -41 20 -62 52 -62h39v-84h-56c-36 0 -68 10 -95 30s-41 55 -41 104v174c0 64 -17 91 -66 91h-2v74h2c49 0 66 27 66 91v174c0 49 14 84 41 104s59 30 95 30h56v-84h-39c-32 0 -52 -21 -52 -62v-173c0 -61 -28 -105 -84 -117z" />
    <glyph glyph-name="braceright" unicode="}" horiz-adv-x="350" 
d="M294 334h2v-74h-2c-49 0 -66 -27 -66 -91v-174c0 -49 -14 -84 -41 -104s-59 -30 -95 -30h-56v84h39c32 0 52 21 52 62v173c0 61 28 105 84 117c-56 12 -84 56 -84 117v173c0 41 -20 62 -52 62h-39v84h56c36 0 68 -10 95 -30s41 -55 41 -104v-174c0 -64 17 -91 66 -91z
" />
    <glyph glyph-name="bracketleft" unicode="[" horiz-adv-x="328" 
d="M283 638h-89v-683h89v-91h-193v865h193v-91z" />
    <glyph glyph-name="bracketright" unicode="]" horiz-adv-x="328" 
d="M44 729h194v-865h-194v91h90v683h-90v91z" />
    <glyph glyph-name="parenleft" unicode="(" horiz-adv-x="373" 
d="M280 734l64 -59c-58 -65 -100 -128 -127 -187s-40 -127 -40 -202s13 -143 40 -202s69 -122 127 -187l-64 -59c-75 74 -129 146 -163 215s-51 147 -51 233s17 164 51 233s88 141 163 215z" />
    <glyph glyph-name="parenright" unicode=")" horiz-adv-x="373" 
d="M93 -162l-64 59c58 65 100 128 127 187s40 127 40 202s-13 143 -40 202s-69 122 -127 187l64 59c75 -74 129 -146 163 -215s51 -147 51 -233s-17 -164 -51 -233s-88 -141 -163 -215z" />
    <glyph glyph-name="braceleft.case" horiz-adv-x="350" 
d="M139 350c56 -12 84 -56 84 -117v-173c0 -41 20 -62 52 -62h39v-84h-56c-36 0 -68 10 -95 30s-41 55 -41 104v174c0 64 -17 91 -66 91h-2v74h2c49 0 66 27 66 91v174c0 49 14 84 41 104s59 30 95 30h56v-84h-39c-32 0 -52 -21 -52 -62v-173c0 -61 -28 -105 -84 -117z" />
    <glyph glyph-name="braceright.case" horiz-adv-x="350" 
d="M294 387h2v-74h-2c-49 0 -66 -27 -66 -91v-174c0 -49 -14 -84 -41 -104s-59 -30 -95 -30h-56v84h39c32 0 52 21 52 62v173c0 61 28 105 84 117c-56 12 -84 56 -84 117v173c0 41 -20 62 -52 62h-39v84h56c36 0 68 -10 95 -30s41 -55 41 -104v-174c0 -64 17 -91 66 -91z
" />
    <glyph glyph-name="bracketleft.case" horiz-adv-x="328" 
d="M283 692h-89v-683h89v-91h-193v865h193v-91z" />
    <glyph glyph-name="bracketright.case" horiz-adv-x="328" 
d="M44 783h194v-865h-194v91h90v683h-90v91z" />
    <glyph glyph-name="parenleft.case" horiz-adv-x="373" 
d="M280 798l64 -59c-58 -65 -100 -128 -127 -187s-40 -127 -40 -202s13 -143 40 -202s69 -122 127 -187l-64 -59c-75 74 -129 146 -163 215s-51 147 -51 233s17 164 51 233s88 141 163 215z" />
    <glyph glyph-name="parenright.case" horiz-adv-x="373" 
d="M93 -98l-64 59c58 65 100 128 127 187s40 127 40 202s-13 143 -40 202s-69 122 -127 187l64 59c75 -74 129 -146 163 -215s51 -147 51 -233s-17 -164 -51 -233s-88 -141 -163 -215z" />
    <glyph glyph-name="emdash" unicode="&#x2014;" horiz-adv-x="765" 
d="M81 336h603v-94h-603v94z" />
    <glyph glyph-name="endash" unicode="&#x2013;" horiz-adv-x="595" 
d="M81 336h433v-94h-433v94z" />
    <glyph glyph-name="hyphen" unicode="-" horiz-adv-x="445" 
d="M81 336h283v-94h-283v94z" />
    <glyph glyph-name="emdash.case" horiz-adv-x="765" 
d="M81 420h603v-94h-603v94z" />
    <glyph glyph-name="endash.case" horiz-adv-x="595" 
d="M81 420h433v-94h-433v94z" />
    <glyph glyph-name="hyphen.case" horiz-adv-x="445" 
d="M81 420h283v-94h-283v94z" />
    <glyph glyph-name="guillemotleft" unicode="&#xab;" horiz-adv-x="488" 
d="M454 457l-122 -183l122 -183h-107l-119 183l119 183h107zM252 457l-122 -183l122 -183h-107l-119 183l119 183h107z" />
    <glyph glyph-name="guillemotright" unicode="&#xbb;" horiz-adv-x="488" 
d="M343 457l119 -183l-119 -183h-107l122 183l-122 183h107zM141 457l119 -183l-119 -183h-107l122 183l-122 183h107z" />
    <glyph glyph-name="guilsinglleft" unicode="&#x2039;" horiz-adv-x="286" 
d="M252 457l-122 -183l122 -183h-107l-119 183l119 183h107z" />
    <glyph glyph-name="guilsinglright" unicode="&#x203a;" horiz-adv-x="286" 
d="M141 457l119 -183l-119 -183h-107l122 183l-122 183h107z" />
    <glyph glyph-name="quotedblbase" unicode="&#x201e;" horiz-adv-x="459" 
d="M93 127h114l-75 -286h-84zM280 127h114l-75 -286h-84z" />
    <glyph glyph-name="quotedblleft" unicode="&#x201c;" horiz-adv-x="407" 
d="M142 414h-114l75 286h84zM329 414h-114l75 286h84z" />
    <glyph glyph-name="quotedblright" unicode="&#x201d;" horiz-adv-x="407" 
d="M77 700h114l-75 -286h-84zM265 700h114l-75 -286h-84z" />
    <glyph glyph-name="quoteleft" unicode="&#x2018;" horiz-adv-x="219" 
d="M142 415h-114l75 285h84z" />
    <glyph glyph-name="quoteright" unicode="&#x2019;" horiz-adv-x="219" 
d="M77 700h114l-75 -286h-84z" />
    <glyph glyph-name="quotesinglbase" unicode="&#x201a;" horiz-adv-x="271" 
d="M93 127h114l-75 -286h-84z" />
    <glyph glyph-name="guillemotleft.case" horiz-adv-x="488" 
d="M454 556l-122 -183l122 -183h-107l-119 183l119 183h107zM252 556l-122 -183l122 -183h-107l-119 183l119 183h107z" />
    <glyph glyph-name="guillemotright.case" horiz-adv-x="488" 
d="M343 556l119 -183l-119 -183h-107l122 183l-122 183h107zM141 556l119 -183l-119 -183h-107l122 183l-122 183h107z" />
    <glyph glyph-name="guilsinglleft.case" horiz-adv-x="286" 
d="M252 556l-122 -183l122 -183h-107l-119 183l119 183h107z" />
    <glyph glyph-name="guilsinglright.case" horiz-adv-x="286" 
d="M141 556l119 -183l-119 -183h-107l122 183l-122 183h107z" />
    <glyph glyph-name="cent" unicode="&#xa2;" horiz-adv-x="496" 
d="M439 132v-107c-33 -21 -71 -34 -113 -38v-89h-75v92c-61 10 -110 38 -148 84c-38 47 -57 106 -57 177c0 144 87 241 205 261v92h75v-90c37 -4 73 -17 107 -38v-104h-9c-41 34 -82 51 -123 51c-84 0 -151 -67 -151 -172s66 -172 155 -172c47 0 88 18 124 53h10z" />
    <glyph glyph-name="currency" unicode="&#xa4;" horiz-adv-x="577" 
d="M457 235l75 -75l-53 -53l-75 74c-35 -23 -73 -35 -115 -35c-43 0 -81 12 -116 35l-75 -74l-52 53l74 75c-24 35 -36 73 -36 115s12 80 36 115l-74 75l52 53l75 -74c35 23 73 35 116 35c41 0 80 -12 115 -35l75 74l53 -53l-75 -75c24 -35 36 -73 36 -115s-12 -80 -36 -115
zM411 350c0 33 -12 62 -36 86s-53 36 -86 36s-62 -12 -86 -36s-36 -53 -36 -86s12 -62 36 -86s53 -36 86 -36s62 12 86 36s36 53 36 86z" />
    <glyph glyph-name="dollar" unicode="$" horiz-adv-x="534" 
d="M307 -9v-93h-79v88c-66 3 -128 21 -187 55v123h13c59 -53 122 -80 191 -80c85 0 131 39 131 94c0 43 -26 78 -73 99l-109 48c-95 41 -143 108 -143 196c0 108 76 165 177 177v90h79v-90c47 -5 93 -20 136 -43v-111h-12c-52 39 -110 58 -162 58c-65 0 -105 -34 -105 -82
c0 -41 30 -74 75 -94l121 -55c91 -39 129 -111 129 -191c0 -107 -74 -170 -182 -189z" />
    <glyph glyph-name="Euro" unicode="&#x20ac;" horiz-adv-x="694" 
d="M638 179h13v-129c-61 -43 -128 -64 -203 -64c-83 0 -155 22 -214 67s-98 107 -116 188h-83v76h73c-1 6 -1 15 -1 26c0 16 0 28 1 35h-73v76h85c20 77 59 138 117 181c59 43 128 65 207 65c76 0 142 -20 197 -61v-121h-12c-48 53 -108 80 -181 80
c-96 0 -173 -53 -208 -144h255v-76h-273c-1 -15 -2 -26 -2 -35c0 -11 0 -20 1 -26h274v-76h-259c33 -95 113 -153 214 -153c77 0 140 30 188 91z" />
    <glyph glyph-name="uni20B4" unicode="&#x20b4;" horiz-adv-x="565" 
d="M350 351l-33 -26h202v-68h-287c-31 -28 -46 -52 -46 -87c0 -55 41 -86 125 -86c59 0 116 22 170 66h13v-117c-55 -31 -118 -47 -189 -47c-68 0 -124 13 -167 40s-64 68 -64 125c0 38 12 73 36 106h-63v68h132c7 6 15 12 24 18l54 43h-210v67h294c25 23 37 49 37 77
c0 47 -35 72 -98 72c-54 0 -103 -16 -147 -49h-11v110c57 24 108 37 168 37c54 0 101 -11 140 -33s59 -61 59 -117c0 -35 -10 -67 -29 -97h59v-67h-125c-8 -7 -23 -19 -44 -35z" />
    <glyph glyph-name="uni20BD" unicode="&#x20bd;" horiz-adv-x="623" 
d="M336 296h-106v-79h215v-81h-215v-136h-109v136h-89v81h89v79h-89v88h89v302h214c155 0 247 -65 247 -200c0 -127 -82 -190 -246 -190zM230 590v-206h106c89 0 133 34 133 103c0 77 -54 103 -137 103h-102z" />
    <glyph glyph-name="sterling" unicode="&#xa3;" horiz-adv-x="515" 
d="M244 97h243v-97h-450v97h99v192h-77v89h77v133c0 127 81 189 196 189c49 0 97 -13 144 -38v-109h-12c-44 33 -85 49 -123 49c-57 0 -97 -33 -97 -102v-122h178v-89h-178v-192z" />
    <glyph glyph-name="yen" unicode="&#xa5;" horiz-adv-x="633" 
d="M371 341v-11h152v-78h-152v-61h152v-79h-152v-112h-109v112h-152v79h152v61h-152v78h152v11l-242 345h125l172 -258l172 258h124z" />
    <glyph glyph-name="cent.tf" horiz-adv-x="614" 
d="M505 132v-107c-35 -23 -75 -35 -120 -38v-89h-73v92c-65 10 -118 38 -159 84s-61 105 -61 177c0 145 94 244 220 262v92h73v-90c40 -5 78 -18 114 -39v-104h-10c-43 34 -86 51 -129 51c-90 0 -165 -65 -165 -172c0 -105 76 -172 169 -172c50 0 94 18 131 53h10z" />
    <glyph glyph-name="dollar.tf" horiz-adv-x="614" 
d="M351 -9v-93h-78v88c-67 3 -130 21 -190 55v123h13c59 -53 124 -80 194 -80c88 0 134 39 134 94c0 43 -28 78 -76 99l-109 48c-95 41 -145 108 -145 196c0 108 76 165 179 177v90h78v-90c48 -5 94 -20 139 -43v-111h-12c-53 39 -108 58 -163 58c-67 0 -109 -35 -109 -82
c0 -40 31 -74 78 -94l121 -55c91 -40 131 -112 131 -191c0 -108 -74 -172 -185 -189z" />
    <glyph glyph-name="Euro.tf" horiz-adv-x="614" 
d="M557 179h12v-129c-53 -43 -111 -64 -173 -64c-144 0 -254 94 -286 255h-69v76h61c-1 6 -1 15 -1 26c0 16 0 28 1 36h-61v76h72c35 153 142 245 278 245c63 0 119 -20 168 -61v-121h-11c-41 53 -91 80 -150 80c-77 0 -142 -54 -170 -143h212v-76h-227
c-1 -15 -2 -27 -2 -36l1 -26h228v-76h-216c27 -95 92 -153 176 -153c63 0 118 32 157 91z" />
    <glyph glyph-name="uni20B4.tf" horiz-adv-x="614" 
d="M376 351l-33 -26h202v-68h-288c-31 -28 -46 -54 -46 -87c0 -55 41 -86 125 -86c60 0 117 22 171 66h13v-117c-55 -31 -119 -47 -190 -47c-67 0 -123 13 -166 40s-65 68 -65 125c0 39 12 74 37 106h-64v68h132l26 20l54 42h-212v67h296c24 24 36 47 36 76
c0 47 -35 72 -99 72c-55 0 -104 -16 -148 -49h-11v110c57 23 109 37 169 37c55 0 102 -11 141 -33s59 -61 59 -117c0 -35 -10 -67 -29 -96h59v-67h-124c-14 -12 -29 -24 -45 -36z" />
    <glyph glyph-name="uni20BD.tf" horiz-adv-x="614" 
d="M331 295h-96v-79h203v-80h-203v-136h-107v136h-85v80h85v79h-85v89h85v302h203c148 0 239 -67 239 -200c0 -129 -84 -191 -239 -191zM235 590v-206h95c86 0 129 34 129 103c0 77 -52 103 -133 103h-91z" />
    <glyph glyph-name="sterling.tf" horiz-adv-x="614" 
d="M287 97h256v-97h-469v97h104v192h-81v89h81v133c0 127 84 189 203 189c50 0 100 -13 151 -38v-108h-13c-44 32 -86 48 -126 48c-61 0 -106 -33 -106 -102v-122h190v-89h-190v-192z" />
    <glyph glyph-name="yen.tf" horiz-adv-x="614" 
d="M360 341v-11h147v-78h-147v-61h147v-79h-147v-112h-106v112h-147v79h147v61h-147v78h147v11l-234 345h123l165 -257l166 257h120z" />
    <glyph glyph-name="cent.tosf" horiz-adv-x="614" 
d="M505 132v-107c-35 -23 -75 -35 -120 -38v-89h-73v92c-65 10 -118 38 -159 84s-61 105 -61 177c0 145 94 244 220 262v92h73v-90c40 -5 78 -18 114 -39v-104h-10c-43 34 -86 51 -129 51c-90 0 -165 -65 -165 -172c0 -105 76 -172 169 -172c50 0 94 18 131 53h10z" />
    <glyph glyph-name="dollar.tosf" horiz-adv-x="614" 
d="M351 -9v-93h-78v88c-67 3 -130 21 -190 55v123h13c59 -53 124 -80 194 -80c88 0 134 39 134 94c0 43 -28 78 -76 99l-109 48c-95 41 -145 108 -145 196c0 108 76 165 179 177v90h78v-90c48 -5 94 -20 139 -43v-111h-12c-53 39 -108 58 -163 58c-67 0 -109 -35 -109 -82
c0 -40 31 -74 78 -94l121 -55c91 -40 131 -112 131 -191c0 -108 -74 -172 -185 -189z" />
    <glyph glyph-name="Euro.tosf" horiz-adv-x="614" 
d="M557 179h12v-129c-53 -43 -111 -64 -173 -64c-144 0 -254 94 -286 255h-69v76h61c-1 6 -1 15 -1 26c0 16 0 28 1 36h-61v76h72c35 153 142 245 278 245c63 0 119 -20 168 -61v-121h-11c-41 53 -91 80 -150 80c-77 0 -142 -54 -170 -143h212v-76h-227
c-1 -15 -2 -27 -2 -36l1 -26h228v-76h-216c27 -95 92 -153 176 -153c63 0 118 32 157 91z" />
    <glyph glyph-name="uni20B4.tosf" horiz-adv-x="614" 
d="M376 351l-33 -26h202v-68h-288c-31 -28 -46 -54 -46 -87c0 -55 41 -86 125 -86c60 0 117 22 171 66h13v-117c-55 -31 -119 -47 -190 -47c-67 0 -123 13 -166 40s-65 68 -65 125c0 39 12 74 37 106h-64v68h132l26 20l54 42h-212v67h296c24 24 36 47 36 76
c0 47 -35 72 -99 72c-55 0 -104 -16 -148 -49h-11v110c57 23 109 37 169 37c55 0 102 -11 141 -33s59 -61 59 -117c0 -35 -10 -67 -29 -96h59v-67h-124c-14 -12 -29 -24 -45 -36z" />
    <glyph glyph-name="uni20BD.tosf" horiz-adv-x="614" 
d="M331 295h-96v-79h203v-80h-203v-136h-107v136h-85v80h85v79h-85v89h85v302h203c148 0 239 -67 239 -200c0 -129 -84 -191 -239 -191zM235 590v-206h95c86 0 129 34 129 103c0 77 -52 103 -133 103h-91z" />
    <glyph glyph-name="sterling.tosf" horiz-adv-x="614" 
d="M287 97h256v-97h-469v97h104v192h-81v89h81v133c0 127 84 189 203 189c50 0 100 -13 151 -38v-108h-13c-44 32 -86 48 -126 48c-61 0 -106 -33 -106 -102v-122h190v-89h-190v-192z" />
    <glyph glyph-name="yen.tosf" horiz-adv-x="614" 
d="M360 341v-11h147v-78h-147v-61h147v-79h-147v-112h-106v112h-147v79h147v61h-147v78h147v11l-234 345h123l165 -257l166 257h120z" />
    <glyph glyph-name="approxequal" unicode="&#x2248;" horiz-adv-x="508" 
d="M66 362v78c27 27 66 43 106 43c31 0 54 -8 86 -24c35 -16 52 -24 83 -24c33 0 65 11 95 33h6v-77c-28 -27 -66 -44 -106 -44c-31 0 -52 8 -85 24s-53 24 -84 24c-33 0 -65 -11 -95 -33h-6zM66 191v77c28 27 66 44 106 44c31 0 54 -8 86 -24c35 -16 52 -24 83 -24
c33 0 65 11 95 32h6v-77c-27 -27 -66 -43 -106 -43c-31 0 -52 8 -85 24s-53 24 -84 24c-33 0 -65 -11 -95 -33h-6z" />
    <glyph glyph-name="asciitilde" unicode="~" horiz-adv-x="508" 
d="M66 278v77c28 27 66 44 106 44c32 0 55 -9 86 -25c35 -16 52 -24 83 -24c32 0 64 11 95 33h6v-77c-28 -27 -66 -44 -106 -44c-32 0 -53 9 -85 25c-33 16 -53 24 -84 24c-32 0 -64 -11 -95 -33h-6z" />
    <glyph glyph-name="divide" unicode="&#xf7;" horiz-adv-x="522" 
d="M261 598c41 0 73 -29 73 -72s-32 -72 -73 -72s-73 29 -73 72s32 72 73 72zM66 377h391v-93h-391v93zM261 207c41 0 73 -29 73 -72s-32 -72 -73 -72s-73 29 -73 72s32 72 73 72z" />
    <glyph glyph-name="emptyset" unicode="&#x2205;" horiz-adv-x="570" 
d="M524 545l-74 -75c27 -36 40 -76 40 -120c0 -111 -92 -204 -205 -204c-43 0 -83 13 -119 38l-73 -74l-47 47l73 74c-25 35 -38 74 -38 119c0 111 93 204 204 204c45 0 84 -13 119 -38l75 74zM179 290l166 166c-19 11 -39 16 -60 16c-33 0 -62 -12 -86 -36s-36 -53 -36 -86
c0 -21 5 -41 16 -60zM391 410l-165 -167c19 -10 38 -15 59 -15c33 0 62 12 86 36s36 53 36 86c0 22 -5 42 -16 60z" />
    <glyph glyph-name="equal" unicode="=" horiz-adv-x="522" 
d="M66 471h391v-93h-391v93zM66 283h391v-93h-391v93z" />
    <glyph glyph-name="greater" unicode="&#x3e;" horiz-adv-x="516" 
d="M66 539l391 -158v-85v-16l-391 -158v102l296 107l-296 106v102z" />
    <glyph glyph-name="greaterequal" unicode="&#x2265;" horiz-adv-x="516" 
d="M66 569l391 -133v-83v-12l-391 -133v101l270 79l-270 79v102zM66 78v93h391v-93h-391z" />
    <glyph glyph-name="infinity" unicode="&#x221e;" horiz-adv-x="699" 
d="M648 329c0 -90 -67 -158 -151 -158c-61 0 -108 35 -148 91c-42 -61 -91 -91 -148 -91c-84 0 -151 68 -151 158c0 93 67 158 151 158c57 0 106 -30 148 -91c40 56 87 91 148 91c84 0 151 -65 151 -158zM308 328c-32 53 -59 82 -98 82c-41 0 -74 -37 -74 -81s33 -81 74 -81
c39 0 65 28 98 80zM562 329c0 44 -33 81 -74 81c-37 0 -65 -29 -97 -82c32 -51 60 -80 97 -80c41 0 74 37 74 81z" />
    <glyph glyph-name="integral" unicode="&#x222b;" horiz-adv-x="325" 
d="M6 -139v84h15c56 0 76 21 76 89v537c0 63 15 105 44 128c30 23 69 34 118 34h31v-84h-16c-56 0 -76 -21 -76 -89v-537c0 -63 -15 -105 -45 -128c-29 -23 -68 -34 -117 -34h-30z" />
    <glyph glyph-name="less" unicode="&#x3c;" horiz-adv-x="516" 
d="M451 539v-102l-295 -106l295 -107v-102l-391 158v85v16z" />
    <glyph glyph-name="lessequal" unicode="&#x2264;" horiz-adv-x="516" 
d="M451 569v-102l-271 -79l271 -79v-101l-391 133v82v13zM60 78v93h391v-93h-391z" />
    <glyph glyph-name="logicalnot" unicode="&#xac;" horiz-adv-x="499" 
d="M66 424h367v-223h-93v130h-274v93z" />
    <glyph glyph-name="minus" unicode="&#x2212;" horiz-adv-x="538" 
d="M66 377h406v-93h-406v93z" />
    <glyph glyph-name="multiply" unicode="&#xd7;" horiz-adv-x="502" 
d="M436 213l-67 -68l-118 119l-119 -119l-66 67l118 118l-118 118l67 68l119 -118l118 118l66 -67l-118 -118z" />
    <glyph glyph-name="notequal" unicode="&#x2260;" horiz-adv-x="522" 
d="M457 378h-128l-48 -95h176v-93h-224l-48 -95h-88l48 95h-79v93h127l49 95h-176v93h223l49 95h87l-48 -95h80v-93z" />
    <glyph glyph-name="partialdiff" unicode="&#x2202;" horiz-adv-x="565" 
d="M520 368c0 -135 -25 -233 -75 -293c-50 -59 -113 -89 -190 -89c-128 0 -215 83 -215 226c0 157 99 250 227 250c67 0 117 -23 149 -68c-5 147 -55 220 -149 220c-47 0 -88 -17 -122 -51h-12l8 111c44 27 91 40 142 40c139 0 237 -114 237 -346zM404 247
c0 83 -52 127 -121 127c-79 0 -139 -55 -139 -154c0 -91 53 -139 120 -139c74 0 140 66 140 166z" />
    <glyph glyph-name="percent" unicode="%" horiz-adv-x="908" 
d="M36 534c0 108 82 180 183 180s183 -72 183 -180s-82 -180 -183 -180s-183 72 -183 180zM616 700h89l-413 -700h-90zM316 534c0 60 -45 98 -97 98c-53 0 -97 -38 -97 -98s44 -99 97 -99c52 0 97 39 97 99zM506 166c0 108 82 180 183 180s183 -72 183 -180
s-82 -180 -183 -180s-183 72 -183 180zM786 166c0 60 -44 99 -97 99s-97 -39 -97 -99s44 -98 97 -98s97 38 97 98z" />
    <glyph glyph-name="perthousand" unicode="&#x2030;" horiz-adv-x="1321" 
d="M36 534c0 108 82 180 183 180s183 -72 183 -180s-82 -180 -183 -180s-183 72 -183 180zM616 700h89l-413 -700h-90zM316 534c0 60 -45 98 -97 98c-53 0 -97 -38 -97 -98s44 -99 97 -99c52 0 97 39 97 99zM506 166c0 108 82 180 183 180s183 -72 183 -180
s-82 -180 -183 -180s-183 72 -183 180zM925 166c0 108 82 180 183 180s183 -72 183 -180s-82 -180 -183 -180s-183 72 -183 180zM786 166c0 60 -44 99 -97 99s-97 -39 -97 -99s44 -98 97 -98s97 38 97 98zM1205 166c0 60 -44 99 -97 99s-97 -39 -97 -99s44 -98 97 -98
s97 38 97 98z" />
    <glyph glyph-name="plus" unicode="+" horiz-adv-x="522" 
d="M457 377v-93h-148v-149h-96v149h-147v93h147v149h96v-149h148z" />
    <glyph glyph-name="plusminus" unicode="&#xb1;" horiz-adv-x="522" 
d="M309 430h148v-93h-148v-102h-96v102h-147v93h147v149h96v-149zM66 78v93h391v-93h-391z" />
    <glyph glyph-name="product" unicode="&#x220f;" horiz-adv-x="630" 
d="M90 700h451v-785h-94v703h-264v-703h-93v785z" />
    <glyph glyph-name="radical" unicode="&#x221a;" horiz-adv-x="630" 
d="M512 700h99l-272 -700h-51h-16l-156 421h-104v83h169l128 -368z" />
    <glyph glyph-name="summation" unicode="&#x2211;" horiz-adv-x="539" 
d="M218 102h276v-102h-444v60l220 297l-207 283v60h415v-102h-248l157 -224v-37z" />
    <glyph glyph-name="arrowup" unicode="&#x2191;" horiz-adv-x="534" 
d="M476 419h-171v-419h-76v419h-171l205 238h8z" />
    <glyph glyph-name="uni2197" unicode="&#x2197;" horiz-adv-x="637" 
d="M568 527v-316l-134 134l-355 -355l-55 54l356 355l-134 134h316z" />
    <glyph glyph-name="arrowright" unicode="&#x2192;" horiz-adv-x="821" 
d="M530 485l238 -205v-8l-238 -205v173h-454v72h454v173z" />
    <glyph glyph-name="uni2198" unicode="&#x2198;" horiz-adv-x="637" 
d="M434 188l134 134v-316l-6 -6h-316l134 134l-356 355l55 54z" />
    <glyph glyph-name="arrowdown" unicode="&#x2193;" horiz-adv-x="534" 
d="M305 232h171l-205 -238h-8l-205 238h171v418h76v-418z" />
    <glyph glyph-name="uni2199" unicode="&#x2199;" horiz-adv-x="637" 
d="M612 489l-355 -355l134 -134h-317l-5 6v316l134 -134l355 355z" />
    <glyph glyph-name="arrowleft" unicode="&#x2190;" horiz-adv-x="821" 
d="M746 312v-72h-455v-173l-238 205v8l238 205v-173h455z" />
    <glyph glyph-name="uni2196" unicode="&#x2196;" horiz-adv-x="637" 
d="M612 44l-54 -54l-355 355l-134 -134v316l5 6h317l-134 -134z" />
    <glyph glyph-name="arrowboth" unicode="&#x2194;" horiz-adv-x="979" 
d="M688 487l238 -204v-9l-238 -204v172h-397v-172l-238 204v9l238 204v-172h397v172z" />
    <glyph glyph-name="arrowupdn" unicode="&#x2195;" horiz-adv-x="534" 
d="M305 484v-260h171l-205 -238h-8l-205 238h171v260h-171l205 238h8l205 -238h-171z" />
    <glyph glyph-name="arrowup.ss01" horiz-adv-x="843" 
d="M58 350c-4 208 165 368 363 364c198 4 366 -156 363 -364c3 -208 -165 -368 -363 -364c-198 -4 -367 156 -363 364zM262 368h128v-210h63v210h128l-155 180h-9z" />
    <glyph glyph-name="uni2197.ss01" horiz-adv-x="843" 
d="M58 350c-4 208 165 368 363 364c198 4 366 -156 363 -364c3 -208 -165 -368 -363 -364c-198 -4 -367 156 -363 364zM244 219l47 -45l195 196l99 -99l-1 236l-6 7h-236l99 -99z" />
    <glyph glyph-name="arrowright.ss01" horiz-adv-x="843" 
d="M58 350c-4 208 165 368 363 364c198 4 366 -156 363 -364c3 -208 -165 -368 -363 -364c-198 -4 -367 156 -363 364zM216 320h231v-129l180 155v8l-180 155v-129h-231v-60z" />
    <glyph glyph-name="uni2198.ss01" horiz-adv-x="843" 
d="M784 350c3 -208 -165 -368 -363 -364c-198 -4 -367 156 -363 364c-4 208 165 368 363 364c198 4 366 -156 363 -364zM244 481l197 -196l-99 -99h236l6 7l1 236l-99 -99l-195 196z" />
    <glyph glyph-name="arrowdown.ss01" horiz-adv-x="843" 
d="M784 350c3 -208 -165 -368 -363 -364c-198 -4 -367 156 -363 364c-4 208 165 368 363 364c198 4 366 -156 363 -364zM262 332l155 -180h9l155 180h-128v210h-63v-210h-128z" />
    <glyph glyph-name="uni2199.ss01" horiz-adv-x="843" 
d="M784 350c3 -208 -165 -368 -363 -364c-198 -4 -367 156 -363 364c-4 208 165 368 363 364c198 4 366 -156 363 -364zM599 481l-47 45l-195 -196l-99 99l1 -236l5 -7h237l-99 99z" />
    <glyph glyph-name="arrowleft.ss01" horiz-adv-x="843" 
d="M58 350c-4 208 165 368 363 364c198 4 366 -156 363 -364c3 -208 -165 -368 -363 -364c-198 -4 -367 156 -363 364zM626 320v60h-230v129l-180 -155v-8l180 -155v129h230z" />
    <glyph glyph-name="uni2196.ss01" horiz-adv-x="843" 
d="M58 350c-4 208 165 368 363 364c198 4 366 -156 363 -364c3 -208 -165 -368 -363 -364c-198 -4 -367 156 -363 364zM599 219l-197 196l99 99h-237l-5 -7l-1 -236l99 99l195 -196z" />
    <glyph glyph-name="arrowboth.ss01" horiz-adv-x="843" 
d="M58 350c-4 208 165 368 363 364c198 4 366 -156 363 -364c3 -208 -165 -368 -363 -364c-198 -4 -367 156 -363 364zM152 346l180 -155v129h178v-129l180 155v8l-180 155v-129h-178v129l-180 -155v-8z" />
    <glyph glyph-name="arrowupdn.ss01" horiz-adv-x="843" 
d="M58 350c-4 208 165 368 363 364c198 4 366 -156 363 -364c3 -208 -165 -368 -363 -364c-198 -4 -367 156 -363 364zM262 279l155 -181h9l155 181h-128v142h128l-155 181h-9l-155 -181h128v-142h-128z" />
    <glyph glyph-name="lozenge" unicode="&#x25ca;" horiz-adv-x="513" 
d="M285 700l187 -350l-187 -350h-53h-5l-187 350l187 350h54h4zM256 121l117 229l-117 229l-116 -229z" />
    <glyph glyph-name="bar" unicode="|" horiz-adv-x="314" 
d="M204 752v-857h-94v857h94z" />
    <glyph glyph-name="brokenbar" unicode="&#xa6;" horiz-adv-x="314" 
d="M204 752v-346h-94v346h94zM204 241v-346h-94v346h94z" />
    <glyph glyph-name="at" unicode="@" horiz-adv-x="980" 
d="M932 294c0 -160 -61 -251 -165 -251c-59 0 -107 34 -118 81c-40 -52 -102 -81 -170 -81c-118 0 -219 86 -219 227s100 227 214 227c64 0 120 -25 156 -74v60h84v-272c0 -61 21 -91 63 -91c53 0 92 52 92 169c3 250 -189 368 -379 367c-208 3 -382 -159 -379 -384
c-3 -225 171 -387 379 -384c71 0 140 15 208 44h9v-62c-73 -27 -145 -40 -217 -40c-244 -3 -446 178 -442 442c-4 264 198 445 442 442c216 2 447 -138 442 -420zM625 270c0 88 -60 137 -133 137s-133 -49 -133 -137s60 -137 133 -137s133 49 133 137z" />
    <glyph glyph-name="ampersand" unicode="&#x26;" horiz-adv-x="641" 
d="M617 0h-116l-35 57c-48 -47 -108 -71 -180 -71c-129 0 -246 79 -246 235c0 63 17 115 51 154c34 40 77 67 128 80l-116 187v58h398v-96h-259l219 -353c9 39 13 86 13 141h97c0 -101 -15 -183 -45 -247zM413 143l-141 227c-69 -8 -124 -65 -124 -145
c0 -83 56 -138 144 -138c49 0 90 19 121 56z" />
    <glyph glyph-name="paragraph" unicode="&#xb6;" horiz-adv-x="504" 
d="M278 700h137v-805h-93v396h-44c-149 0 -237 73 -237 204s88 205 237 205z" />
    <glyph glyph-name="copyright" unicode="&#xa9;" horiz-adv-x="843" 
d="M58 350c-4 208 165 368 363 364c198 4 366 -156 363 -364c3 -207 -165 -367 -363 -364c-198 -3 -367 157 -363 364zM737 350c3 181 -142 321 -316 318c-173 3 -317 -137 -314 -318c-3 -181 141 -321 314 -318c174 -3 319 137 316 318zM448 546c37 0 72 -9 105 -27v-79h-7
c-31 22 -62 33 -93 33c-67 0 -121 -48 -121 -123s54 -123 123 -123c36 0 68 12 96 35h8v-81c-33 -18 -69 -27 -108 -27c-112 0 -200 72 -200 196c0 123 89 196 197 196z" />
    <glyph glyph-name="registered" unicode="&#xae;" horiz-adv-x="600" 
d="M554 445c0 -147 -112 -255 -254 -255c-141 0 -254 108 -254 255s113 255 254 255c142 0 254 -108 254 -255zM518 445c0 126 -97 220 -218 220c-123 0 -219 -94 -219 -220c0 -127 97 -221 219 -221c121 0 218 94 218 221zM346 418l74 -106h-65l-64 101h-32v-101h-55v266
h134c43 0 77 -35 77 -79s-32 -74 -69 -81zM259 530v-71h62c20 0 38 12 38 36s-18 35 -39 35h-61z" />
    <glyph glyph-name="section" unicode="&#xa7;" horiz-adv-x="541" 
d="M416 144c27 -31 40 -68 40 -112c0 -113 -96 -167 -199 -167c-54 0 -109 16 -164 47v112h11c52 -47 103 -70 153 -70c56 0 97 33 97 77c0 32 -23 61 -60 77l-115 47c-79 32 -125 91 -125 164c0 54 26 94 77 119c-31 32 -46 71 -46 118c0 55 19 95 58 120s86 38 142 38
c65 0 114 -15 163 -38v-103h-11c-47 35 -97 52 -152 52c-65 0 -98 -25 -98 -68c0 -37 25 -66 76 -87l114 -46c73 -31 110 -92 110 -159c0 -53 -24 -93 -71 -121zM233 239l110 -45c27 15 41 36 41 64c0 36 -21 65 -60 80l-115 48l-2 1c-33 -11 -50 -31 -50 -61
c0 -37 25 -66 76 -87z" />
    <glyph glyph-name="trademark" unicode="&#x2122;" horiz-adv-x="669" 
d="M17 634v66h234v-66h-79v-242h-75v242h-80zM570 700h65v-308h-74v183l-79 -108h-22l-80 107v-182h-73v308h64l100 -138z" />
    <glyph glyph-name="degree" unicode="&#xb0;" horiz-adv-x="439" 
d="M219 713c49 0 90 -15 122 -45c33 -29 49 -69 49 -120s-16 -91 -49 -121c-32 -29 -73 -44 -122 -44s-89 15 -122 44c-33 30 -49 70 -49 121s16 91 49 120c33 30 73 45 122 45zM219 460c52 0 88 36 88 88c0 53 -36 88 -88 88c-51 0 -87 -35 -87 -88c0 -52 36 -88 87 -88z
" />
    <glyph glyph-name="uni2116" unicode="&#x2116;" horiz-adv-x="1219" 
d="M760 515c0 127 92 199 200 199s201 -72 201 -199c0 -128 -93 -200 -201 -200s-200 72 -200 200zM565 208v492h113v-700h-89l-386 492v-492h-113v700h88zM858 515c0 -67 45 -107 102 -107s102 40 102 107s-45 107 -102 107s-102 -40 -102 -107zM788 178v86h344v-86h-344z
" />
    <glyph glyph-name="asciicircum" unicode="^" horiz-adv-x="485" 
d="M439 383h-96l-101 210l-101 -210h-96l163 317h57h11z" />
    <glyph glyph-name="dagger" unicode="&#x2020;" horiz-adv-x="444" 
d="M401 504v-82h-135v-507h-88v507h-135v82h135v196h88v-196h135z" />
    <glyph glyph-name="daggerdbl" unicode="&#x2021;" horiz-adv-x="444" 
d="M401 422h-135v-219h135v-82h-135v-206h-88v206h-135v82h135v219h-135v82h135v196h88v-196h135v-82z" />
    <glyph glyph-name="at.case" horiz-adv-x="980" 
d="M932 372c0 -160 -61 -251 -165 -251c-59 0 -107 34 -118 81c-40 -52 -102 -81 -170 -81c-118 0 -219 86 -219 227s100 227 214 227c64 0 120 -25 156 -74v60h84v-272c0 -61 21 -91 63 -91c53 0 92 52 92 169c3 250 -189 368 -379 367c-208 3 -382 -159 -379 -384
c-3 -226 171 -387 379 -384c71 0 140 15 208 44h9v-62c-73 -27 -145 -40 -217 -40c-244 -3 -446 178 -442 442c-4 264 198 445 442 442c216 2 447 -138 442 -420zM625 348c0 88 -60 137 -133 137s-133 -49 -133 -137s60 -137 133 -137s133 49 133 137z" />
    <glyph glyph-name="uni0308" unicode="&#x308;" 
d="M-306 715c33 0 59 -24 59 -60s-26 -60 -59 -60s-59 24 -59 60s26 60 59 60zM-99 715c33 0 59 -24 59 -60s-26 -60 -59 -60s-59 25 -59 60s26 60 59 60z" />
    <glyph glyph-name="uni0307" unicode="&#x307;" 
d="M-106 725c37 0 66 -25 66 -65s-29 -65 -66 -65s-67 25 -67 65s30 65 67 65z" />
    <glyph glyph-name="gravecomb" unicode="&#x300;" 
d="M-122 584l-98 168h110l70 -168h-82z" />
    <glyph glyph-name="acutecomb" unicode="&#x301;" 
d="M-138 584h-82l70 168h110z" />
    <glyph glyph-name="uni030B" unicode="&#x30b;" 
d="M-284 574h-77l65 168h93zM-139 574h-79l82 168h96z" />
    <glyph glyph-name="uni0302" unicode="&#x302;" 
d="M-40 580h-85l-71 74l-72 -74h-82l120 150h70z" />
    <glyph glyph-name="uni030C" unicode="&#x30c;" 
d="M-122 730h82l-120 -150h-70l-120 150h84l71 -74z" />
    <glyph glyph-name="uni0306" unicode="&#x306;" 
d="M-330 728v10h71v-14c0 -48 26 -75 74 -75s74 27 74 75v14h71v-10c0 -104 -48 -156 -145 -156s-145 52 -145 156z" />
    <glyph glyph-name="uni030A" unicode="&#x30a;" 
d="M-144 759c57 0 104 -37 104 -98c0 -60 -48 -97 -104 -97c-57 0 -105 37 -105 97c0 61 48 98 105 98zM-144 616c24 0 46 17 46 45s-22 46 -46 46s-46 -18 -46 -46s22 -45 46 -45z" />
    <glyph glyph-name="tildecomb" unicode="&#x303;" 
d="M-263 728c45 0 83 -42 93 -50c11 -9 22 -14 31 -14c21 0 32 18 35 55h64c-1 -93 -44 -139 -96 -139c-45 0 -83 42 -93 50c-12 9 -22 14 -31 14c-21 0 -33 -18 -36 -55h-63c1 93 44 139 96 139z" />
    <glyph glyph-name="uni0304" unicode="&#x304;" 
d="M-40 610h-255v81h255v-81z" />
    <glyph glyph-name="uni0312" unicode="&#x312;" 
d="M-85 574h-101l70 182h76z" />
    <glyph glyph-name="uni0326" unicode="&#x326;" 
d="M-141 -54h101l-70 -183h-76z" />
    <glyph glyph-name="uni0327" unicode="&#x327;" 
d="M-223 -195v65c18 -5 33 -8 45 -8c32 0 51 18 51 51c0 27 -11 56 -32 87h76c29 -36 43 -71 43 -106c0 -64 -51 -102 -114 -102c-21 0 -44 4 -69 13z" />
    <glyph glyph-name="uni0328" unicode="&#x328;" 
d="M-123 0h72c-53 -32 -84 -69 -84 -102c0 -25 15 -36 39 -36c15 0 33 5 56 14v-67c-25 -11 -50 -17 -76 -17c-60 0 -106 27 -106 82c0 47 33 89 99 126z" />
    <glyph glyph-name="uni0335" unicode="&#x335;" 
d="M-389 584v75h349v-75h-349z" />
    <glyph glyph-name="uni0336" unicode="&#x336;" 
d="M-758 536v76h718v-76h-718z" />
    <glyph glyph-name="uni0337" unicode="&#x337;" 
d="M-309 212v92l269 169v-92z" />
    <glyph glyph-name="uni0338" unicode="&#x338;" 
d="M-40 516l-411 -569l-57 39l411 569z" />
    <glyph glyph-name="uni0308.case" 
d="M-316 889c35 0 62 -23 62 -60c0 -36 -27 -60 -62 -60s-62 24 -62 60c0 37 27 60 62 60zM-102 889c35 0 62 -23 62 -60c0 -36 -27 -59 -62 -59s-62 23 -62 59c0 37 27 60 62 60z" />
    <glyph glyph-name="uni0307.case" 
d="M-109 898c39 0 69 -25 69 -64s-30 -63 -69 -63s-70 26 -70 63c0 39 30 64 70 64z" />
    <glyph glyph-name="gravecomb.case" 
d="M-128 758l-109 148h115l82 -148h-88z" />
    <glyph glyph-name="acutecomb.case" 
d="M-149 758h-88l82 148h115z" />
    <glyph glyph-name="uni030B.case" 
d="M-303 758h-81l77 148h99zM-154 758h-83l95 148h102z" />
    <glyph glyph-name="uni0302.case" 
d="M-40 762h-89l-70 64l-72 -64h-86l120 132h77z" />
    <glyph glyph-name="uni030C.case" 
d="M-126 894h86l-120 -132h-77l-120 132h89l70 -64z" />
    <glyph glyph-name="uni0306.case" 
d="M-115 902h75v-9c0 -95 -55 -139 -148 -139s-149 44 -149 139v9h75v-11c0 -40 25 -60 74 -60c48 0 73 21 73 60v11z" />
    <glyph glyph-name="uni030A.case" 
d="M-40 836c0 -61 -48 -96 -108 -96s-108 35 -108 96s48 96 108 96s108 -35 108 -96zM-100 836c0 27 -20 43 -48 43s-48 -16 -48 -43c0 -25 20 -43 48 -43s48 18 48 43z" />
    <glyph glyph-name="tildecomb.case" 
d="M-106 889h66c-1 -84 -45 -128 -98 -128c-35 0 -51 12 -91 40c-12 9 -23 13 -32 13c-21 0 -33 -15 -36 -44h-66c1 83 45 127 97 127c44 0 82 -33 92 -41c12 -7 23 -11 32 -11c21 0 33 15 36 44z" />
    <glyph glyph-name="uni0304.case" 
d="M-40 785h-268v80h268v-80z" />
    <glyph glyph-name="uni0312.case" 
d="M-85 752h-101l70 183h76z" />
    <glyph glyph-name="uni0326.case" 
d="M-141 -54h101l-70 -183h-76z" />
    <glyph glyph-name="uni0327.case" 
d="M-223 -195v65c18 -5 33 -8 45 -8c32 0 51 18 51 51c0 27 -11 56 -32 87h76c29 -36 43 -71 43 -106c0 -64 -51 -102 -114 -102c-21 0 -44 4 -69 13z" />
    <glyph glyph-name="uni0328.case" 
d="M-123 0h72c-53 -32 -84 -69 -84 -102c0 -25 15 -36 39 -36c15 0 33 5 56 14v-67c-25 -11 -50 -17 -76 -17c-60 0 -106 27 -106 82c0 47 33 89 99 126z" />
    <glyph glyph-name="uni0335.case" 
d="M-388 321v97h348v-97h-348z" />
    <glyph glyph-name="uni0336.case" 
d="M-758 536v76h718v-76h-718z" />
    <glyph glyph-name="uni0337.case" 
d="M-378 177v95l338 188v-95z" />
    <glyph glyph-name="uni0338.case" 
d="M-40 609l-547 -756l-63 44l547 756z" />
    <glyph glyph-name="brevecombcy" 
d="M-125 736h85v-19c0 -101 -59 -149 -155 -149c-95 0 -155 49 -155 149v19h86v-24c0 -47 28 -73 69 -73s70 26 70 73v24z" />
    <glyph glyph-name="brevecombcy.case" 
d="M-130 904h90v-12c0 -97 -62 -145 -165 -145s-165 48 -165 145v12h90v-17c0 -41 28 -67 75 -67s75 26 75 67v17z" />
    <glyph glyph-name="russianfonts" horiz-adv-x="614" 
d="M67 99c-9 33 -13 71 -13 114c0 204 79 349 191 414c51 31 99 46 143 46c51 0 94 -41 117 -100c11 -26 16 -50 16 -72v-6h-23c-75 0 -116 -9 -165 -49c-27 -21 -52 -53 -77 -95c-25 -41 -43 -84 -54 -127c-11 -45 -17 -84 -17 -115c0 -27 3 -40 8 -40c10 0 24 10 43 30
c31 32 63 91 97 176l33 91c7 18 12 34 16 49h139v-23l-35 -24v-322l35 -23v-23h-173v23l34 23v288l-8 -31c-13 -47 -33 -96 -60 -148c-55 -103 -123 -166 -174 -166c-28 0 -57 42 -73 110z" />
    <glyph glyph-name="uniF408" unicode="&#xf408;" 
d="M-247 584h-82l70 168h110z" />
    <glyph glyph-name="NULL" 
 />
    <glyph glyph-name="CR" horiz-adv-x="235" 
 />
    </font>
</defs>
</svg>
