<svg xmlns="http://www.w3.org/2000/svg" width="146" height="32" viewBox="0 0 146 32">
    <path fill="#000" fill-rule="evenodd" d="M16.96 17.576H4.832c.256 3.328 2.56 4.896 5.376 4.896 1.856 0 3.648-.672 5.408-2.016H16v3.424c-1.888 1.056-4 1.568-5.92 1.568-4.64 0-8.608-2.88-8.608-8.48 0-5.6 3.872-8.48 8.288-8.48 2.144 0 3.904.64 5.248 1.888 1.344 1.248 2.016 3.136 2.048 5.6 0 .544-.032 1.088-.096 1.6zM4.992 15.112h8.768c-.224-2.528-1.632-3.84-4.032-3.84-2.4 0-4.192 1.376-4.736 3.84zm28.768-.224V25h-2.976v-1.6c-1.152 1.28-2.944 2.048-5.024 2.048-3.68 0-6.08-2.208-6.08-5.184 0-3.008 2.528-5.152 6.304-5.152 1.792 0 3.232.448 4.352 1.376v-1.28c0-2.56-1.568-3.68-3.968-3.68-1.536 0-3.072.448-4.576 1.312h-.352V9.576a14.784 14.784 0 0 1 5.504-1.088c4 0 6.816 1.952 6.816 6.4zm-3.168 5.248c0-1.312-1.344-2.4-3.744-2.4-2.4 0-3.744 1.088-3.744 2.4 0 1.376 1.344 2.4 3.744 2.4 2.4 0 3.744-1.024 3.744-2.4zm17.888-8.384h-4.768V19.4c0 1.536.96 2.336 2.496 2.336h2.144V25h-2.72c-3.36 0-5.312-1.664-5.312-4.992v-8.256h-3.648V8.936h3.648v-5.12h3.392v5.12h4.768v2.816zm25.632 5.824H61.984c.256 3.328 2.56 4.896 5.376 4.896 1.856 0 3.648-.672 5.408-2.016h.384v3.424c-1.888 1.056-4 1.568-5.92 1.568-4.64 0-8.608-2.88-8.608-8.48 0-5.6 3.872-8.48 8.288-8.48 2.144 0 3.904.64 5.248 1.888 1.344 1.248 2.016 3.136 2.048 5.6 0 .544-.032 1.088-.096 1.6zm-11.968-2.464h8.768c-.224-2.528-1.632-3.84-4.032-3.84-2.4 0-4.192 1.376-4.736 3.84zm28.768-.224V25h-2.976v-1.6c-1.152 1.28-2.944 2.048-5.024 2.048-3.68 0-6.08-2.208-6.08-5.184 0-3.008 2.528-5.152 6.304-5.152 1.792 0 3.232.448 4.352 1.376v-1.28c0-2.56-1.568-3.68-3.968-3.68-1.536 0-3.072.448-4.576 1.312h-.352V9.576a14.784 14.784 0 0 1 5.504-1.088c4 0 6.816 1.952 6.816 6.4zm-3.168 5.248c0-1.312-1.344-2.4-3.744-2.4-2.4 0-3.744 1.088-3.744 2.4 0 1.376 1.344 2.4 3.744 2.4 2.4 0 3.744-1.024 3.744-2.4zm6.784 4v-3.36h.384c1.44 1.152 3.104 1.728 5.024 1.728 2.048 0 3.072-.544 3.072-1.664 0-.8-.608-1.472-1.792-1.984l-2.88-1.312c-2.368-1.024-3.552-2.592-3.552-4.704 0-1.504.544-2.592 1.632-3.296 1.12-.704 2.464-1.056 4.096-1.056 1.92 0 3.552.448 4.896 1.312v2.976h-.352c-1.44-.992-2.784-1.344-4.32-1.344-1.696 0-2.528.576-2.528 1.504 0 .736.672 1.408 1.984 1.984l2.656 1.216c2.368.992 3.552 2.528 3.552 4.64 0 1.632-.608 2.848-1.824 3.584-1.216.736-2.72 1.088-4.48 1.088-2.176 0-4.16-.544-5.568-1.312zm26.176-15.2h3.616l-9.312 22.272h-3.712l3.712-8.832-6.368-13.44h3.744l4.416 9.856 3.904-9.856zm18.464 2.592c1.952 0 3.616 1.44 3.616 3.616s-1.6 3.584-3.616 3.584c-1.952 0-3.584-1.408-3.584-3.584s1.632-3.616 3.584-3.616z"/>
</svg>
